0
SECTION
2
HEADER
9
$INSUNITS
70
4
9
$ACADVER
1
AC1014
9
$HANDSEED
5
FFFF
0
ENDSEC
0
SECTION
2
TABLES
0
TABLE
2
VPORT
5
8
100
AcDbSymbolTable
0
ENDTAB
0
TABLE
2
LTYPE
5
5
100
AcDbSymbolTable
0
LTYPE
5
14
100
AcDbSymbolTableRecord
100
AcDbLinetypeTableRecord
2
BYBLOCK
70
0
0
LTYPE
5
15
100
AcDbSymbolTableRecord
100
AcDbLinetypeTableRecord
2
BYLAYER
70
0
0
ENDTAB
0
TABLE
2
LAYER
5
2
100
AcDbSymbolTable
70
2
0
LAYER
5
50
100
AcDbSymbolTableRecord
100
AcDbLayerTableRecord
2
0
70
0
6
CONTINUOUS
0
ENDTAB
0
TABLE
2
STYLE
5
3
100
AcDbSymbolTable
70
1
0
STYLE
5
11
100
AcDbSymbolTableRecord
100
AcDbTextStyleTableRecord
2
STANDARD
70
0
0
ENDTAB
0
TABLE
2
VIEW
5
6
100
AcDbSymbolTable
70
0
0
ENDTAB
0
TABLE
2
UCS
5
7
100
AcDbSymbolTable
70
0
0
ENDTAB
0
TABLE
2
APPID
5
9
100
AcDbSymbolTable
70
2
0
APPID
5
12
100
AcDbSymbolTableRecord
100
AcDbRegAppTableRecord
2
ACAD
70
0
0
ENDTAB
0
TABLE
2
DIMSTYLE
5
A
100
AcDbSymbolTable
70
1
0
ENDTAB
0
TABLE
2
BLOCK_RECORD
5
1
100
AcDbSymbolTable
70
1
0
BLOCK_RECORD
5
1F
100
AcDbSymbolTableRecord
100
AcDbBlockTableRecord
2
*MODEL_SPACE
0
BLOCK_RECORD
5
1B
100
AcDbSymbolTableRecord
100
AcDbBlockTableRecord
2
*PAPER_SPACE
0
ENDTAB
0
ENDSEC
0
SECTION
2
BLOCKS
0
BLOCK
5
20
100
AcDbEntity
100
AcDbBlockBegin
2
*MODEL_SPACE
0
ENDBLK
5
21
100
AcDbEntity
100
AcDbBlockEnd
0
BLOCK
5
1C
100
AcDbEntity
100
AcDbBlockBegin
2
*PAPER_SPACE
0
ENDBLK
5
1D
100
AcDbEntity
100
AcDbBlockEnd
0
ENDSEC
0
SECTION
2
ENTITIES
0
CIRCLE
5
100
100
AcDbEntity
8
0
100
AcDbCircle
10
-31.091378007403222
20
13.996070905304743
30
0
40
2.3499999999999988
210
0
220
0
230
1
0
LINE
5
101
100
AcDbEntity
8
0
100
AcDbLine
10
-36.692923458410824
20
18.297288060875786
30
0
11
-31.806190199132729
21
19.885083947081732
31
0
0
ARC
5
102
100
AcDbEntity
8
0
100
AcDbCircle
10
-31.497173204760109
20
18.934027430758004
30
0
40
1.0000000000264555
210
0
220
-0
230
1
100
AcDbArc
50
89.999418178490401
51
107.99999999936723
0
LINE
5
103
100
AcDbEntity
8
0
100
AcDbLine
10
-26.734758810664239
20
19.933979069865565
30
0
11
-31.497163050059108
21
19.9340274307329
31
0
0
ARC
5
104
100
AcDbEntity
8
0
100
AcDbCircle
10
-26.734763809269104
20
19.433979069890551
30
0
40
0.4999999999999985
210
-0
220
0
230
1
100
AcDbArc
50
-0.19792281741946338
51
89.999427202075552
0
LINE
5
105
100
AcDbEntity
8
0
100
AcDbLine
10
-26.238622591249442
20
18.316058632762726
30
0
11
-26.23476679249432
21
19.432251870911227
31
0
0
ARC
5
106
100
AcDbEntity
8
0
100
AcDbCircle
10
-25.738625574459128
20
18.314331438280803
30
0
40
0.49999999999999239
210
0
220
0
230
1
100
AcDbArc
50
179.80207769794484
51
269.99999996754877
0
LINE
5
107
100
AcDbEntity
8
0
100
AcDbLine
10
-19.240355801728249
20
17.814331434004252
30
0
11
-25.738625574742318
21
17.814331434004252
31
0
0
ARC
5
108
100
AcDbEntity
8
0
100
AcDbCircle
10
-19.240355801728249
20
18.314331434004249
30
0
40
0.49999999999999822
210
-0
220
0
230
1
100
AcDbArc
50
-90
51
0
0
LINE
5
109
100
AcDbEntity
8
0
100
AcDbLine
10
-18.740355801728253
20
22.314331434004252
30
0
11
-18.740355801728249
21
18.314331434004249
31
0
0
ARC
5
110
100
AcDbEntity
8
0
100
AcDbCircle
10
-18.240355801728253
20
22.314331434004252
30
0
40
0.49999999999999822
210
0
220
-0
230
1
100
AcDbArc
50
90
51
180
0
LINE
5
111
100
AcDbEntity
8
0
100
AcDbLine
10
-5.2403558017282545
20
22.814331434004256
30
0
11
-18.240355801728253
21
22.814331434004252
31
0
0
ARC
5
112
100
AcDbEntity
8
0
100
AcDbCircle
10
-5.2403558017282537
20
22.314331434004263
30
0
40
0.49999999999999878
210
0
220
0
230
1
100
AcDbArc
50
0
51
90.000000000000099
0
LINE
5
113
100
AcDbEntity
8
0
100
AcDbLine
10
-4.7403558017282634
20
20.331031631678933
30
0
11
-4.7403558017282545
21
22.314331434004263
31
0
0
LINE
5
114
100
AcDbEntity
8
0
100
AcDbLine
10
1.2403558017102538
20
19.831031631678933
30
0
11
-4.2403558017282634
21
19.831031631678933
31
0
0
ARC
5
115
100
AcDbEntity
8
0
100
AcDbCircle
10
-4.2403558017282634
20
20.331031631678933
30
0
40
0.49999999999999989
210
0
220
0
230
1
100
AcDbArc
50
180
51
270
0
ARC
5
116
100
AcDbEntity
8
0
100
AcDbCircle
10
1.2403558017102536
20
19.331031631678933
30
0
40
0.50000000000000133
210
0
220
-0
230
1
100
AcDbArc
50
0
51
89.999999999999972
0
LINE
5
117
100
AcDbEntity
8
0
100
AcDbLine
10
1.7403558017102549
20
19.331031631678933
30
0
11
1.7403558017102705
21
15.814331434004259
31
0
0
ARC
5
118
100
AcDbEntity
8
0
100
AcDbCircle
10
2.2403558017102698
20
15.814331434004259
30
0
40
0.49999999999999933
210
0
220
0
230
1
100
AcDbArc
50
180
51
269.99999999999994
0
LINE
5
119
100
AcDbEntity
8
0
100
AcDbLine
10
2.2403558017102694
20
15.314331434004258
30
0
11
18.240355801710237
21
15.314331434004252
31
0
0
ARC
5
120
100
AcDbEntity
8
0
100
AcDbCircle
10
18.240355801710233
20
14.81433143400425
30
0
40
0.50000000000000266
210
0
220
-0
230
1
100
AcDbArc
50
0
51
89.999999999999588
0
LINE
5
121
100
AcDbEntity
8
0
100
AcDbLine
10
18.740355801710237
20
14.814331434004252
30
0
11
18.740355801710237
21
14.31433143400425
31
0
0
ARC
5
122
100
AcDbEntity
8
0
100
AcDbCircle
10
19.240355801710237
20
14.31433143400425
30
0
40
0.50000000000000044
210
0
220
0
230
1
100
AcDbArc
50
180
51
270
0
LINE
5
123
100
AcDbEntity
8
0
100
AcDbLine
10
19.240355801710237
20
13.81433143400425
30
0
11
25.752443249113533
21
13.814331434004252
31
0
0
ARC
5
124
100
AcDbEntity
8
0
100
AcDbCircle
10
25.752443249113533
20
14.31433143400425
30
0
40
0.49999999999999822
210
-0
220
0
230
1
100
AcDbArc
50
-90
51
0.19792282287016102
0
LINE
5
125
100
AcDbEntity
8
0
100
AcDbLine
10
26.252440265888154
20
14.316058633031146
30
0
11
26.234766792476471
21
19.432251870911252
31
0
0
ARC
5
126
100
AcDbEntity
8
0
100
AcDbCircle
10
26.734763809251092
20
19.433979069938143
30
0
40
0.49999999999999833
210
0
220
0
230
1
100
AcDbArc
50
90.000581821509641
51
180.19792282287014
0
LINE
5
127
100
AcDbEntity
8
0
100
AcDbLine
10
26.734758731900591
20
19.933979069912361
30
0
11
31.497163050041095
21
19.934027430704262
31
0
0
ARC
5
128
100
AcDbEntity
8
0
100
AcDbCircle
10
31.497173204742097
20
18.934027430758004
30
0
40
0.99999999999781264
210
0
220
-0
230
1
100
AcDbArc
50
72.000000000000611
51
90.000581821509641
0
LINE
5
129
100
AcDbEntity
8
0
100
AcDbLine
10
36.692923458392812
20
18.297288060875786
30
0
11
31.806190199116358
21
19.885083947051079
31
0
0
LINE
5
130
100
AcDbEntity
8
0
100
AcDbLine
10
36.244848816549144
20
16.918256112247807
30
0
11
36.692923458392812
21
18.297288060875786
31
0
0
LINE
5
131
100
AcDbEntity
8
0
100
AcDbLine
10
57.643620433190172
20
9.9653737388116923
30
0
11
36.244848816549144
21
16.918256112247807
31
0
0
CIRCLE
5
132
100
AcDbEntity
8
0
100
AcDbCircle
10
31.09137800738521
20
13.996070905304743
30
0
40
2.3499999999999988
210
0
220
0
230
1
0
LINE
5
133
100
AcDbEntity
8
0
100
AcDbLine
10
58.091695075033833
20
11.34440568743967
30
0
11
57.643620433190172
21
9.9653737388116923
31
0
0
LINE
5
134
100
AcDbEntity
8
0
100
AcDbLine
10
62.049653255439551
20
10.058387117759738
30
0
11
58.091695075033833
21
11.34440568743967
31
0
0
ARC
5
135
100
AcDbEntity
8
0
100
AcDbCircle
10
61.740636261064594
20
9.1073306014645805
30
0
40
1.0000000000000053
210
0
220
-0
230
1
100
AcDbArc
50
0
51
71.999999999999531
0
CIRCLE
5
136
100
AcDbEntity
8
0
100
AcDbCircle
10
59.214586298723724
20
6.3886948246813251
30
0
40
1.2750000000000039
210
0
220
0
230
1
0
LINE
5
137
100
AcDbEntity
8
0
100
AcDbLine
10
62.740636261077455
20
-8.5712463345476202
30
0
11
62.740636261064601
21
9.1073306014645805
31
0
0
ARC
5
138
100
AcDbEntity
8
0
100
AcDbCircle
10
61.740636261056984
20
-8.5712463345485368
30
0
40
1.0000000000204661
210
-0
220
0
230
1
100
AcDbArc
50
-74.299723577803903
51
0
0
ARC
5
139
100
AcDbEntity
8
0
100
AcDbCircle
10
62.735109968484856
20
-12.109133704925163
30
0
40
2.6750000000116128
210
0
220
0
230
1
100
AcDbArc
50
105.70027642193998
51
254.29972357797325
0
ARC
5
140
100
AcDbEntity
8
0
100
AcDbCircle
10
61.740636261064608
20
-15.647021075248935
30
0
40
0.99999999999997868
210
0
220
-0
230
1
100
AcDbArc
50
0
51
74.299723577637053
0
LINE
5
141
100
AcDbEntity
8
0
100
AcDbLine
10
62.740636261064594
20
-15.647021075248935
30
0
11
62.740636261064594
21
-16.57702121532861
31
0
0
ARC
5
142
100
AcDbEntity
8
0
100
AcDbCircle
10
62.240636261064601
20
-16.57702121532861
30
0
40
0.499999999999999
210
0
220
0
230
1
100
AcDbArc
50
-45.000000000000306
51
0
0
LINE
5
143
100
AcDbEntity
8
0
100
AcDbLine
10
62.594189651657871
20
-16.930574605921883
30
0
11
57.003326042400637
21
-22.521438215179138
31
0
0
ARC
5
144
100
AcDbEntity
8
0
100
AcDbCircle
10
56.296219261214084
20
-21.814331433992578
30
0
40
1.0000000000000098
210
0
220
0
230
1
100
AcDbArc
50
270
51
314.99999999999972
0
LINE
5
145
100
AcDbEntity
8
0
100
AcDbLine
10
3.1746621455517774
20
-22.814331434004259
30
0
11
56.296219261214084
21
-22.814331433992589
31
0
0
ARC
5
146
100
AcDbEntity
8
0
100
AcDbCircle
10
3.1746621455541413
20
-22.314331434003929
30
0
40
0.50000000000032796
210
0
220
0
230
1
100
AcDbArc
50
179.16413832568901
51
269.99999999972914
0
ARC
5
147
100
AcDbEntity
8
0
100
AcDbCircle
10
-3.6443409463356674e-11
20
-22.268014467821796
30
0
40
2.6750000000000078
210
-0
220
0
230
1
100
AcDbArc
50
-0.83586167431142733
51
180.83586167390504
0
ARC
5
148
100
AcDbEntity
8
0
100
AcDbCircle
10
-3.1746621456270612
20
-22.314331433992926
30
0
40
0.49999999999938538
210
0
220
0
230
1
100
AcDbArc
50
-90.000000000370875
51
0.83586167522192267
0
LINE
5
149
100
AcDbEntity
8
0
100
AcDbLine
10
-56.296219261231485
20
-22.814331433992592
30
0
11
-3.1746621456302977
21
-22.814331433992308
31
0
0
CIRCLE
5
150
100
AcDbEntity
8
0
100
AcDbCircle
10
-5.2473409291565769
20
-8.6943171659825431
30
0
40
1.125
210
0
220
0
230
1
0
CIRCLE
5
151
100
AcDbEntity
8
0
100
AcDbCircle
10
-27.157864205298658
20
-2.5214196193917937
30
0
40
0.27500000000000296
210
0
220
0
230
1
0
CIRCLE
5
152
100
AcDbEntity
8
0
100
AcDbCircle
10
-27.157864205298647
20
4.6785803806082686
30
0
40
0.27500000000000296
210
0
220
0
230
1
0
LINE
5
153
100
AcDbEntity
8
0
100
AcDbLine
10
-25.407864205218633
20
5.5735803805983757
30
0
11
-25.407864205218633
21
5.7735803805982764
31
0
0
LINE
5
154
100
AcDbEntity
8
0
100
AcDbLine
10
-25.407864205218651
20
-3.4264196193848031
30
0
11
-25.407864205218651
21
-3.6264196193848037
31
0
0
ARC
5
155
100
AcDbEntity
8
0
100
AcDbCircle
10
-56.296219261231499
20
-21.814331433992624
30
0
40
0.99999999999996358
210
0
220
0
230
1
100
AcDbArc
50
224.99999999994199
51
270.0000000000008
0
LINE
5
156
100
AcDbEntity
8
0
100
AcDbLine
10
-62.740636261082599
20
-16.784127996503074
30
0
11
-57.003326042418735
21
-22.521438215178428
31
0
0
CIRCLE
5
157
100
AcDbEntity
8
0
100
AcDbCircle
10
-59.214586298741736
20
6.3886948246813251
30
0
40
1.2750000000000039
210
0
220
0
230
1
0
LINE
5
158
100
AcDbEntity
8
0
100
AcDbLine
10
-62.740636261073995
20
-15.647021075268057
30
0
11
-62.740636261082599
21
-16.784127996503074
31
0
0
ARC
5
159
100
AcDbEntity
8
0
100
AcDbCircle
10
-61.740636261082571
20
-15.647021075252457
30
0
40
0.99999999999142342
210
0
220
0
230
1
100
AcDbArc
50
105.70027642139944
51
180
0
ARC
5
160
100
AcDbEntity
8
0
100
AcDbCircle
10
-62.735109968502897
20
-12.109133704915941
30
0
40
2.6749999999999985
210
-0
220
0
230
1
100
AcDbArc
50
-74.299723577685327
51
74.299723577715028
0
ARC
5
161
100
AcDbEntity
8
0
100
AcDbCircle
10
-61.740636261081903
20
-8.5712463345758607
30
0
40
0.99999999999998757
210
0
220
0
230
1
100
AcDbArc
50
180
51
254.29972357853944
0
LINE
5
162
100
AcDbEntity
8
0
100
AcDbLine
10
-62.740636261081889
20
-8.5712463345758643
30
0
11
-62.740636261082614
21
9.1073306014645823
31
0
0
ARC
5
163
100
AcDbEntity
8
0
100
AcDbCircle
10
-61.740636261082606
20
9.1073306014645805
30
0
40
1.0000000000000075
210
0
220
0
230
1
100
AcDbArc
50
108.00000000000045
51
180
0
LINE
5
164
100
AcDbEntity
8
0
100
AcDbLine
10
-62.049653255457564
20
10.058387117759739
30
0
11
-58.091695075051845
21
11.34440568743967
31
0
0
LINE
5
165
100
AcDbEntity
8
0
100
AcDbLine
10
-57.643620433208184
20
9.9653737388116923
30
0
11
-58.091695075051845
21
11.34440568743967
31
0
0
LINE
5
166
100
AcDbEntity
8
0
100
AcDbLine
10
-36.244848816567156
20
16.918256112247807
30
0
11
-57.643620433208184
21
9.9653737388116923
31
0
0
LINE
5
167
100
AcDbEntity
8
0
100
AcDbLine
10
-36.692923458410824
20
18.297288060875786
30
0
11
-36.244848816567156
21
16.918256112247807
31
0
0
LWPOLYLINE
5
168
100
AcDbEntity
8
0
100
AcDbPolyline
90
6
70
1
43
0.0
10
-2.3461512357875272
20
17.700517165601131
10
-4.9004398156158606
20
17.700517165601131
10
-4.9004398156158597
20
9.1862218995066804
10
5.0995601843841403
20
9.1862218995066804
10
5.0995601843841403
20
12.186221899506682
10
-2.3461512357875272
20
12.186221899506682
0
CIRCLE
5
169
100
AcDbEntity
8
0
100
AcDbCircle
10
-41.25034993747623
20
-4.2427621033229519
30
0
40
10.275811799675775
210
0
220
0
230
1
0
CIRCLE
5
170
100
AcDbEntity
8
0
100
AcDbCircle
10
-5.2473409291565769
20
-8.6943171659825431
30
0
40
4.0000000000000018
210
0
220
0
230
1
0
CIRCLE
5
171
100
AcDbEntity
8
0
100
AcDbCircle
10
41.038410689601783
20
-4.3780050895038265
30
0
40
14
210
0
220
0
230
1
0
CIRCLE
5
172
100
AcDbEntity
8
0
100
AcDbCircle
10
-50.2927944219065
20
-4.2414961403567641
30
0
40
1.7499999999999982
210
0
220
0
230
1
0
CIRCLE
5
173
100
AcDbEntity
8
0
100
AcDbCircle
10
-31.934052358482028
20
-4.2414961403567286
30
0
40
1.7499999999999982
210
0
220
0
230
1
0
LINE
5
174
100
AcDbEntity
8
0
100
AcDbLine
10
-41.113423390194242
20
8.4852743420231072
30
0
11
-41.113423390194285
21
-16.9682666227366
31
0
0
CIRCLE
5
175
100
AcDbEntity
8
0
100
AcDbCircle
10
-41.113423390194285
20
4.9378748913554915
30
0
40
1.7499999999999982
210
0
220
0
230
1
0
CIRCLE
5
176
100
AcDbEntity
8
0
100
AcDbCircle
10
-41.113423390194242
20
-13.420867172068984
30
0
40
1.7499999999999982
210
0
220
0
230
1
0
CIRCLE
5
177
100
AcDbEntity
8
0
100
AcDbCircle
10
-12.949190354634377
20
-8.7149450806794899
30
0
40
1
210
0
220
0
230
1
0
CIRCLE
5
178
100
AcDbEntity
8
0
100
AcDbCircle
10
2.5758096453656263
20
-8.7149450806794899
30
0
40
1
210
0
220
0
230
1
0
CIRCLE
5
179
100
AcDbEntity
8
0
100
AcDbCircle
10
27.699257665400737
20
-4.1552257936844628
30
0
40
5.5
210
0
220
0
230
1
0
CIRCLE
5
180
100
AcDbEntity
8
0
100
AcDbCircle
10
41.237703415620636
20
6.3947742063155371
30
0
40
5.5
210
0
220
0
230
1
0
CIRCLE
5
181
100
AcDbEntity
8
0
100
AcDbCircle
10
54.776149165840529
20
-4.1552257936844628
30
0
40
5.5
210
0
220
0
230
1
0
CIRCLE
5
182
100
AcDbEntity
8
0
100
AcDbCircle
10
41.237703415620636
20
-14.705225793684466
30
0
40
5.5
210
0
220
0
230
1
0
LWPOLYLINE
5
183
100
AcDbEntity
8
0
100
AcDbPolyline
90
4
70
1
43
0.0
10
11.211787659659329
20
-1.046901189204315
10
-21.804627781288922
20
-1.046901189204315
10
-21.804627781288922
20
-16.516631634420854
10
11.211787659659329
20
-16.516631634420854
0
CIRCLE
5
184
100
AcDbEntity
8
0
100
AcDbCircle
10
15.222458515826585
20
-10.070910615580633
30
0
40
3.5384485472438545
210
0
220
0
230
1
0
CIRCLE
5
185
100
AcDbEntity
8
0
100
AcDbCircle
10
-41.25034993747623
20
-4.2427621033229519
30
0
40
16.361947919908889
210
0
220
0
230
1
0
CIRCLE
5
186
100
AcDbEntity
8
0
100
AcDbCircle
10
27.699257665400737
20
-4.1552257936844628
30
0
40
7.4536830636453697
210
0
220
0
230
1
0
ENDSEC
0
SECTION
2
OBJECTS
0
DICTIONARY
5
C
100
AcDbDictionary
3
ACAD_GROUP
350
D
3
ACAD_MLINESTYLE
350
17
0
DICTIONARY
5
D
100
AcDbDictionary
0
DICTIONARY
5
1A
330
C
100
AcDbDictionary
0
DICTIONARY
5
17
100
AcDbDictionary
0
ENDSEC
0
EOF
