M48
; DRILL file {KiCad 7.0.6} date Tue Sep 26 11:41:50 2023
; FORMAT={-:-/ absolute / inch / decimal}
; #@! TF.CreationDate,2023-09-26T11:41:50-07:00
; #@! TF.GenerationSoftware,Kicad,Pcbnew,7.0.6
; #@! TF.FileFunction,Plated,1,4,PTH
FMAT,2
INCH
; #@! TA.AperFunction,Plated,PTH,ViaDrill
T1C0.0118
; #@! TA.AperFunction,Plated,PTH,ComponentDrill
T2C0.0157
; #@! TA.AperFunction,Plated,PTH,ComponentDrill
T3C0.0197
; #@! TA.AperFunction,Plated,PTH,ComponentDrill
T4C0.0472
%
G90
G05
T1
X0.754Y-1.87
X0.768Y-1.716
X0.7987Y-1.8883
X0.898Y-1.768
X1.094Y-1.614
X1.28Y-1.404
X1.294Y-1.804
X1.294Y-1.944
X1.374Y-1.914
X1.56Y-1.73
X1.626Y-2.104
X1.676Y-2.04
X1.684Y-1.602
X1.696Y-2.072
X1.706Y-2.208
X1.748Y-1.772
X1.85Y-1.62
X1.896Y-1.708
X1.92Y-1.606
X1.946Y-1.728
X1.9552Y-1.6172
X1.962Y-1.674
X2.138Y-1.392
X2.156Y-1.186
X2.23Y-1.138
X2.236Y-1.566
X2.238Y-1.614
X2.256Y-1.14
X2.266Y-1.644
X2.282Y-1.152
X2.298Y-1.778
X2.31Y-1.154
X2.336Y-1.642
X2.336Y-1.72
X2.338Y-1.154
X2.338Y-1.346
X2.346Y-1.386
X2.3494Y-1.1855
X2.364Y-1.64
X2.364Y-1.712
X2.374Y-1.368
X2.3745Y-1.1786
X2.404Y-1.484
X2.404Y-1.588
X2.424Y-1.362
X2.428Y-1.402
X2.44Y-2.18
X2.478Y-1.27
X2.482Y-0.936
X2.526Y-0.87
X2.526Y-1.086
X2.568Y-2.194
X2.572Y-1.432
X2.576Y-1.784
X2.63Y-1.27
X2.644Y-1.25
X2.722Y-0.886
X2.7317Y-1.1506
X2.732Y-1.324
X2.732Y-1.612
X2.746Y-1.582
X2.76Y-1.688
X2.762Y-1.3
X2.77Y-1.332
X2.772Y-1.612
X2.784Y-1.364
X2.802Y-1.216
X2.804Y-1.404
X2.824Y-1.384
X2.836Y-1.36
X2.8514Y-1.4248
X2.856Y-1.34
X2.9097Y-1.4446
X2.966Y-1.286
X2.984Y-1.758
X3.0586Y-1.1244
X3.086Y-1.542
X3.088Y-1.882
X3.09Y-2.0
X3.0906Y-1.0424
X3.106Y-1.522
X3.1106Y-1.1884
X3.114Y-1.248
X3.132Y-1.484
X3.18Y-2.198
X3.334Y-1.472
X3.342Y-1.272
X3.4008Y-1.707
X3.422Y-1.478
X3.4681Y-1.221
X3.8Y-1.838
X3.818Y-1.858
X3.828Y-1.834
X3.876Y-2.018
X3.898Y-2.032
X3.902Y-2.008
X4.2Y-1.71
X4.276Y-2.12
X4.542Y-1.648
X4.56Y-1.744
X4.74Y-1.284
X4.74Y-1.914
X4.8Y-1.7
X4.8Y-2.53
X5.204Y-1.71
X5.334Y-2.114
X5.4302Y-1.8882
X5.46Y-1.716
X5.4733Y-1.8702
T2
X2.0687Y-1.5657
X2.0687Y-1.6287
X2.0687Y-1.6602
X2.0687Y-1.6917
X2.0687Y-1.7232
X2.0687Y-1.7862
X2.0966Y-1.5815
X2.0966Y-1.6129
X2.0966Y-1.6444
X2.0966Y-1.7074
X2.0966Y-1.7389
X2.0966Y-1.7704
T4
X0.952Y-1.38
X1.64Y-1.156
X2.85Y-0.9
X2.85Y-0.996
X3.684Y-1.418
X3.684Y-1.582
X3.9091Y-1.418
X3.9091Y-1.582
X4.594Y-1.1564
X5.284Y-1.3804
T3
G00X2.1124Y-1.4948
M15
G01X2.0809Y-1.4948
M16
G05
G00X2.1124Y-1.857
M15
G01X2.0809Y-1.857
M16
G05
G00X2.2699Y-1.4948
M15
G01X2.2384Y-1.4948
M16
G05
G00X2.2699Y-1.857
M15
G01X2.2384Y-1.857
M16
G05
T0
M30
