%TF.GenerationSoftware,KiCad,Pcbnew,7.0.6*%
%TF.CreationDate,2023-09-26T11:41:46-07:00*%
%TF.ProjectId,UniSNES,556e6953-4e45-4532-9e6b-696361645f70,rev?*%
%TF.SameCoordinates,Original*%
%TF.FileFunction,Legend,Top*%
%TF.FilePolarity,Positive*%
%FSLAX46Y46*%
G04 Gerber Fmt 4.6, Leading zero omitted, Abs format (unit mm)*
G04 Created by KiCad (PCBNEW 7.0.6) date 2023-09-26 11:41:46*
%MOMM*%
%LPD*%
G01*
G04 APERTURE LIST*
%ADD10C,0.200000*%
%ADD11C,0.150000*%
%ADD12C,0.100000*%
%ADD13C,0.120000*%
%ADD14C,0.152400*%
G04 APERTURE END LIST*
D10*
X58087197Y-61445723D02*
X58087197Y-62457628D01*
X58087197Y-62457628D02*
X58146720Y-62576676D01*
X58146720Y-62576676D02*
X58206244Y-62636200D01*
X58206244Y-62636200D02*
X58325292Y-62695723D01*
X58325292Y-62695723D02*
X58563387Y-62695723D01*
X58563387Y-62695723D02*
X58682435Y-62636200D01*
X58682435Y-62636200D02*
X58741958Y-62576676D01*
X58741958Y-62576676D02*
X58801482Y-62457628D01*
X58801482Y-62457628D02*
X58801482Y-61445723D01*
X59396721Y-61862390D02*
X59396721Y-62695723D01*
X59396721Y-61981438D02*
X59456244Y-61921914D01*
X59456244Y-61921914D02*
X59575292Y-61862390D01*
X59575292Y-61862390D02*
X59753863Y-61862390D01*
X59753863Y-61862390D02*
X59872911Y-61921914D01*
X59872911Y-61921914D02*
X59932435Y-62040961D01*
X59932435Y-62040961D02*
X59932435Y-62695723D01*
X60527673Y-62695723D02*
X60527673Y-61862390D01*
X60527673Y-61445723D02*
X60468149Y-61505247D01*
X60468149Y-61505247D02*
X60527673Y-61564771D01*
X60527673Y-61564771D02*
X60587196Y-61505247D01*
X60587196Y-61505247D02*
X60527673Y-61445723D01*
X60527673Y-61445723D02*
X60527673Y-61564771D01*
X61063387Y-62636200D02*
X61241958Y-62695723D01*
X61241958Y-62695723D02*
X61539577Y-62695723D01*
X61539577Y-62695723D02*
X61658625Y-62636200D01*
X61658625Y-62636200D02*
X61718149Y-62576676D01*
X61718149Y-62576676D02*
X61777672Y-62457628D01*
X61777672Y-62457628D02*
X61777672Y-62338580D01*
X61777672Y-62338580D02*
X61718149Y-62219533D01*
X61718149Y-62219533D02*
X61658625Y-62160009D01*
X61658625Y-62160009D02*
X61539577Y-62100485D01*
X61539577Y-62100485D02*
X61301482Y-62040961D01*
X61301482Y-62040961D02*
X61182434Y-61981438D01*
X61182434Y-61981438D02*
X61122911Y-61921914D01*
X61122911Y-61921914D02*
X61063387Y-61802866D01*
X61063387Y-61802866D02*
X61063387Y-61683819D01*
X61063387Y-61683819D02*
X61122911Y-61564771D01*
X61122911Y-61564771D02*
X61182434Y-61505247D01*
X61182434Y-61505247D02*
X61301482Y-61445723D01*
X61301482Y-61445723D02*
X61599101Y-61445723D01*
X61599101Y-61445723D02*
X61777672Y-61505247D01*
X62313387Y-62695723D02*
X62313387Y-61445723D01*
X62313387Y-61445723D02*
X63027672Y-62695723D01*
X63027672Y-62695723D02*
X63027672Y-61445723D01*
X63622911Y-62040961D02*
X64039577Y-62040961D01*
X64218149Y-62695723D02*
X63622911Y-62695723D01*
X63622911Y-62695723D02*
X63622911Y-61445723D01*
X63622911Y-61445723D02*
X64218149Y-61445723D01*
X64694339Y-62636200D02*
X64872910Y-62695723D01*
X64872910Y-62695723D02*
X65170529Y-62695723D01*
X65170529Y-62695723D02*
X65289577Y-62636200D01*
X65289577Y-62636200D02*
X65349101Y-62576676D01*
X65349101Y-62576676D02*
X65408624Y-62457628D01*
X65408624Y-62457628D02*
X65408624Y-62338580D01*
X65408624Y-62338580D02*
X65349101Y-62219533D01*
X65349101Y-62219533D02*
X65289577Y-62160009D01*
X65289577Y-62160009D02*
X65170529Y-62100485D01*
X65170529Y-62100485D02*
X64932434Y-62040961D01*
X64932434Y-62040961D02*
X64813386Y-61981438D01*
X64813386Y-61981438D02*
X64753863Y-61921914D01*
X64753863Y-61921914D02*
X64694339Y-61802866D01*
X64694339Y-61802866D02*
X64694339Y-61683819D01*
X64694339Y-61683819D02*
X64753863Y-61564771D01*
X64753863Y-61564771D02*
X64813386Y-61505247D01*
X64813386Y-61505247D02*
X64932434Y-61445723D01*
X64932434Y-61445723D02*
X65230053Y-61445723D01*
X65230053Y-61445723D02*
X65408624Y-61505247D01*
X66718148Y-61445723D02*
X67134815Y-62695723D01*
X67134815Y-62695723D02*
X67551481Y-61445723D01*
X68622910Y-62695723D02*
X67908625Y-62695723D01*
X68265768Y-62695723D02*
X68265768Y-61445723D01*
X68265768Y-61445723D02*
X68146720Y-61624295D01*
X68146720Y-61624295D02*
X68027672Y-61743342D01*
X68027672Y-61743342D02*
X67908625Y-61802866D01*
X58087197Y-64708223D02*
X58087197Y-63458223D01*
X58087197Y-63458223D02*
X58384816Y-63458223D01*
X58384816Y-63458223D02*
X58563387Y-63517747D01*
X58563387Y-63517747D02*
X58682435Y-63636795D01*
X58682435Y-63636795D02*
X58741958Y-63755842D01*
X58741958Y-63755842D02*
X58801482Y-63993938D01*
X58801482Y-63993938D02*
X58801482Y-64172509D01*
X58801482Y-64172509D02*
X58741958Y-64410604D01*
X58741958Y-64410604D02*
X58682435Y-64529652D01*
X58682435Y-64529652D02*
X58563387Y-64648700D01*
X58563387Y-64648700D02*
X58384816Y-64708223D01*
X58384816Y-64708223D02*
X58087197Y-64708223D01*
X59813387Y-64648700D02*
X59694339Y-64708223D01*
X59694339Y-64708223D02*
X59456244Y-64708223D01*
X59456244Y-64708223D02*
X59337197Y-64648700D01*
X59337197Y-64648700D02*
X59277673Y-64529652D01*
X59277673Y-64529652D02*
X59277673Y-64053461D01*
X59277673Y-64053461D02*
X59337197Y-63934414D01*
X59337197Y-63934414D02*
X59456244Y-63874890D01*
X59456244Y-63874890D02*
X59694339Y-63874890D01*
X59694339Y-63874890D02*
X59813387Y-63934414D01*
X59813387Y-63934414D02*
X59872911Y-64053461D01*
X59872911Y-64053461D02*
X59872911Y-64172509D01*
X59872911Y-64172509D02*
X59277673Y-64291557D01*
X60349102Y-64648700D02*
X60468149Y-64708223D01*
X60468149Y-64708223D02*
X60706245Y-64708223D01*
X60706245Y-64708223D02*
X60825292Y-64648700D01*
X60825292Y-64648700D02*
X60884816Y-64529652D01*
X60884816Y-64529652D02*
X60884816Y-64470128D01*
X60884816Y-64470128D02*
X60825292Y-64351080D01*
X60825292Y-64351080D02*
X60706245Y-64291557D01*
X60706245Y-64291557D02*
X60527673Y-64291557D01*
X60527673Y-64291557D02*
X60408626Y-64232033D01*
X60408626Y-64232033D02*
X60349102Y-64112985D01*
X60349102Y-64112985D02*
X60349102Y-64053461D01*
X60349102Y-64053461D02*
X60408626Y-63934414D01*
X60408626Y-63934414D02*
X60527673Y-63874890D01*
X60527673Y-63874890D02*
X60706245Y-63874890D01*
X60706245Y-63874890D02*
X60825292Y-63934414D01*
X61420531Y-64708223D02*
X61420531Y-63874890D01*
X61420531Y-63458223D02*
X61361007Y-63517747D01*
X61361007Y-63517747D02*
X61420531Y-63577271D01*
X61420531Y-63577271D02*
X61480054Y-63517747D01*
X61480054Y-63517747D02*
X61420531Y-63458223D01*
X61420531Y-63458223D02*
X61420531Y-63577271D01*
X62551483Y-63874890D02*
X62551483Y-64886795D01*
X62551483Y-64886795D02*
X62491959Y-65005842D01*
X62491959Y-65005842D02*
X62432435Y-65065366D01*
X62432435Y-65065366D02*
X62313388Y-65124890D01*
X62313388Y-65124890D02*
X62134816Y-65124890D01*
X62134816Y-65124890D02*
X62015769Y-65065366D01*
X62551483Y-64648700D02*
X62432435Y-64708223D01*
X62432435Y-64708223D02*
X62194340Y-64708223D01*
X62194340Y-64708223D02*
X62075292Y-64648700D01*
X62075292Y-64648700D02*
X62015769Y-64589176D01*
X62015769Y-64589176D02*
X61956245Y-64470128D01*
X61956245Y-64470128D02*
X61956245Y-64112985D01*
X61956245Y-64112985D02*
X62015769Y-63993938D01*
X62015769Y-63993938D02*
X62075292Y-63934414D01*
X62075292Y-63934414D02*
X62194340Y-63874890D01*
X62194340Y-63874890D02*
X62432435Y-63874890D01*
X62432435Y-63874890D02*
X62551483Y-63934414D01*
X63146721Y-63874890D02*
X63146721Y-64708223D01*
X63146721Y-63993938D02*
X63206244Y-63934414D01*
X63206244Y-63934414D02*
X63325292Y-63874890D01*
X63325292Y-63874890D02*
X63503863Y-63874890D01*
X63503863Y-63874890D02*
X63622911Y-63934414D01*
X63622911Y-63934414D02*
X63682435Y-64053461D01*
X63682435Y-64053461D02*
X63682435Y-64708223D01*
X64753863Y-64648700D02*
X64634815Y-64708223D01*
X64634815Y-64708223D02*
X64396720Y-64708223D01*
X64396720Y-64708223D02*
X64277673Y-64648700D01*
X64277673Y-64648700D02*
X64218149Y-64529652D01*
X64218149Y-64529652D02*
X64218149Y-64053461D01*
X64218149Y-64053461D02*
X64277673Y-63934414D01*
X64277673Y-63934414D02*
X64396720Y-63874890D01*
X64396720Y-63874890D02*
X64634815Y-63874890D01*
X64634815Y-63874890D02*
X64753863Y-63934414D01*
X64753863Y-63934414D02*
X64813387Y-64053461D01*
X64813387Y-64053461D02*
X64813387Y-64172509D01*
X64813387Y-64172509D02*
X64218149Y-64291557D01*
X65884816Y-64708223D02*
X65884816Y-63458223D01*
X65884816Y-64648700D02*
X65765768Y-64708223D01*
X65765768Y-64708223D02*
X65527673Y-64708223D01*
X65527673Y-64708223D02*
X65408625Y-64648700D01*
X65408625Y-64648700D02*
X65349102Y-64589176D01*
X65349102Y-64589176D02*
X65289578Y-64470128D01*
X65289578Y-64470128D02*
X65289578Y-64112985D01*
X65289578Y-64112985D02*
X65349102Y-63993938D01*
X65349102Y-63993938D02*
X65408625Y-63934414D01*
X65408625Y-63934414D02*
X65527673Y-63874890D01*
X65527673Y-63874890D02*
X65765768Y-63874890D01*
X65765768Y-63874890D02*
X65884816Y-63934414D01*
X67432435Y-64708223D02*
X67432435Y-63458223D01*
X67432435Y-63934414D02*
X67551482Y-63874890D01*
X67551482Y-63874890D02*
X67789577Y-63874890D01*
X67789577Y-63874890D02*
X67908625Y-63934414D01*
X67908625Y-63934414D02*
X67968149Y-63993938D01*
X67968149Y-63993938D02*
X68027673Y-64112985D01*
X68027673Y-64112985D02*
X68027673Y-64470128D01*
X68027673Y-64470128D02*
X67968149Y-64589176D01*
X67968149Y-64589176D02*
X67908625Y-64648700D01*
X67908625Y-64648700D02*
X67789577Y-64708223D01*
X67789577Y-64708223D02*
X67551482Y-64708223D01*
X67551482Y-64708223D02*
X67432435Y-64648700D01*
X68444339Y-63874890D02*
X68741958Y-64708223D01*
X69039577Y-63874890D02*
X68741958Y-64708223D01*
X68741958Y-64708223D02*
X68622910Y-65005842D01*
X68622910Y-65005842D02*
X68563387Y-65065366D01*
X68563387Y-65065366D02*
X68444339Y-65124890D01*
X70468149Y-64708223D02*
X70468149Y-63458223D01*
X70468149Y-63458223D02*
X70884815Y-64351080D01*
X70884815Y-64351080D02*
X71301482Y-63458223D01*
X71301482Y-63458223D02*
X71301482Y-64708223D01*
X71896720Y-64708223D02*
X71896720Y-63874890D01*
X71896720Y-63458223D02*
X71837196Y-63517747D01*
X71837196Y-63517747D02*
X71896720Y-63577271D01*
X71896720Y-63577271D02*
X71956243Y-63517747D01*
X71956243Y-63517747D02*
X71896720Y-63458223D01*
X71896720Y-63458223D02*
X71896720Y-63577271D01*
X72313386Y-63874890D02*
X72789577Y-63874890D01*
X72491958Y-63458223D02*
X72491958Y-64529652D01*
X72491958Y-64529652D02*
X72551481Y-64648700D01*
X72551481Y-64648700D02*
X72670529Y-64708223D01*
X72670529Y-64708223D02*
X72789577Y-64708223D01*
X73741958Y-64648700D02*
X73622910Y-64708223D01*
X73622910Y-64708223D02*
X73384815Y-64708223D01*
X73384815Y-64708223D02*
X73265767Y-64648700D01*
X73265767Y-64648700D02*
X73206244Y-64589176D01*
X73206244Y-64589176D02*
X73146720Y-64470128D01*
X73146720Y-64470128D02*
X73146720Y-64112985D01*
X73146720Y-64112985D02*
X73206244Y-63993938D01*
X73206244Y-63993938D02*
X73265767Y-63934414D01*
X73265767Y-63934414D02*
X73384815Y-63874890D01*
X73384815Y-63874890D02*
X73622910Y-63874890D01*
X73622910Y-63874890D02*
X73741958Y-63934414D01*
X74277673Y-64708223D02*
X74277673Y-63458223D01*
X74813387Y-64708223D02*
X74813387Y-64053461D01*
X74813387Y-64053461D02*
X74753863Y-63934414D01*
X74753863Y-63934414D02*
X74634815Y-63874890D01*
X74634815Y-63874890D02*
X74456244Y-63874890D01*
X74456244Y-63874890D02*
X74337196Y-63934414D01*
X74337196Y-63934414D02*
X74277673Y-63993938D01*
D11*
X74677600Y-36032971D02*
X74477600Y-35747257D01*
X74334743Y-36032971D02*
X74334743Y-35432971D01*
X74334743Y-35432971D02*
X74563314Y-35432971D01*
X74563314Y-35432971D02*
X74620457Y-35461542D01*
X74620457Y-35461542D02*
X74649028Y-35490114D01*
X74649028Y-35490114D02*
X74677600Y-35547257D01*
X74677600Y-35547257D02*
X74677600Y-35632971D01*
X74677600Y-35632971D02*
X74649028Y-35690114D01*
X74649028Y-35690114D02*
X74620457Y-35718685D01*
X74620457Y-35718685D02*
X74563314Y-35747257D01*
X74563314Y-35747257D02*
X74334743Y-35747257D01*
X74877600Y-35432971D02*
X75277600Y-35432971D01*
X75277600Y-35432971D02*
X75020457Y-36032971D01*
X89068171Y-30103714D02*
X88782457Y-30303714D01*
X89068171Y-30446571D02*
X88468171Y-30446571D01*
X88468171Y-30446571D02*
X88468171Y-30218000D01*
X88468171Y-30218000D02*
X88496742Y-30160857D01*
X88496742Y-30160857D02*
X88525314Y-30132286D01*
X88525314Y-30132286D02*
X88582457Y-30103714D01*
X88582457Y-30103714D02*
X88668171Y-30103714D01*
X88668171Y-30103714D02*
X88725314Y-30132286D01*
X88725314Y-30132286D02*
X88753885Y-30160857D01*
X88753885Y-30160857D02*
X88782457Y-30218000D01*
X88782457Y-30218000D02*
X88782457Y-30446571D01*
X89068171Y-29532286D02*
X89068171Y-29875143D01*
X89068171Y-29703714D02*
X88468171Y-29703714D01*
X88468171Y-29703714D02*
X88553885Y-29760857D01*
X88553885Y-29760857D02*
X88611028Y-29818000D01*
X88611028Y-29818000D02*
X88639600Y-29875143D01*
X89068171Y-29246571D02*
X89068171Y-29132285D01*
X89068171Y-29132285D02*
X89039600Y-29075142D01*
X89039600Y-29075142D02*
X89011028Y-29046571D01*
X89011028Y-29046571D02*
X88925314Y-28989428D01*
X88925314Y-28989428D02*
X88811028Y-28960857D01*
X88811028Y-28960857D02*
X88582457Y-28960857D01*
X88582457Y-28960857D02*
X88525314Y-28989428D01*
X88525314Y-28989428D02*
X88496742Y-29018000D01*
X88496742Y-29018000D02*
X88468171Y-29075142D01*
X88468171Y-29075142D02*
X88468171Y-29189428D01*
X88468171Y-29189428D02*
X88496742Y-29246571D01*
X88496742Y-29246571D02*
X88525314Y-29275142D01*
X88525314Y-29275142D02*
X88582457Y-29303714D01*
X88582457Y-29303714D02*
X88725314Y-29303714D01*
X88725314Y-29303714D02*
X88782457Y-29275142D01*
X88782457Y-29275142D02*
X88811028Y-29246571D01*
X88811028Y-29246571D02*
X88839600Y-29189428D01*
X88839600Y-29189428D02*
X88839600Y-29075142D01*
X88839600Y-29075142D02*
X88811028Y-29018000D01*
X88811028Y-29018000D02*
X88782457Y-28989428D01*
X88782457Y-28989428D02*
X88725314Y-28960857D01*
X68235348Y-34898333D02*
X68235348Y-34412619D01*
X68235348Y-34412619D02*
X68206777Y-34355476D01*
X68206777Y-34355476D02*
X68178206Y-34326905D01*
X68178206Y-34326905D02*
X68121063Y-34298333D01*
X68121063Y-34298333D02*
X68006777Y-34298333D01*
X68006777Y-34298333D02*
X67949634Y-34326905D01*
X67949634Y-34326905D02*
X67921063Y-34355476D01*
X67921063Y-34355476D02*
X67892491Y-34412619D01*
X67892491Y-34412619D02*
X67892491Y-34898333D01*
X67292492Y-34298333D02*
X67635349Y-34298333D01*
X67463920Y-34298333D02*
X67463920Y-34898333D01*
X67463920Y-34898333D02*
X67521063Y-34812619D01*
X67521063Y-34812619D02*
X67578206Y-34755476D01*
X67578206Y-34755476D02*
X67635349Y-34726905D01*
X70156400Y-36439371D02*
X69956400Y-36153657D01*
X69813543Y-36439371D02*
X69813543Y-35839371D01*
X69813543Y-35839371D02*
X70042114Y-35839371D01*
X70042114Y-35839371D02*
X70099257Y-35867942D01*
X70099257Y-35867942D02*
X70127828Y-35896514D01*
X70127828Y-35896514D02*
X70156400Y-35953657D01*
X70156400Y-35953657D02*
X70156400Y-36039371D01*
X70156400Y-36039371D02*
X70127828Y-36096514D01*
X70127828Y-36096514D02*
X70099257Y-36125085D01*
X70099257Y-36125085D02*
X70042114Y-36153657D01*
X70042114Y-36153657D02*
X69813543Y-36153657D01*
X70384971Y-35896514D02*
X70413543Y-35867942D01*
X70413543Y-35867942D02*
X70470686Y-35839371D01*
X70470686Y-35839371D02*
X70613543Y-35839371D01*
X70613543Y-35839371D02*
X70670686Y-35867942D01*
X70670686Y-35867942D02*
X70699257Y-35896514D01*
X70699257Y-35896514D02*
X70727828Y-35953657D01*
X70727828Y-35953657D02*
X70727828Y-36010800D01*
X70727828Y-36010800D02*
X70699257Y-36096514D01*
X70699257Y-36096514D02*
X70356400Y-36439371D01*
X70356400Y-36439371D02*
X70727828Y-36439371D01*
X73878971Y-29106799D02*
X73593257Y-29306799D01*
X73878971Y-29449656D02*
X73278971Y-29449656D01*
X73278971Y-29449656D02*
X73278971Y-29221085D01*
X73278971Y-29221085D02*
X73307542Y-29163942D01*
X73307542Y-29163942D02*
X73336114Y-29135371D01*
X73336114Y-29135371D02*
X73393257Y-29106799D01*
X73393257Y-29106799D02*
X73478971Y-29106799D01*
X73478971Y-29106799D02*
X73536114Y-29135371D01*
X73536114Y-29135371D02*
X73564685Y-29163942D01*
X73564685Y-29163942D02*
X73593257Y-29221085D01*
X73593257Y-29221085D02*
X73593257Y-29449656D01*
X73878971Y-28821085D02*
X73878971Y-28706799D01*
X73878971Y-28706799D02*
X73850400Y-28649656D01*
X73850400Y-28649656D02*
X73821828Y-28621085D01*
X73821828Y-28621085D02*
X73736114Y-28563942D01*
X73736114Y-28563942D02*
X73621828Y-28535371D01*
X73621828Y-28535371D02*
X73393257Y-28535371D01*
X73393257Y-28535371D02*
X73336114Y-28563942D01*
X73336114Y-28563942D02*
X73307542Y-28592514D01*
X73307542Y-28592514D02*
X73278971Y-28649656D01*
X73278971Y-28649656D02*
X73278971Y-28763942D01*
X73278971Y-28763942D02*
X73307542Y-28821085D01*
X73307542Y-28821085D02*
X73336114Y-28849656D01*
X73336114Y-28849656D02*
X73393257Y-28878228D01*
X73393257Y-28878228D02*
X73536114Y-28878228D01*
X73536114Y-28878228D02*
X73593257Y-28849656D01*
X73593257Y-28849656D02*
X73621828Y-28821085D01*
X73621828Y-28821085D02*
X73650400Y-28763942D01*
X73650400Y-28763942D02*
X73650400Y-28649656D01*
X73650400Y-28649656D02*
X73621828Y-28592514D01*
X73621828Y-28592514D02*
X73593257Y-28563942D01*
X73593257Y-28563942D02*
X73536114Y-28535371D01*
X73878971Y-27531999D02*
X73593257Y-27731999D01*
X73878971Y-27874856D02*
X73278971Y-27874856D01*
X73278971Y-27874856D02*
X73278971Y-27646285D01*
X73278971Y-27646285D02*
X73307542Y-27589142D01*
X73307542Y-27589142D02*
X73336114Y-27560571D01*
X73336114Y-27560571D02*
X73393257Y-27531999D01*
X73393257Y-27531999D02*
X73478971Y-27531999D01*
X73478971Y-27531999D02*
X73536114Y-27560571D01*
X73536114Y-27560571D02*
X73564685Y-27589142D01*
X73564685Y-27589142D02*
X73593257Y-27646285D01*
X73593257Y-27646285D02*
X73593257Y-27874856D01*
X73536114Y-27189142D02*
X73507542Y-27246285D01*
X73507542Y-27246285D02*
X73478971Y-27274856D01*
X73478971Y-27274856D02*
X73421828Y-27303428D01*
X73421828Y-27303428D02*
X73393257Y-27303428D01*
X73393257Y-27303428D02*
X73336114Y-27274856D01*
X73336114Y-27274856D02*
X73307542Y-27246285D01*
X73307542Y-27246285D02*
X73278971Y-27189142D01*
X73278971Y-27189142D02*
X73278971Y-27074856D01*
X73278971Y-27074856D02*
X73307542Y-27017714D01*
X73307542Y-27017714D02*
X73336114Y-26989142D01*
X73336114Y-26989142D02*
X73393257Y-26960571D01*
X73393257Y-26960571D02*
X73421828Y-26960571D01*
X73421828Y-26960571D02*
X73478971Y-26989142D01*
X73478971Y-26989142D02*
X73507542Y-27017714D01*
X73507542Y-27017714D02*
X73536114Y-27074856D01*
X73536114Y-27074856D02*
X73536114Y-27189142D01*
X73536114Y-27189142D02*
X73564685Y-27246285D01*
X73564685Y-27246285D02*
X73593257Y-27274856D01*
X73593257Y-27274856D02*
X73650400Y-27303428D01*
X73650400Y-27303428D02*
X73764685Y-27303428D01*
X73764685Y-27303428D02*
X73821828Y-27274856D01*
X73821828Y-27274856D02*
X73850400Y-27246285D01*
X73850400Y-27246285D02*
X73878971Y-27189142D01*
X73878971Y-27189142D02*
X73878971Y-27074856D01*
X73878971Y-27074856D02*
X73850400Y-27017714D01*
X73850400Y-27017714D02*
X73821828Y-26989142D01*
X73821828Y-26989142D02*
X73764685Y-26960571D01*
X73764685Y-26960571D02*
X73650400Y-26960571D01*
X73650400Y-26960571D02*
X73593257Y-26989142D01*
X73593257Y-26989142D02*
X73564685Y-27017714D01*
X73564685Y-27017714D02*
X73536114Y-27074856D01*
X75076057Y-32178514D02*
X75018914Y-32149942D01*
X75018914Y-32149942D02*
X74961771Y-32092800D01*
X74961771Y-32092800D02*
X74876057Y-32007085D01*
X74876057Y-32007085D02*
X74818914Y-31978514D01*
X74818914Y-31978514D02*
X74761771Y-31978514D01*
X74790342Y-32121371D02*
X74733200Y-32092800D01*
X74733200Y-32092800D02*
X74676057Y-32035657D01*
X74676057Y-32035657D02*
X74647485Y-31921371D01*
X74647485Y-31921371D02*
X74647485Y-31721371D01*
X74647485Y-31721371D02*
X74676057Y-31607085D01*
X74676057Y-31607085D02*
X74733200Y-31549942D01*
X74733200Y-31549942D02*
X74790342Y-31521371D01*
X74790342Y-31521371D02*
X74904628Y-31521371D01*
X74904628Y-31521371D02*
X74961771Y-31549942D01*
X74961771Y-31549942D02*
X75018914Y-31607085D01*
X75018914Y-31607085D02*
X75047485Y-31721371D01*
X75047485Y-31721371D02*
X75047485Y-31921371D01*
X75047485Y-31921371D02*
X75018914Y-32035657D01*
X75018914Y-32035657D02*
X74961771Y-32092800D01*
X74961771Y-32092800D02*
X74904628Y-32121371D01*
X74904628Y-32121371D02*
X74790342Y-32121371D01*
X75276056Y-31578514D02*
X75304628Y-31549942D01*
X75304628Y-31549942D02*
X75361771Y-31521371D01*
X75361771Y-31521371D02*
X75504628Y-31521371D01*
X75504628Y-31521371D02*
X75561771Y-31549942D01*
X75561771Y-31549942D02*
X75590342Y-31578514D01*
X75590342Y-31578514D02*
X75618913Y-31635657D01*
X75618913Y-31635657D02*
X75618913Y-31692800D01*
X75618913Y-31692800D02*
X75590342Y-31778514D01*
X75590342Y-31778514D02*
X75247485Y-32121371D01*
X75247485Y-32121371D02*
X75618913Y-32121371D01*
X62285656Y-39547771D02*
X62628514Y-39547771D01*
X62457085Y-40147771D02*
X62457085Y-39547771D01*
X62828514Y-40147771D02*
X62828514Y-39547771D01*
X62828514Y-39547771D02*
X63057085Y-39547771D01*
X63057085Y-39547771D02*
X63114228Y-39576342D01*
X63114228Y-39576342D02*
X63142799Y-39604914D01*
X63142799Y-39604914D02*
X63171371Y-39662057D01*
X63171371Y-39662057D02*
X63171371Y-39747771D01*
X63171371Y-39747771D02*
X63142799Y-39804914D01*
X63142799Y-39804914D02*
X63114228Y-39833485D01*
X63114228Y-39833485D02*
X63057085Y-39862057D01*
X63057085Y-39862057D02*
X62828514Y-39862057D01*
X63399942Y-39604914D02*
X63428514Y-39576342D01*
X63428514Y-39576342D02*
X63485657Y-39547771D01*
X63485657Y-39547771D02*
X63628514Y-39547771D01*
X63628514Y-39547771D02*
X63685657Y-39576342D01*
X63685657Y-39576342D02*
X63714228Y-39604914D01*
X63714228Y-39604914D02*
X63742799Y-39662057D01*
X63742799Y-39662057D02*
X63742799Y-39719200D01*
X63742799Y-39719200D02*
X63714228Y-39804914D01*
X63714228Y-39804914D02*
X63371371Y-40147771D01*
X63371371Y-40147771D02*
X63742799Y-40147771D01*
X62442628Y-25195199D02*
X62471200Y-25223771D01*
X62471200Y-25223771D02*
X62499771Y-25309485D01*
X62499771Y-25309485D02*
X62499771Y-25366628D01*
X62499771Y-25366628D02*
X62471200Y-25452342D01*
X62471200Y-25452342D02*
X62414057Y-25509485D01*
X62414057Y-25509485D02*
X62356914Y-25538056D01*
X62356914Y-25538056D02*
X62242628Y-25566628D01*
X62242628Y-25566628D02*
X62156914Y-25566628D01*
X62156914Y-25566628D02*
X62042628Y-25538056D01*
X62042628Y-25538056D02*
X61985485Y-25509485D01*
X61985485Y-25509485D02*
X61928342Y-25452342D01*
X61928342Y-25452342D02*
X61899771Y-25366628D01*
X61899771Y-25366628D02*
X61899771Y-25309485D01*
X61899771Y-25309485D02*
X61928342Y-25223771D01*
X61928342Y-25223771D02*
X61956914Y-25195199D01*
X61956914Y-24966628D02*
X61928342Y-24938056D01*
X61928342Y-24938056D02*
X61899771Y-24880914D01*
X61899771Y-24880914D02*
X61899771Y-24738056D01*
X61899771Y-24738056D02*
X61928342Y-24680914D01*
X61928342Y-24680914D02*
X61956914Y-24652342D01*
X61956914Y-24652342D02*
X62014057Y-24623771D01*
X62014057Y-24623771D02*
X62071200Y-24623771D01*
X62071200Y-24623771D02*
X62156914Y-24652342D01*
X62156914Y-24652342D02*
X62499771Y-24995199D01*
X62499771Y-24995199D02*
X62499771Y-24623771D01*
X38812800Y-45075371D02*
X38527086Y-45075371D01*
X38527086Y-45075371D02*
X38527086Y-44475371D01*
X39327085Y-45075371D02*
X38984228Y-45075371D01*
X39155657Y-45075371D02*
X39155657Y-44475371D01*
X39155657Y-44475371D02*
X39098514Y-44561085D01*
X39098514Y-44561085D02*
X39041371Y-44618228D01*
X39041371Y-44618228D02*
X38984228Y-44646800D01*
X91563714Y-33178742D02*
X91535142Y-33235885D01*
X91535142Y-33235885D02*
X91478000Y-33293028D01*
X91478000Y-33293028D02*
X91392285Y-33378742D01*
X91392285Y-33378742D02*
X91363714Y-33435885D01*
X91363714Y-33435885D02*
X91363714Y-33493028D01*
X91506571Y-33464457D02*
X91478000Y-33521600D01*
X91478000Y-33521600D02*
X91420857Y-33578742D01*
X91420857Y-33578742D02*
X91306571Y-33607314D01*
X91306571Y-33607314D02*
X91106571Y-33607314D01*
X91106571Y-33607314D02*
X90992285Y-33578742D01*
X90992285Y-33578742D02*
X90935142Y-33521600D01*
X90935142Y-33521600D02*
X90906571Y-33464457D01*
X90906571Y-33464457D02*
X90906571Y-33350171D01*
X90906571Y-33350171D02*
X90935142Y-33293028D01*
X90935142Y-33293028D02*
X90992285Y-33235885D01*
X90992285Y-33235885D02*
X91106571Y-33207314D01*
X91106571Y-33207314D02*
X91306571Y-33207314D01*
X91306571Y-33207314D02*
X91420857Y-33235885D01*
X91420857Y-33235885D02*
X91478000Y-33293028D01*
X91478000Y-33293028D02*
X91506571Y-33350171D01*
X91506571Y-33350171D02*
X91506571Y-33464457D01*
X90906571Y-32664457D02*
X90906571Y-32950171D01*
X90906571Y-32950171D02*
X91192285Y-32978743D01*
X91192285Y-32978743D02*
X91163714Y-32950171D01*
X91163714Y-32950171D02*
X91135142Y-32893029D01*
X91135142Y-32893029D02*
X91135142Y-32750171D01*
X91135142Y-32750171D02*
X91163714Y-32693029D01*
X91163714Y-32693029D02*
X91192285Y-32664457D01*
X91192285Y-32664457D02*
X91249428Y-32635886D01*
X91249428Y-32635886D02*
X91392285Y-32635886D01*
X91392285Y-32635886D02*
X91449428Y-32664457D01*
X91449428Y-32664457D02*
X91478000Y-32693029D01*
X91478000Y-32693029D02*
X91506571Y-32750171D01*
X91506571Y-32750171D02*
X91506571Y-32893029D01*
X91506571Y-32893029D02*
X91478000Y-32950171D01*
X91478000Y-32950171D02*
X91449428Y-32978743D01*
X121316326Y-44804472D02*
X121030612Y-44804472D01*
X121030612Y-44804472D02*
X121030612Y-44204472D01*
X121602040Y-44461615D02*
X121544897Y-44433043D01*
X121544897Y-44433043D02*
X121516326Y-44404472D01*
X121516326Y-44404472D02*
X121487754Y-44347329D01*
X121487754Y-44347329D02*
X121487754Y-44318758D01*
X121487754Y-44318758D02*
X121516326Y-44261615D01*
X121516326Y-44261615D02*
X121544897Y-44233043D01*
X121544897Y-44233043D02*
X121602040Y-44204472D01*
X121602040Y-44204472D02*
X121716326Y-44204472D01*
X121716326Y-44204472D02*
X121773469Y-44233043D01*
X121773469Y-44233043D02*
X121802040Y-44261615D01*
X121802040Y-44261615D02*
X121830611Y-44318758D01*
X121830611Y-44318758D02*
X121830611Y-44347329D01*
X121830611Y-44347329D02*
X121802040Y-44404472D01*
X121802040Y-44404472D02*
X121773469Y-44433043D01*
X121773469Y-44433043D02*
X121716326Y-44461615D01*
X121716326Y-44461615D02*
X121602040Y-44461615D01*
X121602040Y-44461615D02*
X121544897Y-44490186D01*
X121544897Y-44490186D02*
X121516326Y-44518758D01*
X121516326Y-44518758D02*
X121487754Y-44575901D01*
X121487754Y-44575901D02*
X121487754Y-44690186D01*
X121487754Y-44690186D02*
X121516326Y-44747329D01*
X121516326Y-44747329D02*
X121544897Y-44775901D01*
X121544897Y-44775901D02*
X121602040Y-44804472D01*
X121602040Y-44804472D02*
X121716326Y-44804472D01*
X121716326Y-44804472D02*
X121773469Y-44775901D01*
X121773469Y-44775901D02*
X121802040Y-44747329D01*
X121802040Y-44747329D02*
X121830611Y-44690186D01*
X121830611Y-44690186D02*
X121830611Y-44575901D01*
X121830611Y-44575901D02*
X121802040Y-44518758D01*
X121802040Y-44518758D02*
X121773469Y-44490186D01*
X121773469Y-44490186D02*
X121716326Y-44461615D01*
X89931771Y-30103714D02*
X89646057Y-30303714D01*
X89931771Y-30446571D02*
X89331771Y-30446571D01*
X89331771Y-30446571D02*
X89331771Y-30218000D01*
X89331771Y-30218000D02*
X89360342Y-30160857D01*
X89360342Y-30160857D02*
X89388914Y-30132286D01*
X89388914Y-30132286D02*
X89446057Y-30103714D01*
X89446057Y-30103714D02*
X89531771Y-30103714D01*
X89531771Y-30103714D02*
X89588914Y-30132286D01*
X89588914Y-30132286D02*
X89617485Y-30160857D01*
X89617485Y-30160857D02*
X89646057Y-30218000D01*
X89646057Y-30218000D02*
X89646057Y-30446571D01*
X89388914Y-29875143D02*
X89360342Y-29846571D01*
X89360342Y-29846571D02*
X89331771Y-29789429D01*
X89331771Y-29789429D02*
X89331771Y-29646571D01*
X89331771Y-29646571D02*
X89360342Y-29589429D01*
X89360342Y-29589429D02*
X89388914Y-29560857D01*
X89388914Y-29560857D02*
X89446057Y-29532286D01*
X89446057Y-29532286D02*
X89503200Y-29532286D01*
X89503200Y-29532286D02*
X89588914Y-29560857D01*
X89588914Y-29560857D02*
X89931771Y-29903714D01*
X89931771Y-29903714D02*
X89931771Y-29532286D01*
X89331771Y-29160857D02*
X89331771Y-29103714D01*
X89331771Y-29103714D02*
X89360342Y-29046571D01*
X89360342Y-29046571D02*
X89388914Y-29018000D01*
X89388914Y-29018000D02*
X89446057Y-28989428D01*
X89446057Y-28989428D02*
X89560342Y-28960857D01*
X89560342Y-28960857D02*
X89703200Y-28960857D01*
X89703200Y-28960857D02*
X89817485Y-28989428D01*
X89817485Y-28989428D02*
X89874628Y-29018000D01*
X89874628Y-29018000D02*
X89903200Y-29046571D01*
X89903200Y-29046571D02*
X89931771Y-29103714D01*
X89931771Y-29103714D02*
X89931771Y-29160857D01*
X89931771Y-29160857D02*
X89903200Y-29218000D01*
X89903200Y-29218000D02*
X89874628Y-29246571D01*
X89874628Y-29246571D02*
X89817485Y-29275142D01*
X89817485Y-29275142D02*
X89703200Y-29303714D01*
X89703200Y-29303714D02*
X89560342Y-29303714D01*
X89560342Y-29303714D02*
X89446057Y-29275142D01*
X89446057Y-29275142D02*
X89388914Y-29246571D01*
X89388914Y-29246571D02*
X89360342Y-29218000D01*
X89360342Y-29218000D02*
X89331771Y-29160857D01*
X61585371Y-25195199D02*
X61299657Y-25395199D01*
X61585371Y-25538056D02*
X60985371Y-25538056D01*
X60985371Y-25538056D02*
X60985371Y-25309485D01*
X60985371Y-25309485D02*
X61013942Y-25252342D01*
X61013942Y-25252342D02*
X61042514Y-25223771D01*
X61042514Y-25223771D02*
X61099657Y-25195199D01*
X61099657Y-25195199D02*
X61185371Y-25195199D01*
X61185371Y-25195199D02*
X61242514Y-25223771D01*
X61242514Y-25223771D02*
X61271085Y-25252342D01*
X61271085Y-25252342D02*
X61299657Y-25309485D01*
X61299657Y-25309485D02*
X61299657Y-25538056D01*
X61185371Y-24680914D02*
X61585371Y-24680914D01*
X60956800Y-24823771D02*
X61385371Y-24966628D01*
X61385371Y-24966628D02*
X61385371Y-24595199D01*
X134569057Y-55354472D02*
X134283343Y-55354472D01*
X134283343Y-55354472D02*
X134283343Y-54754472D01*
X135083342Y-55354472D02*
X134740485Y-55354472D01*
X134911914Y-55354472D02*
X134911914Y-54754472D01*
X134911914Y-54754472D02*
X134854771Y-54840186D01*
X134854771Y-54840186D02*
X134797628Y-54897329D01*
X134797628Y-54897329D02*
X134740485Y-54925901D01*
X135454771Y-54754472D02*
X135511914Y-54754472D01*
X135511914Y-54754472D02*
X135569057Y-54783043D01*
X135569057Y-54783043D02*
X135597629Y-54811615D01*
X135597629Y-54811615D02*
X135626200Y-54868758D01*
X135626200Y-54868758D02*
X135654771Y-54983043D01*
X135654771Y-54983043D02*
X135654771Y-55125901D01*
X135654771Y-55125901D02*
X135626200Y-55240186D01*
X135626200Y-55240186D02*
X135597629Y-55297329D01*
X135597629Y-55297329D02*
X135569057Y-55325901D01*
X135569057Y-55325901D02*
X135511914Y-55354472D01*
X135511914Y-55354472D02*
X135454771Y-55354472D01*
X135454771Y-55354472D02*
X135397629Y-55325901D01*
X135397629Y-55325901D02*
X135369057Y-55297329D01*
X135369057Y-55297329D02*
X135340486Y-55240186D01*
X135340486Y-55240186D02*
X135311914Y-55125901D01*
X135311914Y-55125901D02*
X135311914Y-54983043D01*
X135311914Y-54983043D02*
X135340486Y-54868758D01*
X135340486Y-54868758D02*
X135369057Y-54811615D01*
X135369057Y-54811615D02*
X135397629Y-54783043D01*
X135397629Y-54783043D02*
X135454771Y-54754472D01*
X57104056Y-43205371D02*
X57446914Y-43205371D01*
X57275485Y-43805371D02*
X57275485Y-43205371D01*
X57646914Y-43805371D02*
X57646914Y-43205371D01*
X57646914Y-43205371D02*
X57875485Y-43205371D01*
X57875485Y-43205371D02*
X57932628Y-43233942D01*
X57932628Y-43233942D02*
X57961199Y-43262514D01*
X57961199Y-43262514D02*
X57989771Y-43319657D01*
X57989771Y-43319657D02*
X57989771Y-43405371D01*
X57989771Y-43405371D02*
X57961199Y-43462514D01*
X57961199Y-43462514D02*
X57932628Y-43491085D01*
X57932628Y-43491085D02*
X57875485Y-43519657D01*
X57875485Y-43519657D02*
X57646914Y-43519657D01*
X58504057Y-43405371D02*
X58504057Y-43805371D01*
X58361199Y-43176800D02*
X58218342Y-43605371D01*
X58218342Y-43605371D02*
X58589771Y-43605371D01*
X69306971Y-42048056D02*
X68706971Y-42048056D01*
X68706971Y-42048056D02*
X68706971Y-41905199D01*
X68706971Y-41905199D02*
X68735542Y-41819485D01*
X68735542Y-41819485D02*
X68792685Y-41762342D01*
X68792685Y-41762342D02*
X68849828Y-41733771D01*
X68849828Y-41733771D02*
X68964114Y-41705199D01*
X68964114Y-41705199D02*
X69049828Y-41705199D01*
X69049828Y-41705199D02*
X69164114Y-41733771D01*
X69164114Y-41733771D02*
X69221257Y-41762342D01*
X69221257Y-41762342D02*
X69278400Y-41819485D01*
X69278400Y-41819485D02*
X69306971Y-41905199D01*
X69306971Y-41905199D02*
X69306971Y-42048056D01*
X68706971Y-41505199D02*
X68706971Y-41105199D01*
X68706971Y-41105199D02*
X69306971Y-41362342D01*
X71584885Y-45127428D02*
X71556313Y-45156000D01*
X71556313Y-45156000D02*
X71470599Y-45184571D01*
X71470599Y-45184571D02*
X71413456Y-45184571D01*
X71413456Y-45184571D02*
X71327742Y-45156000D01*
X71327742Y-45156000D02*
X71270599Y-45098857D01*
X71270599Y-45098857D02*
X71242028Y-45041714D01*
X71242028Y-45041714D02*
X71213456Y-44927428D01*
X71213456Y-44927428D02*
X71213456Y-44841714D01*
X71213456Y-44841714D02*
X71242028Y-44727428D01*
X71242028Y-44727428D02*
X71270599Y-44670285D01*
X71270599Y-44670285D02*
X71327742Y-44613142D01*
X71327742Y-44613142D02*
X71413456Y-44584571D01*
X71413456Y-44584571D02*
X71470599Y-44584571D01*
X71470599Y-44584571D02*
X71556313Y-44613142D01*
X71556313Y-44613142D02*
X71584885Y-44641714D01*
X72156313Y-45184571D02*
X71813456Y-45184571D01*
X71984885Y-45184571D02*
X71984885Y-44584571D01*
X71984885Y-44584571D02*
X71927742Y-44670285D01*
X71927742Y-44670285D02*
X71870599Y-44727428D01*
X71870599Y-44727428D02*
X71813456Y-44756000D01*
X72527742Y-44584571D02*
X72584885Y-44584571D01*
X72584885Y-44584571D02*
X72642028Y-44613142D01*
X72642028Y-44613142D02*
X72670600Y-44641714D01*
X72670600Y-44641714D02*
X72699171Y-44698857D01*
X72699171Y-44698857D02*
X72727742Y-44813142D01*
X72727742Y-44813142D02*
X72727742Y-44956000D01*
X72727742Y-44956000D02*
X72699171Y-45070285D01*
X72699171Y-45070285D02*
X72670600Y-45127428D01*
X72670600Y-45127428D02*
X72642028Y-45156000D01*
X72642028Y-45156000D02*
X72584885Y-45184571D01*
X72584885Y-45184571D02*
X72527742Y-45184571D01*
X72527742Y-45184571D02*
X72470600Y-45156000D01*
X72470600Y-45156000D02*
X72442028Y-45127428D01*
X72442028Y-45127428D02*
X72413457Y-45070285D01*
X72413457Y-45070285D02*
X72384885Y-44956000D01*
X72384885Y-44956000D02*
X72384885Y-44813142D01*
X72384885Y-44813142D02*
X72413457Y-44698857D01*
X72413457Y-44698857D02*
X72442028Y-44641714D01*
X72442028Y-44641714D02*
X72470600Y-44613142D01*
X72470600Y-44613142D02*
X72527742Y-44584571D01*
X67518056Y-44249771D02*
X67860914Y-44249771D01*
X67689485Y-44849771D02*
X67689485Y-44249771D01*
X68060914Y-44849771D02*
X68060914Y-44249771D01*
X68060914Y-44249771D02*
X68289485Y-44249771D01*
X68289485Y-44249771D02*
X68346628Y-44278342D01*
X68346628Y-44278342D02*
X68375199Y-44306914D01*
X68375199Y-44306914D02*
X68403771Y-44364057D01*
X68403771Y-44364057D02*
X68403771Y-44449771D01*
X68403771Y-44449771D02*
X68375199Y-44506914D01*
X68375199Y-44506914D02*
X68346628Y-44535485D01*
X68346628Y-44535485D02*
X68289485Y-44564057D01*
X68289485Y-44564057D02*
X68060914Y-44564057D01*
X68918057Y-44249771D02*
X68803771Y-44249771D01*
X68803771Y-44249771D02*
X68746628Y-44278342D01*
X68746628Y-44278342D02*
X68718057Y-44306914D01*
X68718057Y-44306914D02*
X68660914Y-44392628D01*
X68660914Y-44392628D02*
X68632342Y-44506914D01*
X68632342Y-44506914D02*
X68632342Y-44735485D01*
X68632342Y-44735485D02*
X68660914Y-44792628D01*
X68660914Y-44792628D02*
X68689485Y-44821200D01*
X68689485Y-44821200D02*
X68746628Y-44849771D01*
X68746628Y-44849771D02*
X68860914Y-44849771D01*
X68860914Y-44849771D02*
X68918057Y-44821200D01*
X68918057Y-44821200D02*
X68946628Y-44792628D01*
X68946628Y-44792628D02*
X68975199Y-44735485D01*
X68975199Y-44735485D02*
X68975199Y-44592628D01*
X68975199Y-44592628D02*
X68946628Y-44535485D01*
X68946628Y-44535485D02*
X68918057Y-44506914D01*
X68918057Y-44506914D02*
X68860914Y-44478342D01*
X68860914Y-44478342D02*
X68746628Y-44478342D01*
X68746628Y-44478342D02*
X68689485Y-44506914D01*
X68689485Y-44506914D02*
X68660914Y-44535485D01*
X68660914Y-44535485D02*
X68632342Y-44592628D01*
X79619371Y-29240114D02*
X79333657Y-29440114D01*
X79619371Y-29582971D02*
X79019371Y-29582971D01*
X79019371Y-29582971D02*
X79019371Y-29354400D01*
X79019371Y-29354400D02*
X79047942Y-29297257D01*
X79047942Y-29297257D02*
X79076514Y-29268686D01*
X79076514Y-29268686D02*
X79133657Y-29240114D01*
X79133657Y-29240114D02*
X79219371Y-29240114D01*
X79219371Y-29240114D02*
X79276514Y-29268686D01*
X79276514Y-29268686D02*
X79305085Y-29297257D01*
X79305085Y-29297257D02*
X79333657Y-29354400D01*
X79333657Y-29354400D02*
X79333657Y-29582971D01*
X79619371Y-28668686D02*
X79619371Y-29011543D01*
X79619371Y-28840114D02*
X79019371Y-28840114D01*
X79019371Y-28840114D02*
X79105085Y-28897257D01*
X79105085Y-28897257D02*
X79162228Y-28954400D01*
X79162228Y-28954400D02*
X79190800Y-29011543D01*
X79076514Y-28440114D02*
X79047942Y-28411542D01*
X79047942Y-28411542D02*
X79019371Y-28354400D01*
X79019371Y-28354400D02*
X79019371Y-28211542D01*
X79019371Y-28211542D02*
X79047942Y-28154400D01*
X79047942Y-28154400D02*
X79076514Y-28125828D01*
X79076514Y-28125828D02*
X79133657Y-28097257D01*
X79133657Y-28097257D02*
X79190800Y-28097257D01*
X79190800Y-28097257D02*
X79276514Y-28125828D01*
X79276514Y-28125828D02*
X79619371Y-28468685D01*
X79619371Y-28468685D02*
X79619371Y-28097257D01*
X107777881Y-55354472D02*
X107492167Y-55354472D01*
X107492167Y-55354472D02*
X107492167Y-54754472D01*
X107920738Y-54754472D02*
X108320738Y-54754472D01*
X108320738Y-54754472D02*
X108063595Y-55354472D01*
X39574800Y-53863771D02*
X39289086Y-53863771D01*
X39289086Y-53863771D02*
X39289086Y-53263771D01*
X39717657Y-53263771D02*
X40089085Y-53263771D01*
X40089085Y-53263771D02*
X39889085Y-53492342D01*
X39889085Y-53492342D02*
X39974800Y-53492342D01*
X39974800Y-53492342D02*
X40031943Y-53520914D01*
X40031943Y-53520914D02*
X40060514Y-53549485D01*
X40060514Y-53549485D02*
X40089085Y-53606628D01*
X40089085Y-53606628D02*
X40089085Y-53749485D01*
X40089085Y-53749485D02*
X40060514Y-53806628D01*
X40060514Y-53806628D02*
X40031943Y-53835200D01*
X40031943Y-53835200D02*
X39974800Y-53863771D01*
X39974800Y-53863771D02*
X39803371Y-53863771D01*
X39803371Y-53863771D02*
X39746228Y-53835200D01*
X39746228Y-53835200D02*
X39717657Y-53806628D01*
X65084228Y-36625199D02*
X65112800Y-36653771D01*
X65112800Y-36653771D02*
X65141371Y-36739485D01*
X65141371Y-36739485D02*
X65141371Y-36796628D01*
X65141371Y-36796628D02*
X65112800Y-36882342D01*
X65112800Y-36882342D02*
X65055657Y-36939485D01*
X65055657Y-36939485D02*
X64998514Y-36968056D01*
X64998514Y-36968056D02*
X64884228Y-36996628D01*
X64884228Y-36996628D02*
X64798514Y-36996628D01*
X64798514Y-36996628D02*
X64684228Y-36968056D01*
X64684228Y-36968056D02*
X64627085Y-36939485D01*
X64627085Y-36939485D02*
X64569942Y-36882342D01*
X64569942Y-36882342D02*
X64541371Y-36796628D01*
X64541371Y-36796628D02*
X64541371Y-36739485D01*
X64541371Y-36739485D02*
X64569942Y-36653771D01*
X64569942Y-36653771D02*
X64598514Y-36625199D01*
X64541371Y-36110914D02*
X64541371Y-36225199D01*
X64541371Y-36225199D02*
X64569942Y-36282342D01*
X64569942Y-36282342D02*
X64598514Y-36310914D01*
X64598514Y-36310914D02*
X64684228Y-36368056D01*
X64684228Y-36368056D02*
X64798514Y-36396628D01*
X64798514Y-36396628D02*
X65027085Y-36396628D01*
X65027085Y-36396628D02*
X65084228Y-36368056D01*
X65084228Y-36368056D02*
X65112800Y-36339485D01*
X65112800Y-36339485D02*
X65141371Y-36282342D01*
X65141371Y-36282342D02*
X65141371Y-36168056D01*
X65141371Y-36168056D02*
X65112800Y-36110914D01*
X65112800Y-36110914D02*
X65084228Y-36082342D01*
X65084228Y-36082342D02*
X65027085Y-36053771D01*
X65027085Y-36053771D02*
X64884228Y-36053771D01*
X64884228Y-36053771D02*
X64827085Y-36082342D01*
X64827085Y-36082342D02*
X64798514Y-36110914D01*
X64798514Y-36110914D02*
X64769942Y-36168056D01*
X64769942Y-36168056D02*
X64769942Y-36282342D01*
X64769942Y-36282342D02*
X64798514Y-36339485D01*
X64798514Y-36339485D02*
X64827085Y-36368056D01*
X64827085Y-36368056D02*
X64884228Y-36396628D01*
X62539656Y-45643771D02*
X62882514Y-45643771D01*
X62711085Y-46243771D02*
X62711085Y-45643771D01*
X63082514Y-46243771D02*
X63082514Y-45643771D01*
X63082514Y-45643771D02*
X63311085Y-45643771D01*
X63311085Y-45643771D02*
X63368228Y-45672342D01*
X63368228Y-45672342D02*
X63396799Y-45700914D01*
X63396799Y-45700914D02*
X63425371Y-45758057D01*
X63425371Y-45758057D02*
X63425371Y-45843771D01*
X63425371Y-45843771D02*
X63396799Y-45900914D01*
X63396799Y-45900914D02*
X63368228Y-45929485D01*
X63368228Y-45929485D02*
X63311085Y-45958057D01*
X63311085Y-45958057D02*
X63082514Y-45958057D01*
X63968228Y-45643771D02*
X63682514Y-45643771D01*
X63682514Y-45643771D02*
X63653942Y-45929485D01*
X63653942Y-45929485D02*
X63682514Y-45900914D01*
X63682514Y-45900914D02*
X63739657Y-45872342D01*
X63739657Y-45872342D02*
X63882514Y-45872342D01*
X63882514Y-45872342D02*
X63939657Y-45900914D01*
X63939657Y-45900914D02*
X63968228Y-45929485D01*
X63968228Y-45929485D02*
X63996799Y-45986628D01*
X63996799Y-45986628D02*
X63996799Y-46129485D01*
X63996799Y-46129485D02*
X63968228Y-46186628D01*
X63968228Y-46186628D02*
X63939657Y-46215200D01*
X63939657Y-46215200D02*
X63882514Y-46243771D01*
X63882514Y-46243771D02*
X63739657Y-46243771D01*
X63739657Y-46243771D02*
X63682514Y-46215200D01*
X63682514Y-46215200D02*
X63653942Y-46186628D01*
X61977600Y-23631428D02*
X61949028Y-23660000D01*
X61949028Y-23660000D02*
X61863314Y-23688571D01*
X61863314Y-23688571D02*
X61806171Y-23688571D01*
X61806171Y-23688571D02*
X61720457Y-23660000D01*
X61720457Y-23660000D02*
X61663314Y-23602857D01*
X61663314Y-23602857D02*
X61634743Y-23545714D01*
X61634743Y-23545714D02*
X61606171Y-23431428D01*
X61606171Y-23431428D02*
X61606171Y-23345714D01*
X61606171Y-23345714D02*
X61634743Y-23231428D01*
X61634743Y-23231428D02*
X61663314Y-23174285D01*
X61663314Y-23174285D02*
X61720457Y-23117142D01*
X61720457Y-23117142D02*
X61806171Y-23088571D01*
X61806171Y-23088571D02*
X61863314Y-23088571D01*
X61863314Y-23088571D02*
X61949028Y-23117142D01*
X61949028Y-23117142D02*
X61977600Y-23145714D01*
X62520457Y-23088571D02*
X62234743Y-23088571D01*
X62234743Y-23088571D02*
X62206171Y-23374285D01*
X62206171Y-23374285D02*
X62234743Y-23345714D01*
X62234743Y-23345714D02*
X62291886Y-23317142D01*
X62291886Y-23317142D02*
X62434743Y-23317142D01*
X62434743Y-23317142D02*
X62491886Y-23345714D01*
X62491886Y-23345714D02*
X62520457Y-23374285D01*
X62520457Y-23374285D02*
X62549028Y-23431428D01*
X62549028Y-23431428D02*
X62549028Y-23574285D01*
X62549028Y-23574285D02*
X62520457Y-23631428D01*
X62520457Y-23631428D02*
X62491886Y-23660000D01*
X62491886Y-23660000D02*
X62434743Y-23688571D01*
X62434743Y-23688571D02*
X62291886Y-23688571D01*
X62291886Y-23688571D02*
X62234743Y-23660000D01*
X62234743Y-23660000D02*
X62206171Y-23631428D01*
X80076571Y-31068914D02*
X79790857Y-31268914D01*
X80076571Y-31411771D02*
X79476571Y-31411771D01*
X79476571Y-31411771D02*
X79476571Y-31183200D01*
X79476571Y-31183200D02*
X79505142Y-31126057D01*
X79505142Y-31126057D02*
X79533714Y-31097486D01*
X79533714Y-31097486D02*
X79590857Y-31068914D01*
X79590857Y-31068914D02*
X79676571Y-31068914D01*
X79676571Y-31068914D02*
X79733714Y-31097486D01*
X79733714Y-31097486D02*
X79762285Y-31126057D01*
X79762285Y-31126057D02*
X79790857Y-31183200D01*
X79790857Y-31183200D02*
X79790857Y-31411771D01*
X80076571Y-30497486D02*
X80076571Y-30840343D01*
X80076571Y-30668914D02*
X79476571Y-30668914D01*
X79476571Y-30668914D02*
X79562285Y-30726057D01*
X79562285Y-30726057D02*
X79619428Y-30783200D01*
X79619428Y-30783200D02*
X79648000Y-30840343D01*
X79476571Y-30297485D02*
X79476571Y-29926057D01*
X79476571Y-29926057D02*
X79705142Y-30126057D01*
X79705142Y-30126057D02*
X79705142Y-30040342D01*
X79705142Y-30040342D02*
X79733714Y-29983200D01*
X79733714Y-29983200D02*
X79762285Y-29954628D01*
X79762285Y-29954628D02*
X79819428Y-29926057D01*
X79819428Y-29926057D02*
X79962285Y-29926057D01*
X79962285Y-29926057D02*
X80019428Y-29954628D01*
X80019428Y-29954628D02*
X80048000Y-29983200D01*
X80048000Y-29983200D02*
X80076571Y-30040342D01*
X80076571Y-30040342D02*
X80076571Y-30211771D01*
X80076571Y-30211771D02*
X80048000Y-30268914D01*
X80048000Y-30268914D02*
X80019428Y-30297485D01*
X73878971Y-31018114D02*
X73593257Y-31218114D01*
X73878971Y-31360971D02*
X73278971Y-31360971D01*
X73278971Y-31360971D02*
X73278971Y-31132400D01*
X73278971Y-31132400D02*
X73307542Y-31075257D01*
X73307542Y-31075257D02*
X73336114Y-31046686D01*
X73336114Y-31046686D02*
X73393257Y-31018114D01*
X73393257Y-31018114D02*
X73478971Y-31018114D01*
X73478971Y-31018114D02*
X73536114Y-31046686D01*
X73536114Y-31046686D02*
X73564685Y-31075257D01*
X73564685Y-31075257D02*
X73593257Y-31132400D01*
X73593257Y-31132400D02*
X73593257Y-31360971D01*
X73878971Y-30446686D02*
X73878971Y-30789543D01*
X73878971Y-30618114D02*
X73278971Y-30618114D01*
X73278971Y-30618114D02*
X73364685Y-30675257D01*
X73364685Y-30675257D02*
X73421828Y-30732400D01*
X73421828Y-30732400D02*
X73450400Y-30789543D01*
X73278971Y-30075257D02*
X73278971Y-30018114D01*
X73278971Y-30018114D02*
X73307542Y-29960971D01*
X73307542Y-29960971D02*
X73336114Y-29932400D01*
X73336114Y-29932400D02*
X73393257Y-29903828D01*
X73393257Y-29903828D02*
X73507542Y-29875257D01*
X73507542Y-29875257D02*
X73650400Y-29875257D01*
X73650400Y-29875257D02*
X73764685Y-29903828D01*
X73764685Y-29903828D02*
X73821828Y-29932400D01*
X73821828Y-29932400D02*
X73850400Y-29960971D01*
X73850400Y-29960971D02*
X73878971Y-30018114D01*
X73878971Y-30018114D02*
X73878971Y-30075257D01*
X73878971Y-30075257D02*
X73850400Y-30132400D01*
X73850400Y-30132400D02*
X73821828Y-30160971D01*
X73821828Y-30160971D02*
X73764685Y-30189542D01*
X73764685Y-30189542D02*
X73650400Y-30218114D01*
X73650400Y-30218114D02*
X73507542Y-30218114D01*
X73507542Y-30218114D02*
X73393257Y-30189542D01*
X73393257Y-30189542D02*
X73336114Y-30160971D01*
X73336114Y-30160971D02*
X73307542Y-30132400D01*
X73307542Y-30132400D02*
X73278971Y-30075257D01*
X69138857Y-33350171D02*
X69138857Y-33835885D01*
X69138857Y-33835885D02*
X69167428Y-33893028D01*
X69167428Y-33893028D02*
X69196000Y-33921600D01*
X69196000Y-33921600D02*
X69253142Y-33950171D01*
X69253142Y-33950171D02*
X69367428Y-33950171D01*
X69367428Y-33950171D02*
X69424571Y-33921600D01*
X69424571Y-33921600D02*
X69453142Y-33893028D01*
X69453142Y-33893028D02*
X69481714Y-33835885D01*
X69481714Y-33835885D02*
X69481714Y-33350171D01*
X69738856Y-33407314D02*
X69767428Y-33378742D01*
X69767428Y-33378742D02*
X69824571Y-33350171D01*
X69824571Y-33350171D02*
X69967428Y-33350171D01*
X69967428Y-33350171D02*
X70024571Y-33378742D01*
X70024571Y-33378742D02*
X70053142Y-33407314D01*
X70053142Y-33407314D02*
X70081713Y-33464457D01*
X70081713Y-33464457D02*
X70081713Y-33521600D01*
X70081713Y-33521600D02*
X70053142Y-33607314D01*
X70053142Y-33607314D02*
X69710285Y-33950171D01*
X69710285Y-33950171D02*
X70081713Y-33950171D01*
X69546800Y-28203428D02*
X69518228Y-28232000D01*
X69518228Y-28232000D02*
X69432514Y-28260571D01*
X69432514Y-28260571D02*
X69375371Y-28260571D01*
X69375371Y-28260571D02*
X69289657Y-28232000D01*
X69289657Y-28232000D02*
X69232514Y-28174857D01*
X69232514Y-28174857D02*
X69203943Y-28117714D01*
X69203943Y-28117714D02*
X69175371Y-28003428D01*
X69175371Y-28003428D02*
X69175371Y-27917714D01*
X69175371Y-27917714D02*
X69203943Y-27803428D01*
X69203943Y-27803428D02*
X69232514Y-27746285D01*
X69232514Y-27746285D02*
X69289657Y-27689142D01*
X69289657Y-27689142D02*
X69375371Y-27660571D01*
X69375371Y-27660571D02*
X69432514Y-27660571D01*
X69432514Y-27660571D02*
X69518228Y-27689142D01*
X69518228Y-27689142D02*
X69546800Y-27717714D01*
X70061086Y-27860571D02*
X70061086Y-28260571D01*
X69918228Y-27632000D02*
X69775371Y-28060571D01*
X69775371Y-28060571D02*
X70146800Y-28060571D01*
X63464971Y-36625199D02*
X63179257Y-36825199D01*
X63464971Y-36968056D02*
X62864971Y-36968056D01*
X62864971Y-36968056D02*
X62864971Y-36739485D01*
X62864971Y-36739485D02*
X62893542Y-36682342D01*
X62893542Y-36682342D02*
X62922114Y-36653771D01*
X62922114Y-36653771D02*
X62979257Y-36625199D01*
X62979257Y-36625199D02*
X63064971Y-36625199D01*
X63064971Y-36625199D02*
X63122114Y-36653771D01*
X63122114Y-36653771D02*
X63150685Y-36682342D01*
X63150685Y-36682342D02*
X63179257Y-36739485D01*
X63179257Y-36739485D02*
X63179257Y-36968056D01*
X62864971Y-36110914D02*
X62864971Y-36225199D01*
X62864971Y-36225199D02*
X62893542Y-36282342D01*
X62893542Y-36282342D02*
X62922114Y-36310914D01*
X62922114Y-36310914D02*
X63007828Y-36368056D01*
X63007828Y-36368056D02*
X63122114Y-36396628D01*
X63122114Y-36396628D02*
X63350685Y-36396628D01*
X63350685Y-36396628D02*
X63407828Y-36368056D01*
X63407828Y-36368056D02*
X63436400Y-36339485D01*
X63436400Y-36339485D02*
X63464971Y-36282342D01*
X63464971Y-36282342D02*
X63464971Y-36168056D01*
X63464971Y-36168056D02*
X63436400Y-36110914D01*
X63436400Y-36110914D02*
X63407828Y-36082342D01*
X63407828Y-36082342D02*
X63350685Y-36053771D01*
X63350685Y-36053771D02*
X63207828Y-36053771D01*
X63207828Y-36053771D02*
X63150685Y-36082342D01*
X63150685Y-36082342D02*
X63122114Y-36110914D01*
X63122114Y-36110914D02*
X63093542Y-36168056D01*
X63093542Y-36168056D02*
X63093542Y-36282342D01*
X63093542Y-36282342D02*
X63122114Y-36339485D01*
X63122114Y-36339485D02*
X63150685Y-36368056D01*
X63150685Y-36368056D02*
X63207828Y-36396628D01*
X65135028Y-37996799D02*
X65163600Y-38025371D01*
X65163600Y-38025371D02*
X65192171Y-38111085D01*
X65192171Y-38111085D02*
X65192171Y-38168228D01*
X65192171Y-38168228D02*
X65163600Y-38253942D01*
X65163600Y-38253942D02*
X65106457Y-38311085D01*
X65106457Y-38311085D02*
X65049314Y-38339656D01*
X65049314Y-38339656D02*
X64935028Y-38368228D01*
X64935028Y-38368228D02*
X64849314Y-38368228D01*
X64849314Y-38368228D02*
X64735028Y-38339656D01*
X64735028Y-38339656D02*
X64677885Y-38311085D01*
X64677885Y-38311085D02*
X64620742Y-38253942D01*
X64620742Y-38253942D02*
X64592171Y-38168228D01*
X64592171Y-38168228D02*
X64592171Y-38111085D01*
X64592171Y-38111085D02*
X64620742Y-38025371D01*
X64620742Y-38025371D02*
X64649314Y-37996799D01*
X65192171Y-37425371D02*
X65192171Y-37768228D01*
X65192171Y-37596799D02*
X64592171Y-37596799D01*
X64592171Y-37596799D02*
X64677885Y-37653942D01*
X64677885Y-37653942D02*
X64735028Y-37711085D01*
X64735028Y-37711085D02*
X64763600Y-37768228D01*
X67481485Y-24825257D02*
X67481485Y-25110971D01*
X67281485Y-24510971D02*
X67481485Y-24825257D01*
X67481485Y-24825257D02*
X67681485Y-24510971D01*
X68195771Y-25110971D02*
X67852914Y-25110971D01*
X68024343Y-25110971D02*
X68024343Y-24510971D01*
X68024343Y-24510971D02*
X67967200Y-24596685D01*
X67967200Y-24596685D02*
X67910057Y-24653828D01*
X67910057Y-24653828D02*
X67852914Y-24682400D01*
X34240800Y-49901371D02*
X33955086Y-49901371D01*
X33955086Y-49901371D02*
X33955086Y-49301371D01*
X34412228Y-49358514D02*
X34440800Y-49329942D01*
X34440800Y-49329942D02*
X34497943Y-49301371D01*
X34497943Y-49301371D02*
X34640800Y-49301371D01*
X34640800Y-49301371D02*
X34697943Y-49329942D01*
X34697943Y-49329942D02*
X34726514Y-49358514D01*
X34726514Y-49358514D02*
X34755085Y-49415657D01*
X34755085Y-49415657D02*
X34755085Y-49472800D01*
X34755085Y-49472800D02*
X34726514Y-49558514D01*
X34726514Y-49558514D02*
X34383657Y-49901371D01*
X34383657Y-49901371D02*
X34755085Y-49901371D01*
X87593543Y-44059371D02*
X87593543Y-43459371D01*
X87593543Y-43459371D02*
X87736400Y-43459371D01*
X87736400Y-43459371D02*
X87822114Y-43487942D01*
X87822114Y-43487942D02*
X87879257Y-43545085D01*
X87879257Y-43545085D02*
X87907828Y-43602228D01*
X87907828Y-43602228D02*
X87936400Y-43716514D01*
X87936400Y-43716514D02*
X87936400Y-43802228D01*
X87936400Y-43802228D02*
X87907828Y-43916514D01*
X87907828Y-43916514D02*
X87879257Y-43973657D01*
X87879257Y-43973657D02*
X87822114Y-44030800D01*
X87822114Y-44030800D02*
X87736400Y-44059371D01*
X87736400Y-44059371D02*
X87593543Y-44059371D01*
X88507828Y-44059371D02*
X88164971Y-44059371D01*
X88336400Y-44059371D02*
X88336400Y-43459371D01*
X88336400Y-43459371D02*
X88279257Y-43545085D01*
X88279257Y-43545085D02*
X88222114Y-43602228D01*
X88222114Y-43602228D02*
X88164971Y-43630800D01*
X55578400Y-35312285D02*
X55378400Y-35312285D01*
X55378400Y-35626571D02*
X55378400Y-35026571D01*
X55378400Y-35026571D02*
X55664114Y-35026571D01*
X56206971Y-35626571D02*
X55864114Y-35626571D01*
X56035543Y-35626571D02*
X56035543Y-35026571D01*
X56035543Y-35026571D02*
X55978400Y-35112285D01*
X55978400Y-35112285D02*
X55921257Y-35169428D01*
X55921257Y-35169428D02*
X55864114Y-35198000D01*
X79619371Y-27208114D02*
X79333657Y-27408114D01*
X79619371Y-27550971D02*
X79019371Y-27550971D01*
X79019371Y-27550971D02*
X79019371Y-27322400D01*
X79019371Y-27322400D02*
X79047942Y-27265257D01*
X79047942Y-27265257D02*
X79076514Y-27236686D01*
X79076514Y-27236686D02*
X79133657Y-27208114D01*
X79133657Y-27208114D02*
X79219371Y-27208114D01*
X79219371Y-27208114D02*
X79276514Y-27236686D01*
X79276514Y-27236686D02*
X79305085Y-27265257D01*
X79305085Y-27265257D02*
X79333657Y-27322400D01*
X79333657Y-27322400D02*
X79333657Y-27550971D01*
X79619371Y-26636686D02*
X79619371Y-26979543D01*
X79619371Y-26808114D02*
X79019371Y-26808114D01*
X79019371Y-26808114D02*
X79105085Y-26865257D01*
X79105085Y-26865257D02*
X79162228Y-26922400D01*
X79162228Y-26922400D02*
X79190800Y-26979543D01*
X79619371Y-26065257D02*
X79619371Y-26408114D01*
X79619371Y-26236685D02*
X79019371Y-26236685D01*
X79019371Y-26236685D02*
X79105085Y-26293828D01*
X79105085Y-26293828D02*
X79162228Y-26350971D01*
X79162228Y-26350971D02*
X79190800Y-26408114D01*
X64277771Y-36625199D02*
X63992057Y-36825199D01*
X64277771Y-36968056D02*
X63677771Y-36968056D01*
X63677771Y-36968056D02*
X63677771Y-36739485D01*
X63677771Y-36739485D02*
X63706342Y-36682342D01*
X63706342Y-36682342D02*
X63734914Y-36653771D01*
X63734914Y-36653771D02*
X63792057Y-36625199D01*
X63792057Y-36625199D02*
X63877771Y-36625199D01*
X63877771Y-36625199D02*
X63934914Y-36653771D01*
X63934914Y-36653771D02*
X63963485Y-36682342D01*
X63963485Y-36682342D02*
X63992057Y-36739485D01*
X63992057Y-36739485D02*
X63992057Y-36968056D01*
X63677771Y-36082342D02*
X63677771Y-36368056D01*
X63677771Y-36368056D02*
X63963485Y-36396628D01*
X63963485Y-36396628D02*
X63934914Y-36368056D01*
X63934914Y-36368056D02*
X63906342Y-36310914D01*
X63906342Y-36310914D02*
X63906342Y-36168056D01*
X63906342Y-36168056D02*
X63934914Y-36110914D01*
X63934914Y-36110914D02*
X63963485Y-36082342D01*
X63963485Y-36082342D02*
X64020628Y-36053771D01*
X64020628Y-36053771D02*
X64163485Y-36053771D01*
X64163485Y-36053771D02*
X64220628Y-36082342D01*
X64220628Y-36082342D02*
X64249200Y-36110914D01*
X64249200Y-36110914D02*
X64277771Y-36168056D01*
X64277771Y-36168056D02*
X64277771Y-36310914D01*
X64277771Y-36310914D02*
X64249200Y-36368056D01*
X64249200Y-36368056D02*
X64220628Y-36396628D01*
X63811085Y-42313199D02*
X63811085Y-42513199D01*
X64125371Y-42513199D02*
X63525371Y-42513199D01*
X63525371Y-42513199D02*
X63525371Y-42227485D01*
X63582514Y-42027485D02*
X63553942Y-41998913D01*
X63553942Y-41998913D02*
X63525371Y-41941771D01*
X63525371Y-41941771D02*
X63525371Y-41798913D01*
X63525371Y-41798913D02*
X63553942Y-41741771D01*
X63553942Y-41741771D02*
X63582514Y-41713199D01*
X63582514Y-41713199D02*
X63639657Y-41684628D01*
X63639657Y-41684628D02*
X63696800Y-41684628D01*
X63696800Y-41684628D02*
X63782514Y-41713199D01*
X63782514Y-41713199D02*
X64125371Y-42056056D01*
X64125371Y-42056056D02*
X64125371Y-41684628D01*
X79460628Y-42213199D02*
X79489200Y-42241771D01*
X79489200Y-42241771D02*
X79517771Y-42327485D01*
X79517771Y-42327485D02*
X79517771Y-42384628D01*
X79517771Y-42384628D02*
X79489200Y-42470342D01*
X79489200Y-42470342D02*
X79432057Y-42527485D01*
X79432057Y-42527485D02*
X79374914Y-42556056D01*
X79374914Y-42556056D02*
X79260628Y-42584628D01*
X79260628Y-42584628D02*
X79174914Y-42584628D01*
X79174914Y-42584628D02*
X79060628Y-42556056D01*
X79060628Y-42556056D02*
X79003485Y-42527485D01*
X79003485Y-42527485D02*
X78946342Y-42470342D01*
X78946342Y-42470342D02*
X78917771Y-42384628D01*
X78917771Y-42384628D02*
X78917771Y-42327485D01*
X78917771Y-42327485D02*
X78946342Y-42241771D01*
X78946342Y-42241771D02*
X78974914Y-42213199D01*
X79174914Y-41870342D02*
X79146342Y-41927485D01*
X79146342Y-41927485D02*
X79117771Y-41956056D01*
X79117771Y-41956056D02*
X79060628Y-41984628D01*
X79060628Y-41984628D02*
X79032057Y-41984628D01*
X79032057Y-41984628D02*
X78974914Y-41956056D01*
X78974914Y-41956056D02*
X78946342Y-41927485D01*
X78946342Y-41927485D02*
X78917771Y-41870342D01*
X78917771Y-41870342D02*
X78917771Y-41756056D01*
X78917771Y-41756056D02*
X78946342Y-41698914D01*
X78946342Y-41698914D02*
X78974914Y-41670342D01*
X78974914Y-41670342D02*
X79032057Y-41641771D01*
X79032057Y-41641771D02*
X79060628Y-41641771D01*
X79060628Y-41641771D02*
X79117771Y-41670342D01*
X79117771Y-41670342D02*
X79146342Y-41698914D01*
X79146342Y-41698914D02*
X79174914Y-41756056D01*
X79174914Y-41756056D02*
X79174914Y-41870342D01*
X79174914Y-41870342D02*
X79203485Y-41927485D01*
X79203485Y-41927485D02*
X79232057Y-41956056D01*
X79232057Y-41956056D02*
X79289200Y-41984628D01*
X79289200Y-41984628D02*
X79403485Y-41984628D01*
X79403485Y-41984628D02*
X79460628Y-41956056D01*
X79460628Y-41956056D02*
X79489200Y-41927485D01*
X79489200Y-41927485D02*
X79517771Y-41870342D01*
X79517771Y-41870342D02*
X79517771Y-41756056D01*
X79517771Y-41756056D02*
X79489200Y-41698914D01*
X79489200Y-41698914D02*
X79460628Y-41670342D01*
X79460628Y-41670342D02*
X79403485Y-41641771D01*
X79403485Y-41641771D02*
X79289200Y-41641771D01*
X79289200Y-41641771D02*
X79232057Y-41670342D01*
X79232057Y-41670342D02*
X79203485Y-41698914D01*
X79203485Y-41698914D02*
X79174914Y-41756056D01*
X75431657Y-25625314D02*
X75374514Y-25596742D01*
X75374514Y-25596742D02*
X75317371Y-25539600D01*
X75317371Y-25539600D02*
X75231657Y-25453885D01*
X75231657Y-25453885D02*
X75174514Y-25425314D01*
X75174514Y-25425314D02*
X75117371Y-25425314D01*
X75145942Y-25568171D02*
X75088800Y-25539600D01*
X75088800Y-25539600D02*
X75031657Y-25482457D01*
X75031657Y-25482457D02*
X75003085Y-25368171D01*
X75003085Y-25368171D02*
X75003085Y-25168171D01*
X75003085Y-25168171D02*
X75031657Y-25053885D01*
X75031657Y-25053885D02*
X75088800Y-24996742D01*
X75088800Y-24996742D02*
X75145942Y-24968171D01*
X75145942Y-24968171D02*
X75260228Y-24968171D01*
X75260228Y-24968171D02*
X75317371Y-24996742D01*
X75317371Y-24996742D02*
X75374514Y-25053885D01*
X75374514Y-25053885D02*
X75403085Y-25168171D01*
X75403085Y-25168171D02*
X75403085Y-25368171D01*
X75403085Y-25368171D02*
X75374514Y-25482457D01*
X75374514Y-25482457D02*
X75317371Y-25539600D01*
X75317371Y-25539600D02*
X75260228Y-25568171D01*
X75260228Y-25568171D02*
X75145942Y-25568171D01*
X75974513Y-25568171D02*
X75631656Y-25568171D01*
X75803085Y-25568171D02*
X75803085Y-24968171D01*
X75803085Y-24968171D02*
X75745942Y-25053885D01*
X75745942Y-25053885D02*
X75688799Y-25111028D01*
X75688799Y-25111028D02*
X75631656Y-25139600D01*
X64629433Y-57164191D02*
X64343719Y-57164191D01*
X64343719Y-57164191D02*
X64343719Y-56564191D01*
X65115147Y-56564191D02*
X64829433Y-56564191D01*
X64829433Y-56564191D02*
X64800861Y-56849905D01*
X64800861Y-56849905D02*
X64829433Y-56821334D01*
X64829433Y-56821334D02*
X64886576Y-56792762D01*
X64886576Y-56792762D02*
X65029433Y-56792762D01*
X65029433Y-56792762D02*
X65086576Y-56821334D01*
X65086576Y-56821334D02*
X65115147Y-56849905D01*
X65115147Y-56849905D02*
X65143718Y-56907048D01*
X65143718Y-56907048D02*
X65143718Y-57049905D01*
X65143718Y-57049905D02*
X65115147Y-57107048D01*
X65115147Y-57107048D02*
X65086576Y-57135620D01*
X65086576Y-57135620D02*
X65029433Y-57164191D01*
X65029433Y-57164191D02*
X64886576Y-57164191D01*
X64886576Y-57164191D02*
X64829433Y-57135620D01*
X64829433Y-57135620D02*
X64800861Y-57107048D01*
X91293885Y-38706399D02*
X91293885Y-38906399D01*
X91608171Y-38906399D02*
X91008171Y-38906399D01*
X91008171Y-38906399D02*
X91008171Y-38620685D01*
X91008171Y-38449256D02*
X91008171Y-38077828D01*
X91008171Y-38077828D02*
X91236742Y-38277828D01*
X91236742Y-38277828D02*
X91236742Y-38192113D01*
X91236742Y-38192113D02*
X91265314Y-38134971D01*
X91265314Y-38134971D02*
X91293885Y-38106399D01*
X91293885Y-38106399D02*
X91351028Y-38077828D01*
X91351028Y-38077828D02*
X91493885Y-38077828D01*
X91493885Y-38077828D02*
X91551028Y-38106399D01*
X91551028Y-38106399D02*
X91579600Y-38134971D01*
X91579600Y-38134971D02*
X91608171Y-38192113D01*
X91608171Y-38192113D02*
X91608171Y-38363542D01*
X91608171Y-38363542D02*
X91579600Y-38420685D01*
X91579600Y-38420685D02*
X91551028Y-38449256D01*
X55291085Y-49545771D02*
X55091085Y-49260057D01*
X54948228Y-49545771D02*
X54948228Y-48945771D01*
X54948228Y-48945771D02*
X55176799Y-48945771D01*
X55176799Y-48945771D02*
X55233942Y-48974342D01*
X55233942Y-48974342D02*
X55262513Y-49002914D01*
X55262513Y-49002914D02*
X55291085Y-49060057D01*
X55291085Y-49060057D02*
X55291085Y-49145771D01*
X55291085Y-49145771D02*
X55262513Y-49202914D01*
X55262513Y-49202914D02*
X55233942Y-49231485D01*
X55233942Y-49231485D02*
X55176799Y-49260057D01*
X55176799Y-49260057D02*
X54948228Y-49260057D01*
X55862513Y-49545771D02*
X55519656Y-49545771D01*
X55691085Y-49545771D02*
X55691085Y-48945771D01*
X55691085Y-48945771D02*
X55633942Y-49031485D01*
X55633942Y-49031485D02*
X55576799Y-49088628D01*
X55576799Y-49088628D02*
X55519656Y-49117200D01*
X56405371Y-48945771D02*
X56119657Y-48945771D01*
X56119657Y-48945771D02*
X56091085Y-49231485D01*
X56091085Y-49231485D02*
X56119657Y-49202914D01*
X56119657Y-49202914D02*
X56176800Y-49174342D01*
X56176800Y-49174342D02*
X56319657Y-49174342D01*
X56319657Y-49174342D02*
X56376800Y-49202914D01*
X56376800Y-49202914D02*
X56405371Y-49231485D01*
X56405371Y-49231485D02*
X56433942Y-49288628D01*
X56433942Y-49288628D02*
X56433942Y-49431485D01*
X56433942Y-49431485D02*
X56405371Y-49488628D01*
X56405371Y-49488628D02*
X56376800Y-49517200D01*
X56376800Y-49517200D02*
X56319657Y-49545771D01*
X56319657Y-49545771D02*
X56176800Y-49545771D01*
X56176800Y-49545771D02*
X56119657Y-49517200D01*
X56119657Y-49517200D02*
X56091085Y-49488628D01*
X77331943Y-34610571D02*
X77331943Y-34010571D01*
X77331943Y-34010571D02*
X77474800Y-34010571D01*
X77474800Y-34010571D02*
X77560514Y-34039142D01*
X77560514Y-34039142D02*
X77617657Y-34096285D01*
X77617657Y-34096285D02*
X77646228Y-34153428D01*
X77646228Y-34153428D02*
X77674800Y-34267714D01*
X77674800Y-34267714D02*
X77674800Y-34353428D01*
X77674800Y-34353428D02*
X77646228Y-34467714D01*
X77646228Y-34467714D02*
X77617657Y-34524857D01*
X77617657Y-34524857D02*
X77560514Y-34582000D01*
X77560514Y-34582000D02*
X77474800Y-34610571D01*
X77474800Y-34610571D02*
X77331943Y-34610571D01*
X78217657Y-34010571D02*
X77931943Y-34010571D01*
X77931943Y-34010571D02*
X77903371Y-34296285D01*
X77903371Y-34296285D02*
X77931943Y-34267714D01*
X77931943Y-34267714D02*
X77989086Y-34239142D01*
X77989086Y-34239142D02*
X78131943Y-34239142D01*
X78131943Y-34239142D02*
X78189086Y-34267714D01*
X78189086Y-34267714D02*
X78217657Y-34296285D01*
X78217657Y-34296285D02*
X78246228Y-34353428D01*
X78246228Y-34353428D02*
X78246228Y-34496285D01*
X78246228Y-34496285D02*
X78217657Y-34553428D01*
X78217657Y-34553428D02*
X78189086Y-34582000D01*
X78189086Y-34582000D02*
X78131943Y-34610571D01*
X78131943Y-34610571D02*
X77989086Y-34610571D01*
X77989086Y-34610571D02*
X77931943Y-34582000D01*
X77931943Y-34582000D02*
X77903371Y-34553428D01*
X52141485Y-36032971D02*
X51941485Y-35747257D01*
X51798628Y-36032971D02*
X51798628Y-35432971D01*
X51798628Y-35432971D02*
X52027199Y-35432971D01*
X52027199Y-35432971D02*
X52084342Y-35461542D01*
X52084342Y-35461542D02*
X52112913Y-35490114D01*
X52112913Y-35490114D02*
X52141485Y-35547257D01*
X52141485Y-35547257D02*
X52141485Y-35632971D01*
X52141485Y-35632971D02*
X52112913Y-35690114D01*
X52112913Y-35690114D02*
X52084342Y-35718685D01*
X52084342Y-35718685D02*
X52027199Y-35747257D01*
X52027199Y-35747257D02*
X51798628Y-35747257D01*
X52712913Y-36032971D02*
X52370056Y-36032971D01*
X52541485Y-36032971D02*
X52541485Y-35432971D01*
X52541485Y-35432971D02*
X52484342Y-35518685D01*
X52484342Y-35518685D02*
X52427199Y-35575828D01*
X52427199Y-35575828D02*
X52370056Y-35604400D01*
X53227200Y-35632971D02*
X53227200Y-36032971D01*
X53084342Y-35404400D02*
X52941485Y-35832971D01*
X52941485Y-35832971D02*
X53312914Y-35832971D01*
X85517085Y-31410171D02*
X85317085Y-31124457D01*
X85174228Y-31410171D02*
X85174228Y-30810171D01*
X85174228Y-30810171D02*
X85402799Y-30810171D01*
X85402799Y-30810171D02*
X85459942Y-30838742D01*
X85459942Y-30838742D02*
X85488513Y-30867314D01*
X85488513Y-30867314D02*
X85517085Y-30924457D01*
X85517085Y-30924457D02*
X85517085Y-31010171D01*
X85517085Y-31010171D02*
X85488513Y-31067314D01*
X85488513Y-31067314D02*
X85459942Y-31095885D01*
X85459942Y-31095885D02*
X85402799Y-31124457D01*
X85402799Y-31124457D02*
X85174228Y-31124457D01*
X86088513Y-31410171D02*
X85745656Y-31410171D01*
X85917085Y-31410171D02*
X85917085Y-30810171D01*
X85917085Y-30810171D02*
X85859942Y-30895885D01*
X85859942Y-30895885D02*
X85802799Y-30953028D01*
X85802799Y-30953028D02*
X85745656Y-30981600D01*
X86288514Y-30810171D02*
X86688514Y-30810171D01*
X86688514Y-30810171D02*
X86431371Y-31410171D01*
X83334114Y-35617142D02*
X83305542Y-35674285D01*
X83305542Y-35674285D02*
X83248400Y-35731428D01*
X83248400Y-35731428D02*
X83162685Y-35817142D01*
X83162685Y-35817142D02*
X83134114Y-35874285D01*
X83134114Y-35874285D02*
X83134114Y-35931428D01*
X83276971Y-35902857D02*
X83248400Y-35960000D01*
X83248400Y-35960000D02*
X83191257Y-36017142D01*
X83191257Y-36017142D02*
X83076971Y-36045714D01*
X83076971Y-36045714D02*
X82876971Y-36045714D01*
X82876971Y-36045714D02*
X82762685Y-36017142D01*
X82762685Y-36017142D02*
X82705542Y-35960000D01*
X82705542Y-35960000D02*
X82676971Y-35902857D01*
X82676971Y-35902857D02*
X82676971Y-35788571D01*
X82676971Y-35788571D02*
X82705542Y-35731428D01*
X82705542Y-35731428D02*
X82762685Y-35674285D01*
X82762685Y-35674285D02*
X82876971Y-35645714D01*
X82876971Y-35645714D02*
X83076971Y-35645714D01*
X83076971Y-35645714D02*
X83191257Y-35674285D01*
X83191257Y-35674285D02*
X83248400Y-35731428D01*
X83248400Y-35731428D02*
X83276971Y-35788571D01*
X83276971Y-35788571D02*
X83276971Y-35902857D01*
X82676971Y-35445714D02*
X82676971Y-35074286D01*
X82676971Y-35074286D02*
X82905542Y-35274286D01*
X82905542Y-35274286D02*
X82905542Y-35188571D01*
X82905542Y-35188571D02*
X82934114Y-35131429D01*
X82934114Y-35131429D02*
X82962685Y-35102857D01*
X82962685Y-35102857D02*
X83019828Y-35074286D01*
X83019828Y-35074286D02*
X83162685Y-35074286D01*
X83162685Y-35074286D02*
X83219828Y-35102857D01*
X83219828Y-35102857D02*
X83248400Y-35131429D01*
X83248400Y-35131429D02*
X83276971Y-35188571D01*
X83276971Y-35188571D02*
X83276971Y-35360000D01*
X83276971Y-35360000D02*
X83248400Y-35417143D01*
X83248400Y-35417143D02*
X83219828Y-35445714D01*
X84858114Y-39071542D02*
X84829542Y-39128685D01*
X84829542Y-39128685D02*
X84772400Y-39185828D01*
X84772400Y-39185828D02*
X84686685Y-39271542D01*
X84686685Y-39271542D02*
X84658114Y-39328685D01*
X84658114Y-39328685D02*
X84658114Y-39385828D01*
X84800971Y-39357257D02*
X84772400Y-39414400D01*
X84772400Y-39414400D02*
X84715257Y-39471542D01*
X84715257Y-39471542D02*
X84600971Y-39500114D01*
X84600971Y-39500114D02*
X84400971Y-39500114D01*
X84400971Y-39500114D02*
X84286685Y-39471542D01*
X84286685Y-39471542D02*
X84229542Y-39414400D01*
X84229542Y-39414400D02*
X84200971Y-39357257D01*
X84200971Y-39357257D02*
X84200971Y-39242971D01*
X84200971Y-39242971D02*
X84229542Y-39185828D01*
X84229542Y-39185828D02*
X84286685Y-39128685D01*
X84286685Y-39128685D02*
X84400971Y-39100114D01*
X84400971Y-39100114D02*
X84600971Y-39100114D01*
X84600971Y-39100114D02*
X84715257Y-39128685D01*
X84715257Y-39128685D02*
X84772400Y-39185828D01*
X84772400Y-39185828D02*
X84800971Y-39242971D01*
X84800971Y-39242971D02*
X84800971Y-39357257D01*
X84400971Y-38585829D02*
X84800971Y-38585829D01*
X84172400Y-38728686D02*
X84600971Y-38871543D01*
X84600971Y-38871543D02*
X84600971Y-38500114D01*
X76326971Y-39573142D02*
X76812685Y-39573142D01*
X76812685Y-39573142D02*
X76869828Y-39544571D01*
X76869828Y-39544571D02*
X76898400Y-39516000D01*
X76898400Y-39516000D02*
X76926971Y-39458857D01*
X76926971Y-39458857D02*
X76926971Y-39344571D01*
X76926971Y-39344571D02*
X76898400Y-39287428D01*
X76898400Y-39287428D02*
X76869828Y-39258857D01*
X76869828Y-39258857D02*
X76812685Y-39230285D01*
X76812685Y-39230285D02*
X76326971Y-39230285D01*
X76326971Y-39001714D02*
X76326971Y-38630286D01*
X76326971Y-38630286D02*
X76555542Y-38830286D01*
X76555542Y-38830286D02*
X76555542Y-38744571D01*
X76555542Y-38744571D02*
X76584114Y-38687429D01*
X76584114Y-38687429D02*
X76612685Y-38658857D01*
X76612685Y-38658857D02*
X76669828Y-38630286D01*
X76669828Y-38630286D02*
X76812685Y-38630286D01*
X76812685Y-38630286D02*
X76869828Y-38658857D01*
X76869828Y-38658857D02*
X76898400Y-38687429D01*
X76898400Y-38687429D02*
X76926971Y-38744571D01*
X76926971Y-38744571D02*
X76926971Y-38916000D01*
X76926971Y-38916000D02*
X76898400Y-38973143D01*
X76898400Y-38973143D02*
X76869828Y-39001714D01*
X121316326Y-65904472D02*
X121030612Y-65904472D01*
X121030612Y-65904472D02*
X121030612Y-65304472D01*
X121544897Y-65904472D02*
X121659183Y-65904472D01*
X121659183Y-65904472D02*
X121716326Y-65875901D01*
X121716326Y-65875901D02*
X121744897Y-65847329D01*
X121744897Y-65847329D02*
X121802040Y-65761615D01*
X121802040Y-65761615D02*
X121830611Y-65647329D01*
X121830611Y-65647329D02*
X121830611Y-65418758D01*
X121830611Y-65418758D02*
X121802040Y-65361615D01*
X121802040Y-65361615D02*
X121773469Y-65333043D01*
X121773469Y-65333043D02*
X121716326Y-65304472D01*
X121716326Y-65304472D02*
X121602040Y-65304472D01*
X121602040Y-65304472D02*
X121544897Y-65333043D01*
X121544897Y-65333043D02*
X121516326Y-65361615D01*
X121516326Y-65361615D02*
X121487754Y-65418758D01*
X121487754Y-65418758D02*
X121487754Y-65561615D01*
X121487754Y-65561615D02*
X121516326Y-65618758D01*
X121516326Y-65618758D02*
X121544897Y-65647329D01*
X121544897Y-65647329D02*
X121602040Y-65675901D01*
X121602040Y-65675901D02*
X121716326Y-65675901D01*
X121716326Y-65675901D02*
X121773469Y-65647329D01*
X121773469Y-65647329D02*
X121802040Y-65618758D01*
X121802040Y-65618758D02*
X121830611Y-65561615D01*
X80154433Y-57164191D02*
X79868719Y-57164191D01*
X79868719Y-57164191D02*
X79868719Y-56564191D01*
X80611576Y-56564191D02*
X80497290Y-56564191D01*
X80497290Y-56564191D02*
X80440147Y-56592762D01*
X80440147Y-56592762D02*
X80411576Y-56621334D01*
X80411576Y-56621334D02*
X80354433Y-56707048D01*
X80354433Y-56707048D02*
X80325861Y-56821334D01*
X80325861Y-56821334D02*
X80325861Y-57049905D01*
X80325861Y-57049905D02*
X80354433Y-57107048D01*
X80354433Y-57107048D02*
X80383004Y-57135620D01*
X80383004Y-57135620D02*
X80440147Y-57164191D01*
X80440147Y-57164191D02*
X80554433Y-57164191D01*
X80554433Y-57164191D02*
X80611576Y-57135620D01*
X80611576Y-57135620D02*
X80640147Y-57107048D01*
X80640147Y-57107048D02*
X80668718Y-57049905D01*
X80668718Y-57049905D02*
X80668718Y-56907048D01*
X80668718Y-56907048D02*
X80640147Y-56849905D01*
X80640147Y-56849905D02*
X80611576Y-56821334D01*
X80611576Y-56821334D02*
X80554433Y-56792762D01*
X80554433Y-56792762D02*
X80440147Y-56792762D01*
X80440147Y-56792762D02*
X80383004Y-56821334D01*
X80383004Y-56821334D02*
X80354433Y-56849905D01*
X80354433Y-56849905D02*
X80325861Y-56907048D01*
X66106571Y-25093599D02*
X65820857Y-25293599D01*
X66106571Y-25436456D02*
X65506571Y-25436456D01*
X65506571Y-25436456D02*
X65506571Y-25207885D01*
X65506571Y-25207885D02*
X65535142Y-25150742D01*
X65535142Y-25150742D02*
X65563714Y-25122171D01*
X65563714Y-25122171D02*
X65620857Y-25093599D01*
X65620857Y-25093599D02*
X65706571Y-25093599D01*
X65706571Y-25093599D02*
X65763714Y-25122171D01*
X65763714Y-25122171D02*
X65792285Y-25150742D01*
X65792285Y-25150742D02*
X65820857Y-25207885D01*
X65820857Y-25207885D02*
X65820857Y-25436456D01*
X65506571Y-24893599D02*
X65506571Y-24522171D01*
X65506571Y-24522171D02*
X65735142Y-24722171D01*
X65735142Y-24722171D02*
X65735142Y-24636456D01*
X65735142Y-24636456D02*
X65763714Y-24579314D01*
X65763714Y-24579314D02*
X65792285Y-24550742D01*
X65792285Y-24550742D02*
X65849428Y-24522171D01*
X65849428Y-24522171D02*
X65992285Y-24522171D01*
X65992285Y-24522171D02*
X66049428Y-24550742D01*
X66049428Y-24550742D02*
X66078000Y-24579314D01*
X66078000Y-24579314D02*
X66106571Y-24636456D01*
X66106571Y-24636456D02*
X66106571Y-24807885D01*
X66106571Y-24807885D02*
X66078000Y-24865028D01*
X66078000Y-24865028D02*
X66049428Y-24893599D01*
X83281885Y-32984971D02*
X83081885Y-32699257D01*
X82939028Y-32984971D02*
X82939028Y-32384971D01*
X82939028Y-32384971D02*
X83167599Y-32384971D01*
X83167599Y-32384971D02*
X83224742Y-32413542D01*
X83224742Y-32413542D02*
X83253313Y-32442114D01*
X83253313Y-32442114D02*
X83281885Y-32499257D01*
X83281885Y-32499257D02*
X83281885Y-32584971D01*
X83281885Y-32584971D02*
X83253313Y-32642114D01*
X83253313Y-32642114D02*
X83224742Y-32670685D01*
X83224742Y-32670685D02*
X83167599Y-32699257D01*
X83167599Y-32699257D02*
X82939028Y-32699257D01*
X83853313Y-32984971D02*
X83510456Y-32984971D01*
X83681885Y-32984971D02*
X83681885Y-32384971D01*
X83681885Y-32384971D02*
X83624742Y-32470685D01*
X83624742Y-32470685D02*
X83567599Y-32527828D01*
X83567599Y-32527828D02*
X83510456Y-32556400D01*
X84367600Y-32384971D02*
X84253314Y-32384971D01*
X84253314Y-32384971D02*
X84196171Y-32413542D01*
X84196171Y-32413542D02*
X84167600Y-32442114D01*
X84167600Y-32442114D02*
X84110457Y-32527828D01*
X84110457Y-32527828D02*
X84081885Y-32642114D01*
X84081885Y-32642114D02*
X84081885Y-32870685D01*
X84081885Y-32870685D02*
X84110457Y-32927828D01*
X84110457Y-32927828D02*
X84139028Y-32956400D01*
X84139028Y-32956400D02*
X84196171Y-32984971D01*
X84196171Y-32984971D02*
X84310457Y-32984971D01*
X84310457Y-32984971D02*
X84367600Y-32956400D01*
X84367600Y-32956400D02*
X84396171Y-32927828D01*
X84396171Y-32927828D02*
X84424742Y-32870685D01*
X84424742Y-32870685D02*
X84424742Y-32727828D01*
X84424742Y-32727828D02*
X84396171Y-32670685D01*
X84396171Y-32670685D02*
X84367600Y-32642114D01*
X84367600Y-32642114D02*
X84310457Y-32613542D01*
X84310457Y-32613542D02*
X84196171Y-32613542D01*
X84196171Y-32613542D02*
X84139028Y-32642114D01*
X84139028Y-32642114D02*
X84110457Y-32670685D01*
X84110457Y-32670685D02*
X84081885Y-32727828D01*
X43791200Y-49901371D02*
X43505486Y-49901371D01*
X43505486Y-49901371D02*
X43505486Y-49301371D01*
X44248343Y-49501371D02*
X44248343Y-49901371D01*
X44105485Y-49272800D02*
X43962628Y-49701371D01*
X43962628Y-49701371D02*
X44334057Y-49701371D01*
X61977600Y-22767828D02*
X61949028Y-22796400D01*
X61949028Y-22796400D02*
X61863314Y-22824971D01*
X61863314Y-22824971D02*
X61806171Y-22824971D01*
X61806171Y-22824971D02*
X61720457Y-22796400D01*
X61720457Y-22796400D02*
X61663314Y-22739257D01*
X61663314Y-22739257D02*
X61634743Y-22682114D01*
X61634743Y-22682114D02*
X61606171Y-22567828D01*
X61606171Y-22567828D02*
X61606171Y-22482114D01*
X61606171Y-22482114D02*
X61634743Y-22367828D01*
X61634743Y-22367828D02*
X61663314Y-22310685D01*
X61663314Y-22310685D02*
X61720457Y-22253542D01*
X61720457Y-22253542D02*
X61806171Y-22224971D01*
X61806171Y-22224971D02*
X61863314Y-22224971D01*
X61863314Y-22224971D02*
X61949028Y-22253542D01*
X61949028Y-22253542D02*
X61977600Y-22282114D01*
X62177600Y-22224971D02*
X62577600Y-22224971D01*
X62577600Y-22224971D02*
X62320457Y-22824971D01*
X48061656Y-36347371D02*
X48404514Y-36347371D01*
X48233085Y-36947371D02*
X48233085Y-36347371D01*
X48604514Y-36947371D02*
X48604514Y-36347371D01*
X48604514Y-36347371D02*
X48833085Y-36347371D01*
X48833085Y-36347371D02*
X48890228Y-36375942D01*
X48890228Y-36375942D02*
X48918799Y-36404514D01*
X48918799Y-36404514D02*
X48947371Y-36461657D01*
X48947371Y-36461657D02*
X48947371Y-36547371D01*
X48947371Y-36547371D02*
X48918799Y-36604514D01*
X48918799Y-36604514D02*
X48890228Y-36633085D01*
X48890228Y-36633085D02*
X48833085Y-36661657D01*
X48833085Y-36661657D02*
X48604514Y-36661657D01*
X49147371Y-36347371D02*
X49518799Y-36347371D01*
X49518799Y-36347371D02*
X49318799Y-36575942D01*
X49318799Y-36575942D02*
X49404514Y-36575942D01*
X49404514Y-36575942D02*
X49461657Y-36604514D01*
X49461657Y-36604514D02*
X49490228Y-36633085D01*
X49490228Y-36633085D02*
X49518799Y-36690228D01*
X49518799Y-36690228D02*
X49518799Y-36833085D01*
X49518799Y-36833085D02*
X49490228Y-36890228D01*
X49490228Y-36890228D02*
X49461657Y-36918800D01*
X49461657Y-36918800D02*
X49404514Y-36947371D01*
X49404514Y-36947371D02*
X49233085Y-36947371D01*
X49233085Y-36947371D02*
X49175942Y-36918800D01*
X49175942Y-36918800D02*
X49147371Y-36890228D01*
X70322971Y-23738999D02*
X70037257Y-23938999D01*
X70322971Y-24081856D02*
X69722971Y-24081856D01*
X69722971Y-24081856D02*
X69722971Y-23853285D01*
X69722971Y-23853285D02*
X69751542Y-23796142D01*
X69751542Y-23796142D02*
X69780114Y-23767571D01*
X69780114Y-23767571D02*
X69837257Y-23738999D01*
X69837257Y-23738999D02*
X69922971Y-23738999D01*
X69922971Y-23738999D02*
X69980114Y-23767571D01*
X69980114Y-23767571D02*
X70008685Y-23796142D01*
X70008685Y-23796142D02*
X70037257Y-23853285D01*
X70037257Y-23853285D02*
X70037257Y-24081856D01*
X70322971Y-23167571D02*
X70322971Y-23510428D01*
X70322971Y-23338999D02*
X69722971Y-23338999D01*
X69722971Y-23338999D02*
X69808685Y-23396142D01*
X69808685Y-23396142D02*
X69865828Y-23453285D01*
X69865828Y-23453285D02*
X69894400Y-23510428D01*
X70192800Y-39662000D02*
X70221371Y-39576286D01*
X70221371Y-39576286D02*
X70221371Y-39433428D01*
X70221371Y-39433428D02*
X70192800Y-39376286D01*
X70192800Y-39376286D02*
X70164228Y-39347714D01*
X70164228Y-39347714D02*
X70107085Y-39319143D01*
X70107085Y-39319143D02*
X70049942Y-39319143D01*
X70049942Y-39319143D02*
X69992800Y-39347714D01*
X69992800Y-39347714D02*
X69964228Y-39376286D01*
X69964228Y-39376286D02*
X69935657Y-39433428D01*
X69935657Y-39433428D02*
X69907085Y-39547714D01*
X69907085Y-39547714D02*
X69878514Y-39604857D01*
X69878514Y-39604857D02*
X69849942Y-39633428D01*
X69849942Y-39633428D02*
X69792800Y-39662000D01*
X69792800Y-39662000D02*
X69735657Y-39662000D01*
X69735657Y-39662000D02*
X69678514Y-39633428D01*
X69678514Y-39633428D02*
X69649942Y-39604857D01*
X69649942Y-39604857D02*
X69621371Y-39547714D01*
X69621371Y-39547714D02*
X69621371Y-39404857D01*
X69621371Y-39404857D02*
X69649942Y-39319143D01*
X69621371Y-39119142D02*
X70221371Y-38976285D01*
X70221371Y-38976285D02*
X69792800Y-38861999D01*
X69792800Y-38861999D02*
X70221371Y-38747714D01*
X70221371Y-38747714D02*
X69621371Y-38604857D01*
X70221371Y-38062000D02*
X70221371Y-38404857D01*
X70221371Y-38233428D02*
X69621371Y-38233428D01*
X69621371Y-38233428D02*
X69707085Y-38290571D01*
X69707085Y-38290571D02*
X69764228Y-38347714D01*
X69764228Y-38347714D02*
X69792800Y-38404857D01*
X55558743Y-30241771D02*
X55558743Y-29641771D01*
X55558743Y-29641771D02*
X55701600Y-29641771D01*
X55701600Y-29641771D02*
X55787314Y-29670342D01*
X55787314Y-29670342D02*
X55844457Y-29727485D01*
X55844457Y-29727485D02*
X55873028Y-29784628D01*
X55873028Y-29784628D02*
X55901600Y-29898914D01*
X55901600Y-29898914D02*
X55901600Y-29984628D01*
X55901600Y-29984628D02*
X55873028Y-30098914D01*
X55873028Y-30098914D02*
X55844457Y-30156057D01*
X55844457Y-30156057D02*
X55787314Y-30213200D01*
X55787314Y-30213200D02*
X55701600Y-30241771D01*
X55701600Y-30241771D02*
X55558743Y-30241771D01*
X56415886Y-29641771D02*
X56301600Y-29641771D01*
X56301600Y-29641771D02*
X56244457Y-29670342D01*
X56244457Y-29670342D02*
X56215886Y-29698914D01*
X56215886Y-29698914D02*
X56158743Y-29784628D01*
X56158743Y-29784628D02*
X56130171Y-29898914D01*
X56130171Y-29898914D02*
X56130171Y-30127485D01*
X56130171Y-30127485D02*
X56158743Y-30184628D01*
X56158743Y-30184628D02*
X56187314Y-30213200D01*
X56187314Y-30213200D02*
X56244457Y-30241771D01*
X56244457Y-30241771D02*
X56358743Y-30241771D01*
X56358743Y-30241771D02*
X56415886Y-30213200D01*
X56415886Y-30213200D02*
X56444457Y-30184628D01*
X56444457Y-30184628D02*
X56473028Y-30127485D01*
X56473028Y-30127485D02*
X56473028Y-29984628D01*
X56473028Y-29984628D02*
X56444457Y-29927485D01*
X56444457Y-29927485D02*
X56415886Y-29898914D01*
X56415886Y-29898914D02*
X56358743Y-29870342D01*
X56358743Y-29870342D02*
X56244457Y-29870342D01*
X56244457Y-29870342D02*
X56187314Y-29898914D01*
X56187314Y-29898914D02*
X56158743Y-29927485D01*
X56158743Y-29927485D02*
X56130171Y-29984628D01*
X59694856Y-35636171D02*
X60037714Y-35636171D01*
X59866285Y-36236171D02*
X59866285Y-35636171D01*
X60237714Y-36236171D02*
X60237714Y-35636171D01*
X60237714Y-35636171D02*
X60466285Y-35636171D01*
X60466285Y-35636171D02*
X60523428Y-35664742D01*
X60523428Y-35664742D02*
X60551999Y-35693314D01*
X60551999Y-35693314D02*
X60580571Y-35750457D01*
X60580571Y-35750457D02*
X60580571Y-35836171D01*
X60580571Y-35836171D02*
X60551999Y-35893314D01*
X60551999Y-35893314D02*
X60523428Y-35921885D01*
X60523428Y-35921885D02*
X60466285Y-35950457D01*
X60466285Y-35950457D02*
X60237714Y-35950457D01*
X61151999Y-36236171D02*
X60809142Y-36236171D01*
X60980571Y-36236171D02*
X60980571Y-35636171D01*
X60980571Y-35636171D02*
X60923428Y-35721885D01*
X60923428Y-35721885D02*
X60866285Y-35779028D01*
X60866285Y-35779028D02*
X60809142Y-35807600D01*
X87345885Y-36032971D02*
X87145885Y-35747257D01*
X87003028Y-36032971D02*
X87003028Y-35432971D01*
X87003028Y-35432971D02*
X87231599Y-35432971D01*
X87231599Y-35432971D02*
X87288742Y-35461542D01*
X87288742Y-35461542D02*
X87317313Y-35490114D01*
X87317313Y-35490114D02*
X87345885Y-35547257D01*
X87345885Y-35547257D02*
X87345885Y-35632971D01*
X87345885Y-35632971D02*
X87317313Y-35690114D01*
X87317313Y-35690114D02*
X87288742Y-35718685D01*
X87288742Y-35718685D02*
X87231599Y-35747257D01*
X87231599Y-35747257D02*
X87003028Y-35747257D01*
X87917313Y-36032971D02*
X87574456Y-36032971D01*
X87745885Y-36032971D02*
X87745885Y-35432971D01*
X87745885Y-35432971D02*
X87688742Y-35518685D01*
X87688742Y-35518685D02*
X87631599Y-35575828D01*
X87631599Y-35575828D02*
X87574456Y-35604400D01*
X88260171Y-35690114D02*
X88203028Y-35661542D01*
X88203028Y-35661542D02*
X88174457Y-35632971D01*
X88174457Y-35632971D02*
X88145885Y-35575828D01*
X88145885Y-35575828D02*
X88145885Y-35547257D01*
X88145885Y-35547257D02*
X88174457Y-35490114D01*
X88174457Y-35490114D02*
X88203028Y-35461542D01*
X88203028Y-35461542D02*
X88260171Y-35432971D01*
X88260171Y-35432971D02*
X88374457Y-35432971D01*
X88374457Y-35432971D02*
X88431600Y-35461542D01*
X88431600Y-35461542D02*
X88460171Y-35490114D01*
X88460171Y-35490114D02*
X88488742Y-35547257D01*
X88488742Y-35547257D02*
X88488742Y-35575828D01*
X88488742Y-35575828D02*
X88460171Y-35632971D01*
X88460171Y-35632971D02*
X88431600Y-35661542D01*
X88431600Y-35661542D02*
X88374457Y-35690114D01*
X88374457Y-35690114D02*
X88260171Y-35690114D01*
X88260171Y-35690114D02*
X88203028Y-35718685D01*
X88203028Y-35718685D02*
X88174457Y-35747257D01*
X88174457Y-35747257D02*
X88145885Y-35804400D01*
X88145885Y-35804400D02*
X88145885Y-35918685D01*
X88145885Y-35918685D02*
X88174457Y-35975828D01*
X88174457Y-35975828D02*
X88203028Y-36004400D01*
X88203028Y-36004400D02*
X88260171Y-36032971D01*
X88260171Y-36032971D02*
X88374457Y-36032971D01*
X88374457Y-36032971D02*
X88431600Y-36004400D01*
X88431600Y-36004400D02*
X88460171Y-35975828D01*
X88460171Y-35975828D02*
X88488742Y-35918685D01*
X88488742Y-35918685D02*
X88488742Y-35804400D01*
X88488742Y-35804400D02*
X88460171Y-35747257D01*
X88460171Y-35747257D02*
X88431600Y-35718685D01*
X88431600Y-35718685D02*
X88374457Y-35690114D01*
X74576000Y-45018228D02*
X74547428Y-45046800D01*
X74547428Y-45046800D02*
X74461714Y-45075371D01*
X74461714Y-45075371D02*
X74404571Y-45075371D01*
X74404571Y-45075371D02*
X74318857Y-45046800D01*
X74318857Y-45046800D02*
X74261714Y-44989657D01*
X74261714Y-44989657D02*
X74233143Y-44932514D01*
X74233143Y-44932514D02*
X74204571Y-44818228D01*
X74204571Y-44818228D02*
X74204571Y-44732514D01*
X74204571Y-44732514D02*
X74233143Y-44618228D01*
X74233143Y-44618228D02*
X74261714Y-44561085D01*
X74261714Y-44561085D02*
X74318857Y-44503942D01*
X74318857Y-44503942D02*
X74404571Y-44475371D01*
X74404571Y-44475371D02*
X74461714Y-44475371D01*
X74461714Y-44475371D02*
X74547428Y-44503942D01*
X74547428Y-44503942D02*
X74576000Y-44532514D01*
X74861714Y-45075371D02*
X74976000Y-45075371D01*
X74976000Y-45075371D02*
X75033143Y-45046800D01*
X75033143Y-45046800D02*
X75061714Y-45018228D01*
X75061714Y-45018228D02*
X75118857Y-44932514D01*
X75118857Y-44932514D02*
X75147428Y-44818228D01*
X75147428Y-44818228D02*
X75147428Y-44589657D01*
X75147428Y-44589657D02*
X75118857Y-44532514D01*
X75118857Y-44532514D02*
X75090286Y-44503942D01*
X75090286Y-44503942D02*
X75033143Y-44475371D01*
X75033143Y-44475371D02*
X74918857Y-44475371D01*
X74918857Y-44475371D02*
X74861714Y-44503942D01*
X74861714Y-44503942D02*
X74833143Y-44532514D01*
X74833143Y-44532514D02*
X74804571Y-44589657D01*
X74804571Y-44589657D02*
X74804571Y-44732514D01*
X74804571Y-44732514D02*
X74833143Y-44789657D01*
X74833143Y-44789657D02*
X74861714Y-44818228D01*
X74861714Y-44818228D02*
X74918857Y-44846800D01*
X74918857Y-44846800D02*
X75033143Y-44846800D01*
X75033143Y-44846800D02*
X75090286Y-44818228D01*
X75090286Y-44818228D02*
X75118857Y-44789657D01*
X75118857Y-44789657D02*
X75147428Y-44732514D01*
X59547028Y-33187799D02*
X59575600Y-33216371D01*
X59575600Y-33216371D02*
X59604171Y-33302085D01*
X59604171Y-33302085D02*
X59604171Y-33359228D01*
X59604171Y-33359228D02*
X59575600Y-33444942D01*
X59575600Y-33444942D02*
X59518457Y-33502085D01*
X59518457Y-33502085D02*
X59461314Y-33530656D01*
X59461314Y-33530656D02*
X59347028Y-33559228D01*
X59347028Y-33559228D02*
X59261314Y-33559228D01*
X59261314Y-33559228D02*
X59147028Y-33530656D01*
X59147028Y-33530656D02*
X59089885Y-33502085D01*
X59089885Y-33502085D02*
X59032742Y-33444942D01*
X59032742Y-33444942D02*
X59004171Y-33359228D01*
X59004171Y-33359228D02*
X59004171Y-33302085D01*
X59004171Y-33302085D02*
X59032742Y-33216371D01*
X59032742Y-33216371D02*
X59061314Y-33187799D01*
X59004171Y-32987799D02*
X59004171Y-32616371D01*
X59004171Y-32616371D02*
X59232742Y-32816371D01*
X59232742Y-32816371D02*
X59232742Y-32730656D01*
X59232742Y-32730656D02*
X59261314Y-32673514D01*
X59261314Y-32673514D02*
X59289885Y-32644942D01*
X59289885Y-32644942D02*
X59347028Y-32616371D01*
X59347028Y-32616371D02*
X59489885Y-32616371D01*
X59489885Y-32616371D02*
X59547028Y-32644942D01*
X59547028Y-32644942D02*
X59575600Y-32673514D01*
X59575600Y-32673514D02*
X59604171Y-32730656D01*
X59604171Y-32730656D02*
X59604171Y-32902085D01*
X59604171Y-32902085D02*
X59575600Y-32959228D01*
X59575600Y-32959228D02*
X59547028Y-32987799D01*
D12*
%TO.C,U1*%
X69302206Y-37209705D02*
X66254206Y-37209705D01*
X66254206Y-37209705D02*
X66254206Y-35177705D01*
X66254206Y-35177705D02*
X69302206Y-35177705D01*
X69302206Y-35177705D02*
X69302206Y-37209705D01*
X69834191Y-37514505D02*
G75*
G03*
X69834191Y-37514505I-227185J0D01*
G01*
D13*
%TO.C,Q2*%
X75769200Y-31142400D02*
X77169200Y-31142400D01*
X77169200Y-28822400D02*
X75269200Y-28822400D01*
%TO.C,TP2*%
X62011600Y-40335200D02*
G75*
G03*
X62011600Y-40335200I-950000J0D01*
G01*
%TO.C,L1*%
X37033200Y-42193600D02*
X39065200Y-42193600D01*
X37033200Y-44225600D02*
X37033200Y-42193600D01*
X39065200Y-42193600D02*
X39065200Y-44225600D01*
X39065200Y-44225600D02*
X37033200Y-44225600D01*
X36676934Y-44733600D02*
G75*
G03*
X36676934Y-44733600I-151734J0D01*
G01*
%TO.C,Q5*%
X90612400Y-34063700D02*
X90612400Y-32388700D01*
X90612400Y-34063700D02*
X90612400Y-34713700D01*
X87492400Y-34063700D02*
X87492400Y-33413700D01*
X87492400Y-34063700D02*
X87492400Y-34713700D01*
%TO.C,L8*%
X119384326Y-41486701D02*
X121416326Y-41486701D01*
X119384326Y-43518701D02*
X119384326Y-41486701D01*
X121416326Y-41486701D02*
X121416326Y-43518701D01*
X121416326Y-43518701D02*
X119384326Y-43518701D01*
X119028060Y-44026701D02*
G75*
G03*
X119028060Y-44026701I-151734J0D01*
G01*
%TO.C,L10*%
X132922772Y-52036701D02*
X134954772Y-52036701D01*
X132922772Y-54068701D02*
X132922772Y-52036701D01*
X134954772Y-52036701D02*
X134954772Y-54068701D01*
X134954772Y-54068701D02*
X132922772Y-54068701D01*
X132566506Y-54576701D02*
G75*
G03*
X132566506Y-54576701I-151734J0D01*
G01*
%TO.C,TP4*%
X59319200Y-45161200D02*
G75*
G03*
X59319200Y-45161200I-950000J0D01*
G01*
%TO.C,D7*%
X66730952Y-43678176D02*
X68430952Y-43678176D01*
X66730952Y-43678176D02*
X66730952Y-40418176D01*
X68430952Y-43678176D02*
X68430952Y-40418176D01*
%TO.C,C10*%
X72111180Y-43994800D02*
X71830020Y-43994800D01*
X72111180Y-42974800D02*
X71830020Y-42974800D01*
%TO.C,TP6*%
X69225200Y-46228000D02*
G75*
G03*
X69225200Y-46228000I-950000J0D01*
G01*
%TO.C,L7*%
X105845881Y-52036701D02*
X107877881Y-52036701D01*
X105845881Y-54068701D02*
X105845881Y-52036701D01*
X107877881Y-52036701D02*
X107877881Y-54068701D01*
X107877881Y-54068701D02*
X105845881Y-54068701D01*
X105489615Y-54576701D02*
G75*
G03*
X105489615Y-54576701I-151734J0D01*
G01*
%TO.C,L3*%
X37033200Y-51552342D02*
X39065200Y-51552342D01*
X37033200Y-53584342D02*
X37033200Y-51552342D01*
X39065200Y-51552342D02*
X39065200Y-53584342D01*
X39065200Y-53584342D02*
X37033200Y-53584342D01*
X36676934Y-54092342D02*
G75*
G03*
X36676934Y-54092342I-151734J0D01*
G01*
D14*
%TO.C,Ref\u002A\u002A*%
X49496833Y-61845308D02*
X49618614Y-62349723D01*
X49765339Y-62847323D02*
X49618583Y-62349601D01*
X50031758Y-60944849D02*
X51709858Y-60495174D01*
X50678845Y-63359651D02*
X51984617Y-63009748D01*
X51260183Y-58817071D02*
X51709858Y-60495174D01*
X51772511Y-57903565D02*
X52270233Y-57756809D01*
X51984617Y-63009748D02*
X54024913Y-59475849D01*
X52458501Y-63288958D02*
X54503735Y-59746505D01*
X52774526Y-57635059D02*
X52270111Y-57756840D01*
X52806623Y-64588076D02*
X52458501Y-63288958D01*
X53674985Y-58169984D02*
X54024913Y-59475849D01*
X53707082Y-65123001D02*
X54211497Y-65001220D01*
X54709097Y-64854495D02*
X54211375Y-65001251D01*
X55221425Y-63940989D02*
X54771750Y-62262886D01*
X55802763Y-59398409D02*
X54503735Y-59746505D01*
X56449850Y-61813211D02*
X54771750Y-62262886D01*
X56716269Y-59910737D02*
X56863025Y-60408459D01*
X56984775Y-60912752D02*
X56862994Y-60408337D01*
X50031758Y-60944850D02*
G75*
G03*
X49496835Y-61845307I194126J-724438D01*
G01*
X49765340Y-62847323D02*
G75*
G03*
X50678845Y-63359650I719379J212112D01*
G01*
X51772511Y-57903566D02*
G75*
G03*
X51260184Y-58817071I212112J-719379D01*
G01*
X53674984Y-58169984D02*
G75*
G03*
X52774527Y-57635061I-724438J-194126D01*
G01*
X52806625Y-64588076D02*
G75*
G03*
X53707082Y-65123001I724439J194126D01*
G01*
X54709097Y-64854494D02*
G75*
G03*
X55221424Y-63940989I-212112J719379D01*
G01*
X56716268Y-59910737D02*
G75*
G03*
X55802763Y-59398409I-719374J-212103D01*
G01*
X56449850Y-61813209D02*
G75*
G03*
X56984775Y-60912752I-194126J724439D01*
G01*
X55630763Y-58200596D02*
G75*
G03*
X55630763Y-58200596I-625000J0D01*
G01*
G36*
X55280800Y-57619028D02*
G01*
X55500799Y-57804028D01*
X55630804Y-58054032D01*
X55625803Y-58349030D01*
X55505803Y-58584033D01*
X55355807Y-58724030D01*
X55155805Y-58814032D01*
X54935804Y-58824029D01*
X54750800Y-58769030D01*
X54560805Y-58649034D01*
X54450808Y-58469039D01*
X54390804Y-58324030D01*
X54390804Y-58099035D01*
X54450805Y-57929026D01*
X54555802Y-57749034D01*
X54790799Y-57614032D01*
X54990809Y-57584032D01*
X55280800Y-57619028D01*
G37*
G36*
X53160806Y-57644031D02*
G01*
X53420811Y-57784035D01*
X53590805Y-57969030D01*
X53710805Y-58309035D01*
X54030803Y-59479030D01*
X51985806Y-63024029D01*
X50695812Y-63374028D01*
X50500802Y-63399031D01*
X50315802Y-63384029D01*
X50130810Y-63324029D01*
X49945802Y-63174029D01*
X49810805Y-62989030D01*
X49470804Y-61784027D01*
X49480805Y-61574034D01*
X49535805Y-61384032D01*
X49620803Y-61239033D01*
X49775804Y-61069030D01*
X50025807Y-60954031D01*
X51697218Y-60506332D01*
X51701710Y-60505127D01*
X51705803Y-60504031D01*
X51280824Y-58919103D01*
X51262290Y-58908492D01*
X51238804Y-58759034D01*
X51265807Y-58449028D01*
X51380805Y-58194031D01*
X51555807Y-57994028D01*
X52110830Y-57799022D01*
X52810802Y-57634034D01*
X53160806Y-57644031D01*
G37*
G36*
X56170806Y-59384031D02*
G01*
X56355798Y-59444031D01*
X56540806Y-59594031D01*
X56675803Y-59779030D01*
X57015804Y-60984033D01*
X57005803Y-61194027D01*
X56950803Y-61384029D01*
X56865805Y-61529028D01*
X56710804Y-61699030D01*
X56460801Y-61814029D01*
X54789390Y-62261728D01*
X54784898Y-62262933D01*
X54780805Y-62264029D01*
X55205784Y-63848957D01*
X55224318Y-63859568D01*
X55247804Y-64009026D01*
X55220801Y-64319032D01*
X55105803Y-64574029D01*
X54930801Y-64774032D01*
X54375778Y-64969038D01*
X53675806Y-65134026D01*
X53325802Y-65124029D01*
X53065796Y-64984025D01*
X52895803Y-64799030D01*
X52775803Y-64459025D01*
X52455805Y-63289030D01*
X54500802Y-59744031D01*
X55790796Y-59394032D01*
X55985806Y-59369029D01*
X56170806Y-59384031D01*
G37*
D13*
%TO.C,TP5*%
X63789600Y-44196000D02*
G75*
G03*
X63789600Y-44196000I-950000J0D01*
G01*
%TO.C,U2*%
X68370400Y-26294300D02*
X68370400Y-26944300D01*
X67720400Y-33514300D02*
X68370400Y-33514300D01*
X67720400Y-26294300D02*
X68370400Y-26294300D01*
X61800400Y-33514300D02*
X61150400Y-33514300D01*
X61800400Y-26294300D02*
X61150400Y-26294300D01*
X61150400Y-33514300D02*
X61150400Y-32864300D01*
X61150400Y-26294300D02*
X61150400Y-26944300D01*
%TO.C,Y1*%
X68651200Y-24226200D02*
X68651200Y-22226200D01*
X68651200Y-22226200D02*
X68651200Y-21826200D01*
X68451200Y-24226200D02*
X67451200Y-24226200D01*
X68451200Y-22226200D02*
X68451200Y-24226200D01*
X68451200Y-22226200D02*
X68451200Y-21826200D01*
X67451200Y-21826200D02*
X68451200Y-21826200D01*
X67451200Y-21826200D02*
X67451200Y-21426200D01*
X65651200Y-24226200D02*
X64851200Y-24226200D01*
X64851200Y-24226200D02*
X64851200Y-22226200D01*
X64851200Y-22226200D02*
X64851200Y-21826200D01*
X64851200Y-21826200D02*
X65651200Y-21826200D01*
%TO.C,L2*%
X32353829Y-46872971D02*
X34385829Y-46872971D01*
X32353829Y-48904971D02*
X32353829Y-46872971D01*
X34385829Y-46872971D02*
X34385829Y-48904971D01*
X34385829Y-48904971D02*
X32353829Y-48904971D01*
X31997563Y-49412971D02*
G75*
G03*
X31997563Y-49412971I-151734J0D01*
G01*
%TO.C,D1*%
X85676400Y-41164000D02*
X85676400Y-43164000D01*
X85676400Y-41164000D02*
X89686400Y-41164000D01*
X85676400Y-43164000D02*
X89686400Y-43164000D01*
%TO.C,F1*%
X56369296Y-34539853D02*
X55165168Y-34539853D01*
X56369296Y-32719853D02*
X55165168Y-32719853D01*
%TO.C,F2*%
X66340400Y-41511136D02*
X66340400Y-42715264D01*
X64520400Y-41511136D02*
X64520400Y-42715264D01*
%TO.C,C8*%
X76738200Y-44423200D02*
X78608200Y-44423200D01*
X78608200Y-44423200D02*
X78608200Y-40513200D01*
X76738200Y-40513200D02*
X76738200Y-44423200D01*
%TO.C,Q1*%
X75769200Y-28297600D02*
X77169200Y-28297600D01*
X77169200Y-25977600D02*
X75269200Y-25977600D01*
%TO.C,L5*%
X62697433Y-53846420D02*
X64729433Y-53846420D01*
X62697433Y-55878420D02*
X62697433Y-53846420D01*
X64729433Y-53846420D02*
X64729433Y-55878420D01*
X64729433Y-55878420D02*
X62697433Y-55878420D01*
X62341167Y-56386420D02*
G75*
G03*
X62341167Y-56386420I-151734J0D01*
G01*
%TO.C,F3*%
X88752000Y-39108464D02*
X88752000Y-37904336D01*
X90572000Y-39108464D02*
X90572000Y-37904336D01*
%TO.C,D5*%
X79784800Y-33565200D02*
X79784800Y-31865200D01*
X79784800Y-33565200D02*
X76524800Y-33565200D01*
X79784800Y-31865200D02*
X76524800Y-31865200D01*
%TO.C,Q3*%
X86797514Y-35061856D02*
X86797514Y-33386856D01*
X86797514Y-35061856D02*
X86797514Y-35711856D01*
X83677514Y-35061856D02*
X83677514Y-34411856D01*
X83677514Y-35061856D02*
X83677514Y-35711856D01*
%TO.C,Q4*%
X88326400Y-39014400D02*
X88326400Y-37339400D01*
X88326400Y-39014400D02*
X88326400Y-39664400D01*
X85206400Y-39014400D02*
X85206400Y-38364400D01*
X85206400Y-39014400D02*
X85206400Y-39664400D01*
%TO.C,U3*%
X75588400Y-37287200D02*
X75588400Y-38467200D01*
X75918400Y-38467200D02*
X75588400Y-38467200D01*
X75918400Y-38467200D02*
X75918400Y-41187200D01*
X71198400Y-38467200D02*
X71528400Y-38467200D01*
X75918400Y-41187200D02*
X75588400Y-41187200D01*
X71528400Y-41187200D02*
X71198400Y-41187200D01*
X71198400Y-41187200D02*
X71198400Y-38467200D01*
%TO.C,L9*%
X119384326Y-62586701D02*
X121416326Y-62586701D01*
X119384326Y-64618701D02*
X119384326Y-62586701D01*
X121416326Y-62586701D02*
X121416326Y-64618701D01*
X121416326Y-64618701D02*
X119384326Y-64618701D01*
X119028060Y-65126701D02*
G75*
G03*
X119028060Y-65126701I-151734J0D01*
G01*
%TO.C,L6*%
X78222433Y-53846420D02*
X80254433Y-53846420D01*
X78222433Y-55878420D02*
X78222433Y-53846420D01*
X80254433Y-53846420D02*
X80254433Y-55878420D01*
X80254433Y-55878420D02*
X78222433Y-55878420D01*
X77866167Y-56386420D02*
G75*
G03*
X77866167Y-56386420I-151734J0D01*
G01*
%TO.C,L4*%
X41712571Y-46872971D02*
X43744571Y-46872971D01*
X41712571Y-48904971D02*
X41712571Y-46872971D01*
X43744571Y-46872971D02*
X43744571Y-48904971D01*
X43744571Y-48904971D02*
X41712571Y-48904971D01*
X41356305Y-49412971D02*
G75*
G03*
X41356305Y-49412971I-151734J0D01*
G01*
%TO.C,TP3*%
X50378400Y-38506400D02*
G75*
G03*
X50378400Y-38506400I-950000J0D01*
G01*
D12*
%TO.C,SW1*%
X66809806Y-39491705D02*
X68708206Y-39491705D01*
X68708206Y-39491705D02*
X68708206Y-37390105D01*
X68708206Y-37390105D02*
X66809806Y-37390105D01*
X66809806Y-37390105D02*
X66809806Y-39491705D01*
D13*
%TO.C,D6*%
X53991600Y-30646000D02*
X53991600Y-32346000D01*
X53991600Y-30646000D02*
X57251600Y-30646000D01*
X53991600Y-32346000D02*
X57251600Y-32346000D01*
%TO.C,TP1*%
X62011600Y-37693600D02*
G75*
G03*
X62011600Y-37693600I-950000J0D01*
G01*
%TO.C,C9*%
X75159180Y-43994800D02*
X74878020Y-43994800D01*
X75159180Y-42974800D02*
X74878020Y-42974800D01*
%TD*%
M02*
