%TF.GenerationSoftware,KiCad,Pcbnew,7.0.6*%
%TF.CreationDate,2023-09-26T11:41:51-07:00*%
%TF.ProjectId,UniSNES,556e6953-4e45-4532-9e6b-696361645f70,rev?*%
%TF.SameCoordinates,Original*%
%TF.FileFunction,Drillmap*%
%TF.FilePolarity,Positive*%
%FSLAX45Y45*%
G04 Gerber Fmt 4.5, Leading zero omitted, Abs format (unit mm)*
G04 Created by KiCad (PCBNEW 7.0.6) date 2023-09-26 11:41:51*
%MOMM*%
%LPD*%
G01*
G04 APERTURE LIST*
%ADD10C,0.100000*%
%ADD11C,0.200000*%
%ADD12C,0.065000*%
G04 APERTURE END LIST*
D10*
X5042125Y-2965140D02*
G75*
G03*
X5042125Y-2965140I-235000J0D01*
G01*
X7442226Y-2133314D02*
G75*
G03*
X7392227Y-2083314I-49996J4D01*
G01*
X13965221Y-3725878D02*
G75*
G03*
X13965221Y-3725878I-127500J0D01*
G01*
X11540747Y-2672922D02*
X11585555Y-2535019D01*
X13725432Y-3230307D02*
X13680624Y-3368210D01*
X4246970Y-2535019D02*
X4735643Y-2376239D01*
X7392227Y-2083314D02*
X6092227Y-2083314D01*
X14190326Y-5929450D02*
X14190326Y-6022450D01*
X11096881Y-2376240D02*
G75*
G03*
X11065979Y-2371345I-30901J-95080D01*
G01*
X8140298Y-2833314D02*
X9740298Y-2833314D01*
X1715138Y-5833181D02*
G75*
G03*
X1715138Y-5318141I-72387J257520D01*
G01*
X1642199Y-6043160D02*
X2215930Y-6616891D01*
X13680624Y-3368210D02*
X11540747Y-2672922D01*
X2286640Y-6646181D02*
X7598796Y-6646181D01*
X14190326Y-5221872D02*
X14190326Y-3454014D01*
X1711297Y-3358908D02*
G75*
G03*
X1642199Y-3454014I30902J-95106D01*
G01*
X5992227Y-2583307D02*
G75*
G03*
X6042227Y-2533314I3J49997D01*
G01*
X11260400Y-2965140D02*
G75*
G03*
X11260400Y-2965140I-235000J0D01*
G01*
X5992227Y-2583314D02*
X5342400Y-2583314D01*
X1642199Y-5929450D02*
X1642199Y-6043160D01*
X2151900Y-3368210D02*
X2107093Y-3230307D01*
X9840298Y-2983314D02*
X10491507Y-2983314D01*
X14175683Y-6057806D02*
G75*
G03*
X14190326Y-6022450I-35363J35356D01*
G01*
X10589738Y-2371349D02*
G75*
G03*
X10539739Y-2421522I-8J-49991D01*
G01*
X10589738Y-2371350D02*
X11065979Y-2371345D01*
X10491507Y-2983317D02*
G75*
G03*
X10541506Y-2933142I3J49997D01*
G01*
X7442226Y-2331644D02*
G75*
G03*
X7492227Y-2381644I50004J4D01*
G01*
X14121228Y-3358909D02*
X13725432Y-3230307D01*
X8183735Y-6595451D02*
G75*
G03*
X8233728Y-6646181I49995J-729D01*
G01*
X8183734Y-6595451D02*
G75*
G03*
X7648791Y-6595451I-267471J3902D01*
G01*
X2122304Y-3725878D02*
G75*
G03*
X2122304Y-3725878I-127500J0D01*
G01*
X14175681Y-6057805D02*
X13616595Y-6616891D01*
X4291777Y-2672922D02*
X2151900Y-3368210D01*
X9790296Y-2933314D02*
G75*
G03*
X9840298Y-2983314I50014J14D01*
G01*
X6092227Y-2083307D02*
G75*
G03*
X6042227Y-2133314I3J-50003D01*
G01*
X4766546Y-2371346D02*
G75*
G03*
X4735643Y-2376239I-6J-99994D01*
G01*
X8040298Y-2381644D02*
X7492227Y-2381644D01*
X5292790Y-2421522D02*
G75*
G03*
X5242786Y-2371350I-50000J172D01*
G01*
X14117387Y-5318143D02*
G75*
G03*
X14190326Y-5221872I-27067J96273D01*
G01*
X4246970Y-2535019D02*
X4291777Y-2672922D01*
X5292396Y-2533142D02*
G75*
G03*
X5342400Y-2583314I50004J-168D01*
G01*
X6042227Y-2133314D02*
X6042227Y-2533314D01*
X9790296Y-2883314D02*
G75*
G03*
X9740298Y-2833314I-49986J14D01*
G01*
X5292400Y-2533142D02*
X5292786Y-2421522D01*
X10541506Y-2933142D02*
X10539739Y-2421522D01*
X7598796Y-6646176D02*
G75*
G03*
X7648791Y-6595451I4J49996D01*
G01*
X5242786Y-2371350D02*
X4766546Y-2371345D01*
X7504028Y-5234179D02*
G75*
G03*
X7504028Y-5234179I-112500J0D01*
G01*
X1715138Y-5833180D02*
G75*
G03*
X1642199Y-5929450I27062J-96270D01*
G01*
X14117386Y-5318140D02*
G75*
G03*
X14117386Y-5833180I72384J-257520D01*
G01*
X8090306Y-2431644D02*
G75*
G03*
X8040298Y-2381644I-50006J-6D01*
G01*
X14190327Y-3454014D02*
G75*
G03*
X14121228Y-3358909I-100007J-6D01*
G01*
X11585555Y-2535019D02*
X11096881Y-2376239D01*
X14190331Y-5929450D02*
G75*
G03*
X14117386Y-5833181I-100012J-10D01*
G01*
X13545884Y-6646183D02*
G75*
G03*
X13616595Y-6616891I-4J100003D01*
G01*
X2215929Y-6616892D02*
G75*
G03*
X2286640Y-6646181I70711J70712D01*
G01*
X1642199Y-5221872D02*
X1642199Y-3454014D01*
X8090296Y-2783314D02*
G75*
G03*
X8140298Y-2833314I50004J4D01*
G01*
X7442227Y-2331644D02*
X7442227Y-2133314D01*
X1711297Y-3358909D02*
X2107093Y-3230307D01*
X8090298Y-2431644D02*
X8090298Y-2783314D01*
X9790298Y-2883314D02*
X9790298Y-2933314D01*
X8233728Y-6646181D02*
X13545884Y-6646181D01*
X1642198Y-5221872D02*
G75*
G03*
X1715138Y-5318141I100002J2D01*
G01*
D11*
D12*
X5167976Y-3864389D02*
X5232976Y-3929389D01*
X5232976Y-3864389D02*
X5167976Y-3929389D01*
X5167976Y-4584390D02*
X5232976Y-4649390D01*
X5232976Y-4584390D02*
X5167976Y-4649390D01*
D11*
X1897975Y-6962664D02*
X1897975Y-6762664D01*
X1897975Y-6762664D02*
X1945594Y-6762664D01*
X1945594Y-6762664D02*
X1974166Y-6772188D01*
X1974166Y-6772188D02*
X1993214Y-6791236D01*
X1993214Y-6791236D02*
X2002737Y-6810283D01*
X2002737Y-6810283D02*
X2012261Y-6848379D01*
X2012261Y-6848379D02*
X2012261Y-6876950D01*
X2012261Y-6876950D02*
X2002737Y-6915045D01*
X2002737Y-6915045D02*
X1993214Y-6934093D01*
X1993214Y-6934093D02*
X1974166Y-6953141D01*
X1974166Y-6953141D02*
X1945594Y-6962664D01*
X1945594Y-6962664D02*
X1897975Y-6962664D01*
X2097976Y-6962664D02*
X2097976Y-6829331D01*
X2097976Y-6867426D02*
X2107499Y-6848379D01*
X2107499Y-6848379D02*
X2117023Y-6838855D01*
X2117023Y-6838855D02*
X2136071Y-6829331D01*
X2136071Y-6829331D02*
X2155118Y-6829331D01*
X2221785Y-6962664D02*
X2221785Y-6829331D01*
X2221785Y-6762664D02*
X2212261Y-6772188D01*
X2212261Y-6772188D02*
X2221785Y-6781712D01*
X2221785Y-6781712D02*
X2231309Y-6772188D01*
X2231309Y-6772188D02*
X2221785Y-6762664D01*
X2221785Y-6762664D02*
X2221785Y-6781712D01*
X2345595Y-6962664D02*
X2326547Y-6953141D01*
X2326547Y-6953141D02*
X2317023Y-6934093D01*
X2317023Y-6934093D02*
X2317023Y-6762664D01*
X2450356Y-6962664D02*
X2431309Y-6953141D01*
X2431309Y-6953141D02*
X2421785Y-6934093D01*
X2421785Y-6934093D02*
X2421785Y-6762664D01*
X2678928Y-6962664D02*
X2678928Y-6762664D01*
X2678928Y-6762664D02*
X2745595Y-6905521D01*
X2745595Y-6905521D02*
X2812261Y-6762664D01*
X2812261Y-6762664D02*
X2812261Y-6962664D01*
X2993214Y-6962664D02*
X2993214Y-6857902D01*
X2993214Y-6857902D02*
X2983690Y-6838855D01*
X2983690Y-6838855D02*
X2964642Y-6829331D01*
X2964642Y-6829331D02*
X2926547Y-6829331D01*
X2926547Y-6829331D02*
X2907499Y-6838855D01*
X2993214Y-6953141D02*
X2974166Y-6962664D01*
X2974166Y-6962664D02*
X2926547Y-6962664D01*
X2926547Y-6962664D02*
X2907499Y-6953141D01*
X2907499Y-6953141D02*
X2897975Y-6934093D01*
X2897975Y-6934093D02*
X2897975Y-6915045D01*
X2897975Y-6915045D02*
X2907499Y-6895998D01*
X2907499Y-6895998D02*
X2926547Y-6886474D01*
X2926547Y-6886474D02*
X2974166Y-6886474D01*
X2974166Y-6886474D02*
X2993214Y-6876950D01*
X3088452Y-6829331D02*
X3088452Y-7029331D01*
X3088452Y-6838855D02*
X3107499Y-6829331D01*
X3107499Y-6829331D02*
X3145595Y-6829331D01*
X3145595Y-6829331D02*
X3164642Y-6838855D01*
X3164642Y-6838855D02*
X3174166Y-6848379D01*
X3174166Y-6848379D02*
X3183690Y-6867426D01*
X3183690Y-6867426D02*
X3183690Y-6924569D01*
X3183690Y-6924569D02*
X3174166Y-6943617D01*
X3174166Y-6943617D02*
X3164642Y-6953141D01*
X3164642Y-6953141D02*
X3145595Y-6962664D01*
X3145595Y-6962664D02*
X3107499Y-6962664D01*
X3107499Y-6962664D02*
X3088452Y-6953141D01*
X3269404Y-6943617D02*
X3278928Y-6953141D01*
X3278928Y-6953141D02*
X3269404Y-6962664D01*
X3269404Y-6962664D02*
X3259880Y-6953141D01*
X3259880Y-6953141D02*
X3269404Y-6943617D01*
X3269404Y-6943617D02*
X3269404Y-6962664D01*
X3269404Y-6838855D02*
X3278928Y-6848379D01*
X3278928Y-6848379D02*
X3269404Y-6857902D01*
X3269404Y-6857902D02*
X3259880Y-6848379D01*
X3259880Y-6848379D02*
X3269404Y-6838855D01*
X3269404Y-6838855D02*
X3269404Y-6857902D01*
D12*
X1572199Y-7258681D02*
X1637199Y-7323681D01*
X1637199Y-7258681D02*
X1572199Y-7323681D01*
D11*
X1936071Y-7182664D02*
X1955118Y-7182664D01*
X1955118Y-7182664D02*
X1974166Y-7192188D01*
X1974166Y-7192188D02*
X1983690Y-7201712D01*
X1983690Y-7201712D02*
X1993214Y-7220760D01*
X1993214Y-7220760D02*
X2002737Y-7258855D01*
X2002737Y-7258855D02*
X2002737Y-7306474D01*
X2002737Y-7306474D02*
X1993214Y-7344569D01*
X1993214Y-7344569D02*
X1983690Y-7363617D01*
X1983690Y-7363617D02*
X1974166Y-7373141D01*
X1974166Y-7373141D02*
X1955118Y-7382664D01*
X1955118Y-7382664D02*
X1936071Y-7382664D01*
X1936071Y-7382664D02*
X1917023Y-7373141D01*
X1917023Y-7373141D02*
X1907499Y-7363617D01*
X1907499Y-7363617D02*
X1897975Y-7344569D01*
X1897975Y-7344569D02*
X1888452Y-7306474D01*
X1888452Y-7306474D02*
X1888452Y-7258855D01*
X1888452Y-7258855D02*
X1897975Y-7220760D01*
X1897975Y-7220760D02*
X1907499Y-7201712D01*
X1907499Y-7201712D02*
X1917023Y-7192188D01*
X1917023Y-7192188D02*
X1936071Y-7182664D01*
X2088452Y-7363617D02*
X2097976Y-7373141D01*
X2097976Y-7373141D02*
X2088452Y-7382664D01*
X2088452Y-7382664D02*
X2078928Y-7373141D01*
X2078928Y-7373141D02*
X2088452Y-7363617D01*
X2088452Y-7363617D02*
X2088452Y-7382664D01*
X2269404Y-7182664D02*
X2231309Y-7182664D01*
X2231309Y-7182664D02*
X2212261Y-7192188D01*
X2212261Y-7192188D02*
X2202737Y-7201712D01*
X2202737Y-7201712D02*
X2183690Y-7230283D01*
X2183690Y-7230283D02*
X2174166Y-7268379D01*
X2174166Y-7268379D02*
X2174166Y-7344569D01*
X2174166Y-7344569D02*
X2183690Y-7363617D01*
X2183690Y-7363617D02*
X2193214Y-7373141D01*
X2193214Y-7373141D02*
X2212261Y-7382664D01*
X2212261Y-7382664D02*
X2250357Y-7382664D01*
X2250357Y-7382664D02*
X2269404Y-7373141D01*
X2269404Y-7373141D02*
X2278928Y-7363617D01*
X2278928Y-7363617D02*
X2288452Y-7344569D01*
X2288452Y-7344569D02*
X2288452Y-7296950D01*
X2288452Y-7296950D02*
X2278928Y-7277902D01*
X2278928Y-7277902D02*
X2269404Y-7268379D01*
X2269404Y-7268379D02*
X2250357Y-7258855D01*
X2250357Y-7258855D02*
X2212261Y-7258855D01*
X2212261Y-7258855D02*
X2193214Y-7268379D01*
X2193214Y-7268379D02*
X2183690Y-7277902D01*
X2183690Y-7277902D02*
X2174166Y-7296950D01*
X2469404Y-7182664D02*
X2374166Y-7182664D01*
X2374166Y-7182664D02*
X2364642Y-7277902D01*
X2364642Y-7277902D02*
X2374166Y-7268379D01*
X2374166Y-7268379D02*
X2393214Y-7258855D01*
X2393214Y-7258855D02*
X2440833Y-7258855D01*
X2440833Y-7258855D02*
X2459880Y-7268379D01*
X2459880Y-7268379D02*
X2469404Y-7277902D01*
X2469404Y-7277902D02*
X2478928Y-7296950D01*
X2478928Y-7296950D02*
X2478928Y-7344569D01*
X2478928Y-7344569D02*
X2469404Y-7363617D01*
X2469404Y-7363617D02*
X2459880Y-7373141D01*
X2459880Y-7373141D02*
X2440833Y-7382664D01*
X2440833Y-7382664D02*
X2393214Y-7382664D01*
X2393214Y-7382664D02*
X2374166Y-7373141D01*
X2374166Y-7373141D02*
X2364642Y-7363617D01*
X2602737Y-7182664D02*
X2621785Y-7182664D01*
X2621785Y-7182664D02*
X2640833Y-7192188D01*
X2640833Y-7192188D02*
X2650357Y-7201712D01*
X2650357Y-7201712D02*
X2659880Y-7220760D01*
X2659880Y-7220760D02*
X2669404Y-7258855D01*
X2669404Y-7258855D02*
X2669404Y-7306474D01*
X2669404Y-7306474D02*
X2659880Y-7344569D01*
X2659880Y-7344569D02*
X2650357Y-7363617D01*
X2650357Y-7363617D02*
X2640833Y-7373141D01*
X2640833Y-7373141D02*
X2621785Y-7382664D01*
X2621785Y-7382664D02*
X2602737Y-7382664D01*
X2602737Y-7382664D02*
X2583690Y-7373141D01*
X2583690Y-7373141D02*
X2574166Y-7363617D01*
X2574166Y-7363617D02*
X2564642Y-7344569D01*
X2564642Y-7344569D02*
X2555118Y-7306474D01*
X2555118Y-7306474D02*
X2555118Y-7258855D01*
X2555118Y-7258855D02*
X2564642Y-7220760D01*
X2564642Y-7220760D02*
X2574166Y-7201712D01*
X2574166Y-7201712D02*
X2583690Y-7192188D01*
X2583690Y-7192188D02*
X2602737Y-7182664D01*
X2755118Y-7382664D02*
X2755118Y-7249331D01*
X2755118Y-7268379D02*
X2764642Y-7258855D01*
X2764642Y-7258855D02*
X2783690Y-7249331D01*
X2783690Y-7249331D02*
X2812261Y-7249331D01*
X2812261Y-7249331D02*
X2831309Y-7258855D01*
X2831309Y-7258855D02*
X2840833Y-7277902D01*
X2840833Y-7277902D02*
X2840833Y-7382664D01*
X2840833Y-7277902D02*
X2850356Y-7258855D01*
X2850356Y-7258855D02*
X2869404Y-7249331D01*
X2869404Y-7249331D02*
X2897975Y-7249331D01*
X2897975Y-7249331D02*
X2917023Y-7258855D01*
X2917023Y-7258855D02*
X2926547Y-7277902D01*
X2926547Y-7277902D02*
X2926547Y-7382664D01*
X3021785Y-7382664D02*
X3021785Y-7249331D01*
X3021785Y-7268379D02*
X3031309Y-7258855D01*
X3031309Y-7258855D02*
X3050356Y-7249331D01*
X3050356Y-7249331D02*
X3078928Y-7249331D01*
X3078928Y-7249331D02*
X3097976Y-7258855D01*
X3097976Y-7258855D02*
X3107499Y-7277902D01*
X3107499Y-7277902D02*
X3107499Y-7382664D01*
X3107499Y-7277902D02*
X3117023Y-7258855D01*
X3117023Y-7258855D02*
X3136071Y-7249331D01*
X3136071Y-7249331D02*
X3164642Y-7249331D01*
X3164642Y-7249331D02*
X3183690Y-7258855D01*
X3183690Y-7258855D02*
X3193214Y-7277902D01*
X3193214Y-7277902D02*
X3193214Y-7382664D01*
X3583690Y-7173141D02*
X3412261Y-7430283D01*
X3840833Y-7182664D02*
X3859880Y-7182664D01*
X3859880Y-7182664D02*
X3878928Y-7192188D01*
X3878928Y-7192188D02*
X3888452Y-7201712D01*
X3888452Y-7201712D02*
X3897976Y-7220760D01*
X3897976Y-7220760D02*
X3907499Y-7258855D01*
X3907499Y-7258855D02*
X3907499Y-7306474D01*
X3907499Y-7306474D02*
X3897976Y-7344569D01*
X3897976Y-7344569D02*
X3888452Y-7363617D01*
X3888452Y-7363617D02*
X3878928Y-7373141D01*
X3878928Y-7373141D02*
X3859880Y-7382664D01*
X3859880Y-7382664D02*
X3840833Y-7382664D01*
X3840833Y-7382664D02*
X3821785Y-7373141D01*
X3821785Y-7373141D02*
X3812261Y-7363617D01*
X3812261Y-7363617D02*
X3802738Y-7344569D01*
X3802738Y-7344569D02*
X3793214Y-7306474D01*
X3793214Y-7306474D02*
X3793214Y-7258855D01*
X3793214Y-7258855D02*
X3802738Y-7220760D01*
X3802738Y-7220760D02*
X3812261Y-7201712D01*
X3812261Y-7201712D02*
X3821785Y-7192188D01*
X3821785Y-7192188D02*
X3840833Y-7182664D01*
X3993214Y-7363617D02*
X4002738Y-7373141D01*
X4002738Y-7373141D02*
X3993214Y-7382664D01*
X3993214Y-7382664D02*
X3983690Y-7373141D01*
X3983690Y-7373141D02*
X3993214Y-7363617D01*
X3993214Y-7363617D02*
X3993214Y-7382664D01*
X4126547Y-7182664D02*
X4145595Y-7182664D01*
X4145595Y-7182664D02*
X4164642Y-7192188D01*
X4164642Y-7192188D02*
X4174166Y-7201712D01*
X4174166Y-7201712D02*
X4183690Y-7220760D01*
X4183690Y-7220760D02*
X4193214Y-7258855D01*
X4193214Y-7258855D02*
X4193214Y-7306474D01*
X4193214Y-7306474D02*
X4183690Y-7344569D01*
X4183690Y-7344569D02*
X4174166Y-7363617D01*
X4174166Y-7363617D02*
X4164642Y-7373141D01*
X4164642Y-7373141D02*
X4145595Y-7382664D01*
X4145595Y-7382664D02*
X4126547Y-7382664D01*
X4126547Y-7382664D02*
X4107499Y-7373141D01*
X4107499Y-7373141D02*
X4097976Y-7363617D01*
X4097976Y-7363617D02*
X4088452Y-7344569D01*
X4088452Y-7344569D02*
X4078928Y-7306474D01*
X4078928Y-7306474D02*
X4078928Y-7258855D01*
X4078928Y-7258855D02*
X4088452Y-7220760D01*
X4088452Y-7220760D02*
X4097976Y-7201712D01*
X4097976Y-7201712D02*
X4107499Y-7192188D01*
X4107499Y-7192188D02*
X4126547Y-7182664D01*
X4269404Y-7201712D02*
X4278928Y-7192188D01*
X4278928Y-7192188D02*
X4297976Y-7182664D01*
X4297976Y-7182664D02*
X4345595Y-7182664D01*
X4345595Y-7182664D02*
X4364642Y-7192188D01*
X4364642Y-7192188D02*
X4374166Y-7201712D01*
X4374166Y-7201712D02*
X4383690Y-7220760D01*
X4383690Y-7220760D02*
X4383690Y-7239807D01*
X4383690Y-7239807D02*
X4374166Y-7268379D01*
X4374166Y-7268379D02*
X4259881Y-7382664D01*
X4259881Y-7382664D02*
X4383690Y-7382664D01*
X4564642Y-7182664D02*
X4469404Y-7182664D01*
X4469404Y-7182664D02*
X4459881Y-7277902D01*
X4459881Y-7277902D02*
X4469404Y-7268379D01*
X4469404Y-7268379D02*
X4488452Y-7258855D01*
X4488452Y-7258855D02*
X4536071Y-7258855D01*
X4536071Y-7258855D02*
X4555119Y-7268379D01*
X4555119Y-7268379D02*
X4564642Y-7277902D01*
X4564642Y-7277902D02*
X4574166Y-7296950D01*
X4574166Y-7296950D02*
X4574166Y-7344569D01*
X4574166Y-7344569D02*
X4564642Y-7363617D01*
X4564642Y-7363617D02*
X4555119Y-7373141D01*
X4555119Y-7373141D02*
X4536071Y-7382664D01*
X4536071Y-7382664D02*
X4488452Y-7382664D01*
X4488452Y-7382664D02*
X4469404Y-7373141D01*
X4469404Y-7373141D02*
X4459881Y-7363617D01*
X4745595Y-7182664D02*
X4707500Y-7182664D01*
X4707500Y-7182664D02*
X4688452Y-7192188D01*
X4688452Y-7192188D02*
X4678928Y-7201712D01*
X4678928Y-7201712D02*
X4659881Y-7230283D01*
X4659881Y-7230283D02*
X4650357Y-7268379D01*
X4650357Y-7268379D02*
X4650357Y-7344569D01*
X4650357Y-7344569D02*
X4659881Y-7363617D01*
X4659881Y-7363617D02*
X4669404Y-7373141D01*
X4669404Y-7373141D02*
X4688452Y-7382664D01*
X4688452Y-7382664D02*
X4726547Y-7382664D01*
X4726547Y-7382664D02*
X4745595Y-7373141D01*
X4745595Y-7373141D02*
X4755119Y-7363617D01*
X4755119Y-7363617D02*
X4764642Y-7344569D01*
X4764642Y-7344569D02*
X4764642Y-7296950D01*
X4764642Y-7296950D02*
X4755119Y-7277902D01*
X4755119Y-7277902D02*
X4745595Y-7268379D01*
X4745595Y-7268379D02*
X4726547Y-7258855D01*
X4726547Y-7258855D02*
X4688452Y-7258855D01*
X4688452Y-7258855D02*
X4669404Y-7268379D01*
X4669404Y-7268379D02*
X4659881Y-7277902D01*
X4659881Y-7277902D02*
X4650357Y-7296950D01*
X4840833Y-7182664D02*
X4840833Y-7220760D01*
X4917023Y-7182664D02*
X4917023Y-7220760D01*
X5212262Y-7458855D02*
X5202738Y-7449331D01*
X5202738Y-7449331D02*
X5183690Y-7420760D01*
X5183690Y-7420760D02*
X5174166Y-7401712D01*
X5174166Y-7401712D02*
X5164643Y-7373141D01*
X5164643Y-7373141D02*
X5155119Y-7325521D01*
X5155119Y-7325521D02*
X5155119Y-7287426D01*
X5155119Y-7287426D02*
X5164643Y-7239807D01*
X5164643Y-7239807D02*
X5174166Y-7211236D01*
X5174166Y-7211236D02*
X5183690Y-7192188D01*
X5183690Y-7192188D02*
X5202738Y-7163617D01*
X5202738Y-7163617D02*
X5212262Y-7154093D01*
X5278928Y-7201712D02*
X5288452Y-7192188D01*
X5288452Y-7192188D02*
X5307500Y-7182664D01*
X5307500Y-7182664D02*
X5355119Y-7182664D01*
X5355119Y-7182664D02*
X5374166Y-7192188D01*
X5374166Y-7192188D02*
X5383690Y-7201712D01*
X5383690Y-7201712D02*
X5393214Y-7220760D01*
X5393214Y-7220760D02*
X5393214Y-7239807D01*
X5393214Y-7239807D02*
X5383690Y-7268379D01*
X5383690Y-7268379D02*
X5269404Y-7382664D01*
X5269404Y-7382664D02*
X5393214Y-7382664D01*
X5631309Y-7382664D02*
X5631309Y-7182664D01*
X5717023Y-7382664D02*
X5717023Y-7277902D01*
X5717023Y-7277902D02*
X5707500Y-7258855D01*
X5707500Y-7258855D02*
X5688452Y-7249331D01*
X5688452Y-7249331D02*
X5659881Y-7249331D01*
X5659881Y-7249331D02*
X5640833Y-7258855D01*
X5640833Y-7258855D02*
X5631309Y-7268379D01*
X5840833Y-7382664D02*
X5821785Y-7373141D01*
X5821785Y-7373141D02*
X5812262Y-7363617D01*
X5812262Y-7363617D02*
X5802738Y-7344569D01*
X5802738Y-7344569D02*
X5802738Y-7287426D01*
X5802738Y-7287426D02*
X5812262Y-7268379D01*
X5812262Y-7268379D02*
X5821785Y-7258855D01*
X5821785Y-7258855D02*
X5840833Y-7249331D01*
X5840833Y-7249331D02*
X5869404Y-7249331D01*
X5869404Y-7249331D02*
X5888452Y-7258855D01*
X5888452Y-7258855D02*
X5897976Y-7268379D01*
X5897976Y-7268379D02*
X5907500Y-7287426D01*
X5907500Y-7287426D02*
X5907500Y-7344569D01*
X5907500Y-7344569D02*
X5897976Y-7363617D01*
X5897976Y-7363617D02*
X5888452Y-7373141D01*
X5888452Y-7373141D02*
X5869404Y-7382664D01*
X5869404Y-7382664D02*
X5840833Y-7382664D01*
X6021785Y-7382664D02*
X6002738Y-7373141D01*
X6002738Y-7373141D02*
X5993214Y-7354093D01*
X5993214Y-7354093D02*
X5993214Y-7182664D01*
X6174166Y-7373141D02*
X6155119Y-7382664D01*
X6155119Y-7382664D02*
X6117023Y-7382664D01*
X6117023Y-7382664D02*
X6097976Y-7373141D01*
X6097976Y-7373141D02*
X6088452Y-7354093D01*
X6088452Y-7354093D02*
X6088452Y-7277902D01*
X6088452Y-7277902D02*
X6097976Y-7258855D01*
X6097976Y-7258855D02*
X6117023Y-7249331D01*
X6117023Y-7249331D02*
X6155119Y-7249331D01*
X6155119Y-7249331D02*
X6174166Y-7258855D01*
X6174166Y-7258855D02*
X6183690Y-7277902D01*
X6183690Y-7277902D02*
X6183690Y-7296950D01*
X6183690Y-7296950D02*
X6088452Y-7315998D01*
X6259881Y-7373141D02*
X6278928Y-7382664D01*
X6278928Y-7382664D02*
X6317023Y-7382664D01*
X6317023Y-7382664D02*
X6336071Y-7373141D01*
X6336071Y-7373141D02*
X6345595Y-7354093D01*
X6345595Y-7354093D02*
X6345595Y-7344569D01*
X6345595Y-7344569D02*
X6336071Y-7325521D01*
X6336071Y-7325521D02*
X6317023Y-7315998D01*
X6317023Y-7315998D02*
X6288452Y-7315998D01*
X6288452Y-7315998D02*
X6269404Y-7306474D01*
X6269404Y-7306474D02*
X6259881Y-7287426D01*
X6259881Y-7287426D02*
X6259881Y-7277902D01*
X6259881Y-7277902D02*
X6269404Y-7258855D01*
X6269404Y-7258855D02*
X6288452Y-7249331D01*
X6288452Y-7249331D02*
X6317023Y-7249331D01*
X6317023Y-7249331D02*
X6336071Y-7258855D01*
X6412262Y-7458855D02*
X6421785Y-7449331D01*
X6421785Y-7449331D02*
X6440833Y-7420760D01*
X6440833Y-7420760D02*
X6450357Y-7401712D01*
X6450357Y-7401712D02*
X6459881Y-7373141D01*
X6459881Y-7373141D02*
X6469404Y-7325521D01*
X6469404Y-7325521D02*
X6469404Y-7287426D01*
X6469404Y-7287426D02*
X6459881Y-7239807D01*
X6459881Y-7239807D02*
X6450357Y-7211236D01*
X6450357Y-7211236D02*
X6440833Y-7192188D01*
X6440833Y-7192188D02*
X6421785Y-7163617D01*
X6421785Y-7163617D02*
X6412262Y-7154093D01*
X6774166Y-7458855D02*
X6764643Y-7449331D01*
X6764643Y-7449331D02*
X6745595Y-7420760D01*
X6745595Y-7420760D02*
X6736071Y-7401712D01*
X6736071Y-7401712D02*
X6726547Y-7373141D01*
X6726547Y-7373141D02*
X6717024Y-7325521D01*
X6717024Y-7325521D02*
X6717024Y-7287426D01*
X6717024Y-7287426D02*
X6726547Y-7239807D01*
X6726547Y-7239807D02*
X6736071Y-7211236D01*
X6736071Y-7211236D02*
X6745595Y-7192188D01*
X6745595Y-7192188D02*
X6764643Y-7163617D01*
X6764643Y-7163617D02*
X6774166Y-7154093D01*
X6850357Y-7249331D02*
X6850357Y-7382664D01*
X6850357Y-7268379D02*
X6859881Y-7258855D01*
X6859881Y-7258855D02*
X6878928Y-7249331D01*
X6878928Y-7249331D02*
X6907500Y-7249331D01*
X6907500Y-7249331D02*
X6926547Y-7258855D01*
X6926547Y-7258855D02*
X6936071Y-7277902D01*
X6936071Y-7277902D02*
X6936071Y-7382664D01*
X7059881Y-7382664D02*
X7040833Y-7373141D01*
X7040833Y-7373141D02*
X7031309Y-7363617D01*
X7031309Y-7363617D02*
X7021785Y-7344569D01*
X7021785Y-7344569D02*
X7021785Y-7287426D01*
X7021785Y-7287426D02*
X7031309Y-7268379D01*
X7031309Y-7268379D02*
X7040833Y-7258855D01*
X7040833Y-7258855D02*
X7059881Y-7249331D01*
X7059881Y-7249331D02*
X7088452Y-7249331D01*
X7088452Y-7249331D02*
X7107500Y-7258855D01*
X7107500Y-7258855D02*
X7117024Y-7268379D01*
X7117024Y-7268379D02*
X7126547Y-7287426D01*
X7126547Y-7287426D02*
X7126547Y-7344569D01*
X7126547Y-7344569D02*
X7117024Y-7363617D01*
X7117024Y-7363617D02*
X7107500Y-7373141D01*
X7107500Y-7373141D02*
X7088452Y-7382664D01*
X7088452Y-7382664D02*
X7059881Y-7382664D01*
X7183690Y-7249331D02*
X7259881Y-7249331D01*
X7212262Y-7182664D02*
X7212262Y-7354093D01*
X7212262Y-7354093D02*
X7221785Y-7373141D01*
X7221785Y-7373141D02*
X7240833Y-7382664D01*
X7240833Y-7382664D02*
X7259881Y-7382664D01*
X7478928Y-7249331D02*
X7478928Y-7449331D01*
X7478928Y-7258855D02*
X7497976Y-7249331D01*
X7497976Y-7249331D02*
X7536071Y-7249331D01*
X7536071Y-7249331D02*
X7555119Y-7258855D01*
X7555119Y-7258855D02*
X7564643Y-7268379D01*
X7564643Y-7268379D02*
X7574166Y-7287426D01*
X7574166Y-7287426D02*
X7574166Y-7344569D01*
X7574166Y-7344569D02*
X7564643Y-7363617D01*
X7564643Y-7363617D02*
X7555119Y-7373141D01*
X7555119Y-7373141D02*
X7536071Y-7382664D01*
X7536071Y-7382664D02*
X7497976Y-7382664D01*
X7497976Y-7382664D02*
X7478928Y-7373141D01*
X7688452Y-7382664D02*
X7669405Y-7373141D01*
X7669405Y-7373141D02*
X7659881Y-7354093D01*
X7659881Y-7354093D02*
X7659881Y-7182664D01*
X7850357Y-7382664D02*
X7850357Y-7277902D01*
X7850357Y-7277902D02*
X7840833Y-7258855D01*
X7840833Y-7258855D02*
X7821786Y-7249331D01*
X7821786Y-7249331D02*
X7783690Y-7249331D01*
X7783690Y-7249331D02*
X7764643Y-7258855D01*
X7850357Y-7373141D02*
X7831309Y-7382664D01*
X7831309Y-7382664D02*
X7783690Y-7382664D01*
X7783690Y-7382664D02*
X7764643Y-7373141D01*
X7764643Y-7373141D02*
X7755119Y-7354093D01*
X7755119Y-7354093D02*
X7755119Y-7335045D01*
X7755119Y-7335045D02*
X7764643Y-7315998D01*
X7764643Y-7315998D02*
X7783690Y-7306474D01*
X7783690Y-7306474D02*
X7831309Y-7306474D01*
X7831309Y-7306474D02*
X7850357Y-7296950D01*
X7917024Y-7249331D02*
X7993214Y-7249331D01*
X7945595Y-7182664D02*
X7945595Y-7354093D01*
X7945595Y-7354093D02*
X7955119Y-7373141D01*
X7955119Y-7373141D02*
X7974166Y-7382664D01*
X7974166Y-7382664D02*
X7993214Y-7382664D01*
X8136071Y-7373141D02*
X8117024Y-7382664D01*
X8117024Y-7382664D02*
X8078928Y-7382664D01*
X8078928Y-7382664D02*
X8059881Y-7373141D01*
X8059881Y-7373141D02*
X8050357Y-7354093D01*
X8050357Y-7354093D02*
X8050357Y-7277902D01*
X8050357Y-7277902D02*
X8059881Y-7258855D01*
X8059881Y-7258855D02*
X8078928Y-7249331D01*
X8078928Y-7249331D02*
X8117024Y-7249331D01*
X8117024Y-7249331D02*
X8136071Y-7258855D01*
X8136071Y-7258855D02*
X8145595Y-7277902D01*
X8145595Y-7277902D02*
X8145595Y-7296950D01*
X8145595Y-7296950D02*
X8050357Y-7315998D01*
X8317024Y-7382664D02*
X8317024Y-7182664D01*
X8317024Y-7373141D02*
X8297976Y-7382664D01*
X8297976Y-7382664D02*
X8259881Y-7382664D01*
X8259881Y-7382664D02*
X8240833Y-7373141D01*
X8240833Y-7373141D02*
X8231309Y-7363617D01*
X8231309Y-7363617D02*
X8221786Y-7344569D01*
X8221786Y-7344569D02*
X8221786Y-7287426D01*
X8221786Y-7287426D02*
X8231309Y-7268379D01*
X8231309Y-7268379D02*
X8240833Y-7258855D01*
X8240833Y-7258855D02*
X8259881Y-7249331D01*
X8259881Y-7249331D02*
X8297976Y-7249331D01*
X8297976Y-7249331D02*
X8317024Y-7258855D01*
X8393214Y-7458855D02*
X8402738Y-7449331D01*
X8402738Y-7449331D02*
X8421786Y-7420760D01*
X8421786Y-7420760D02*
X8431309Y-7401712D01*
X8431309Y-7401712D02*
X8440833Y-7373141D01*
X8440833Y-7373141D02*
X8450357Y-7325521D01*
X8450357Y-7325521D02*
X8450357Y-7287426D01*
X8450357Y-7287426D02*
X8440833Y-7239807D01*
X8440833Y-7239807D02*
X8431309Y-7211236D01*
X8431309Y-7211236D02*
X8421786Y-7192188D01*
X8421786Y-7192188D02*
X8402738Y-7163617D01*
X8402738Y-7163617D02*
X8393214Y-7154093D01*
M02*
