%TF.GenerationSoftware,KiCad,Pcbnew,7.0.6*%
%TF.CreationDate,2023-09-26T11:41:46-07:00*%
%TF.ProjectId,UniSNES,556e6953-4e45-4532-9e6b-696361645f70,rev?*%
%TF.SameCoordinates,Original*%
%TF.FileFunction,Soldermask,Top*%
%TF.FilePolarity,Negative*%
%FSLAX46Y46*%
G04 Gerber Fmt 4.6, Leading zero omitted, Abs format (unit mm)*
G04 Created by KiCad (PCBNEW 7.0.6) date 2023-09-26 11:41:46*
%MOMM*%
%LPD*%
G01*
G04 APERTURE LIST*
G04 Aperture macros list*
%AMRoundRect*
0 Rectangle with rounded corners*
0 $1 Rounding radius*
0 $2 $3 $4 $5 $6 $7 $8 $9 X,Y pos of 4 corners*
0 Add a 4 corners polygon primitive as box body*
4,1,4,$2,$3,$4,$5,$6,$7,$8,$9,$2,$3,0*
0 Add four circle primitives for the rounded corners*
1,1,$1+$1,$2,$3*
1,1,$1+$1,$4,$5*
1,1,$1+$1,$6,$7*
1,1,$1+$1,$8,$9*
0 Add four rect primitives between the rounded corners*
20,1,$1+$1,$2,$3,$4,$5,0*
20,1,$1+$1,$4,$5,$6,$7,0*
20,1,$1+$1,$6,$7,$8,$9,0*
20,1,$1+$1,$8,$9,$2,$3,0*%
%AMRotRect*
0 Rectangle, with rotation*
0 The origin of the aperture is its center*
0 $1 length*
0 $2 width*
0 $3 Rotation angle, in degrees counterclockwise*
0 Add horizontal line*
21,1,$1,$2,0,0,$3*%
%AMFreePoly0*
4,1,13,0.900000,0.500000,2.600000,0.500000,2.600000,-0.500000,0.900000,-0.500000,0.400000,-1.000000,-0.400000,-1.000000,-0.900000,-0.500000,-2.600000,-0.500000,-2.600000,0.500000,-0.900000,0.500000,-0.400000,1.000000,0.400000,1.000000,0.900000,0.500000,0.900000,0.500000,$1*%
G04 Aperture macros list end*
%ADD10C,2.050000*%
%ADD11C,3.050000*%
%ADD12C,3.800000*%
%ADD13C,0.152400*%
%ADD14RotRect,2.000000X2.000000X162.000000*%
%ADD15RotRect,2.000000X2.000000X198.000000*%
%ADD16RoundRect,0.100000X0.130000X0.100000X-0.130000X0.100000X-0.130000X-0.100000X0.130000X-0.100000X0*%
%ADD17RoundRect,0.100000X0.100000X-0.130000X0.100000X0.130000X-0.100000X0.130000X-0.100000X-0.130000X0*%
%ADD18C,0.500000*%
%ADD19R,0.400000X0.300000*%
%ADD20R,0.200000X1.600000*%
%ADD21RoundRect,0.100000X-0.100000X0.130000X-0.100000X-0.130000X0.100000X-0.130000X0.100000X0.130000X0*%
%ADD22R,0.650000X0.400000*%
%ADD23C,1.500000*%
%ADD24R,0.550000X0.550000*%
%ADD25RoundRect,0.150000X-0.150000X0.587500X-0.150000X-0.587500X0.150000X-0.587500X0.150000X0.587500X0*%
%ADD26RoundRect,0.250000X0.250000X-0.250000X0.250000X0.250000X-0.250000X0.250000X-0.250000X-0.250000X0*%
%ADD27RoundRect,0.225000X0.225000X0.250000X-0.225000X0.250000X-0.225000X-0.250000X0.225000X-0.250000X0*%
%ADD28RoundRect,0.050000X0.387500X0.050000X-0.387500X0.050000X-0.387500X-0.050000X0.387500X-0.050000X0*%
%ADD29RoundRect,0.050000X0.050000X0.387500X-0.050000X0.387500X-0.050000X-0.387500X0.050000X-0.387500X0*%
%ADD30R,3.200000X3.200000*%
%ADD31RoundRect,0.100000X-0.130000X-0.100000X0.130000X-0.100000X0.130000X0.100000X-0.130000X0.100000X0*%
%ADD32R,0.400000X1.900000*%
%ADD33RoundRect,0.225000X-0.225000X-0.375000X0.225000X-0.375000X0.225000X0.375000X-0.225000X0.375000X0*%
%ADD34RoundRect,0.250001X0.462499X0.624999X-0.462499X0.624999X-0.462499X-0.624999X0.462499X-0.624999X0*%
%ADD35RoundRect,0.250001X-0.624999X0.462499X-0.624999X-0.462499X0.624999X-0.462499X0.624999X0.462499X0*%
%ADD36RoundRect,0.250000X0.425000X-0.450000X0.425000X0.450000X-0.425000X0.450000X-0.425000X-0.450000X0*%
%ADD37RoundRect,0.250001X0.624999X-0.462499X0.624999X0.462499X-0.624999X0.462499X-0.624999X-0.462499X0*%
%ADD38RoundRect,0.250000X0.250000X0.250000X-0.250000X0.250000X-0.250000X-0.250000X0.250000X-0.250000X0*%
%ADD39R,0.700000X1.500000*%
%ADD40FreePoly0,270.000000*%
%ADD41R,0.550000X0.500000*%
%ADD42RoundRect,0.250000X-0.250000X-0.250000X0.250000X-0.250000X0.250000X0.250000X-0.250000X0.250000X0*%
%ADD43R,2.000000X2.000000*%
%ADD44C,0.650000*%
%ADD45C,0.700000*%
%ADD46O,1.753200X1.003200*%
G04 APERTURE END LIST*
%TO.C,SPSEL1*%
D10*
X67238433Y-52362420D02*
G75*
G03*
X67238433Y-52362420I-1025000J0D01*
G01*
%TO.C,DPU1*%
D11*
X39574200Y-38709600D02*
G75*
G03*
X39574200Y-38709600I-1525000J0D01*
G01*
%TO.C,BPB1*%
D12*
X122300326Y-58352701D02*
G75*
G03*
X122300326Y-58352701I-1900000J0D01*
G01*
%TO.C,SPST1*%
D10*
X82763433Y-52362420D02*
G75*
G03*
X82763433Y-52362420I-1025000J0D01*
G01*
%TO.C,BPX1*%
D12*
X122300326Y-37252701D02*
G75*
G03*
X122300326Y-37252701I-1900000J0D01*
G01*
D13*
%TO.C,Ref\u002A\u002A*%
X49346833Y-62095308D02*
X49468614Y-62599723D01*
X49615339Y-63097323D02*
X49468583Y-62599601D01*
X49881758Y-61194849D02*
X51559858Y-60745174D01*
X50528845Y-63609651D02*
X51834617Y-63259748D01*
X51110183Y-59067071D02*
X51559858Y-60745174D01*
X51622511Y-58153565D02*
X52120233Y-58006809D01*
X51834617Y-63259748D02*
X53874913Y-59725849D01*
X52308501Y-63538958D02*
X54353735Y-59996505D01*
X52624526Y-57885059D02*
X52120111Y-58006840D01*
X52656623Y-64838076D02*
X52308501Y-63538958D01*
X53524985Y-58419984D02*
X53874913Y-59725849D01*
X53557082Y-65373001D02*
X54061497Y-65251220D01*
X54559097Y-65104495D02*
X54061375Y-65251251D01*
X55071425Y-64190989D02*
X54621750Y-62512886D01*
X55652763Y-59648409D02*
X54353735Y-59996505D01*
X56299850Y-62063211D02*
X54621750Y-62512886D01*
X56566269Y-60160737D02*
X56713025Y-60658459D01*
X56834775Y-61162752D02*
X56712994Y-60658337D01*
X49881758Y-61194850D02*
G75*
G03*
X49346834Y-62095308I194126J-724439D01*
G01*
X49615340Y-63097323D02*
G75*
G03*
X50528845Y-63609650I719379J212112D01*
G01*
X51622511Y-58153566D02*
G75*
G03*
X51110184Y-59067071I212112J-719379D01*
G01*
X53524984Y-58419984D02*
G75*
G03*
X52624526Y-57885060I-724439J-194126D01*
G01*
X52656624Y-64838076D02*
G75*
G03*
X53557082Y-65373000I724439J194126D01*
G01*
X54559097Y-65104494D02*
G75*
G03*
X55071424Y-64190989I-212112J719379D01*
G01*
X56566268Y-60160737D02*
G75*
G03*
X55652763Y-59648409I-719374J-212103D01*
G01*
X56299850Y-62063209D02*
G75*
G03*
X56834775Y-61162752I-194126J724439D01*
G01*
X55480763Y-58450596D02*
G75*
G03*
X55480763Y-58450596I-625000J0D01*
G01*
G36*
X55115800Y-57864028D02*
G01*
X55335799Y-58049028D01*
X55465804Y-58299032D01*
X55460803Y-58594030D01*
X55340803Y-58829033D01*
X55190807Y-58969030D01*
X54990805Y-59059032D01*
X54770804Y-59069029D01*
X54585800Y-59014030D01*
X54395805Y-58894034D01*
X54285808Y-58714039D01*
X54225804Y-58569030D01*
X54225804Y-58344035D01*
X54285805Y-58174026D01*
X54390802Y-57994034D01*
X54625799Y-57859032D01*
X54825809Y-57829032D01*
X55115800Y-57864028D01*
G37*
G36*
X53000806Y-57874031D02*
G01*
X53260811Y-58014035D01*
X53430805Y-58199030D01*
X53550805Y-58539035D01*
X53870803Y-59709030D01*
X51825806Y-63254029D01*
X50535812Y-63604028D01*
X50340802Y-63629031D01*
X50155802Y-63614029D01*
X49970810Y-63554029D01*
X49785802Y-63404029D01*
X49650805Y-63219030D01*
X49310804Y-62014027D01*
X49320805Y-61804033D01*
X49375805Y-61614031D01*
X49460803Y-61469033D01*
X49615804Y-61299030D01*
X49865807Y-61184031D01*
X51537218Y-60736332D01*
X51541710Y-60735127D01*
X51545803Y-60734031D01*
X51120824Y-59149103D01*
X51102290Y-59138492D01*
X51078804Y-58989034D01*
X51105807Y-58679028D01*
X51220805Y-58424031D01*
X51395807Y-58224028D01*
X51950830Y-58029022D01*
X52650802Y-57864034D01*
X53000806Y-57874031D01*
G37*
G36*
X56025806Y-59639031D02*
G01*
X56210798Y-59699031D01*
X56395806Y-59849031D01*
X56530803Y-60034030D01*
X56870804Y-61239033D01*
X56860803Y-61449027D01*
X56805803Y-61639029D01*
X56720805Y-61784027D01*
X56565804Y-61954030D01*
X56315801Y-62069029D01*
X54644390Y-62516728D01*
X54639898Y-62517933D01*
X54635805Y-62519029D01*
X55060784Y-64103957D01*
X55079318Y-64114568D01*
X55102804Y-64264026D01*
X55075801Y-64574032D01*
X54960803Y-64829029D01*
X54785801Y-65029032D01*
X54230778Y-65224038D01*
X53530806Y-65389026D01*
X53180802Y-65379029D01*
X52920797Y-65239025D01*
X52750803Y-65054030D01*
X52630803Y-64714025D01*
X52310805Y-63544030D01*
X54355802Y-59999031D01*
X55645796Y-59649032D01*
X55840806Y-59624029D01*
X56025806Y-59639031D01*
G37*
%TO.C,DPR1*%
D11*
X48753571Y-47888971D02*
G75*
G03*
X48753571Y-47888971I-1525000J0D01*
G01*
%TO.C,DPD1*%
X39574200Y-57068342D02*
G75*
G03*
X39574200Y-57068342I-1525000J0D01*
G01*
%TO.C,BPA1*%
D12*
X135838772Y-47802701D02*
G75*
G03*
X135838772Y-47802701I-1900000J0D01*
G01*
%TO.C,BPY1*%
X108761881Y-47802701D02*
G75*
G03*
X108761881Y-47802701I-1900000J0D01*
G01*
%TO.C,DPL1*%
D11*
X30394829Y-47888971D02*
G75*
G03*
X30394829Y-47888971I-1525000J0D01*
G01*
%TD*%
D14*
%TO.C,T10*%
X134213600Y-35061073D03*
%TD*%
%TO.C,T9*%
X116687600Y-29371474D03*
%TD*%
D15*
%TO.C,T8*%
X41656000Y-29362400D03*
%TD*%
%TO.C,T7*%
X24180800Y-35052000D03*
%TD*%
D16*
%TO.C,R7*%
X75046800Y-36525200D03*
X74406800Y-36525200D03*
%TD*%
D17*
%TO.C,R19*%
X88781646Y-31658061D03*
X88781646Y-31018061D03*
%TD*%
D18*
%TO.C,SPSEL1*%
X65713433Y-52362420D03*
X66713433Y-52362420D03*
%TD*%
D19*
%TO.C,U1*%
X68978206Y-36943705D03*
X68978206Y-36443705D03*
X68978206Y-35943705D03*
X68978206Y-35443705D03*
X66578206Y-35443705D03*
X66578206Y-35943705D03*
X66578206Y-36443705D03*
X66578206Y-36943705D03*
D20*
X67778206Y-36193705D03*
%TD*%
D16*
%TO.C,R2*%
X70502163Y-36943609D03*
X69862163Y-36943609D03*
%TD*%
D21*
%TO.C,R9*%
X74428567Y-28694008D03*
X74428567Y-29334008D03*
%TD*%
%TO.C,R8*%
X74429626Y-27145273D03*
X74429626Y-27785273D03*
%TD*%
D22*
%TO.C,Q2*%
X75519200Y-29332400D03*
X75519200Y-29982400D03*
X75519200Y-30632400D03*
X77419200Y-30632400D03*
X77419200Y-29982400D03*
X77419200Y-29332400D03*
%TD*%
D23*
%TO.C,TP2*%
X61061600Y-40335200D03*
%TD*%
D21*
%TO.C,C2*%
X64008000Y-24639800D03*
X64008000Y-25279800D03*
%TD*%
D24*
%TO.C,L1*%
X37574200Y-43684600D03*
X38524200Y-43684600D03*
X38524200Y-42734600D03*
X37574200Y-42734600D03*
%TD*%
D25*
%TO.C,Q5*%
X90002400Y-33126200D03*
X88102400Y-33126200D03*
X89052400Y-35001200D03*
%TD*%
D24*
%TO.C,L8*%
X119925326Y-42977701D03*
X120875326Y-42977701D03*
X120875326Y-42027701D03*
X119925326Y-42027701D03*
%TD*%
D21*
%TO.C,R20*%
X89560400Y-31015700D03*
X89560400Y-31655700D03*
%TD*%
%TO.C,R4*%
X63246000Y-24639800D03*
X63246000Y-25279800D03*
%TD*%
D24*
%TO.C,L10*%
X133463772Y-53527701D03*
X134413772Y-53527701D03*
X134413772Y-52577701D03*
X133463772Y-52577701D03*
%TD*%
D23*
%TO.C,TP4*%
X58369200Y-45161200D03*
%TD*%
D18*
%TO.C,SPST1*%
X81238433Y-52362420D03*
X82238433Y-52362420D03*
%TD*%
D26*
%TO.C,D7*%
X67580952Y-42918176D03*
X67580952Y-40418176D03*
%TD*%
D27*
%TO.C,C10*%
X72745600Y-43484800D03*
X71195600Y-43484800D03*
%TD*%
D23*
%TO.C,TP6*%
X68275200Y-46228000D03*
%TD*%
D21*
%TO.C,R12*%
X78502877Y-28681404D03*
X78502877Y-29321404D03*
%TD*%
D24*
%TO.C,L7*%
X106386881Y-53527701D03*
X107336881Y-53527701D03*
X107336881Y-52577701D03*
X106386881Y-52577701D03*
%TD*%
%TO.C,L3*%
X37574200Y-53043342D03*
X38524200Y-53043342D03*
X38524200Y-52093342D03*
X37574200Y-52093342D03*
%TD*%
D17*
%TO.C,C6*%
X64719200Y-35490600D03*
X64719200Y-34850600D03*
%TD*%
D23*
%TO.C,TP5*%
X62839600Y-44196000D03*
%TD*%
D16*
%TO.C,C5*%
X64328000Y-23842200D03*
X63688000Y-23842200D03*
%TD*%
D21*
%TO.C,R13*%
X78501200Y-30170400D03*
X78501200Y-30810400D03*
%TD*%
%TO.C,R10*%
X74423349Y-30192148D03*
X74423349Y-30832148D03*
%TD*%
D28*
%TO.C,U2*%
X68197900Y-32504300D03*
X68197900Y-32104300D03*
X68197900Y-31704300D03*
X68197900Y-31304300D03*
X68197900Y-30904300D03*
X68197900Y-30504300D03*
X68197900Y-30104300D03*
X68197900Y-29704300D03*
X68197900Y-29304300D03*
X68197900Y-28904300D03*
X68197900Y-28504300D03*
X68197900Y-28104300D03*
X68197900Y-27704300D03*
X68197900Y-27304300D03*
D29*
X67360400Y-26466800D03*
X66960400Y-26466800D03*
X66560400Y-26466800D03*
X66160400Y-26466800D03*
X65760400Y-26466800D03*
X65360400Y-26466800D03*
X64960400Y-26466800D03*
X64560400Y-26466800D03*
X64160400Y-26466800D03*
X63760400Y-26466800D03*
X63360400Y-26466800D03*
X62960400Y-26466800D03*
X62560400Y-26466800D03*
X62160400Y-26466800D03*
D28*
X61322900Y-27304300D03*
X61322900Y-27704300D03*
X61322900Y-28104300D03*
X61322900Y-28504300D03*
X61322900Y-28904300D03*
X61322900Y-29304300D03*
X61322900Y-29704300D03*
X61322900Y-30104300D03*
X61322900Y-30504300D03*
X61322900Y-30904300D03*
X61322900Y-31304300D03*
X61322900Y-31704300D03*
X61322900Y-32104300D03*
X61322900Y-32504300D03*
D29*
X62160400Y-33341800D03*
X62560400Y-33341800D03*
X62960400Y-33341800D03*
X63360400Y-33341800D03*
X63760400Y-33341800D03*
X64160400Y-33341800D03*
X64560400Y-33341800D03*
X64960400Y-33341800D03*
X65360400Y-33341800D03*
X65760400Y-33341800D03*
X66160400Y-33341800D03*
X66560400Y-33341800D03*
X66960400Y-33341800D03*
X67360400Y-33341800D03*
D30*
X64760400Y-29904300D03*
%TD*%
D31*
%TO.C,C4*%
X69377600Y-28769800D03*
X70017600Y-28769800D03*
%TD*%
D17*
%TO.C,R6*%
X63258400Y-35490600D03*
X63258400Y-34850600D03*
%TD*%
D21*
%TO.C,C1*%
X65727006Y-37054105D03*
X65727006Y-37694105D03*
%TD*%
D32*
%TO.C,Y1*%
X67851200Y-23026200D03*
X66651200Y-23026200D03*
X65451200Y-23026200D03*
%TD*%
D24*
%TO.C,L2*%
X32894829Y-48363971D03*
X33844829Y-48363971D03*
X33844829Y-47413971D03*
X32894829Y-47413971D03*
%TD*%
D33*
%TO.C,D1*%
X86386400Y-42164000D03*
X89686400Y-42164000D03*
%TD*%
D34*
%TO.C,F1*%
X57254732Y-33629853D03*
X54279732Y-33629853D03*
%TD*%
D21*
%TO.C,R11*%
X78501200Y-27122400D03*
X78501200Y-27762400D03*
%TD*%
D17*
%TO.C,R5*%
X63969600Y-35490600D03*
X63969600Y-34850600D03*
%TD*%
D35*
%TO.C,F2*%
X65430400Y-40625700D03*
X65430400Y-43600700D03*
%TD*%
D36*
%TO.C,C8*%
X77673200Y-43463200D03*
X77673200Y-40763200D03*
%TD*%
D22*
%TO.C,Q1*%
X75519200Y-26487600D03*
X75519200Y-27137600D03*
X75519200Y-27787600D03*
X77419200Y-27787600D03*
X77419200Y-27137600D03*
X77419200Y-26487600D03*
%TD*%
D24*
%TO.C,L5*%
X63238433Y-55337420D03*
X64188433Y-55337420D03*
X64188433Y-54387420D03*
X63238433Y-54387420D03*
%TD*%
D37*
%TO.C,F3*%
X89662000Y-39993900D03*
X89662000Y-37018900D03*
%TD*%
D31*
%TO.C,R15*%
X55356800Y-48361600D03*
X55996800Y-48361600D03*
%TD*%
D38*
%TO.C,D5*%
X79024800Y-32715200D03*
X76524800Y-32715200D03*
%TD*%
D31*
%TO.C,R14*%
X52918400Y-36779200D03*
X53558400Y-36779200D03*
%TD*%
%TO.C,R17*%
X85577914Y-32697356D03*
X86217914Y-32697356D03*
%TD*%
D25*
%TO.C,Q3*%
X86187514Y-34124356D03*
X84287514Y-34124356D03*
X85237514Y-35999356D03*
%TD*%
%TO.C,Q4*%
X87716400Y-38076900D03*
X85816400Y-38076900D03*
X86766400Y-39951900D03*
%TD*%
D39*
%TO.C,U3*%
X75058400Y-37977200D03*
D40*
X73558400Y-39827200D03*
D39*
X72058400Y-37977200D03*
X72058400Y-41677200D03*
X75058400Y-41677200D03*
%TD*%
D24*
%TO.C,L9*%
X119925326Y-64077701D03*
X120875326Y-64077701D03*
X120875326Y-63127701D03*
X119925326Y-63127701D03*
%TD*%
%TO.C,L6*%
X78763433Y-55337420D03*
X79713433Y-55337420D03*
X79713433Y-54387420D03*
X78763433Y-54387420D03*
%TD*%
D21*
%TO.C,R3*%
X64973200Y-24690600D03*
X64973200Y-25330600D03*
%TD*%
D16*
%TO.C,R16*%
X86217914Y-31935356D03*
X85577914Y-31935356D03*
%TD*%
D24*
%TO.C,L4*%
X42253571Y-48363971D03*
X43203571Y-48363971D03*
X43203571Y-47413971D03*
X42253571Y-47413971D03*
%TD*%
D31*
%TO.C,C7*%
X63688000Y-23080200D03*
X64328000Y-23080200D03*
%TD*%
D23*
%TO.C,TP3*%
X49428400Y-38506400D03*
%TD*%
D21*
%TO.C,R1*%
X69138800Y-23319000D03*
X69138800Y-23959000D03*
%TD*%
D41*
%TO.C,SW1*%
X66434006Y-38040905D03*
X66434006Y-38840905D03*
X69084006Y-38040905D03*
X69084006Y-38840905D03*
%TD*%
D42*
%TO.C,D6*%
X54751600Y-31496000D03*
X57251600Y-31496000D03*
%TD*%
D23*
%TO.C,TP1*%
X61061600Y-37693600D03*
%TD*%
D16*
%TO.C,R18*%
X88051600Y-36576000D03*
X87411600Y-36576000D03*
%TD*%
D27*
%TO.C,C9*%
X75793600Y-43484800D03*
X74243600Y-43484800D03*
%TD*%
D21*
%TO.C,C3*%
X60198000Y-32767800D03*
X60198000Y-33407800D03*
%TD*%
D43*
%TO.C,T6*%
X72390000Y-25298400D03*
%TD*%
%TO.C,T5*%
X72390000Y-22860000D03*
%TD*%
%TO.C,T1*%
X99291350Y-36017200D03*
%TD*%
%TO.C,T4*%
X93573600Y-40182800D03*
%TD*%
D44*
%TO.C,J1*%
X52004759Y-38968895D03*
X52004759Y-46168895D03*
D45*
X52544759Y-45368895D03*
X53254759Y-44968895D03*
X53254759Y-44168895D03*
X52544759Y-43768895D03*
X53254759Y-43368895D03*
X52544759Y-42968895D03*
X52544759Y-42168895D03*
X53254759Y-41768895D03*
X52544759Y-41368895D03*
X53254759Y-40968895D03*
X53254759Y-40168895D03*
X52544759Y-39768895D03*
D46*
X57254759Y-37968895D03*
X53254759Y-37968895D03*
X57254759Y-47168895D03*
X53254759Y-47168895D03*
%TD*%
D43*
%TO.C,T2*%
X99291350Y-40182800D03*
%TD*%
%TO.C,T3*%
X93573600Y-36017200D03*
%TD*%
M02*
