%TF.GenerationSoftware,KiCad,Pcbnew,7.0.6*%
%TF.CreationDate,2023-09-25T23:03:40-07:00*%
%TF.ProjectId,UniSNES,556e6953-4e45-4532-9e6b-696361645f70,rev?*%
%TF.SameCoordinates,Original*%
%TF.FileFunction,Copper,L3,Inr*%
%TF.FilePolarity,Positive*%
%FSLAX46Y46*%
G04 Gerber Fmt 4.6, Leading zero omitted, Abs format (unit mm)*
G04 Created by KiCad (PCBNEW 7.0.6) date 2023-09-25 23:03:40*
%MOMM*%
%LPD*%
G01*
G04 APERTURE LIST*
%TA.AperFunction,ComponentPad*%
%ADD10R,2.000000X2.000000*%
%TD*%
%TA.AperFunction,ComponentPad*%
%ADD11C,0.600000*%
%TD*%
%TA.AperFunction,ComponentPad*%
%ADD12O,1.550000X0.800000*%
%TD*%
%TA.AperFunction,ViaPad*%
%ADD13C,0.500000*%
%TD*%
%TA.AperFunction,ViaPad*%
%ADD14C,0.700000*%
%TD*%
%TA.AperFunction,Conductor*%
%ADD15C,0.200000*%
%TD*%
G04 APERTURE END LIST*
D10*
%TO.N,UART0_TX*%
%TO.C,T6*%
X72390000Y-25298400D03*
%TD*%
%TO.N,UART0_RX*%
%TO.C,T5*%
X72390000Y-22860000D03*
%TD*%
%TO.N,VBUS_SYS*%
%TO.C,T1*%
X99291350Y-36017200D03*
%TD*%
%TO.N,RUMBLE-*%
%TO.C,T4*%
X93573600Y-40182800D03*
%TD*%
D11*
%TO.N,GND*%
%TO.C,J1*%
X52544759Y-45368895D03*
%TO.N,+3.3V_PRE*%
X53254759Y-44968895D03*
%TO.N,N_CLOCK*%
X53254759Y-44168895D03*
%TO.N,VBUS_PRE*%
X52544759Y-43768895D03*
%TO.N,/CC2*%
X53254759Y-43368895D03*
%TO.N,D+*%
X52544759Y-42968895D03*
%TO.N,D-*%
X52544759Y-42168895D03*
%TO.N,unconnected-(J1-SBU2-PadB8)*%
X53254759Y-41768895D03*
%TO.N,VBUS_PRE*%
X52544759Y-41368895D03*
%TO.N,N_LATCH*%
X53254759Y-40968895D03*
%TO.N,N_DATA*%
X53254759Y-40168895D03*
%TO.N,GND*%
X52544759Y-39768895D03*
D12*
X57254759Y-37968895D03*
X53254759Y-37968895D03*
X57254759Y-47168895D03*
X53254759Y-47168895D03*
%TD*%
D10*
%TO.N,RUMBLE-*%
%TO.C,T2*%
X99291350Y-40182800D03*
%TD*%
%TO.N,VBUS_SYS*%
%TO.C,T3*%
X93573600Y-36017200D03*
%TD*%
D13*
%TO.N,GND*%
X67157600Y-31750000D03*
X19151600Y-47498000D03*
X70358000Y-33832800D03*
X97231200Y-46583600D03*
X59588400Y-35204400D03*
X60299600Y-34747200D03*
X66802000Y-32258000D03*
X69748400Y-40182800D03*
X78435200Y-47802800D03*
X78486000Y-50800000D03*
X70713600Y-34645600D03*
X63042800Y-23774400D03*
X96520000Y-46685200D03*
X96977200Y-47193200D03*
X61671200Y-35610800D03*
X115366800Y-41859200D03*
X70408800Y-40944800D03*
X99110800Y-51003200D03*
X98450400Y-51257200D03*
X115824000Y-44297600D03*
X69392800Y-40944800D03*
X137926397Y-47960924D03*
X69392800Y-33629600D03*
X99009200Y-51612800D03*
%TO.N,BTN_A*%
X132181600Y-43434000D03*
X71221600Y-35661600D03*
%TO.N,BTN_B*%
X71729600Y-35153600D03*
X120396000Y-48615600D03*
%TO.N,BTN_X*%
X72034400Y-34544000D03*
X120396000Y-32613600D03*
%TO.N,BTN_Y*%
X72542400Y-34036000D03*
X106680000Y-43434000D03*
%TO.N,+3V3*%
X121920000Y-64262000D03*
X65227200Y-55727600D03*
X80772000Y-55829200D03*
D14*
X75793600Y-44653200D03*
X61569600Y-34594800D03*
D13*
X69385408Y-29224312D03*
X39624000Y-43942000D03*
X41300400Y-53441600D03*
D14*
X64160400Y-22098000D03*
D13*
X59385200Y-34188400D03*
D14*
X54762400Y-30124400D03*
D13*
X65328800Y-36372800D03*
X70154800Y-33020000D03*
D14*
X75336400Y-32664400D03*
D13*
X59385200Y-29311600D03*
X42570400Y-51816000D03*
X135483600Y-53695600D03*
X34899600Y-48615600D03*
X108610400Y-53848000D03*
X121920000Y-43180000D03*
%TO.N,+1V1*%
X62941200Y-32258000D03*
X64160400Y-27584400D03*
%TO.N,SHARED_PU*%
X79095600Y-31699200D03*
X78501200Y-26477200D03*
X79009200Y-30185600D03*
X77688400Y-28560000D03*
%TO.N,BTN_DDOWN*%
X43332400Y-56083200D03*
X58674000Y-29311600D03*
%TO.N,BTN_DLEFT*%
X27787600Y-40995600D03*
X56642000Y-28905200D03*
%TO.N,BTN_DRIGHT*%
X43078400Y-52628800D03*
X57962800Y-29260800D03*
%TO.N,BTN_DUP*%
X57302400Y-28956000D03*
X42773600Y-40690800D03*
D14*
%TO.N,+3.3V_PRE*%
X48768000Y-40792400D03*
X54305200Y-35356800D03*
%TO.N,VBUS_PRE*%
X65430400Y-45313600D03*
D13*
%TO.N,N_CLOCK*%
X49663331Y-41077549D03*
X61061600Y-40335200D03*
X78892400Y-38658800D03*
%TO.N,/CC1*%
X46990000Y-41148000D03*
%TO.N,D-*%
X58369200Y-45161200D03*
X57556400Y-41757600D03*
X49834800Y-42519600D03*
%TO.N,N_LATCH*%
X79552800Y-37693600D03*
X49428400Y-43891200D03*
X61061600Y-37693600D03*
X56794400Y-39776400D03*
%TO.N,N_DATA*%
X56845200Y-40995600D03*
X48158400Y-43383200D03*
X78384400Y-39166800D03*
%TO.N,Net-(L1-DOUT)*%
X32867600Y-49377600D03*
X32867600Y-45821600D03*
%TO.N,RGB_1*%
X69138800Y-22504400D03*
X32512000Y-35661600D03*
%TO.N,RGB_2*%
X61976000Y-55372000D03*
X44399200Y-45008800D03*
%TO.N,BTN_SEL*%
X59334400Y-41706800D03*
X59334400Y-43688000D03*
%TO.N,BTN_STRT*%
X60045600Y-43484800D03*
X60045600Y-41656000D03*
%TO.N,BTN_L*%
X20286796Y-47961884D03*
X71170800Y-30886400D03*
%TO.N,unconnected-(TRL1-NC-Pad3)*%
X22809200Y-44907200D03*
X19507200Y-43586400D03*
%TO.N,BTN_R*%
X139021859Y-47502664D03*
X72426134Y-36189239D03*
%TO.N,unconnected-(TRR1-NC-Pad3)*%
X138684000Y-43586400D03*
D14*
%TO.N,VBUS_SYS*%
X86380188Y-43357269D03*
D13*
X73905662Y-36693326D03*
D14*
X70104000Y-42875200D03*
D13*
%TO.N,Net-(Q3-D)*%
X84683600Y-37388800D03*
X86918800Y-37541200D03*
%TO.N,R_BRAKE*%
X60313009Y-29937438D03*
X84886800Y-32308800D03*
%TO.N,RUMBLE*%
X88090187Y-31012613D03*
X59675808Y-30112014D03*
%TD*%
D15*
%TO.N,N_CLOCK*%
X51792124Y-44375324D02*
X53048330Y-44375324D01*
X50952400Y-41706800D02*
X50952400Y-43535600D01*
X49663331Y-41077549D02*
X50323149Y-41077549D01*
X50952400Y-43535600D02*
X51792124Y-44375324D01*
X50323149Y-41077549D02*
X50952400Y-41706800D01*
X53048330Y-44375324D02*
X53254759Y-44168895D01*
%TD*%
%TA.AperFunction,Conductor*%
%TO.N,GND*%
G36*
X73924335Y-20833877D02*
G01*
X73926649Y-20834137D01*
X73948758Y-20836627D01*
X74033174Y-20847729D01*
X74047949Y-20851246D01*
X74081465Y-20862972D01*
X74087840Y-20865203D01*
X74089767Y-20865938D01*
X74148296Y-20890179D01*
X74159346Y-20895888D01*
X74173528Y-20904799D01*
X74198882Y-20920729D01*
X74201710Y-20922697D01*
X74251711Y-20961064D01*
X74255354Y-20964259D01*
X74291150Y-21000056D01*
X74294344Y-21003699D01*
X74332706Y-21053696D01*
X74334682Y-21056536D01*
X74359515Y-21096059D01*
X74365225Y-21107113D01*
X74389461Y-21165633D01*
X74390201Y-21167571D01*
X74404154Y-21207453D01*
X74407674Y-21222238D01*
X74418724Y-21306223D01*
X74421534Y-21331179D01*
X74421767Y-21335323D01*
X74421767Y-23277347D01*
X74418354Y-23286721D01*
X74421440Y-23310159D01*
X74421757Y-23314991D01*
X74421760Y-23372834D01*
X74433181Y-23422856D01*
X74432391Y-23429163D01*
X74434971Y-23435391D01*
X74438749Y-23447242D01*
X74446864Y-23482788D01*
X74446865Y-23482790D01*
X74475781Y-23542827D01*
X74476477Y-23549781D01*
X74478953Y-23553008D01*
X74486916Y-23565947D01*
X74495804Y-23584402D01*
X74495805Y-23584403D01*
X74545315Y-23646484D01*
X74547824Y-23653952D01*
X74549535Y-23655265D01*
X74562342Y-23667834D01*
X74566126Y-23672579D01*
X74566128Y-23672581D01*
X74570874Y-23676366D01*
X74583441Y-23689170D01*
X74584742Y-23690865D01*
X74592222Y-23693391D01*
X74654300Y-23742897D01*
X74654305Y-23742900D01*
X74672768Y-23751792D01*
X74685707Y-23759755D01*
X74688491Y-23761891D01*
X74694824Y-23762425D01*
X74695880Y-23762923D01*
X74697421Y-23763665D01*
X74755919Y-23791838D01*
X74791473Y-23799954D01*
X74803322Y-23803732D01*
X74808334Y-23805808D01*
X74813376Y-23805000D01*
X74815856Y-23805521D01*
X74865875Y-23816940D01*
X74865883Y-23816940D01*
X74907447Y-23816941D01*
X74907454Y-23816943D01*
X74922168Y-23816943D01*
X74922267Y-23816943D01*
X74922767Y-23816943D01*
X74923634Y-23816943D01*
X74928471Y-23817260D01*
X74949882Y-23820080D01*
X74957017Y-23817047D01*
X74960937Y-23816943D01*
X80400901Y-23816943D01*
X80405045Y-23817176D01*
X80413858Y-23818168D01*
X80428537Y-23819821D01*
X80514298Y-23831159D01*
X80529014Y-23834667D01*
X80567095Y-23847989D01*
X80568996Y-23848715D01*
X80597526Y-23860531D01*
X80629467Y-23873759D01*
X80640519Y-23879468D01*
X80678804Y-23903520D01*
X80681644Y-23905496D01*
X80732931Y-23944843D01*
X80736560Y-23948025D01*
X80771418Y-23982878D01*
X80774604Y-23986510D01*
X80813966Y-24037799D01*
X80815941Y-24040639D01*
X80839990Y-24078904D01*
X80845702Y-24089956D01*
X80870755Y-24150425D01*
X80871495Y-24152364D01*
X80884789Y-24190343D01*
X80888310Y-24205123D01*
X80900048Y-24294199D01*
X80902246Y-24313688D01*
X80902479Y-24317837D01*
X80902479Y-27793443D01*
X80899008Y-27802977D01*
X80902138Y-27826769D01*
X80902455Y-27831596D01*
X80902460Y-27889532D01*
X80913877Y-27939539D01*
X80913085Y-27945856D01*
X80915672Y-27952100D01*
X80919449Y-27963948D01*
X80927563Y-27999485D01*
X80927565Y-27999492D01*
X80956483Y-28059533D01*
X80957179Y-28066485D01*
X80959652Y-28069708D01*
X80967615Y-28082647D01*
X80976504Y-28101102D01*
X80976508Y-28101110D01*
X81026021Y-28163193D01*
X81028530Y-28170661D01*
X81030241Y-28171974D01*
X81043045Y-28184539D01*
X81046831Y-28189286D01*
X81051575Y-28193069D01*
X81064140Y-28205871D01*
X81065441Y-28207566D01*
X81072922Y-28210092D01*
X81086750Y-28221119D01*
X81135012Y-28259606D01*
X81153473Y-28268496D01*
X81166414Y-28276459D01*
X81169199Y-28278596D01*
X81175530Y-28279129D01*
X81176584Y-28279626D01*
X81189884Y-28286031D01*
X81236628Y-28308542D01*
X81272175Y-28316656D01*
X81284023Y-28320433D01*
X81289032Y-28322508D01*
X81294073Y-28321699D01*
X81296528Y-28322215D01*
X81346586Y-28333642D01*
X81388158Y-28333642D01*
X81388164Y-28333644D01*
X81402880Y-28333644D01*
X81402979Y-28333644D01*
X81403479Y-28333644D01*
X81404354Y-28333644D01*
X81409189Y-28333961D01*
X81430605Y-28336780D01*
X81437739Y-28333748D01*
X81441656Y-28333644D01*
X97400900Y-28333644D01*
X97405037Y-28333876D01*
X97413137Y-28334786D01*
X97429599Y-28336637D01*
X97513845Y-28347697D01*
X97528625Y-28351213D01*
X97568797Y-28365264D01*
X97570662Y-28365976D01*
X97628972Y-28390122D01*
X97640015Y-28395825D01*
X97679703Y-28420760D01*
X97682545Y-28422737D01*
X97732379Y-28460974D01*
X97736022Y-28464170D01*
X97771942Y-28500091D01*
X97775138Y-28503735D01*
X97813372Y-28553569D01*
X97815349Y-28556411D01*
X97840281Y-28596100D01*
X97845992Y-28607156D01*
X97870120Y-28665433D01*
X97870860Y-28667374D01*
X97884894Y-28707505D01*
X97888411Y-28722290D01*
X97899359Y-28805597D01*
X97902247Y-28831283D01*
X97902479Y-28835420D01*
X97902479Y-29293464D01*
X97899007Y-29303001D01*
X97902137Y-29326761D01*
X97902454Y-29331588D01*
X97902469Y-29389535D01*
X97913894Y-29439539D01*
X97913104Y-29445847D01*
X97915687Y-29452079D01*
X97919464Y-29463922D01*
X97927588Y-29499479D01*
X97927590Y-29499483D01*
X97956509Y-29559514D01*
X97957205Y-29566461D01*
X97959679Y-29569685D01*
X97967642Y-29582622D01*
X97976536Y-29601085D01*
X97976537Y-29601087D01*
X98026043Y-29663159D01*
X98028552Y-29670625D01*
X98030265Y-29671940D01*
X98043068Y-29684504D01*
X98046858Y-29689256D01*
X98051609Y-29693045D01*
X98064176Y-29705848D01*
X98065477Y-29707544D01*
X98072955Y-29710068D01*
X98113320Y-29742260D01*
X98135033Y-29759576D01*
X98153506Y-29768474D01*
X98166442Y-29776436D01*
X98169224Y-29778570D01*
X98175555Y-29779104D01*
X98176581Y-29779589D01*
X98236640Y-29808518D01*
X98272198Y-29816640D01*
X98284044Y-29820418D01*
X98289044Y-29822490D01*
X98294077Y-29821683D01*
X98296550Y-29822203D01*
X98346589Y-29833633D01*
X98388165Y-29833640D01*
X98388183Y-29833644D01*
X98402880Y-29833644D01*
X98402979Y-29833644D01*
X98403479Y-29833644D01*
X98404348Y-29833644D01*
X98409190Y-29833962D01*
X98430582Y-29836782D01*
X98437723Y-29833747D01*
X98441634Y-29833644D01*
X104875416Y-29833644D01*
X104884941Y-29837110D01*
X104908686Y-29833983D01*
X104913517Y-29833665D01*
X104915066Y-29833664D01*
X104915066Y-29833666D01*
X104971585Y-29833655D01*
X105021833Y-29822162D01*
X105028161Y-29822952D01*
X105034377Y-29820371D01*
X105046248Y-29816578D01*
X105081777Y-29808452D01*
X105081779Y-29808450D01*
X105081783Y-29808450D01*
X105142048Y-29779356D01*
X105149002Y-29778653D01*
X105152191Y-29776199D01*
X105165155Y-29768200D01*
X105174470Y-29763703D01*
X105183574Y-29759308D01*
X105183575Y-29759307D01*
X105183576Y-29759307D01*
X105236351Y-29717091D01*
X105245843Y-29709497D01*
X105253301Y-29706979D01*
X105254574Y-29705314D01*
X105267152Y-29692452D01*
X105271845Y-29688699D01*
X105275587Y-29683986D01*
X105288400Y-29671368D01*
X105290043Y-29670102D01*
X105292555Y-29662621D01*
X105301463Y-29651404D01*
X107898458Y-29651404D01*
X107899313Y-29664446D01*
X107906438Y-29773158D01*
X107906517Y-29775578D01*
X107906517Y-29805267D01*
X107910390Y-29834697D01*
X107910627Y-29837105D01*
X107918608Y-29958851D01*
X107918611Y-29958875D01*
X107942410Y-30078519D01*
X107942804Y-30080907D01*
X107946682Y-30110353D01*
X107954367Y-30139034D01*
X107954917Y-30141393D01*
X107978718Y-30261053D01*
X107978723Y-30261070D01*
X108017938Y-30376595D01*
X108018641Y-30378911D01*
X108026329Y-30407600D01*
X108037688Y-30435022D01*
X108038540Y-30437288D01*
X108077764Y-30552834D01*
X108131726Y-30662260D01*
X108132725Y-30664465D01*
X108144083Y-30691885D01*
X108144090Y-30691899D01*
X108158934Y-30717611D01*
X108160075Y-30719746D01*
X108214036Y-30829168D01*
X108214040Y-30829174D01*
X108214041Y-30829176D01*
X108281831Y-30930631D01*
X108283096Y-30932666D01*
X108297951Y-30958395D01*
X108306447Y-30969467D01*
X108316033Y-30981961D01*
X108317442Y-30983928D01*
X108385214Y-31085355D01*
X108385223Y-31085368D01*
X108385225Y-31085370D01*
X108385229Y-31085375D01*
X108465670Y-31177100D01*
X108467205Y-31178971D01*
X108485281Y-31202528D01*
X108506282Y-31223529D01*
X108507938Y-31225297D01*
X108588380Y-31317023D01*
X108680106Y-31397465D01*
X108681867Y-31399114D01*
X108702876Y-31420123D01*
X108726433Y-31438199D01*
X108728304Y-31439734D01*
X108820029Y-31520175D01*
X108820037Y-31520182D01*
X108820049Y-31520190D01*
X108921484Y-31587967D01*
X108923452Y-31589377D01*
X108947010Y-31607454D01*
X108972769Y-31622326D01*
X108974751Y-31623558D01*
X109040913Y-31667767D01*
X109076216Y-31691356D01*
X109076223Y-31691360D01*
X109076229Y-31691364D01*
X109155184Y-31730300D01*
X109185657Y-31745328D01*
X109187793Y-31746470D01*
X109198532Y-31752669D01*
X109213508Y-31761316D01*
X109240946Y-31772681D01*
X109243138Y-31773674D01*
X109352569Y-31827640D01*
X109352572Y-31827641D01*
X109352574Y-31827642D01*
X109468139Y-31866871D01*
X109470352Y-31867704D01*
X109497808Y-31879077D01*
X109526495Y-31886763D01*
X109528798Y-31887462D01*
X109644342Y-31926684D01*
X109644348Y-31926685D01*
X109644354Y-31926687D01*
X109684583Y-31934688D01*
X109764034Y-31950492D01*
X109766328Y-31951026D01*
X109795047Y-31958722D01*
X109822360Y-31962317D01*
X109824488Y-31962598D01*
X109826878Y-31962993D01*
X109886336Y-31974819D01*
X109946541Y-31986795D01*
X110068294Y-31994775D01*
X110070679Y-31995009D01*
X110100139Y-31998888D01*
X110100142Y-31998888D01*
X110129826Y-31998888D01*
X110132246Y-31998967D01*
X110156367Y-32000547D01*
X110254001Y-32006947D01*
X110351634Y-32000547D01*
X110375756Y-31998967D01*
X110378176Y-31998888D01*
X110407859Y-31998888D01*
X110407863Y-31998888D01*
X110437331Y-31995008D01*
X110439701Y-31994775D01*
X110561461Y-31986795D01*
X110681121Y-31962993D01*
X110683505Y-31962599D01*
X110712955Y-31958722D01*
X110741665Y-31951029D01*
X110743954Y-31950494D01*
X110863660Y-31926684D01*
X110979206Y-31887461D01*
X110981502Y-31886764D01*
X111010194Y-31879077D01*
X111037643Y-31867707D01*
X111039868Y-31866869D01*
X111155428Y-31827642D01*
X111264876Y-31773668D01*
X111267039Y-31772688D01*
X111294494Y-31761316D01*
X111320252Y-31746444D01*
X111322283Y-31745358D01*
X111431773Y-31691364D01*
X111533255Y-31623555D01*
X111535249Y-31622316D01*
X111560992Y-31607454D01*
X111584581Y-31589353D01*
X111586485Y-31587988D01*
X111687965Y-31520182D01*
X111779718Y-31439716D01*
X111781554Y-31438210D01*
X111805126Y-31420123D01*
X111826164Y-31399084D01*
X111827853Y-31397502D01*
X111919621Y-31317024D01*
X112000099Y-31225256D01*
X112001681Y-31223567D01*
X112022720Y-31202529D01*
X112040807Y-31178957D01*
X112042313Y-31177121D01*
X112122779Y-31085368D01*
X112190585Y-30983888D01*
X112191950Y-30981984D01*
X112210051Y-30958395D01*
X112224913Y-30932652D01*
X112226152Y-30930658D01*
X112293961Y-30829176D01*
X112347955Y-30719686D01*
X112349041Y-30717655D01*
X112363913Y-30691897D01*
X112375285Y-30664442D01*
X112376265Y-30662279D01*
X112430239Y-30552831D01*
X112469466Y-30437271D01*
X112470304Y-30435046D01*
X112481674Y-30407597D01*
X112489361Y-30378905D01*
X112490062Y-30376597D01*
X112490063Y-30376595D01*
X112529281Y-30261063D01*
X112553091Y-30141357D01*
X112553626Y-30139068D01*
X112561319Y-30110358D01*
X112565196Y-30080907D01*
X112565590Y-30078525D01*
X112568730Y-30062739D01*
X112589392Y-29958864D01*
X112597372Y-29837104D01*
X112597605Y-29834731D01*
X112601485Y-29805266D01*
X112602143Y-29764991D01*
X112602217Y-29763191D01*
X112602454Y-29759576D01*
X112609544Y-29651404D01*
X112602217Y-29539615D01*
X112602143Y-29537800D01*
X112601485Y-29497542D01*
X112597606Y-29468082D01*
X112597372Y-29465696D01*
X112597173Y-29462654D01*
X112589392Y-29343944D01*
X112577416Y-29283739D01*
X112565590Y-29224281D01*
X112565195Y-29221891D01*
X112561319Y-29192453D01*
X112561319Y-29192450D01*
X112553623Y-29163731D01*
X112553089Y-29161437D01*
X112534876Y-29069874D01*
X112529284Y-29041757D01*
X112529282Y-29041751D01*
X112529281Y-29041745D01*
X112490059Y-28926202D01*
X112489357Y-28923886D01*
X112481674Y-28895211D01*
X112470301Y-28867755D01*
X112469468Y-28865542D01*
X112430239Y-28749977D01*
X112416435Y-28721986D01*
X112398344Y-28685301D01*
X112376269Y-28640537D01*
X112375288Y-28638372D01*
X112363913Y-28610911D01*
X112349051Y-28585170D01*
X112347925Y-28583062D01*
X112347923Y-28583058D01*
X112293961Y-28473633D01*
X112293958Y-28473628D01*
X112293955Y-28473623D01*
X112226181Y-28372192D01*
X112224902Y-28370136D01*
X112210051Y-28344413D01*
X112210048Y-28344410D01*
X112210047Y-28344407D01*
X112210046Y-28344405D01*
X112191968Y-28320846D01*
X112190557Y-28318877D01*
X112150953Y-28259606D01*
X112122779Y-28217440D01*
X112058876Y-28144573D01*
X112042331Y-28125707D01*
X112040794Y-28123834D01*
X112023357Y-28101110D01*
X112022720Y-28100279D01*
X112001716Y-28079275D01*
X112000062Y-28077509D01*
X111990394Y-28066485D01*
X111919621Y-27985784D01*
X111827893Y-27905340D01*
X111826126Y-27903685D01*
X111805125Y-27882684D01*
X111781568Y-27864608D01*
X111779697Y-27863073D01*
X111687972Y-27782632D01*
X111687970Y-27782631D01*
X111687965Y-27782626D01*
X111687952Y-27782617D01*
X111586525Y-27714845D01*
X111584558Y-27713436D01*
X111572064Y-27703850D01*
X111560992Y-27695354D01*
X111535261Y-27680498D01*
X111533228Y-27679234D01*
X111431773Y-27611444D01*
X111431771Y-27611443D01*
X111431765Y-27611439D01*
X111322343Y-27557478D01*
X111320208Y-27556337D01*
X111294496Y-27541493D01*
X111294482Y-27541486D01*
X111267062Y-27530128D01*
X111264857Y-27529129D01*
X111155431Y-27475167D01*
X111039885Y-27435943D01*
X111037619Y-27435091D01*
X111010197Y-27423732D01*
X111010195Y-27423731D01*
X111010194Y-27423731D01*
X111003169Y-27421848D01*
X110981508Y-27416044D01*
X110979192Y-27415341D01*
X110863667Y-27376126D01*
X110863650Y-27376121D01*
X110743990Y-27352320D01*
X110741639Y-27351771D01*
X110712955Y-27344086D01*
X110712952Y-27344085D01*
X110712950Y-27344085D01*
X110683504Y-27340207D01*
X110681116Y-27339813D01*
X110561472Y-27316014D01*
X110561448Y-27316011D01*
X110439702Y-27308030D01*
X110437294Y-27307793D01*
X110407864Y-27303920D01*
X110407863Y-27303920D01*
X110378176Y-27303920D01*
X110375756Y-27303841D01*
X110254001Y-27295861D01*
X110132246Y-27303841D01*
X110129826Y-27303920D01*
X110100138Y-27303920D01*
X110070708Y-27307793D01*
X110068300Y-27308030D01*
X109946553Y-27316011D01*
X109946528Y-27316014D01*
X109826884Y-27339813D01*
X109824497Y-27340207D01*
X109795047Y-27344086D01*
X109795042Y-27344087D01*
X109766357Y-27351773D01*
X109764000Y-27352322D01*
X109644351Y-27376121D01*
X109644333Y-27376126D01*
X109528808Y-27415341D01*
X109526493Y-27416043D01*
X109497810Y-27423730D01*
X109497802Y-27423733D01*
X109470380Y-27435091D01*
X109468115Y-27435944D01*
X109352572Y-27475166D01*
X109243151Y-27529126D01*
X109240947Y-27530125D01*
X109213509Y-27541491D01*
X109213505Y-27541493D01*
X109187790Y-27556339D01*
X109185655Y-27557480D01*
X109076238Y-27611439D01*
X109076213Y-27611454D01*
X108974790Y-27679221D01*
X108972736Y-27680498D01*
X108947014Y-27695351D01*
X108947009Y-27695354D01*
X108923448Y-27713432D01*
X108921481Y-27714842D01*
X108820042Y-27782622D01*
X108820028Y-27782632D01*
X108728316Y-27863062D01*
X108726446Y-27864598D01*
X108702883Y-27882679D01*
X108702871Y-27882689D01*
X108681872Y-27903687D01*
X108680107Y-27905340D01*
X108588389Y-27985775D01*
X108588372Y-27985792D01*
X108507937Y-28077510D01*
X108506284Y-28079275D01*
X108485286Y-28100274D01*
X108485276Y-28100286D01*
X108467195Y-28123849D01*
X108465659Y-28125719D01*
X108385229Y-28217431D01*
X108385219Y-28217445D01*
X108317439Y-28318884D01*
X108316029Y-28320851D01*
X108297951Y-28344412D01*
X108297948Y-28344417D01*
X108283095Y-28370139D01*
X108281818Y-28372193D01*
X108214051Y-28473616D01*
X108214036Y-28473641D01*
X108160077Y-28583058D01*
X108158936Y-28585193D01*
X108144090Y-28610908D01*
X108144088Y-28610912D01*
X108132722Y-28638350D01*
X108131723Y-28640554D01*
X108077763Y-28749975D01*
X108038541Y-28865518D01*
X108037688Y-28867783D01*
X108026330Y-28895205D01*
X108026327Y-28895213D01*
X108018640Y-28923896D01*
X108017938Y-28926211D01*
X107978723Y-29041736D01*
X107978718Y-29041754D01*
X107954919Y-29161403D01*
X107954370Y-29163760D01*
X107946684Y-29192445D01*
X107946683Y-29192450D01*
X107942804Y-29221900D01*
X107942410Y-29224287D01*
X107918611Y-29343931D01*
X107918608Y-29343956D01*
X107910627Y-29465703D01*
X107910390Y-29468111D01*
X107906517Y-29497540D01*
X107906517Y-29527228D01*
X107906438Y-29529648D01*
X107899228Y-29639650D01*
X107898458Y-29651404D01*
X105301463Y-29651404D01*
X105342145Y-29600180D01*
X105350976Y-29581721D01*
X105358925Y-29568739D01*
X105361043Y-29565966D01*
X105361567Y-29559606D01*
X105362014Y-29558652D01*
X105390933Y-29498213D01*
X105398936Y-29462649D01*
X105402687Y-29450765D01*
X105404755Y-29445734D01*
X105403928Y-29440657D01*
X105404436Y-29438209D01*
X105415749Y-29387937D01*
X105415750Y-29387933D01*
X105415563Y-29331414D01*
X105415561Y-29330914D01*
X105415557Y-29330038D01*
X105415860Y-29325200D01*
X105418614Y-29303738D01*
X105415544Y-29296583D01*
X105415429Y-29292749D01*
X105397897Y-24217288D01*
X105398115Y-24213156D01*
X105399652Y-24199085D01*
X105400751Y-24189039D01*
X105408902Y-24125518D01*
X105411674Y-24103919D01*
X105415150Y-24089116D01*
X105428895Y-24049477D01*
X105429570Y-24047694D01*
X105453945Y-23988397D01*
X105459625Y-23977335D01*
X105484260Y-23937929D01*
X105486177Y-23935161D01*
X105524810Y-23884597D01*
X105527980Y-23880968D01*
X105563583Y-23845241D01*
X105567202Y-23842058D01*
X105617606Y-23803267D01*
X105620410Y-23801311D01*
X105659712Y-23776550D01*
X105670765Y-23770826D01*
X105729933Y-23746264D01*
X105731772Y-23745560D01*
X105771144Y-23731755D01*
X105771324Y-23731692D01*
X105786137Y-23728159D01*
X105871562Y-23716898D01*
X105895227Y-23714228D01*
X105899376Y-23713996D01*
X105928524Y-23713996D01*
X105928530Y-23713994D01*
X110658810Y-23713948D01*
X110660746Y-23713999D01*
X110668679Y-23714414D01*
X110678877Y-23714948D01*
X110790894Y-23723757D01*
X110793775Y-23724099D01*
X110817569Y-23727867D01*
X110838102Y-23731120D01*
X110840939Y-23731684D01*
X110949835Y-23757833D01*
X110967961Y-23762691D01*
X110969748Y-23763220D01*
X115784537Y-25327640D01*
X115824425Y-25358804D01*
X115834949Y-25408317D01*
X115832047Y-25420885D01*
X115411432Y-26715409D01*
X115411135Y-26715948D01*
X115406956Y-26729051D01*
X115406988Y-26729464D01*
X115406989Y-26729465D01*
X115407305Y-26729734D01*
X115407309Y-26729733D01*
X115418230Y-26733240D01*
X136791964Y-33677986D01*
X136792088Y-33678056D01*
X136806075Y-33682615D01*
X136806076Y-33682616D01*
X136806489Y-33682584D01*
X136806688Y-33682350D01*
X136806688Y-33682348D01*
X136806757Y-33682268D01*
X136806757Y-33682266D01*
X136807047Y-33681373D01*
X136809965Y-33673436D01*
X136810295Y-33671353D01*
X136811351Y-33668093D01*
X136811370Y-33667936D01*
X137231772Y-32374075D01*
X137262935Y-32334188D01*
X137312448Y-32323664D01*
X137325016Y-32326566D01*
X137523407Y-32391027D01*
X141210554Y-33589054D01*
X141213636Y-33590211D01*
X141242603Y-33602593D01*
X141382494Y-33664891D01*
X141393154Y-33670732D01*
X141451639Y-33709339D01*
X141453005Y-33710285D01*
X141545864Y-33777754D01*
X141549689Y-33780948D01*
X141607759Y-33836469D01*
X141609687Y-33838455D01*
X141682081Y-33918857D01*
X141684520Y-33921869D01*
X141732701Y-33988183D01*
X141734811Y-33991433D01*
X141788902Y-34085117D01*
X141790195Y-34087564D01*
X141825062Y-34159961D01*
X141826917Y-34164586D01*
X141862387Y-34273737D01*
X141862865Y-34275328D01*
X141881511Y-34342881D01*
X141883772Y-34354831D01*
X141899858Y-34507806D01*
X141902610Y-34538362D01*
X141902759Y-34541682D01*
X141902759Y-52217000D01*
X141902600Y-52220424D01*
X141899803Y-52250542D01*
X141898420Y-52263280D01*
X141882474Y-52410093D01*
X141880068Y-52422403D01*
X141860550Y-52490824D01*
X141860042Y-52492460D01*
X141821934Y-52605858D01*
X141819962Y-52610607D01*
X141783303Y-52684020D01*
X141781929Y-52686525D01*
X141724038Y-52783032D01*
X141721799Y-52786345D01*
X141671207Y-52853122D01*
X141668623Y-52856175D01*
X141591373Y-52938035D01*
X141589334Y-52940035D01*
X141528588Y-52995188D01*
X141524550Y-52998372D01*
X141425691Y-53065751D01*
X141424253Y-53066683D01*
X141363695Y-53103973D01*
X141352489Y-53109623D01*
X141202498Y-53169904D01*
X141175718Y-53180188D01*
X141172452Y-53181271D01*
X141021714Y-53223587D01*
X140853130Y-53293259D01*
X140851187Y-53293998D01*
X140816897Y-53305963D01*
X140815735Y-53307479D01*
X140804211Y-53313475D01*
X140792577Y-53318284D01*
X140729860Y-53344203D01*
X140554219Y-53442402D01*
X140552565Y-53443272D01*
X140528833Y-53455008D01*
X140528623Y-53455365D01*
X140517729Y-53462802D01*
X140454236Y-53498300D01*
X140273885Y-53629156D01*
X140272519Y-53630101D01*
X140258048Y-53639639D01*
X140251287Y-53645552D01*
X140198638Y-53683752D01*
X140015623Y-53852740D01*
X140010641Y-53856990D01*
X140008774Y-53859064D01*
X139966631Y-53897977D01*
X139761431Y-54138002D01*
X139761423Y-54138012D01*
X139585880Y-54400505D01*
X139585878Y-54400507D01*
X139442430Y-54681818D01*
X139442426Y-54681827D01*
X139333059Y-54978060D01*
X139259290Y-55285116D01*
X139259287Y-55285135D01*
X139222149Y-55598706D01*
X139222149Y-55914497D01*
X139259288Y-56228071D01*
X139259289Y-56228074D01*
X139259291Y-56228089D01*
X139333059Y-56535138D01*
X139442429Y-56831379D01*
X139442430Y-56831382D01*
X139442431Y-56831383D01*
X139442432Y-56831386D01*
X139585880Y-57112696D01*
X139585881Y-57112698D01*
X139673265Y-57243363D01*
X139761425Y-57375189D01*
X139761433Y-57375200D01*
X139761435Y-57375203D01*
X139863441Y-57494520D01*
X139966622Y-57615213D01*
X139966634Y-57615226D01*
X140008769Y-57654131D01*
X140009210Y-57654987D01*
X140015589Y-57660429D01*
X140198642Y-57829450D01*
X140251290Y-57867649D01*
X140253063Y-57870274D01*
X140272518Y-57883098D01*
X140273884Y-57884043D01*
X140325257Y-57921317D01*
X140454235Y-58014899D01*
X140517731Y-58050398D01*
X140521197Y-58054415D01*
X140552574Y-58069932D01*
X140554227Y-58070803D01*
X140607513Y-58100593D01*
X140729868Y-58169000D01*
X140804214Y-58199725D01*
X140809660Y-58204707D01*
X140851165Y-58219191D01*
X140853086Y-58219923D01*
X141021712Y-58289612D01*
X141021722Y-58289614D01*
X141021725Y-58289616D01*
X141079370Y-58305797D01*
X141149307Y-58325429D01*
X141149349Y-58325459D01*
X141172051Y-58331817D01*
X141175327Y-58332901D01*
X141201673Y-58343019D01*
X141203320Y-58343652D01*
X141212039Y-58347158D01*
X141352646Y-58403704D01*
X141363821Y-58409341D01*
X141423685Y-58446200D01*
X141425024Y-58447068D01*
X141488230Y-58490144D01*
X141524732Y-58515021D01*
X141528770Y-58518204D01*
X141589033Y-58572914D01*
X141591066Y-58574908D01*
X141668809Y-58657283D01*
X141671393Y-58660335D01*
X141721632Y-58726639D01*
X141723872Y-58729952D01*
X141782140Y-58827077D01*
X141783514Y-58829581D01*
X141819881Y-58902398D01*
X141821854Y-58907148D01*
X141860275Y-59021452D01*
X141860783Y-59023088D01*
X141880048Y-59090603D01*
X141882456Y-59102919D01*
X141900166Y-59266018D01*
X141902600Y-59292185D01*
X141902759Y-59295613D01*
X141902759Y-60222681D01*
X141902581Y-60226296D01*
X141901888Y-60233331D01*
X141901280Y-60239509D01*
X141889099Y-60331942D01*
X141886547Y-60343752D01*
X141876510Y-60376843D01*
X141875287Y-60380263D01*
X141847178Y-60448135D01*
X141845624Y-60451420D01*
X141829338Y-60481893D01*
X141822786Y-60492056D01*
X141765732Y-60566424D01*
X141757751Y-60576150D01*
X141755309Y-60578844D01*
X136166621Y-66167531D01*
X136164488Y-66169502D01*
X136146445Y-66184914D01*
X136032081Y-66278748D01*
X136027940Y-66281694D01*
X135973659Y-66314961D01*
X135971768Y-66316044D01*
X135875081Y-66367729D01*
X135871796Y-66369283D01*
X135808511Y-66395499D01*
X135805090Y-66396723D01*
X135700205Y-66428542D01*
X135698102Y-66429113D01*
X135636192Y-66443980D01*
X135631175Y-66444825D01*
X135482736Y-66459451D01*
X135460630Y-66461192D01*
X135457723Y-66461306D01*
X82339387Y-66461306D01*
X82335202Y-66461069D01*
X82311100Y-66458327D01*
X82225326Y-66446931D01*
X82210412Y-66443346D01*
X82170456Y-66429224D01*
X82168502Y-66428470D01*
X82109288Y-66403689D01*
X82098160Y-66397877D01*
X82058557Y-66372703D01*
X82055703Y-66370694D01*
X82053751Y-66369177D01*
X82005318Y-66331542D01*
X82001690Y-66328318D01*
X81977904Y-66304182D01*
X81965934Y-66292035D01*
X81962741Y-66288334D01*
X81924333Y-66237390D01*
X81922369Y-66234513D01*
X81897775Y-66194543D01*
X81892130Y-66183341D01*
X81868197Y-66123725D01*
X81867499Y-66121831D01*
X81853944Y-66081622D01*
X81850584Y-66066690D01*
X81840484Y-65981163D01*
X81838043Y-65956502D01*
X81837868Y-65952350D01*
X81838054Y-65939045D01*
X81840047Y-65797259D01*
X81821962Y-65622043D01*
X81821807Y-65619965D01*
X81819950Y-65579954D01*
X81818566Y-65578046D01*
X81816106Y-65565304D01*
X81807753Y-65484370D01*
X81766108Y-65298387D01*
X81765740Y-65296514D01*
X81760245Y-65264180D01*
X81759449Y-65263321D01*
X81755457Y-65250818D01*
X81739022Y-65177420D01*
X81670574Y-64982506D01*
X81670038Y-64980856D01*
X81663142Y-64957772D01*
X81657680Y-64945790D01*
X81634798Y-64880630D01*
X81565858Y-64739775D01*
X81535680Y-64678117D01*
X81528540Y-64661788D01*
X81524174Y-64654606D01*
X81496531Y-64598125D01*
X81496526Y-64598118D01*
X81496522Y-64598109D01*
X81363092Y-64391121D01*
X81358942Y-64384105D01*
X81356846Y-64381431D01*
X81326102Y-64333739D01*
X81326095Y-64333728D01*
X81266892Y-64262000D01*
X121514508Y-64262000D01*
X121534353Y-64387301D01*
X121534353Y-64387302D01*
X121534354Y-64387304D01*
X121591950Y-64500342D01*
X121681658Y-64590050D01*
X121794696Y-64647646D01*
X121920000Y-64667492D01*
X122045304Y-64647646D01*
X122158342Y-64590050D01*
X122248050Y-64500342D01*
X122305646Y-64387304D01*
X122325492Y-64262000D01*
X122305646Y-64136696D01*
X122248050Y-64023658D01*
X122158342Y-63933950D01*
X122045304Y-63876354D01*
X122045302Y-63876353D01*
X122045301Y-63876353D01*
X121920000Y-63856508D01*
X121794698Y-63876353D01*
X121681656Y-63933951D01*
X121591951Y-64023656D01*
X121534353Y-64136698D01*
X121514508Y-64262000D01*
X81266892Y-64262000D01*
X81125870Y-64091142D01*
X81125869Y-64091141D01*
X80961583Y-63933950D01*
X80898590Y-63873677D01*
X80875812Y-63856508D01*
X80647409Y-63684349D01*
X80647401Y-63684343D01*
X80375767Y-63525749D01*
X80375763Y-63525747D01*
X80375761Y-63525746D01*
X80087408Y-63400067D01*
X79939760Y-63355429D01*
X79786317Y-63309039D01*
X79476633Y-63253915D01*
X79476625Y-63253914D01*
X79162630Y-63235456D01*
X79162616Y-63235456D01*
X78848620Y-63253914D01*
X78848612Y-63253915D01*
X78538928Y-63309039D01*
X78237841Y-63400066D01*
X78237838Y-63400067D01*
X78091738Y-63463745D01*
X77949478Y-63525749D01*
X77677844Y-63684343D01*
X77677836Y-63684349D01*
X77426660Y-63873673D01*
X77199376Y-64091141D01*
X77199375Y-64091142D01*
X76999150Y-64333728D01*
X76999142Y-64333739D01*
X76968398Y-64381433D01*
X76967463Y-64382142D01*
X76962135Y-64391149D01*
X76828722Y-64598112D01*
X76828721Y-64598113D01*
X76801070Y-64654609D01*
X76798951Y-64656648D01*
X76789551Y-64678145D01*
X76690447Y-64880630D01*
X76667565Y-64945792D01*
X76664602Y-64949405D01*
X76655203Y-64980866D01*
X76654662Y-64982534D01*
X76586224Y-65177419D01*
X76569789Y-65250818D01*
X76566360Y-65256174D01*
X76559500Y-65296538D01*
X76559129Y-65298423D01*
X76517493Y-65484367D01*
X76517492Y-65484369D01*
X76509138Y-65565318D01*
X76505639Y-65572525D01*
X76503436Y-65619983D01*
X76503280Y-65622066D01*
X76485199Y-65797255D01*
X76487378Y-65952427D01*
X76487202Y-65956594D01*
X76484773Y-65981138D01*
X76474720Y-66066509D01*
X76471351Y-66081495D01*
X76457564Y-66122391D01*
X76456838Y-66124357D01*
X76433235Y-66183146D01*
X76427586Y-66194358D01*
X76402690Y-66234814D01*
X76400721Y-66237699D01*
X76362698Y-66288131D01*
X76359502Y-66291834D01*
X76323384Y-66328479D01*
X76319729Y-66331727D01*
X76269861Y-66370473D01*
X76267005Y-66372483D01*
X76226904Y-66397970D01*
X76215774Y-66403781D01*
X76157341Y-66428231D01*
X76155385Y-66428984D01*
X76114666Y-66443372D01*
X76099756Y-66446956D01*
X76016406Y-66458028D01*
X75989647Y-66461069D01*
X75985465Y-66461306D01*
X22867862Y-66461306D01*
X22864958Y-66461192D01*
X22841164Y-66459319D01*
X22694230Y-66444844D01*
X22689214Y-66443999D01*
X22626771Y-66429008D01*
X22624668Y-66428437D01*
X22520377Y-66396801D01*
X22516956Y-66395577D01*
X22453220Y-66369177D01*
X22449937Y-66367624D01*
X22353827Y-66316255D01*
X22351936Y-66315171D01*
X22351593Y-66314961D01*
X22322784Y-66297306D01*
X22297176Y-66281614D01*
X22293031Y-66278665D01*
X22243113Y-66237699D01*
X22178767Y-66184891D01*
X22160789Y-66169536D01*
X22158655Y-66167563D01*
X16444161Y-60453069D01*
X16422769Y-60407193D01*
X16422487Y-60400743D01*
X16422487Y-59296213D01*
X16422646Y-59292790D01*
X16425459Y-59262499D01*
X16442747Y-59103185D01*
X16445148Y-59090903D01*
X16464812Y-59021970D01*
X16465260Y-59020525D01*
X16503259Y-58907450D01*
X16505225Y-58902720D01*
X16505386Y-58902398D01*
X16542047Y-58828980D01*
X16543386Y-58826539D01*
X16601125Y-58730286D01*
X16603343Y-58727005D01*
X16654149Y-58659948D01*
X16656697Y-58656938D01*
X16733743Y-58575296D01*
X16735719Y-58573359D01*
X16796761Y-58517938D01*
X16800753Y-58514790D01*
X16899329Y-58447607D01*
X16900603Y-58446782D01*
X16961653Y-58409191D01*
X16972829Y-58403556D01*
X17121889Y-58343657D01*
X17149841Y-58332922D01*
X17153063Y-58331854D01*
X17303532Y-58289612D01*
X17472151Y-58219923D01*
X17474081Y-58219189D01*
X17508333Y-58207234D01*
X17509485Y-58205732D01*
X17521019Y-58199726D01*
X17595373Y-58168997D01*
X17771063Y-58070769D01*
X17772684Y-58069916D01*
X17796385Y-58058195D01*
X17796589Y-58057850D01*
X17807506Y-58050394D01*
X17870997Y-58014896D01*
X17871001Y-58014894D01*
X18051389Y-57884008D01*
X18052726Y-57883084D01*
X18067181Y-57873555D01*
X18073939Y-57867647D01*
X18126588Y-57829446D01*
X18126588Y-57829445D01*
X18126592Y-57829443D01*
X18309639Y-57660422D01*
X18314583Y-57656205D01*
X18316445Y-57654137D01*
X18358596Y-57615217D01*
X18563794Y-57375191D01*
X18739337Y-57112696D01*
X18882788Y-56831377D01*
X18882788Y-56831376D01*
X18882790Y-56831373D01*
X18992150Y-56535154D01*
X18992156Y-56535138D01*
X19065922Y-56228092D01*
X19083083Y-56083200D01*
X42926908Y-56083200D01*
X42946753Y-56208501D01*
X42946753Y-56208502D01*
X42946754Y-56208504D01*
X43004350Y-56321542D01*
X43094058Y-56411250D01*
X43207096Y-56468846D01*
X43332400Y-56488692D01*
X43457704Y-56468846D01*
X43570742Y-56411250D01*
X43660450Y-56321542D01*
X43718046Y-56208504D01*
X43737892Y-56083200D01*
X43718046Y-55957896D01*
X43660450Y-55844858D01*
X43570742Y-55755150D01*
X43457704Y-55697554D01*
X43457702Y-55697553D01*
X43457701Y-55697553D01*
X43332400Y-55677708D01*
X43207098Y-55697553D01*
X43094056Y-55755151D01*
X43004351Y-55844856D01*
X42946753Y-55957898D01*
X42926908Y-56083200D01*
X19083083Y-56083200D01*
X19086346Y-56055648D01*
X19103063Y-55914503D01*
X19103063Y-55598715D01*
X19076211Y-55372000D01*
X61570508Y-55372000D01*
X61590353Y-55497301D01*
X61590353Y-55497302D01*
X61590354Y-55497304D01*
X61647950Y-55610342D01*
X61737658Y-55700050D01*
X61850696Y-55757646D01*
X61976000Y-55777492D01*
X62101304Y-55757646D01*
X62160272Y-55727600D01*
X64821708Y-55727600D01*
X64841553Y-55852901D01*
X64841553Y-55852902D01*
X64841554Y-55852904D01*
X64899150Y-55965942D01*
X64988858Y-56055650D01*
X65101896Y-56113246D01*
X65227200Y-56133092D01*
X65352504Y-56113246D01*
X65465542Y-56055650D01*
X65555250Y-55965942D01*
X65612846Y-55852904D01*
X65616600Y-55829200D01*
X80366508Y-55829200D01*
X80386353Y-55954501D01*
X80386353Y-55954502D01*
X80386354Y-55954504D01*
X80443950Y-56067542D01*
X80533658Y-56157250D01*
X80646696Y-56214846D01*
X80772000Y-56234692D01*
X80897304Y-56214846D01*
X81010342Y-56157250D01*
X81100050Y-56067542D01*
X81157646Y-55954504D01*
X81177492Y-55829200D01*
X81157646Y-55703896D01*
X81100050Y-55590858D01*
X81010342Y-55501150D01*
X80897304Y-55443554D01*
X80897302Y-55443553D01*
X80897301Y-55443553D01*
X80772000Y-55423708D01*
X80646698Y-55443553D01*
X80533656Y-55501151D01*
X80443951Y-55590856D01*
X80386353Y-55703898D01*
X80366508Y-55829200D01*
X65616600Y-55829200D01*
X65632692Y-55727600D01*
X65612846Y-55602296D01*
X65555250Y-55489258D01*
X65465542Y-55399550D01*
X65352504Y-55341954D01*
X65352502Y-55341953D01*
X65352501Y-55341953D01*
X65227200Y-55322108D01*
X65101898Y-55341953D01*
X64988856Y-55399551D01*
X64899151Y-55489256D01*
X64841553Y-55602298D01*
X64821708Y-55727600D01*
X62160272Y-55727600D01*
X62214342Y-55700050D01*
X62304050Y-55610342D01*
X62361646Y-55497304D01*
X62381492Y-55372000D01*
X62361646Y-55246696D01*
X62304050Y-55133658D01*
X62214342Y-55043950D01*
X62101304Y-54986354D01*
X62101302Y-54986353D01*
X62101301Y-54986353D01*
X61976000Y-54966508D01*
X61850698Y-54986353D01*
X61737656Y-55043951D01*
X61647951Y-55133656D01*
X61590353Y-55246698D01*
X61570508Y-55372000D01*
X19076211Y-55372000D01*
X19065924Y-55285144D01*
X19065922Y-55285127D01*
X18992156Y-54978081D01*
X18992150Y-54978064D01*
X18882790Y-54681845D01*
X18739339Y-54400527D01*
X18739337Y-54400523D01*
X18563794Y-54138028D01*
X18563772Y-54138002D01*
X18358599Y-53898005D01*
X18358594Y-53898000D01*
X18316459Y-53859094D01*
X18316018Y-53858240D01*
X18309660Y-53852815D01*
X18304445Y-53848000D01*
X108204908Y-53848000D01*
X108224753Y-53973301D01*
X108224753Y-53973302D01*
X108224754Y-53973304D01*
X108282350Y-54086342D01*
X108372058Y-54176050D01*
X108485096Y-54233646D01*
X108610400Y-54253492D01*
X108735704Y-54233646D01*
X108848742Y-54176050D01*
X108938450Y-54086342D01*
X108996046Y-53973304D01*
X109015892Y-53848000D01*
X108996046Y-53722696D01*
X108982240Y-53695600D01*
X135078108Y-53695600D01*
X135097953Y-53820901D01*
X135097953Y-53820902D01*
X135097954Y-53820904D01*
X135155550Y-53933942D01*
X135245258Y-54023650D01*
X135358296Y-54081246D01*
X135483600Y-54101092D01*
X135608904Y-54081246D01*
X135721942Y-54023650D01*
X135811650Y-53933942D01*
X135869246Y-53820904D01*
X135889092Y-53695600D01*
X135869246Y-53570296D01*
X135811650Y-53457258D01*
X135721942Y-53367550D01*
X135608904Y-53309954D01*
X135608902Y-53309953D01*
X135608901Y-53309953D01*
X135483600Y-53290108D01*
X135358298Y-53309953D01*
X135245256Y-53367551D01*
X135155551Y-53457256D01*
X135097953Y-53570298D01*
X135078108Y-53695600D01*
X108982240Y-53695600D01*
X108938450Y-53609658D01*
X108848742Y-53519950D01*
X108735704Y-53462354D01*
X108735702Y-53462353D01*
X108735701Y-53462353D01*
X108610400Y-53442508D01*
X108485098Y-53462353D01*
X108372056Y-53519951D01*
X108282351Y-53609656D01*
X108224753Y-53722698D01*
X108204908Y-53848000D01*
X18304445Y-53848000D01*
X18126595Y-53683781D01*
X18126591Y-53683777D01*
X18109796Y-53671591D01*
X18073936Y-53645571D01*
X18072163Y-53642947D01*
X18052704Y-53630120D01*
X18051337Y-53629174D01*
X17871005Y-53498327D01*
X17870997Y-53498322D01*
X17807503Y-53462823D01*
X17804035Y-53458805D01*
X17772644Y-53443280D01*
X17771000Y-53442415D01*
X17769542Y-53441600D01*
X40894908Y-53441600D01*
X40899101Y-53468072D01*
X40914753Y-53566901D01*
X40914753Y-53566902D01*
X40914754Y-53566904D01*
X40972350Y-53679942D01*
X41062058Y-53769650D01*
X41175096Y-53827246D01*
X41300400Y-53847092D01*
X41425704Y-53827246D01*
X41538742Y-53769650D01*
X41628450Y-53679942D01*
X41686046Y-53566904D01*
X41705892Y-53441600D01*
X41705253Y-53437566D01*
X41691957Y-53353615D01*
X41686046Y-53316296D01*
X41628450Y-53203258D01*
X41538742Y-53113550D01*
X41425704Y-53055954D01*
X41425702Y-53055953D01*
X41425701Y-53055953D01*
X41300400Y-53036108D01*
X41175098Y-53055953D01*
X41062056Y-53113551D01*
X40972351Y-53203256D01*
X40914753Y-53316298D01*
X40895298Y-53439135D01*
X40894908Y-53441600D01*
X17769542Y-53441600D01*
X17700255Y-53402862D01*
X17595375Y-53344224D01*
X17595372Y-53344223D01*
X17521025Y-53313496D01*
X17515577Y-53308512D01*
X17474071Y-53294027D01*
X17472130Y-53293288D01*
X17303538Y-53223610D01*
X17303534Y-53223608D01*
X17303532Y-53223608D01*
X17192835Y-53192531D01*
X17192771Y-53192485D01*
X17153194Y-53181401D01*
X17149906Y-53180311D01*
X17121530Y-53169413D01*
X16972824Y-53109649D01*
X16961620Y-53104000D01*
X16900781Y-53066540D01*
X16899343Y-53065608D01*
X16800752Y-52998415D01*
X16796714Y-52995231D01*
X16735800Y-52939930D01*
X16733769Y-52937938D01*
X16656675Y-52856247D01*
X16654110Y-52853217D01*
X16603373Y-52786253D01*
X16601136Y-52782942D01*
X16543374Y-52686654D01*
X16542010Y-52684168D01*
X16514361Y-52628800D01*
X42672908Y-52628800D01*
X42692753Y-52754101D01*
X42692753Y-52754102D01*
X42692754Y-52754104D01*
X42750350Y-52867142D01*
X42840058Y-52956850D01*
X42953096Y-53014446D01*
X43078400Y-53034292D01*
X43203704Y-53014446D01*
X43316742Y-52956850D01*
X43406450Y-52867142D01*
X43464046Y-52754104D01*
X43483892Y-52628800D01*
X43464046Y-52503496D01*
X43406450Y-52390458D01*
X43357787Y-52341795D01*
X72784960Y-52341795D01*
X72804204Y-52549482D01*
X72861286Y-52750103D01*
X72861288Y-52750111D01*
X72898833Y-52825512D01*
X72954263Y-52936831D01*
X72954265Y-52936834D01*
X73079962Y-53103284D01*
X73079963Y-53103285D01*
X73211933Y-53223590D01*
X73234111Y-53243808D01*
X73411454Y-53353615D01*
X73444172Y-53366290D01*
X73446176Y-53367135D01*
X73446877Y-53367455D01*
X73449707Y-53368434D01*
X73605955Y-53428965D01*
X73641093Y-53435533D01*
X73645996Y-53436833D01*
X73646021Y-53436733D01*
X73649440Y-53437562D01*
X73649450Y-53437566D01*
X73660355Y-53439134D01*
X73810989Y-53467292D01*
X73850908Y-53467292D01*
X73861434Y-53468045D01*
X73861624Y-53468072D01*
X73861631Y-53468073D01*
X73877148Y-53467333D01*
X73878904Y-53467292D01*
X74019575Y-53467292D01*
X74065488Y-53458709D01*
X74070515Y-53458123D01*
X74075750Y-53457874D01*
X74075754Y-53457872D01*
X74077431Y-53457793D01*
X74077482Y-53457789D01*
X74083740Y-53457490D01*
X74086630Y-53455340D01*
X74090370Y-53454327D01*
X74094293Y-53453375D01*
X74096124Y-53452982D01*
X74224609Y-53428965D01*
X74272099Y-53410567D01*
X74276718Y-53409119D01*
X74284070Y-53407336D01*
X74284077Y-53407332D01*
X74285102Y-53407084D01*
X74285125Y-53407078D01*
X74289064Y-53406122D01*
X74290595Y-53404457D01*
X74293864Y-53402862D01*
X74303426Y-53398496D01*
X74305340Y-53397689D01*
X74419110Y-53353615D01*
X74466061Y-53324543D01*
X74470147Y-53322356D01*
X74479061Y-53318286D01*
X74479062Y-53318284D01*
X74481096Y-53317356D01*
X74481563Y-53316605D01*
X74484335Y-53314529D01*
X74497411Y-53305218D01*
X74499310Y-53303956D01*
X74596453Y-53243808D01*
X74640508Y-53203645D01*
X74643943Y-53200874D01*
X74653676Y-53193944D01*
X74653679Y-53193940D01*
X74653857Y-53193814D01*
X74655121Y-53192428D01*
X74669605Y-53177237D01*
X74671364Y-53175517D01*
X74750600Y-53103285D01*
X74789247Y-53052108D01*
X74791961Y-53048913D01*
X74801603Y-53038802D01*
X74814054Y-53019427D01*
X74815600Y-53017210D01*
X74876301Y-52936830D01*
X74906948Y-52875281D01*
X74908916Y-52871818D01*
X74917496Y-52858469D01*
X74925874Y-52837540D01*
X74927071Y-52834869D01*
X74969276Y-52750111D01*
X74989384Y-52679435D01*
X74990623Y-52675807D01*
X74997163Y-52659473D01*
X74997163Y-52659470D01*
X74997163Y-52659469D01*
X74997166Y-52659462D01*
X75001271Y-52638161D01*
X75002002Y-52635089D01*
X75026358Y-52549488D01*
X75033596Y-52471377D01*
X75034101Y-52467826D01*
X75037735Y-52448973D01*
X75038417Y-52420263D01*
X75038558Y-52417826D01*
X75045604Y-52341792D01*
X75038558Y-52265762D01*
X75038417Y-52263317D01*
X75037735Y-52234611D01*
X75034102Y-52215765D01*
X75033595Y-52212197D01*
X75026358Y-52134096D01*
X75002005Y-52048504D01*
X75001271Y-52045422D01*
X74997166Y-52024122D01*
X74997161Y-52024110D01*
X74997159Y-52024102D01*
X74990624Y-52007780D01*
X74989385Y-52004149D01*
X74969278Y-51933480D01*
X74969277Y-51933478D01*
X74969276Y-51933473D01*
X74927086Y-51848745D01*
X74925862Y-51846013D01*
X74917496Y-51825115D01*
X74908921Y-51811772D01*
X74906934Y-51808274D01*
X74876301Y-51746754D01*
X74815626Y-51666408D01*
X74814029Y-51664117D01*
X74801606Y-51644786D01*
X74801604Y-51644784D01*
X74801603Y-51644782D01*
X74791971Y-51634680D01*
X74789224Y-51631446D01*
X74753561Y-51584221D01*
X74750600Y-51580299D01*
X74750599Y-51580298D01*
X74750600Y-51580298D01*
X74671413Y-51508111D01*
X74669577Y-51506317D01*
X74655122Y-51491157D01*
X74654812Y-51490447D01*
X74643952Y-51482715D01*
X74640489Y-51479920D01*
X74596453Y-51439776D01*
X74581236Y-51430354D01*
X74499357Y-51379656D01*
X74497373Y-51378337D01*
X74484365Y-51369074D01*
X74483004Y-51367097D01*
X74470154Y-51361229D01*
X74466043Y-51359029D01*
X74419110Y-51329969D01*
X74305382Y-51285910D01*
X74303378Y-51285065D01*
X74293921Y-51280746D01*
X74291078Y-51277948D01*
X74286548Y-51276849D01*
X74286531Y-51276844D01*
X74276719Y-51274462D01*
X74272078Y-51273007D01*
X74224610Y-51254619D01*
X74096158Y-51230607D01*
X74094239Y-51230195D01*
X74092522Y-51229779D01*
X74090404Y-51229265D01*
X74085775Y-51226186D01*
X74070516Y-51225459D01*
X74065473Y-51224871D01*
X74019582Y-51216292D01*
X74019575Y-51216292D01*
X73878904Y-51216292D01*
X73877148Y-51216250D01*
X73870959Y-51215955D01*
X73861635Y-51215511D01*
X73861624Y-51215511D01*
X73861434Y-51215539D01*
X73850908Y-51216292D01*
X73810983Y-51216292D01*
X73660354Y-51244450D01*
X73658447Y-51244724D01*
X73649444Y-51246018D01*
X73646032Y-51246847D01*
X73646008Y-51246749D01*
X73641089Y-51248051D01*
X73605950Y-51254620D01*
X73449714Y-51315146D01*
X73446875Y-51316129D01*
X73446157Y-51316457D01*
X73444177Y-51317291D01*
X73411453Y-51329969D01*
X73411450Y-51329970D01*
X73234110Y-51439776D01*
X73234109Y-51439776D01*
X73079963Y-51580298D01*
X73079962Y-51580299D01*
X72954265Y-51746749D01*
X72954263Y-51746752D01*
X72861288Y-51933473D01*
X72861286Y-51933478D01*
X72804204Y-52134101D01*
X72784960Y-52341788D01*
X72784960Y-52341795D01*
X43357787Y-52341795D01*
X43316742Y-52300750D01*
X43203704Y-52243154D01*
X43203702Y-52243153D01*
X43203701Y-52243153D01*
X43078400Y-52223308D01*
X42953098Y-52243153D01*
X42840056Y-52300751D01*
X42750351Y-52390456D01*
X42692753Y-52503498D01*
X42672908Y-52628800D01*
X16514361Y-52628800D01*
X16505230Y-52610515D01*
X16503270Y-52605796D01*
X16465253Y-52492673D01*
X16464759Y-52491081D01*
X16445150Y-52422346D01*
X16442747Y-52410048D01*
X16425389Y-52250081D01*
X16422902Y-52223308D01*
X16422646Y-52220548D01*
X16422487Y-52217124D01*
X16422487Y-51816000D01*
X42164908Y-51816000D01*
X42184753Y-51941301D01*
X42184753Y-51941302D01*
X42184754Y-51941304D01*
X42242350Y-52054342D01*
X42332058Y-52144050D01*
X42445096Y-52201646D01*
X42570400Y-52221492D01*
X42695704Y-52201646D01*
X42808742Y-52144050D01*
X42898450Y-52054342D01*
X42956046Y-51941304D01*
X42975892Y-51816000D01*
X42956046Y-51690696D01*
X42898450Y-51577658D01*
X42808742Y-51487950D01*
X42695704Y-51430354D01*
X42695702Y-51430353D01*
X42695701Y-51430353D01*
X42570400Y-51410508D01*
X42445098Y-51430353D01*
X42332056Y-51487951D01*
X42242351Y-51577656D01*
X42184753Y-51690698D01*
X42164908Y-51816000D01*
X16422487Y-51816000D01*
X16422487Y-49377599D01*
X32462108Y-49377599D01*
X32481953Y-49502901D01*
X32481953Y-49502902D01*
X32481954Y-49502904D01*
X32539550Y-49615942D01*
X32629258Y-49705650D01*
X32742296Y-49763246D01*
X32867600Y-49783092D01*
X32992904Y-49763246D01*
X33105942Y-49705650D01*
X33195650Y-49615942D01*
X33253246Y-49502904D01*
X33273092Y-49377600D01*
X33253246Y-49252296D01*
X33195650Y-49139258D01*
X33105942Y-49049550D01*
X32992904Y-48991954D01*
X32992902Y-48991953D01*
X32992901Y-48991953D01*
X32867600Y-48972108D01*
X32742298Y-48991953D01*
X32629256Y-49049551D01*
X32539551Y-49139256D01*
X32481953Y-49252298D01*
X32462108Y-49377599D01*
X16422487Y-49377599D01*
X16422487Y-48615599D01*
X34494108Y-48615599D01*
X34513953Y-48740901D01*
X34513953Y-48740902D01*
X34513954Y-48740904D01*
X34571550Y-48853942D01*
X34661258Y-48943650D01*
X34774296Y-49001246D01*
X34899600Y-49021092D01*
X35024904Y-49001246D01*
X35137942Y-48943650D01*
X35227650Y-48853942D01*
X35285246Y-48740904D01*
X35305092Y-48615600D01*
X119990508Y-48615600D01*
X120010353Y-48740901D01*
X120010353Y-48740902D01*
X120010354Y-48740904D01*
X120067950Y-48853942D01*
X120157658Y-48943650D01*
X120270696Y-49001246D01*
X120396000Y-49021092D01*
X120521304Y-49001246D01*
X120634342Y-48943650D01*
X120724050Y-48853942D01*
X120781646Y-48740904D01*
X120801492Y-48615600D01*
X120781646Y-48490296D01*
X120724050Y-48377258D01*
X120634342Y-48287550D01*
X120521304Y-48229954D01*
X120521302Y-48229953D01*
X120521301Y-48229953D01*
X120396000Y-48210108D01*
X120270698Y-48229953D01*
X120157656Y-48287551D01*
X120067951Y-48377256D01*
X120010353Y-48490298D01*
X119990508Y-48615600D01*
X35305092Y-48615600D01*
X35285246Y-48490296D01*
X35227650Y-48377258D01*
X35137942Y-48287550D01*
X35024904Y-48229954D01*
X35024902Y-48229953D01*
X35024901Y-48229953D01*
X34899600Y-48210108D01*
X34774298Y-48229953D01*
X34661256Y-48287551D01*
X34571551Y-48377256D01*
X34513953Y-48490298D01*
X34494108Y-48615599D01*
X16422487Y-48615599D01*
X16422487Y-47961884D01*
X19881304Y-47961884D01*
X19901149Y-48087185D01*
X19901149Y-48087186D01*
X19901150Y-48087188D01*
X19958746Y-48200226D01*
X20048454Y-48289934D01*
X20161492Y-48347530D01*
X20286796Y-48367376D01*
X20412100Y-48347530D01*
X20525138Y-48289934D01*
X20614846Y-48200226D01*
X20672442Y-48087188D01*
X20692288Y-47961884D01*
X20672442Y-47836580D01*
X20614846Y-47723542D01*
X20525138Y-47633834D01*
X20412100Y-47576238D01*
X20412098Y-47576237D01*
X20412097Y-47576237D01*
X20286796Y-47556392D01*
X20161494Y-47576237D01*
X20048452Y-47633835D01*
X19958747Y-47723540D01*
X19901149Y-47836582D01*
X19881304Y-47961884D01*
X16422487Y-47961884D01*
X16422487Y-45821599D01*
X32462108Y-45821599D01*
X32481953Y-45946901D01*
X32481953Y-45946902D01*
X32481954Y-45946904D01*
X32539550Y-46059942D01*
X32629258Y-46149650D01*
X32742296Y-46207246D01*
X32867600Y-46227092D01*
X32992904Y-46207246D01*
X33068172Y-46168895D01*
X51424293Y-46168895D01*
X51444071Y-46319129D01*
X51444071Y-46319130D01*
X51502061Y-46459128D01*
X51594308Y-46579346D01*
X51714526Y-46671593D01*
X51854523Y-46729582D01*
X51967039Y-46744395D01*
X51967041Y-46744395D01*
X51969636Y-46744395D01*
X52017202Y-46761708D01*
X52042512Y-46805545D01*
X52037239Y-46848493D01*
X52019095Y-46889245D01*
X52012793Y-46918895D01*
X52830135Y-46918895D01*
X52757214Y-46933400D01*
X52674519Y-46988655D01*
X52619264Y-47071350D01*
X52599861Y-47168895D01*
X52619264Y-47266440D01*
X52674519Y-47349135D01*
X52757214Y-47404390D01*
X52830135Y-47418895D01*
X52012793Y-47418895D01*
X52019096Y-47448547D01*
X52019096Y-47448548D01*
X52096042Y-47621372D01*
X52096046Y-47621379D01*
X52207242Y-47774426D01*
X52347838Y-47901020D01*
X52511682Y-47995615D01*
X52691603Y-48054075D01*
X52832600Y-48068895D01*
X53004759Y-48068895D01*
X53004759Y-47418895D01*
X53504759Y-47418895D01*
X53504759Y-48068895D01*
X53676918Y-48068895D01*
X53817914Y-48054075D01*
X53997835Y-47995615D01*
X54161679Y-47901020D01*
X54302275Y-47774426D01*
X54413471Y-47621380D01*
X54413477Y-47621369D01*
X54490420Y-47448552D01*
X54490421Y-47448547D01*
X54496725Y-47418895D01*
X56012793Y-47418895D01*
X56019096Y-47448547D01*
X56019096Y-47448548D01*
X56096042Y-47621372D01*
X56096046Y-47621379D01*
X56207242Y-47774426D01*
X56347838Y-47901020D01*
X56511682Y-47995615D01*
X56691603Y-48054075D01*
X56832600Y-48068895D01*
X57004759Y-48068895D01*
X57004759Y-47418895D01*
X57504759Y-47418895D01*
X57504759Y-48068895D01*
X57676918Y-48068895D01*
X57817914Y-48054075D01*
X57997835Y-47995615D01*
X58161679Y-47901020D01*
X58302275Y-47774426D01*
X58413471Y-47621380D01*
X58413477Y-47621369D01*
X58466328Y-47502664D01*
X138616367Y-47502664D01*
X138636212Y-47627965D01*
X138636212Y-47627966D01*
X138636213Y-47627968D01*
X138693809Y-47741006D01*
X138783517Y-47830714D01*
X138896555Y-47888310D01*
X139021859Y-47908156D01*
X139147163Y-47888310D01*
X139260201Y-47830714D01*
X139349909Y-47741006D01*
X139407505Y-47627968D01*
X139427351Y-47502664D01*
X139407505Y-47377360D01*
X139349909Y-47264322D01*
X139260201Y-47174614D01*
X139147163Y-47117018D01*
X139147161Y-47117017D01*
X139147160Y-47117017D01*
X139021859Y-47097172D01*
X138896557Y-47117017D01*
X138783515Y-47174615D01*
X138693810Y-47264320D01*
X138636212Y-47377362D01*
X138616367Y-47502664D01*
X58466328Y-47502664D01*
X58490420Y-47448552D01*
X58490421Y-47448547D01*
X58496725Y-47418895D01*
X57679383Y-47418895D01*
X57752304Y-47404390D01*
X57834999Y-47349135D01*
X57890254Y-47266440D01*
X57909657Y-47168895D01*
X57890254Y-47071350D01*
X57834999Y-46988655D01*
X57752304Y-46933400D01*
X57679383Y-46918895D01*
X58496725Y-46918895D01*
X58490421Y-46889242D01*
X58490421Y-46889241D01*
X58413475Y-46716417D01*
X58413471Y-46716410D01*
X58302275Y-46563363D01*
X58161679Y-46436769D01*
X57997835Y-46342174D01*
X57817914Y-46283714D01*
X57676918Y-46268895D01*
X57504759Y-46268895D01*
X57504759Y-46918895D01*
X57004759Y-46918895D01*
X57004759Y-46268895D01*
X56832600Y-46268895D01*
X56691603Y-46283714D01*
X56511682Y-46342174D01*
X56347838Y-46436769D01*
X56207242Y-46563363D01*
X56096046Y-46716409D01*
X56096040Y-46716420D01*
X56019097Y-46889237D01*
X56019096Y-46889242D01*
X56012793Y-46918895D01*
X56830135Y-46918895D01*
X56757214Y-46933400D01*
X56674519Y-46988655D01*
X56619264Y-47071350D01*
X56599861Y-47168895D01*
X56619264Y-47266440D01*
X56674519Y-47349135D01*
X56757214Y-47404390D01*
X56830135Y-47418895D01*
X56012793Y-47418895D01*
X54496725Y-47418895D01*
X53679383Y-47418895D01*
X53752304Y-47404390D01*
X53834999Y-47349135D01*
X53890254Y-47266440D01*
X53909657Y-47168895D01*
X53890254Y-47071350D01*
X53834999Y-46988655D01*
X53752304Y-46933400D01*
X53679383Y-46918895D01*
X54496725Y-46918895D01*
X54490421Y-46889242D01*
X54490421Y-46889241D01*
X54413475Y-46716417D01*
X54413471Y-46716410D01*
X54302275Y-46563363D01*
X54161679Y-46436769D01*
X53997835Y-46342174D01*
X53817914Y-46283714D01*
X53676918Y-46268895D01*
X53504759Y-46268895D01*
X53504759Y-46918895D01*
X53004759Y-46918895D01*
X53004759Y-46268895D01*
X52830657Y-46268895D01*
X52830657Y-46267770D01*
X52785684Y-46253874D01*
X52758241Y-46211340D01*
X52764560Y-46161117D01*
X52801682Y-46126705D01*
X52805954Y-46125060D01*
X52894064Y-46094230D01*
X52894064Y-46094229D01*
X52907867Y-46085556D01*
X52544759Y-45722448D01*
X52236855Y-45414544D01*
X52344759Y-45414544D01*
X52384372Y-45496800D01*
X52455751Y-45553722D01*
X52522227Y-45568895D01*
X52567291Y-45568895D01*
X52633767Y-45553722D01*
X52705146Y-45496800D01*
X52744759Y-45414544D01*
X52744759Y-45323246D01*
X52705146Y-45240990D01*
X52633767Y-45184068D01*
X52567291Y-45168895D01*
X52522227Y-45168895D01*
X52455751Y-45184068D01*
X52384372Y-45240990D01*
X52344759Y-45323246D01*
X52344759Y-45414544D01*
X52236855Y-45414544D01*
X51828096Y-45005786D01*
X51819424Y-45019589D01*
X51819422Y-45019594D01*
X51759884Y-45189743D01*
X51759882Y-45189751D01*
X51739697Y-45368894D01*
X51759882Y-45548038D01*
X51759884Y-45548044D01*
X51767145Y-45568796D01*
X51766513Y-45619411D01*
X51733494Y-45657778D01*
X51725620Y-45661600D01*
X51714528Y-45666195D01*
X51714526Y-45666196D01*
X51594308Y-45758444D01*
X51502061Y-45878661D01*
X51444071Y-46018659D01*
X51444071Y-46018660D01*
X51424293Y-46168895D01*
X33068172Y-46168895D01*
X33105942Y-46149650D01*
X33195650Y-46059942D01*
X33253246Y-45946904D01*
X33273092Y-45821600D01*
X33253246Y-45696296D01*
X33195650Y-45583258D01*
X33105942Y-45493550D01*
X32992904Y-45435954D01*
X32992902Y-45435953D01*
X32992901Y-45435953D01*
X32867600Y-45416108D01*
X32742298Y-45435953D01*
X32629256Y-45493551D01*
X32539551Y-45583256D01*
X32481953Y-45696298D01*
X32462108Y-45821599D01*
X16422487Y-45821599D01*
X16422487Y-44907200D01*
X22403708Y-44907200D01*
X22423553Y-45032501D01*
X22423553Y-45032502D01*
X22423554Y-45032504D01*
X22481150Y-45145542D01*
X22570858Y-45235250D01*
X22683896Y-45292846D01*
X22809200Y-45312692D01*
X22934504Y-45292846D01*
X23047542Y-45235250D01*
X23137250Y-45145542D01*
X23194846Y-45032504D01*
X23198600Y-45008800D01*
X43993708Y-45008800D01*
X44013553Y-45134101D01*
X44013553Y-45134102D01*
X44013554Y-45134104D01*
X44071150Y-45247142D01*
X44160858Y-45336850D01*
X44273896Y-45394446D01*
X44399200Y-45414292D01*
X44524504Y-45394446D01*
X44637542Y-45336850D01*
X44727250Y-45247142D01*
X44784846Y-45134104D01*
X44804692Y-45008800D01*
X44784846Y-44883496D01*
X44727250Y-44770458D01*
X44637542Y-44680750D01*
X44524504Y-44623154D01*
X44524502Y-44623153D01*
X44524501Y-44623153D01*
X44399200Y-44603308D01*
X44273898Y-44623153D01*
X44160856Y-44680751D01*
X44071151Y-44770456D01*
X44013553Y-44883498D01*
X43993708Y-45008800D01*
X23198600Y-45008800D01*
X23214692Y-44907200D01*
X23194846Y-44781896D01*
X23137250Y-44668858D01*
X23047542Y-44579150D01*
X22934504Y-44521554D01*
X22934502Y-44521553D01*
X22934501Y-44521553D01*
X22809200Y-44501708D01*
X22683898Y-44521553D01*
X22570856Y-44579151D01*
X22481151Y-44668856D01*
X22423553Y-44781898D01*
X22403708Y-44907200D01*
X16422487Y-44907200D01*
X16422487Y-43586400D01*
X19101708Y-43586400D01*
X19121553Y-43711701D01*
X19121553Y-43711702D01*
X19121554Y-43711704D01*
X19179150Y-43824742D01*
X19268858Y-43914450D01*
X19381896Y-43972046D01*
X19507200Y-43991892D01*
X19632504Y-43972046D01*
X19691472Y-43942000D01*
X39218508Y-43942000D01*
X39238353Y-44067301D01*
X39238353Y-44067302D01*
X39238354Y-44067304D01*
X39295950Y-44180342D01*
X39385658Y-44270050D01*
X39498696Y-44327646D01*
X39624000Y-44347492D01*
X39749304Y-44327646D01*
X39862342Y-44270050D01*
X39952050Y-44180342D01*
X40009646Y-44067304D01*
X40029492Y-43942000D01*
X40021446Y-43891200D01*
X49022908Y-43891200D01*
X49042753Y-44016501D01*
X49042753Y-44016502D01*
X49042754Y-44016504D01*
X49100350Y-44129542D01*
X49190058Y-44219250D01*
X49303096Y-44276846D01*
X49428400Y-44296692D01*
X49553704Y-44276846D01*
X49666742Y-44219250D01*
X49756450Y-44129542D01*
X49814046Y-44016504D01*
X49833892Y-43891200D01*
X49814046Y-43765896D01*
X49756450Y-43652858D01*
X49666742Y-43563150D01*
X49553704Y-43505554D01*
X49553702Y-43505553D01*
X49553701Y-43505553D01*
X49428400Y-43485708D01*
X49303098Y-43505553D01*
X49190056Y-43563151D01*
X49100351Y-43652856D01*
X49042753Y-43765898D01*
X49022908Y-43891200D01*
X40021446Y-43891200D01*
X40009646Y-43816696D01*
X39952050Y-43703658D01*
X39862342Y-43613950D01*
X39749304Y-43556354D01*
X39749302Y-43556353D01*
X39749301Y-43556353D01*
X39624000Y-43536508D01*
X39498698Y-43556353D01*
X39385656Y-43613951D01*
X39295951Y-43703656D01*
X39238353Y-43816698D01*
X39218508Y-43942000D01*
X19691472Y-43942000D01*
X19745542Y-43914450D01*
X19835250Y-43824742D01*
X19892846Y-43711704D01*
X19912692Y-43586400D01*
X19892846Y-43461096D01*
X19853156Y-43383200D01*
X47752908Y-43383200D01*
X47772753Y-43508501D01*
X47772753Y-43508502D01*
X47772754Y-43508504D01*
X47830350Y-43621542D01*
X47920058Y-43711250D01*
X48033096Y-43768846D01*
X48158400Y-43788692D01*
X48283704Y-43768846D01*
X48396742Y-43711250D01*
X48486450Y-43621542D01*
X48544046Y-43508504D01*
X48563892Y-43383200D01*
X48544046Y-43257896D01*
X48486450Y-43144858D01*
X48396742Y-43055150D01*
X48283704Y-42997554D01*
X48283702Y-42997553D01*
X48283701Y-42997553D01*
X48158400Y-42977708D01*
X48033098Y-42997553D01*
X47920056Y-43055151D01*
X47830351Y-43144856D01*
X47830349Y-43144858D01*
X47830350Y-43144858D01*
X47778583Y-43246457D01*
X47772753Y-43257898D01*
X47752908Y-43383200D01*
X19853156Y-43383200D01*
X19835250Y-43348058D01*
X19745542Y-43258350D01*
X19632504Y-43200754D01*
X19632502Y-43200753D01*
X19632501Y-43200753D01*
X19507200Y-43180908D01*
X19381898Y-43200753D01*
X19268856Y-43258351D01*
X19179151Y-43348056D01*
X19121553Y-43461098D01*
X19101708Y-43586400D01*
X16422487Y-43586400D01*
X16422487Y-42519600D01*
X49429308Y-42519600D01*
X49449153Y-42644901D01*
X49449153Y-42644902D01*
X49449154Y-42644904D01*
X49506750Y-42757942D01*
X49596458Y-42847650D01*
X49709496Y-42905246D01*
X49834800Y-42925092D01*
X49960104Y-42905246D01*
X50073142Y-42847650D01*
X50162850Y-42757942D01*
X50220446Y-42644904D01*
X50240292Y-42519600D01*
X50220446Y-42394296D01*
X50162850Y-42281258D01*
X50073142Y-42191550D01*
X49960104Y-42133954D01*
X49960102Y-42133953D01*
X49960101Y-42133953D01*
X49834800Y-42114108D01*
X49709498Y-42133953D01*
X49709496Y-42133953D01*
X49709496Y-42133954D01*
X49702077Y-42137734D01*
X49596456Y-42191551D01*
X49506751Y-42281256D01*
X49506749Y-42281258D01*
X49506750Y-42281258D01*
X49458700Y-42375562D01*
X49449153Y-42394298D01*
X49429308Y-42519600D01*
X16422487Y-42519600D01*
X16422487Y-40995599D01*
X27382108Y-40995599D01*
X27401953Y-41120901D01*
X27401953Y-41120902D01*
X27401954Y-41120904D01*
X27459550Y-41233942D01*
X27549258Y-41323650D01*
X27662296Y-41381246D01*
X27787600Y-41401092D01*
X27912904Y-41381246D01*
X28025942Y-41323650D01*
X28115650Y-41233942D01*
X28159440Y-41148000D01*
X46584508Y-41148000D01*
X46604353Y-41273301D01*
X46604353Y-41273302D01*
X46604354Y-41273304D01*
X46661950Y-41386342D01*
X46751658Y-41476050D01*
X46864696Y-41533646D01*
X46990000Y-41553492D01*
X47115304Y-41533646D01*
X47228342Y-41476050D01*
X47318050Y-41386342D01*
X47375646Y-41273304D01*
X47395492Y-41148000D01*
X47375646Y-41022696D01*
X47318050Y-40909658D01*
X47228342Y-40819950D01*
X47174272Y-40792400D01*
X48262353Y-40792400D01*
X48282834Y-40934854D01*
X48282834Y-40934855D01*
X48282835Y-40934857D01*
X48321193Y-41018848D01*
X48342623Y-41065773D01*
X48436868Y-41174539D01*
X48436869Y-41174540D01*
X48436872Y-41174543D01*
X48524074Y-41230584D01*
X48541093Y-41241522D01*
X48557947Y-41252353D01*
X48655753Y-41281071D01*
X48696035Y-41292899D01*
X48696037Y-41292900D01*
X48696039Y-41292900D01*
X48839963Y-41292900D01*
X48839964Y-41292899D01*
X48978053Y-41252353D01*
X49099128Y-41174543D01*
X49142164Y-41124876D01*
X49186393Y-41100267D01*
X49236098Y-41109845D01*
X49268017Y-41149132D01*
X49271176Y-41161760D01*
X49277684Y-41202850D01*
X49277684Y-41202851D01*
X49277685Y-41202853D01*
X49335281Y-41315891D01*
X49424989Y-41405599D01*
X49538027Y-41463195D01*
X49663331Y-41483041D01*
X49788635Y-41463195D01*
X49901673Y-41405599D01*
X49957549Y-41349722D01*
X50003425Y-41328331D01*
X50009875Y-41328049D01*
X50188737Y-41328049D01*
X50236303Y-41345362D01*
X50241063Y-41349723D01*
X50680226Y-41788886D01*
X50701618Y-41834762D01*
X50701900Y-41841212D01*
X50701900Y-43503637D01*
X50700478Y-43518073D01*
X50696992Y-43535597D01*
X50696992Y-43535600D01*
X50716434Y-43633341D01*
X50729474Y-43652856D01*
X50729475Y-43652858D01*
X50768489Y-43711248D01*
X50771799Y-43716201D01*
X50786660Y-43726131D01*
X50797872Y-43735332D01*
X51592391Y-44529851D01*
X51601593Y-44541063D01*
X51611524Y-44555926D01*
X51664587Y-44591381D01*
X51694383Y-44611290D01*
X51792124Y-44630732D01*
X51809649Y-44627245D01*
X51824086Y-44625824D01*
X52124590Y-44625824D01*
X52172156Y-44643137D01*
X52176916Y-44647498D01*
X52544759Y-45015342D01*
X53261420Y-45732003D01*
X53270093Y-45718200D01*
X53270098Y-45718192D01*
X53329632Y-45548049D01*
X53329635Y-45548037D01*
X53338856Y-45466196D01*
X53361385Y-45420867D01*
X53384404Y-45407389D01*
X53384048Y-45406649D01*
X53389042Y-45404243D01*
X53389046Y-45404243D01*
X53411582Y-45393389D01*
X53422825Y-45389065D01*
X53443828Y-45382899D01*
X53473202Y-45364020D01*
X53477145Y-45361816D01*
X53511401Y-45345320D01*
X53527097Y-45330756D01*
X53537413Y-45322755D01*
X53552808Y-45312862D01*
X53577844Y-45283966D01*
X53580633Y-45281080D01*
X53610953Y-45252950D01*
X53619864Y-45237514D01*
X53628019Y-45226061D01*
X53637641Y-45214958D01*
X53654915Y-45177131D01*
X53656497Y-45174062D01*
X53663923Y-45161200D01*
X57963708Y-45161200D01*
X57983553Y-45286501D01*
X57983553Y-45286502D01*
X57983554Y-45286504D01*
X58041150Y-45399542D01*
X58130858Y-45489250D01*
X58243896Y-45546846D01*
X58369200Y-45566692D01*
X58494504Y-45546846D01*
X58607542Y-45489250D01*
X58697250Y-45399542D01*
X58741040Y-45313600D01*
X64924753Y-45313600D01*
X64945234Y-45456054D01*
X64945234Y-45456055D01*
X64945235Y-45456057D01*
X64987241Y-45548037D01*
X65005023Y-45586973D01*
X65099268Y-45695739D01*
X65099269Y-45695740D01*
X65099272Y-45695743D01*
X65220347Y-45773553D01*
X65326803Y-45804811D01*
X65358435Y-45814099D01*
X65358437Y-45814100D01*
X65358439Y-45814100D01*
X65502363Y-45814100D01*
X65502364Y-45814099D01*
X65640453Y-45773553D01*
X65761528Y-45695743D01*
X65855777Y-45586973D01*
X65915565Y-45456057D01*
X65936047Y-45313600D01*
X65915565Y-45171143D01*
X65855777Y-45040227D01*
X65814304Y-44992364D01*
X65761531Y-44931460D01*
X65761529Y-44931459D01*
X65761528Y-44931457D01*
X65704582Y-44894860D01*
X65640454Y-44853647D01*
X65640450Y-44853646D01*
X65502364Y-44813100D01*
X65502361Y-44813100D01*
X65358439Y-44813100D01*
X65358436Y-44813100D01*
X65220349Y-44853646D01*
X65220345Y-44853647D01*
X65099275Y-44931455D01*
X65099268Y-44931460D01*
X65005023Y-45040226D01*
X64945234Y-45171145D01*
X64924753Y-45313600D01*
X58741040Y-45313600D01*
X58754846Y-45286504D01*
X58774692Y-45161200D01*
X58754846Y-45035896D01*
X58697250Y-44922858D01*
X58607542Y-44833150D01*
X58494504Y-44775554D01*
X58494502Y-44775553D01*
X58494501Y-44775553D01*
X58369200Y-44755708D01*
X58243898Y-44775553D01*
X58130856Y-44833151D01*
X58041151Y-44922856D01*
X57983553Y-45035898D01*
X57963708Y-45161200D01*
X53663923Y-45161200D01*
X53678855Y-45135340D01*
X53682018Y-45121476D01*
X53686845Y-45107214D01*
X53691456Y-45097121D01*
X53697842Y-45052694D01*
X53698390Y-45049745D01*
X53709074Y-45002941D01*
X53708281Y-44992360D01*
X53708827Y-44976299D01*
X53709892Y-44968895D01*
X53703030Y-44921169D01*
X53702760Y-44918700D01*
X53698925Y-44867517D01*
X53696368Y-44861004D01*
X53692006Y-44844495D01*
X53691456Y-44840669D01*
X53670057Y-44793812D01*
X53669271Y-44791959D01*
X53665322Y-44781896D01*
X53649311Y-44741101D01*
X53647203Y-44738458D01*
X53637745Y-44723061D01*
X53637641Y-44722832D01*
X53601241Y-44680824D01*
X53579212Y-44653200D01*
X75287953Y-44653200D01*
X75308434Y-44795654D01*
X75308434Y-44795655D01*
X75308435Y-44795657D01*
X75338279Y-44861005D01*
X75368223Y-44926573D01*
X75462468Y-45035339D01*
X75462469Y-45035340D01*
X75462472Y-45035343D01*
X75583547Y-45113153D01*
X75690003Y-45144411D01*
X75721635Y-45153699D01*
X75721637Y-45153700D01*
X75721639Y-45153700D01*
X75865563Y-45153700D01*
X75865564Y-45153699D01*
X76003653Y-45113153D01*
X76124728Y-45035343D01*
X76218977Y-44926573D01*
X76278765Y-44795657D01*
X76299247Y-44653200D01*
X76278765Y-44510743D01*
X76218977Y-44379827D01*
X76173762Y-44327646D01*
X76124731Y-44271060D01*
X76124729Y-44271059D01*
X76124728Y-44271057D01*
X76044115Y-44219250D01*
X76003654Y-44193247D01*
X76003650Y-44193246D01*
X75865564Y-44152700D01*
X75865561Y-44152700D01*
X75721639Y-44152700D01*
X75721636Y-44152700D01*
X75583549Y-44193246D01*
X75583545Y-44193247D01*
X75462475Y-44271055D01*
X75462468Y-44271060D01*
X75368223Y-44379826D01*
X75308434Y-44510745D01*
X75287953Y-44653200D01*
X53579212Y-44653200D01*
X53564638Y-44634925D01*
X53564634Y-44634922D01*
X53563486Y-44633856D01*
X53557040Y-44628115D01*
X53556803Y-44628390D01*
X53552678Y-44624815D01*
X53552033Y-44623656D01*
X53550597Y-44622377D01*
X53549339Y-44620925D01*
X53550131Y-44620237D01*
X53528071Y-44580579D01*
X53537656Y-44530876D01*
X53549386Y-44516900D01*
X53549342Y-44516862D01*
X53551769Y-44514060D01*
X53552693Y-44512960D01*
X53552797Y-44512868D01*
X53552808Y-44512862D01*
X53577844Y-44483966D01*
X53580633Y-44481080D01*
X53610953Y-44452950D01*
X53619864Y-44437514D01*
X53628019Y-44426061D01*
X53637641Y-44414958D01*
X53654915Y-44377131D01*
X53656497Y-44374062D01*
X53678855Y-44335340D01*
X53682018Y-44321476D01*
X53686845Y-44307214D01*
X53691456Y-44297121D01*
X53697842Y-44252694D01*
X53698390Y-44249745D01*
X53709074Y-44202941D01*
X53708281Y-44192360D01*
X53708827Y-44176299D01*
X53709892Y-44168895D01*
X53703030Y-44121169D01*
X53702760Y-44118700D01*
X53698925Y-44067517D01*
X53696368Y-44061004D01*
X53692006Y-44044495D01*
X53691456Y-44040669D01*
X53670057Y-43993812D01*
X53669271Y-43991959D01*
X53661456Y-43972046D01*
X53649311Y-43941101D01*
X53647203Y-43938458D01*
X53637745Y-43923061D01*
X53637641Y-43922832D01*
X53601241Y-43880824D01*
X53564638Y-43834925D01*
X53564634Y-43834922D01*
X53563486Y-43833856D01*
X53557040Y-43828115D01*
X53556803Y-43828390D01*
X53552678Y-43824815D01*
X53552033Y-43823656D01*
X53550597Y-43822377D01*
X53549339Y-43820925D01*
X53550131Y-43820237D01*
X53528071Y-43780579D01*
X53537656Y-43730876D01*
X53549386Y-43716900D01*
X53549342Y-43716862D01*
X53551769Y-43714060D01*
X53552693Y-43712960D01*
X53552797Y-43712868D01*
X53552808Y-43712862D01*
X53574349Y-43688000D01*
X58928908Y-43688000D01*
X58948753Y-43813301D01*
X58948753Y-43813302D01*
X58948754Y-43813304D01*
X59006350Y-43926342D01*
X59096058Y-44016050D01*
X59209096Y-44073646D01*
X59334400Y-44093492D01*
X59459704Y-44073646D01*
X59572742Y-44016050D01*
X59662450Y-43926342D01*
X59704609Y-43843599D01*
X59741630Y-43809078D01*
X59792180Y-43806429D01*
X59804139Y-43811261D01*
X59830962Y-43824928D01*
X59920295Y-43870445D01*
X59920295Y-43870446D01*
X59937427Y-43873159D01*
X60045600Y-43890292D01*
X60170904Y-43870446D01*
X60283942Y-43812850D01*
X60373650Y-43723142D01*
X60431246Y-43610104D01*
X60451092Y-43484800D01*
X60446426Y-43455342D01*
X60436587Y-43393217D01*
X60431246Y-43359496D01*
X60373650Y-43246458D01*
X60283942Y-43156750D01*
X60170904Y-43099154D01*
X60170902Y-43099153D01*
X60170901Y-43099153D01*
X60045600Y-43079308D01*
X59920298Y-43099153D01*
X59807256Y-43156751D01*
X59717550Y-43246457D01*
X59675390Y-43329201D01*
X59638370Y-43363722D01*
X59587820Y-43366371D01*
X59575861Y-43361539D01*
X59459704Y-43302354D01*
X59459704Y-43302353D01*
X59334400Y-43282508D01*
X59209098Y-43302353D01*
X59096056Y-43359951D01*
X59006351Y-43449656D01*
X58948753Y-43562698D01*
X58928908Y-43688000D01*
X53574349Y-43688000D01*
X53577844Y-43683966D01*
X53580633Y-43681080D01*
X53610953Y-43652950D01*
X53619864Y-43637514D01*
X53628019Y-43626061D01*
X53637641Y-43614958D01*
X53654915Y-43577131D01*
X53656497Y-43574062D01*
X53678855Y-43535340D01*
X53682018Y-43521476D01*
X53686845Y-43507214D01*
X53691456Y-43497121D01*
X53697842Y-43452694D01*
X53698390Y-43449745D01*
X53709074Y-43402941D01*
X53708281Y-43392360D01*
X53708827Y-43376299D01*
X53709892Y-43368895D01*
X53703030Y-43321169D01*
X53702760Y-43318700D01*
X53698925Y-43267517D01*
X53696368Y-43261004D01*
X53692006Y-43244495D01*
X53691456Y-43240669D01*
X53670057Y-43193812D01*
X53669271Y-43191959D01*
X53664934Y-43180908D01*
X53649311Y-43141101D01*
X53647203Y-43138458D01*
X53637745Y-43123061D01*
X53637641Y-43122832D01*
X53601241Y-43080824D01*
X53564638Y-43034925D01*
X53564634Y-43034922D01*
X53563486Y-43033856D01*
X53557041Y-43028116D01*
X53556804Y-43028391D01*
X53552805Y-43024925D01*
X53503464Y-42993217D01*
X53452433Y-42958423D01*
X53452432Y-42958422D01*
X53452037Y-42958301D01*
X53447570Y-42956600D01*
X53443822Y-42954888D01*
X53384625Y-42937507D01*
X53322661Y-42918395D01*
X53319531Y-42918395D01*
X53189987Y-42918395D01*
X53159693Y-42927288D01*
X53154781Y-42928374D01*
X53120472Y-42933546D01*
X53120470Y-42933547D01*
X53097941Y-42944396D01*
X53086695Y-42948723D01*
X53084795Y-42949280D01*
X53034279Y-42946077D01*
X52997640Y-42911151D01*
X52990146Y-42883809D01*
X52989501Y-42875200D01*
X69598353Y-42875200D01*
X69618834Y-43017654D01*
X69618834Y-43017655D01*
X69618835Y-43017657D01*
X69666867Y-43122832D01*
X69678623Y-43148573D01*
X69772868Y-43257339D01*
X69772869Y-43257340D01*
X69772872Y-43257343D01*
X69893947Y-43335153D01*
X69983811Y-43361539D01*
X70032035Y-43375699D01*
X70032037Y-43375700D01*
X70032039Y-43375700D01*
X70175963Y-43375700D01*
X70175964Y-43375699D01*
X70238732Y-43357269D01*
X85874541Y-43357269D01*
X85895022Y-43499723D01*
X85895022Y-43499724D01*
X85895023Y-43499726D01*
X85945430Y-43610101D01*
X85954811Y-43630642D01*
X86049056Y-43739408D01*
X86049057Y-43739409D01*
X86049060Y-43739412D01*
X86141662Y-43798923D01*
X86169319Y-43816698D01*
X86170135Y-43817222D01*
X86245981Y-43839492D01*
X86308223Y-43857768D01*
X86308225Y-43857769D01*
X86308227Y-43857769D01*
X86452151Y-43857769D01*
X86452152Y-43857768D01*
X86590241Y-43817222D01*
X86711316Y-43739412D01*
X86805565Y-43630642D01*
X86865353Y-43499726D01*
X86874803Y-43434000D01*
X106274508Y-43434000D01*
X106294353Y-43559301D01*
X106294353Y-43559302D01*
X106294354Y-43559304D01*
X106351950Y-43672342D01*
X106441658Y-43762050D01*
X106554696Y-43819646D01*
X106680000Y-43839492D01*
X106805304Y-43819646D01*
X106918342Y-43762050D01*
X107008050Y-43672342D01*
X107065646Y-43559304D01*
X107085492Y-43434000D01*
X107065646Y-43308696D01*
X107008050Y-43195658D01*
X106992392Y-43180000D01*
X121514508Y-43180000D01*
X121517152Y-43196694D01*
X121534353Y-43305301D01*
X121534353Y-43305302D01*
X121534354Y-43305304D01*
X121591950Y-43418342D01*
X121681658Y-43508050D01*
X121794696Y-43565646D01*
X121920000Y-43585492D01*
X122045304Y-43565646D01*
X122158342Y-43508050D01*
X122232392Y-43434000D01*
X131776108Y-43434000D01*
X131795953Y-43559301D01*
X131795953Y-43559302D01*
X131795954Y-43559304D01*
X131853550Y-43672342D01*
X131943258Y-43762050D01*
X132056296Y-43819646D01*
X132181600Y-43839492D01*
X132306904Y-43819646D01*
X132419942Y-43762050D01*
X132509650Y-43672342D01*
X132553440Y-43586400D01*
X138278508Y-43586400D01*
X138298353Y-43711701D01*
X138298353Y-43711702D01*
X138298354Y-43711704D01*
X138355950Y-43824742D01*
X138445658Y-43914450D01*
X138558696Y-43972046D01*
X138684000Y-43991892D01*
X138809304Y-43972046D01*
X138922342Y-43914450D01*
X139012050Y-43824742D01*
X139069646Y-43711704D01*
X139089492Y-43586400D01*
X139069646Y-43461096D01*
X139012050Y-43348058D01*
X138922342Y-43258350D01*
X138809304Y-43200754D01*
X138809302Y-43200753D01*
X138809301Y-43200753D01*
X138684000Y-43180908D01*
X138558698Y-43200753D01*
X138445656Y-43258351D01*
X138355951Y-43348056D01*
X138298353Y-43461098D01*
X138278508Y-43586400D01*
X132553440Y-43586400D01*
X132567246Y-43559304D01*
X132587092Y-43434000D01*
X132567246Y-43308696D01*
X132509650Y-43195658D01*
X132419942Y-43105950D01*
X132306904Y-43048354D01*
X132306902Y-43048353D01*
X132306901Y-43048353D01*
X132181600Y-43028508D01*
X132056298Y-43048353D01*
X131943256Y-43105951D01*
X131853551Y-43195656D01*
X131795953Y-43308698D01*
X131776108Y-43434000D01*
X122232392Y-43434000D01*
X122248050Y-43418342D01*
X122305646Y-43305304D01*
X122325492Y-43180000D01*
X122305646Y-43054696D01*
X122248050Y-42941658D01*
X122158342Y-42851950D01*
X122045304Y-42794354D01*
X122045302Y-42794353D01*
X122045301Y-42794353D01*
X121920000Y-42774508D01*
X121794698Y-42794353D01*
X121681656Y-42851951D01*
X121591951Y-42941656D01*
X121534353Y-43054698D01*
X121519485Y-43148573D01*
X121514508Y-43180000D01*
X106992392Y-43180000D01*
X106918342Y-43105950D01*
X106805304Y-43048354D01*
X106805302Y-43048353D01*
X106805301Y-43048353D01*
X106680000Y-43028508D01*
X106554698Y-43048353D01*
X106441656Y-43105951D01*
X106351951Y-43195656D01*
X106294353Y-43308698D01*
X106274508Y-43434000D01*
X86874803Y-43434000D01*
X86885835Y-43357269D01*
X86865353Y-43214812D01*
X86805565Y-43083896D01*
X86763130Y-43034923D01*
X86711319Y-42975129D01*
X86711317Y-42975128D01*
X86711316Y-42975126D01*
X86646616Y-42933546D01*
X86590242Y-42897316D01*
X86590238Y-42897315D01*
X86452152Y-42856769D01*
X86452149Y-42856769D01*
X86308227Y-42856769D01*
X86308224Y-42856769D01*
X86170137Y-42897315D01*
X86170133Y-42897316D01*
X86049063Y-42975124D01*
X86049056Y-42975129D01*
X85954811Y-43083895D01*
X85895022Y-43214814D01*
X85874541Y-43357269D01*
X70238732Y-43357269D01*
X70314053Y-43335153D01*
X70435128Y-43257343D01*
X70529377Y-43148573D01*
X70589165Y-43017657D01*
X70609647Y-42875200D01*
X70589165Y-42732743D01*
X70529377Y-42601827D01*
X70501464Y-42569613D01*
X70435131Y-42493060D01*
X70435129Y-42493059D01*
X70435128Y-42493057D01*
X70348709Y-42437519D01*
X70314054Y-42415247D01*
X70314050Y-42415246D01*
X70175964Y-42374700D01*
X70175961Y-42374700D01*
X70032039Y-42374700D01*
X70032036Y-42374700D01*
X69893949Y-42415246D01*
X69893945Y-42415247D01*
X69772875Y-42493055D01*
X69772868Y-42493060D01*
X69678623Y-42601826D01*
X69618834Y-42732745D01*
X69598353Y-42875200D01*
X52989501Y-42875200D01*
X52988925Y-42867521D01*
X52988925Y-42867517D01*
X52986368Y-42861004D01*
X52982006Y-42844495D01*
X52981456Y-42840669D01*
X52960057Y-42793812D01*
X52959271Y-42791959D01*
X52946974Y-42760626D01*
X52939311Y-42741101D01*
X52937203Y-42738458D01*
X52927745Y-42723061D01*
X52927641Y-42722832D01*
X52891241Y-42680824D01*
X52854638Y-42634925D01*
X52854634Y-42634922D01*
X52853486Y-42633856D01*
X52847040Y-42628115D01*
X52846803Y-42628390D01*
X52842678Y-42624815D01*
X52842033Y-42623656D01*
X52840597Y-42622377D01*
X52839339Y-42620925D01*
X52840131Y-42620237D01*
X52818071Y-42580579D01*
X52827656Y-42530876D01*
X52839386Y-42516900D01*
X52839342Y-42516862D01*
X52841769Y-42514060D01*
X52842693Y-42512960D01*
X52842797Y-42512868D01*
X52842808Y-42512862D01*
X52867844Y-42483966D01*
X52870633Y-42481080D01*
X52900953Y-42452950D01*
X52909864Y-42437514D01*
X52918019Y-42426061D01*
X52927641Y-42414958D01*
X52944915Y-42377131D01*
X52946497Y-42374062D01*
X52968855Y-42335340D01*
X52972018Y-42321476D01*
X52976845Y-42307214D01*
X52981456Y-42297121D01*
X52987842Y-42252694D01*
X52988387Y-42249759D01*
X52990039Y-42242521D01*
X53017501Y-42200004D01*
X53065871Y-42185084D01*
X53083026Y-42187989D01*
X53124893Y-42200282D01*
X53186857Y-42219395D01*
X53186858Y-42219395D01*
X53319531Y-42219395D01*
X53349823Y-42210500D01*
X53354732Y-42209415D01*
X53368029Y-42207410D01*
X53389046Y-42204243D01*
X53411582Y-42193389D01*
X53422825Y-42189065D01*
X53443828Y-42182899D01*
X53473202Y-42164020D01*
X53477145Y-42161816D01*
X53511401Y-42145320D01*
X53527097Y-42130756D01*
X53537413Y-42122755D01*
X53552808Y-42112862D01*
X53577844Y-42083966D01*
X53580633Y-42081080D01*
X53610953Y-42052950D01*
X53619864Y-42037514D01*
X53628019Y-42026061D01*
X53637641Y-42014958D01*
X53654915Y-41977131D01*
X53656497Y-41974062D01*
X53678855Y-41935340D01*
X53682018Y-41921476D01*
X53686845Y-41907214D01*
X53691456Y-41897121D01*
X53691856Y-41894342D01*
X53697841Y-41852703D01*
X53698390Y-41849745D01*
X53709074Y-41802941D01*
X53708281Y-41792360D01*
X53708827Y-41776299D01*
X53709892Y-41768895D01*
X53708268Y-41757600D01*
X57150908Y-41757600D01*
X57170753Y-41882901D01*
X57170753Y-41882902D01*
X57170754Y-41882904D01*
X57228350Y-41995942D01*
X57318058Y-42085650D01*
X57431096Y-42143246D01*
X57556400Y-42163092D01*
X57681704Y-42143246D01*
X57794742Y-42085650D01*
X57884450Y-41995942D01*
X57942046Y-41882904D01*
X57961892Y-41757600D01*
X57953846Y-41706800D01*
X58928908Y-41706800D01*
X58948753Y-41832101D01*
X58948753Y-41832102D01*
X58948754Y-41832104D01*
X59006350Y-41945142D01*
X59096058Y-42034850D01*
X59209096Y-42092446D01*
X59334400Y-42112292D01*
X59459704Y-42092446D01*
X59572742Y-42034850D01*
X59662450Y-41945142D01*
X59662450Y-41945141D01*
X59663074Y-41944518D01*
X59708950Y-41923126D01*
X59757845Y-41936227D01*
X59767726Y-41944518D01*
X59807258Y-41984050D01*
X59920296Y-42041646D01*
X60045600Y-42061492D01*
X60170904Y-42041646D01*
X60283942Y-41984050D01*
X60373650Y-41894342D01*
X60431246Y-41781304D01*
X60451092Y-41656000D01*
X60431246Y-41530696D01*
X60373650Y-41417658D01*
X60283942Y-41327950D01*
X60170904Y-41270354D01*
X60170902Y-41270353D01*
X60170901Y-41270353D01*
X60045600Y-41250508D01*
X59920298Y-41270353D01*
X59920296Y-41270353D01*
X59920296Y-41270354D01*
X59876049Y-41292899D01*
X59807256Y-41327951D01*
X59716926Y-41418282D01*
X59671050Y-41439674D01*
X59622155Y-41426573D01*
X59612274Y-41418282D01*
X59572743Y-41378751D01*
X59572742Y-41378750D01*
X59459704Y-41321154D01*
X59459702Y-41321153D01*
X59459701Y-41321153D01*
X59334400Y-41301308D01*
X59209098Y-41321153D01*
X59096056Y-41378751D01*
X59006351Y-41468456D01*
X58948753Y-41581498D01*
X58928908Y-41706800D01*
X57953846Y-41706800D01*
X57942046Y-41632296D01*
X57884450Y-41519258D01*
X57794742Y-41429550D01*
X57681704Y-41371954D01*
X57681702Y-41371953D01*
X57681701Y-41371953D01*
X57556400Y-41352108D01*
X57431098Y-41371953D01*
X57431096Y-41371953D01*
X57431096Y-41371954D01*
X57417758Y-41378750D01*
X57318056Y-41429551D01*
X57228351Y-41519256D01*
X57170753Y-41632298D01*
X57150908Y-41757600D01*
X53708268Y-41757600D01*
X53703030Y-41721169D01*
X53702760Y-41718700D01*
X53698925Y-41667517D01*
X53696368Y-41661004D01*
X53692006Y-41644495D01*
X53691456Y-41640669D01*
X53670057Y-41593812D01*
X53669271Y-41591959D01*
X53654174Y-41553492D01*
X53649311Y-41541101D01*
X53647203Y-41538458D01*
X53637745Y-41523061D01*
X53637641Y-41522832D01*
X53601241Y-41480824D01*
X53564638Y-41434925D01*
X53564634Y-41434922D01*
X53563486Y-41433856D01*
X53557040Y-41428115D01*
X53556803Y-41428390D01*
X53552678Y-41424815D01*
X53552033Y-41423656D01*
X53550597Y-41422377D01*
X53549339Y-41420925D01*
X53550131Y-41420237D01*
X53528071Y-41380579D01*
X53537656Y-41330876D01*
X53549386Y-41316900D01*
X53549342Y-41316862D01*
X53551769Y-41314060D01*
X53552693Y-41312960D01*
X53552797Y-41312868D01*
X53552808Y-41312862D01*
X53577844Y-41283966D01*
X53580633Y-41281080D01*
X53610953Y-41252950D01*
X53619864Y-41237514D01*
X53628019Y-41226061D01*
X53637641Y-41214958D01*
X53654915Y-41177131D01*
X53656497Y-41174062D01*
X53678855Y-41135340D01*
X53682018Y-41121476D01*
X53686845Y-41107214D01*
X53691456Y-41097121D01*
X53697842Y-41052694D01*
X53698390Y-41049745D01*
X53709074Y-41002941D01*
X53708524Y-40995600D01*
X56439708Y-40995600D01*
X56459553Y-41120901D01*
X56459553Y-41120902D01*
X56459554Y-41120904D01*
X56517150Y-41233942D01*
X56606858Y-41323650D01*
X56719896Y-41381246D01*
X56845200Y-41401092D01*
X56970504Y-41381246D01*
X57083542Y-41323650D01*
X57173250Y-41233942D01*
X57191757Y-41197620D01*
X92423100Y-41197620D01*
X92426549Y-41214958D01*
X92431833Y-41241522D01*
X92458258Y-41281071D01*
X92465096Y-41291304D01*
X92514878Y-41324567D01*
X92558780Y-41333300D01*
X92558781Y-41333300D01*
X94588419Y-41333300D01*
X94588420Y-41333300D01*
X94632322Y-41324567D01*
X94682104Y-41291304D01*
X94715367Y-41241522D01*
X94724100Y-41197620D01*
X98140850Y-41197620D01*
X98144299Y-41214958D01*
X98149583Y-41241522D01*
X98176008Y-41281071D01*
X98182846Y-41291304D01*
X98232628Y-41324567D01*
X98276530Y-41333300D01*
X98276531Y-41333300D01*
X100306169Y-41333300D01*
X100306170Y-41333300D01*
X100350072Y-41324567D01*
X100399854Y-41291304D01*
X100433117Y-41241522D01*
X100441850Y-41197620D01*
X100441850Y-39167980D01*
X100433117Y-39124078D01*
X100399854Y-39074296D01*
X100384880Y-39064291D01*
X100350072Y-39041033D01*
X100306170Y-39032300D01*
X98276530Y-39032300D01*
X98254579Y-39036666D01*
X98232627Y-39041033D01*
X98182846Y-39074295D01*
X98182845Y-39074296D01*
X98149583Y-39124077D01*
X98149582Y-39124078D01*
X98149583Y-39124078D01*
X98140850Y-39167980D01*
X98140850Y-41197620D01*
X94724100Y-41197620D01*
X94724100Y-39167980D01*
X94715367Y-39124078D01*
X94682104Y-39074296D01*
X94667130Y-39064291D01*
X94632322Y-39041033D01*
X94632321Y-39041033D01*
X94588420Y-39032300D01*
X92558780Y-39032300D01*
X92536828Y-39036666D01*
X92514877Y-39041033D01*
X92465096Y-39074295D01*
X92465095Y-39074296D01*
X92431833Y-39124077D01*
X92431832Y-39124078D01*
X92431833Y-39124078D01*
X92423100Y-39167980D01*
X92423100Y-41197620D01*
X57191757Y-41197620D01*
X57230846Y-41120904D01*
X57250692Y-40995600D01*
X57230846Y-40870296D01*
X57173250Y-40757258D01*
X57083542Y-40667550D01*
X56970504Y-40609954D01*
X56970502Y-40609953D01*
X56970501Y-40609953D01*
X56845200Y-40590108D01*
X56719898Y-40609953D01*
X56719896Y-40609953D01*
X56719896Y-40609954D01*
X56695515Y-40622377D01*
X56606856Y-40667551D01*
X56517151Y-40757256D01*
X56517149Y-40757258D01*
X56517150Y-40757258D01*
X56460971Y-40867516D01*
X56459553Y-40870298D01*
X56439708Y-40995600D01*
X53708524Y-40995600D01*
X53708281Y-40992360D01*
X53708827Y-40976299D01*
X53708874Y-40975972D01*
X53709892Y-40968895D01*
X53703030Y-40921169D01*
X53702760Y-40918700D01*
X53698925Y-40867517D01*
X53696368Y-40861004D01*
X53692006Y-40844495D01*
X53691456Y-40840669D01*
X53670057Y-40793812D01*
X53669271Y-40791959D01*
X53657652Y-40762354D01*
X53649311Y-40741101D01*
X53647203Y-40738458D01*
X53637745Y-40723061D01*
X53637641Y-40722832D01*
X53601241Y-40680824D01*
X53564638Y-40634925D01*
X53564634Y-40634922D01*
X53563486Y-40633856D01*
X53557040Y-40628115D01*
X53556803Y-40628390D01*
X53552678Y-40624815D01*
X53552033Y-40623656D01*
X53550597Y-40622377D01*
X53549339Y-40620925D01*
X53550131Y-40620237D01*
X53528071Y-40580579D01*
X53537656Y-40530876D01*
X53549386Y-40516900D01*
X53549342Y-40516862D01*
X53551769Y-40514060D01*
X53552693Y-40512960D01*
X53552797Y-40512868D01*
X53552808Y-40512862D01*
X53577844Y-40483966D01*
X53580633Y-40481080D01*
X53610953Y-40452950D01*
X53619864Y-40437514D01*
X53628019Y-40426061D01*
X53637641Y-40414958D01*
X53654915Y-40377131D01*
X53656497Y-40374062D01*
X53678855Y-40335340D01*
X53678887Y-40335200D01*
X60656108Y-40335200D01*
X60675953Y-40460501D01*
X60675953Y-40460502D01*
X60675954Y-40460504D01*
X60733550Y-40573542D01*
X60823258Y-40663250D01*
X60936296Y-40720846D01*
X61061600Y-40740692D01*
X61186904Y-40720846D01*
X61299942Y-40663250D01*
X61389650Y-40573542D01*
X61447246Y-40460504D01*
X61467092Y-40335200D01*
X61447246Y-40209896D01*
X61389650Y-40096858D01*
X61299942Y-40007150D01*
X61186904Y-39949554D01*
X61186902Y-39949553D01*
X61186901Y-39949553D01*
X61061600Y-39929708D01*
X60936298Y-39949553D01*
X60823256Y-40007151D01*
X60733551Y-40096856D01*
X60675953Y-40209898D01*
X60656108Y-40335200D01*
X53678887Y-40335200D01*
X53682018Y-40321476D01*
X53686845Y-40307214D01*
X53691456Y-40297121D01*
X53697842Y-40252694D01*
X53698390Y-40249745D01*
X53709074Y-40202941D01*
X53708281Y-40192360D01*
X53708827Y-40176299D01*
X53709892Y-40168895D01*
X53703030Y-40121169D01*
X53702760Y-40118700D01*
X53698925Y-40067517D01*
X53696368Y-40061004D01*
X53692006Y-40044495D01*
X53691456Y-40040669D01*
X53670057Y-39993812D01*
X53669271Y-39991959D01*
X53654264Y-39953722D01*
X53649311Y-39941101D01*
X53647203Y-39938458D01*
X53637745Y-39923061D01*
X53637641Y-39922832D01*
X53601241Y-39880824D01*
X53564638Y-39834925D01*
X53564634Y-39834922D01*
X53563486Y-39833856D01*
X53557041Y-39828116D01*
X53556804Y-39828391D01*
X53552805Y-39824925D01*
X53503464Y-39793217D01*
X53478799Y-39776400D01*
X56388908Y-39776400D01*
X56408753Y-39901701D01*
X56408753Y-39901702D01*
X56408754Y-39901704D01*
X56466350Y-40014742D01*
X56556058Y-40104450D01*
X56669096Y-40162046D01*
X56794400Y-40181892D01*
X56919704Y-40162046D01*
X57032742Y-40104450D01*
X57122450Y-40014742D01*
X57180046Y-39901704D01*
X57199892Y-39776400D01*
X57180046Y-39651096D01*
X57122450Y-39538058D01*
X57032742Y-39448350D01*
X56919704Y-39390754D01*
X56919702Y-39390753D01*
X56919701Y-39390753D01*
X56794400Y-39370908D01*
X56669098Y-39390753D01*
X56556056Y-39448351D01*
X56466351Y-39538056D01*
X56408753Y-39651098D01*
X56388908Y-39776400D01*
X53478799Y-39776400D01*
X53452433Y-39758423D01*
X53452432Y-39758422D01*
X53452037Y-39758301D01*
X53447570Y-39756600D01*
X53443829Y-39754891D01*
X53443828Y-39754891D01*
X53443826Y-39754890D01*
X53443823Y-39754889D01*
X53392151Y-39739716D01*
X53351389Y-39709703D01*
X53339465Y-39676999D01*
X53329635Y-39589752D01*
X53329632Y-39589740D01*
X53270098Y-39419598D01*
X53270094Y-39419591D01*
X53261419Y-39405786D01*
X52544759Y-40122448D01*
X52181650Y-40485555D01*
X52195455Y-40494230D01*
X52195462Y-40494234D01*
X52365604Y-40553768D01*
X52365615Y-40553771D01*
X52544759Y-40573956D01*
X52723902Y-40553771D01*
X52723910Y-40553769D01*
X52882887Y-40498141D01*
X52933502Y-40498772D01*
X52955777Y-40512053D01*
X52956706Y-40512858D01*
X52956710Y-40512862D01*
X52956713Y-40512864D01*
X52956823Y-40512959D01*
X52981442Y-40557187D01*
X52971872Y-40606893D01*
X52960131Y-40620892D01*
X52960175Y-40620930D01*
X52957818Y-40623648D01*
X52956846Y-40624809D01*
X52956716Y-40624921D01*
X52931678Y-40653816D01*
X52928880Y-40656710D01*
X52898565Y-40684839D01*
X52898561Y-40684844D01*
X52889651Y-40700276D01*
X52881497Y-40711728D01*
X52871877Y-40722831D01*
X52871876Y-40722833D01*
X52854615Y-40760626D01*
X52853002Y-40763755D01*
X52830661Y-40802451D01*
X52827498Y-40816312D01*
X52822667Y-40830584D01*
X52818063Y-40840665D01*
X52818061Y-40840670D01*
X52811675Y-40885083D01*
X52811125Y-40888047D01*
X52809480Y-40895255D01*
X52782022Y-40937779D01*
X52733653Y-40952704D01*
X52716486Y-40949798D01*
X52674625Y-40937507D01*
X52612661Y-40918395D01*
X52609531Y-40918395D01*
X52479987Y-40918395D01*
X52449693Y-40927288D01*
X52444781Y-40928374D01*
X52410472Y-40933546D01*
X52410470Y-40933547D01*
X52387941Y-40944396D01*
X52376685Y-40948726D01*
X52355686Y-40954892D01*
X52326323Y-40973762D01*
X52322372Y-40975972D01*
X52288116Y-40992470D01*
X52272418Y-41007034D01*
X52262101Y-41015035D01*
X52246711Y-41024926D01*
X52221678Y-41053816D01*
X52218880Y-41056710D01*
X52188565Y-41084839D01*
X52188561Y-41084844D01*
X52179651Y-41100276D01*
X52171497Y-41111728D01*
X52161877Y-41122831D01*
X52161876Y-41122833D01*
X52144615Y-41160626D01*
X52143002Y-41163755D01*
X52120661Y-41202451D01*
X52117498Y-41216312D01*
X52112667Y-41230584D01*
X52108063Y-41240665D01*
X52108061Y-41240670D01*
X52101675Y-41285084D01*
X52101124Y-41288052D01*
X52090444Y-41334844D01*
X52090444Y-41334847D01*
X52090444Y-41334849D01*
X52091237Y-41345435D01*
X52090691Y-41361483D01*
X52089626Y-41368895D01*
X52094254Y-41401091D01*
X52096484Y-41416598D01*
X52096756Y-41419095D01*
X52097548Y-41429647D01*
X52100593Y-41470273D01*
X52100594Y-41470275D01*
X52103149Y-41476786D01*
X52107510Y-41493283D01*
X52108061Y-41497119D01*
X52108062Y-41497121D01*
X52129460Y-41543978D01*
X52130246Y-41545830D01*
X52150204Y-41596684D01*
X52150210Y-41596694D01*
X52152320Y-41599340D01*
X52161768Y-41614721D01*
X52161873Y-41614952D01*
X52161878Y-41614959D01*
X52198276Y-41656966D01*
X52234881Y-41702866D01*
X52236007Y-41703911D01*
X52242469Y-41709665D01*
X52242706Y-41709393D01*
X52246829Y-41712965D01*
X52247472Y-41714120D01*
X52248911Y-41715402D01*
X52250172Y-41716857D01*
X52249377Y-41717545D01*
X52271444Y-41757196D01*
X52261868Y-41806901D01*
X52250131Y-41820892D01*
X52250175Y-41820930D01*
X52247824Y-41823642D01*
X52246846Y-41824809D01*
X52246716Y-41824921D01*
X52221678Y-41853816D01*
X52218880Y-41856710D01*
X52188565Y-41884839D01*
X52188561Y-41884844D01*
X52179651Y-41900276D01*
X52171497Y-41911728D01*
X52161877Y-41922831D01*
X52161876Y-41922833D01*
X52144615Y-41960626D01*
X52143002Y-41963755D01*
X52120661Y-42002451D01*
X52117498Y-42016312D01*
X52112667Y-42030584D01*
X52108063Y-42040665D01*
X52108061Y-42040670D01*
X52101675Y-42085084D01*
X52101124Y-42088052D01*
X52090444Y-42134844D01*
X52091237Y-42145435D01*
X52090691Y-42161483D01*
X52089626Y-42168895D01*
X52095607Y-42210502D01*
X52096484Y-42216598D01*
X52096757Y-42219098D01*
X52100593Y-42270273D01*
X52100594Y-42270275D01*
X52103149Y-42276786D01*
X52107510Y-42293283D01*
X52108061Y-42297119D01*
X52108062Y-42297121D01*
X52129460Y-42343978D01*
X52130246Y-42345830D01*
X52150204Y-42396684D01*
X52150210Y-42396694D01*
X52152320Y-42399340D01*
X52161768Y-42414721D01*
X52161873Y-42414952D01*
X52161876Y-42414956D01*
X52161877Y-42414958D01*
X52166737Y-42420566D01*
X52198276Y-42456966D01*
X52234881Y-42502866D01*
X52236007Y-42503911D01*
X52242469Y-42509665D01*
X52242706Y-42509393D01*
X52246829Y-42512965D01*
X52247472Y-42514120D01*
X52248911Y-42515402D01*
X52250172Y-42516857D01*
X52249377Y-42517545D01*
X52271444Y-42557196D01*
X52261868Y-42606901D01*
X52250131Y-42620892D01*
X52250175Y-42620930D01*
X52247824Y-42623642D01*
X52246846Y-42624809D01*
X52246716Y-42624921D01*
X52221678Y-42653816D01*
X52218880Y-42656710D01*
X52188565Y-42684839D01*
X52188561Y-42684844D01*
X52179651Y-42700276D01*
X52171497Y-42711728D01*
X52161877Y-42722831D01*
X52161876Y-42722833D01*
X52144615Y-42760626D01*
X52143002Y-42763755D01*
X52120661Y-42802451D01*
X52117498Y-42816312D01*
X52112667Y-42830584D01*
X52108063Y-42840665D01*
X52108061Y-42840670D01*
X52101675Y-42885084D01*
X52101124Y-42888052D01*
X52090444Y-42934844D01*
X52091237Y-42945435D01*
X52090691Y-42961483D01*
X52089626Y-42968895D01*
X52093003Y-42992389D01*
X52096484Y-43016598D01*
X52096756Y-43019095D01*
X52099459Y-43055150D01*
X52100593Y-43070273D01*
X52100594Y-43070275D01*
X52103149Y-43076786D01*
X52107510Y-43093283D01*
X52108061Y-43097119D01*
X52108062Y-43097121D01*
X52129460Y-43143978D01*
X52130245Y-43145827D01*
X52131508Y-43149048D01*
X52150204Y-43196684D01*
X52150210Y-43196694D01*
X52152320Y-43199340D01*
X52161768Y-43214721D01*
X52161873Y-43214952D01*
X52161878Y-43214959D01*
X52198276Y-43256966D01*
X52206694Y-43267521D01*
X52234472Y-43302354D01*
X52234881Y-43302866D01*
X52236007Y-43303911D01*
X52242469Y-43309665D01*
X52242706Y-43309393D01*
X52246829Y-43312965D01*
X52247472Y-43314120D01*
X52248911Y-43315402D01*
X52250172Y-43316857D01*
X52249377Y-43317545D01*
X52271444Y-43357196D01*
X52261868Y-43406901D01*
X52250131Y-43420892D01*
X52250175Y-43420930D01*
X52247824Y-43423642D01*
X52246846Y-43424809D01*
X52246716Y-43424921D01*
X52221678Y-43453816D01*
X52218880Y-43456710D01*
X52188565Y-43484839D01*
X52188561Y-43484844D01*
X52179651Y-43500276D01*
X52171497Y-43511728D01*
X52161877Y-43522831D01*
X52161876Y-43522833D01*
X52144615Y-43560626D01*
X52143002Y-43563755D01*
X52120661Y-43602451D01*
X52117498Y-43616312D01*
X52112667Y-43630584D01*
X52108063Y-43640665D01*
X52108061Y-43640670D01*
X52101675Y-43685084D01*
X52101124Y-43688052D01*
X52090444Y-43734844D01*
X52090444Y-43734847D01*
X52090444Y-43734849D01*
X52090786Y-43739412D01*
X52091237Y-43745435D01*
X52090691Y-43761483D01*
X52089626Y-43768895D01*
X52095716Y-43811261D01*
X52096484Y-43816598D01*
X52096756Y-43819095D01*
X52097548Y-43829647D01*
X52100593Y-43870273D01*
X52100594Y-43870275D01*
X52103149Y-43876786D01*
X52107510Y-43893283D01*
X52108061Y-43897119D01*
X52108062Y-43897121D01*
X52129460Y-43943978D01*
X52130246Y-43945830D01*
X52150204Y-43996684D01*
X52150210Y-43996694D01*
X52152320Y-43999340D01*
X52161768Y-44014721D01*
X52164072Y-44019764D01*
X52161488Y-44020944D01*
X52170377Y-44060122D01*
X52147225Y-44105136D01*
X52100555Y-44124737D01*
X52096963Y-44124824D01*
X51926536Y-44124824D01*
X51878970Y-44107511D01*
X51874210Y-44103150D01*
X51224573Y-43453513D01*
X51203181Y-43407637D01*
X51202899Y-43401187D01*
X51202899Y-42592470D01*
X51202899Y-41738750D01*
X51204321Y-41724328D01*
X51207808Y-41706800D01*
X51188366Y-41609059D01*
X51151237Y-41553492D01*
X51137977Y-41533646D01*
X51133002Y-41526200D01*
X51133000Y-41526198D01*
X51118139Y-41516268D01*
X51106926Y-41507066D01*
X50522881Y-40923021D01*
X50513680Y-40911809D01*
X50503750Y-40896948D01*
X50450685Y-40861491D01*
X50420890Y-40841583D01*
X50323149Y-40822141D01*
X50305624Y-40825627D01*
X50291187Y-40827049D01*
X50009875Y-40827049D01*
X49962309Y-40809736D01*
X49957549Y-40805375D01*
X49901674Y-40749500D01*
X49901673Y-40749499D01*
X49788635Y-40691903D01*
X49788633Y-40691902D01*
X49788632Y-40691902D01*
X49663331Y-40672057D01*
X49538029Y-40691902D01*
X49424987Y-40749500D01*
X49391811Y-40782676D01*
X49345935Y-40804067D01*
X49297041Y-40790966D01*
X49268007Y-40749501D01*
X49266241Y-40740890D01*
X49253165Y-40649943D01*
X49193377Y-40519027D01*
X49162999Y-40483969D01*
X49099131Y-40410260D01*
X49099129Y-40410259D01*
X49099128Y-40410257D01*
X49025207Y-40362751D01*
X48978054Y-40332447D01*
X48978050Y-40332446D01*
X48839964Y-40291900D01*
X48839961Y-40291900D01*
X48696039Y-40291900D01*
X48696036Y-40291900D01*
X48557949Y-40332446D01*
X48557945Y-40332447D01*
X48436875Y-40410255D01*
X48436868Y-40410260D01*
X48342623Y-40519026D01*
X48282834Y-40649945D01*
X48262353Y-40792400D01*
X47174272Y-40792400D01*
X47115304Y-40762354D01*
X47115302Y-40762353D01*
X47115301Y-40762353D01*
X46990000Y-40742508D01*
X46864698Y-40762353D01*
X46751656Y-40819951D01*
X46661951Y-40909656D01*
X46661949Y-40909658D01*
X46661950Y-40909658D01*
X46608258Y-41015035D01*
X46604353Y-41022698D01*
X46584508Y-41148000D01*
X28159440Y-41148000D01*
X28173246Y-41120904D01*
X28193092Y-40995600D01*
X28173246Y-40870296D01*
X28115650Y-40757258D01*
X28049192Y-40690800D01*
X42368108Y-40690800D01*
X42387953Y-40816101D01*
X42387953Y-40816102D01*
X42387954Y-40816104D01*
X42445550Y-40929142D01*
X42535258Y-41018850D01*
X42648296Y-41076446D01*
X42773600Y-41096292D01*
X42898904Y-41076446D01*
X43011942Y-41018850D01*
X43101650Y-40929142D01*
X43159246Y-40816104D01*
X43179092Y-40690800D01*
X43159246Y-40565496D01*
X43101650Y-40452458D01*
X43011942Y-40362750D01*
X42898904Y-40305154D01*
X42898902Y-40305153D01*
X42898901Y-40305153D01*
X42773600Y-40285308D01*
X42648298Y-40305153D01*
X42535256Y-40362751D01*
X42445551Y-40452456D01*
X42387953Y-40565498D01*
X42368108Y-40690800D01*
X28049192Y-40690800D01*
X28025942Y-40667550D01*
X27912904Y-40609954D01*
X27912902Y-40609953D01*
X27912901Y-40609953D01*
X27787600Y-40590108D01*
X27662298Y-40609953D01*
X27662296Y-40609953D01*
X27662296Y-40609954D01*
X27637915Y-40622377D01*
X27549256Y-40667551D01*
X27459551Y-40757256D01*
X27459549Y-40757258D01*
X27459550Y-40757258D01*
X27403371Y-40867516D01*
X27401953Y-40870298D01*
X27382108Y-40995599D01*
X16422487Y-40995599D01*
X16422487Y-38968895D01*
X51424293Y-38968895D01*
X51444071Y-39119129D01*
X51444071Y-39119130D01*
X51446121Y-39124078D01*
X51502061Y-39259128D01*
X51594308Y-39379346D01*
X51714526Y-39471593D01*
X51725615Y-39476186D01*
X51762935Y-39510383D01*
X51769543Y-39560568D01*
X51767146Y-39568990D01*
X51759882Y-39589750D01*
X51739697Y-39768894D01*
X51759882Y-39948038D01*
X51759885Y-39948049D01*
X51819420Y-40118192D01*
X51819424Y-40118201D01*
X51828096Y-40132002D01*
X51828097Y-40132002D01*
X52145556Y-39814544D01*
X52344759Y-39814544D01*
X52384372Y-39896800D01*
X52455751Y-39953722D01*
X52522227Y-39968895D01*
X52567291Y-39968895D01*
X52633767Y-39953722D01*
X52705146Y-39896800D01*
X52744759Y-39814544D01*
X52744759Y-39723246D01*
X52705146Y-39640990D01*
X52633767Y-39584068D01*
X52567291Y-39568895D01*
X52522227Y-39568895D01*
X52455751Y-39584068D01*
X52384372Y-39640990D01*
X52344759Y-39723246D01*
X52344759Y-39814544D01*
X52145556Y-39814544D01*
X52544759Y-39415342D01*
X52793300Y-39166800D01*
X77978908Y-39166800D01*
X77998753Y-39292101D01*
X77998753Y-39292102D01*
X77998754Y-39292104D01*
X78056350Y-39405142D01*
X78146058Y-39494850D01*
X78259096Y-39552446D01*
X78384400Y-39572292D01*
X78509704Y-39552446D01*
X78622742Y-39494850D01*
X78712450Y-39405142D01*
X78770046Y-39292104D01*
X78789892Y-39166800D01*
X78786534Y-39145598D01*
X78796193Y-39095910D01*
X78835531Y-39064055D01*
X78871198Y-39060934D01*
X78892400Y-39064292D01*
X79017704Y-39044446D01*
X79130742Y-38986850D01*
X79220450Y-38897142D01*
X79278046Y-38784104D01*
X79297892Y-38658800D01*
X79278046Y-38533496D01*
X79220450Y-38420458D01*
X79130742Y-38330750D01*
X79017704Y-38273154D01*
X79017702Y-38273153D01*
X79017701Y-38273153D01*
X78892400Y-38253308D01*
X78767098Y-38273153D01*
X78654056Y-38330751D01*
X78564351Y-38420456D01*
X78506753Y-38533498D01*
X78486908Y-38658800D01*
X78486908Y-38658802D01*
X78490265Y-38680002D01*
X78480605Y-38729691D01*
X78441266Y-38761545D01*
X78405602Y-38764665D01*
X78384403Y-38761308D01*
X78384400Y-38761308D01*
X78259098Y-38781153D01*
X78146056Y-38838751D01*
X78056351Y-38928456D01*
X77998753Y-39041498D01*
X77978908Y-39166800D01*
X52793300Y-39166800D01*
X52907866Y-39052233D01*
X52907866Y-39052232D01*
X52894065Y-39043560D01*
X52894056Y-39043556D01*
X52805953Y-39012728D01*
X52766773Y-38980677D01*
X52757363Y-38930941D01*
X52782124Y-38886791D01*
X52829470Y-38868887D01*
X52830657Y-38868911D01*
X52830657Y-38868895D01*
X53004759Y-38868895D01*
X53004759Y-38218895D01*
X53504759Y-38218895D01*
X53504759Y-38868895D01*
X53676918Y-38868895D01*
X53817914Y-38854075D01*
X53997835Y-38795615D01*
X54161679Y-38701020D01*
X54302275Y-38574426D01*
X54413471Y-38421380D01*
X54413477Y-38421369D01*
X54490420Y-38248552D01*
X54490421Y-38248547D01*
X54496725Y-38218895D01*
X56012793Y-38218895D01*
X56019096Y-38248547D01*
X56019096Y-38248548D01*
X56096042Y-38421372D01*
X56096046Y-38421379D01*
X56207242Y-38574426D01*
X56347838Y-38701020D01*
X56511682Y-38795615D01*
X56691603Y-38854075D01*
X56832600Y-38868895D01*
X57004759Y-38868895D01*
X57004759Y-38218895D01*
X57504759Y-38218895D01*
X57504759Y-38868895D01*
X57676918Y-38868895D01*
X57817914Y-38854075D01*
X57997835Y-38795615D01*
X58161679Y-38701020D01*
X58302275Y-38574426D01*
X58413471Y-38421380D01*
X58413477Y-38421369D01*
X58490420Y-38248552D01*
X58490421Y-38248547D01*
X58496725Y-38218895D01*
X57679383Y-38218895D01*
X57752304Y-38204390D01*
X57834999Y-38149135D01*
X57890254Y-38066440D01*
X57909657Y-37968895D01*
X57890254Y-37871350D01*
X57834999Y-37788655D01*
X57752304Y-37733400D01*
X57679383Y-37718895D01*
X58496725Y-37718895D01*
X58491347Y-37693600D01*
X60656108Y-37693600D01*
X60675953Y-37818901D01*
X60675953Y-37818902D01*
X60675954Y-37818904D01*
X60733550Y-37931942D01*
X60823258Y-38021650D01*
X60936296Y-38079246D01*
X61061600Y-38099092D01*
X61186904Y-38079246D01*
X61299942Y-38021650D01*
X61389650Y-37931942D01*
X61447246Y-37818904D01*
X61467092Y-37693600D01*
X79147308Y-37693600D01*
X79167153Y-37818901D01*
X79167153Y-37818902D01*
X79167154Y-37818904D01*
X79224750Y-37931942D01*
X79314458Y-38021650D01*
X79427496Y-38079246D01*
X79552800Y-38099092D01*
X79678104Y-38079246D01*
X79791142Y-38021650D01*
X79880850Y-37931942D01*
X79938446Y-37818904D01*
X79958292Y-37693600D01*
X79938446Y-37568296D01*
X79880850Y-37455258D01*
X79814392Y-37388800D01*
X84278108Y-37388800D01*
X84297953Y-37514101D01*
X84297953Y-37514102D01*
X84297954Y-37514104D01*
X84355550Y-37627142D01*
X84445258Y-37716850D01*
X84558296Y-37774446D01*
X84683600Y-37794292D01*
X84808904Y-37774446D01*
X84921942Y-37716850D01*
X85011650Y-37627142D01*
X85055440Y-37541200D01*
X86513308Y-37541200D01*
X86533153Y-37666501D01*
X86533153Y-37666502D01*
X86533154Y-37666504D01*
X86590750Y-37779542D01*
X86680458Y-37869250D01*
X86793496Y-37926846D01*
X86918800Y-37946692D01*
X87044104Y-37926846D01*
X87157142Y-37869250D01*
X87246850Y-37779542D01*
X87304446Y-37666504D01*
X87324292Y-37541200D01*
X87304446Y-37415896D01*
X87246850Y-37302858D01*
X87202776Y-37258784D01*
X137096837Y-37258784D01*
X137116288Y-37481111D01*
X137116289Y-37481118D01*
X137174051Y-37696688D01*
X137174052Y-37696691D01*
X137174053Y-37696693D01*
X137268374Y-37898966D01*
X137396387Y-38081787D01*
X137554202Y-38239602D01*
X137737023Y-38367615D01*
X137939296Y-38461936D01*
X137975199Y-38471556D01*
X137979198Y-38472937D01*
X137979244Y-38472797D01*
X137982409Y-38473825D01*
X137982416Y-38473828D01*
X137990924Y-38475769D01*
X138154875Y-38519700D01*
X138198604Y-38523525D01*
X138203594Y-38524310D01*
X138205716Y-38524795D01*
X138205722Y-38524795D01*
X138206707Y-38525020D01*
X138206708Y-38525021D01*
X138215949Y-38527130D01*
X138219481Y-38525769D01*
X138227311Y-38526037D01*
X138328198Y-38534864D01*
X138377205Y-38539152D01*
X138377209Y-38539152D01*
X138377211Y-38539152D01*
X138381755Y-38538754D01*
X138425049Y-38534966D01*
X138429916Y-38534864D01*
X138432211Y-38534967D01*
X138434527Y-38535071D01*
X138434527Y-38535070D01*
X138441813Y-38535398D01*
X138444311Y-38533885D01*
X138448756Y-38533143D01*
X138453157Y-38532547D01*
X138454814Y-38532362D01*
X138599543Y-38519700D01*
X138649966Y-38506189D01*
X138654582Y-38505262D01*
X138665832Y-38503738D01*
X138667073Y-38502646D01*
X138671134Y-38501193D01*
X138682132Y-38497620D01*
X138683887Y-38497100D01*
X138815122Y-38461936D01*
X138866324Y-38438059D01*
X138870489Y-38436420D01*
X138879329Y-38433548D01*
X138879330Y-38433546D01*
X138880316Y-38433227D01*
X138880348Y-38433215D01*
X138880672Y-38433109D01*
X138880882Y-38432846D01*
X138884493Y-38430769D01*
X138900065Y-38422388D01*
X138901843Y-38421497D01*
X139017395Y-38367615D01*
X139067241Y-38332712D01*
X139070890Y-38330463D01*
X139081022Y-38325012D01*
X139081022Y-38325011D01*
X139081187Y-38324923D01*
X139082152Y-38324110D01*
X139100189Y-38309726D01*
X139101982Y-38308385D01*
X139200216Y-38239602D01*
X139246374Y-38193443D01*
X139249444Y-38190699D01*
X139260095Y-38182206D01*
X139276467Y-38163466D01*
X139278121Y-38161696D01*
X139358031Y-38081787D01*
X139398092Y-38024573D01*
X139400502Y-38021496D01*
X139410791Y-38009721D01*
X139423484Y-37988476D01*
X139424910Y-37986274D01*
X139486044Y-37898966D01*
X139517536Y-37831430D01*
X139519286Y-37828128D01*
X139528266Y-37813100D01*
X139536773Y-37790430D01*
X139537858Y-37787848D01*
X139580365Y-37696693D01*
X139600894Y-37620074D01*
X139601981Y-37616685D01*
X139608746Y-37598663D01*
X139608746Y-37598658D01*
X139608748Y-37598655D01*
X139612911Y-37575711D01*
X139613569Y-37572772D01*
X139638129Y-37481114D01*
X139645478Y-37397111D01*
X139645924Y-37393792D01*
X139649643Y-37373301D01*
X139650333Y-37342471D01*
X139650460Y-37340161D01*
X139657581Y-37258780D01*
X139650461Y-37177401D01*
X139650333Y-37175085D01*
X139649643Y-37144259D01*
X139645924Y-37123766D01*
X139645477Y-37120434D01*
X139638129Y-37036446D01*
X139634090Y-37021374D01*
X139629208Y-37003153D01*
X139613573Y-36944805D01*
X139612910Y-36941845D01*
X139612123Y-36937507D01*
X139608746Y-36918897D01*
X139607482Y-36915531D01*
X139607482Y-36915527D01*
X139601986Y-36900884D01*
X139600891Y-36897472D01*
X139580365Y-36820867D01*
X139537871Y-36729737D01*
X139536763Y-36727100D01*
X139528265Y-36704458D01*
X139526108Y-36700848D01*
X139519289Y-36689436D01*
X139517529Y-36686115D01*
X139486044Y-36618594D01*
X139424915Y-36531293D01*
X139423474Y-36529067D01*
X139410794Y-36507843D01*
X139410790Y-36507837D01*
X139406555Y-36502990D01*
X139400509Y-36496071D01*
X139398072Y-36492958D01*
X139358033Y-36435775D01*
X139278141Y-36355883D01*
X139276449Y-36354072D01*
X139260095Y-36335354D01*
X139260090Y-36335350D01*
X139249459Y-36326871D01*
X139246363Y-36324104D01*
X139200219Y-36277961D01*
X139200216Y-36277958D01*
X139156712Y-36247496D01*
X139102009Y-36209192D01*
X139100161Y-36207811D01*
X139082191Y-36193479D01*
X139081914Y-36193026D01*
X139070901Y-36187100D01*
X139067213Y-36184828D01*
X139024659Y-36155031D01*
X139017399Y-36149947D01*
X138901901Y-36096088D01*
X138900005Y-36095138D01*
X138884498Y-36086793D01*
X138883115Y-36085242D01*
X138870505Y-36081145D01*
X138866299Y-36079488D01*
X138815120Y-36055623D01*
X138716741Y-36029263D01*
X138683952Y-36020477D01*
X138682100Y-36019928D01*
X138671152Y-36016371D01*
X138668316Y-36014155D01*
X138654574Y-36012294D01*
X138649961Y-36011368D01*
X138599544Y-35997860D01*
X138599535Y-35997858D01*
X138454880Y-35985202D01*
X138453142Y-35985009D01*
X138448774Y-35984417D01*
X138444267Y-35982050D01*
X138429917Y-35982694D01*
X138425029Y-35982591D01*
X138394509Y-35979921D01*
X138377209Y-35978408D01*
X138377206Y-35978408D01*
X138377204Y-35978408D01*
X138227316Y-35991521D01*
X138219886Y-35989530D01*
X138203597Y-35993248D01*
X138198584Y-35994035D01*
X138154877Y-35997859D01*
X138006950Y-36037495D01*
X137998700Y-36036773D01*
X137984717Y-36042749D01*
X137983169Y-36043370D01*
X137983896Y-36043097D01*
X137982655Y-36043625D01*
X137977724Y-36045327D01*
X137939300Y-36055622D01*
X137914705Y-36067091D01*
X137737023Y-36149945D01*
X137687209Y-36184825D01*
X137554204Y-36277956D01*
X137396385Y-36435775D01*
X137352744Y-36498101D01*
X137268374Y-36618594D01*
X137203160Y-36758446D01*
X137174051Y-36820871D01*
X137116289Y-37036441D01*
X137116288Y-37036448D01*
X137096837Y-37258775D01*
X137096837Y-37258784D01*
X87202776Y-37258784D01*
X87157142Y-37213150D01*
X87044104Y-37155554D01*
X87044102Y-37155553D01*
X87044101Y-37155553D01*
X86918800Y-37135708D01*
X86793498Y-37155553D01*
X86680456Y-37213151D01*
X86590751Y-37302856D01*
X86533153Y-37415898D01*
X86513308Y-37541200D01*
X85055440Y-37541200D01*
X85069246Y-37514104D01*
X85089092Y-37388800D01*
X85069246Y-37263496D01*
X85011650Y-37150458D01*
X84921942Y-37060750D01*
X84865556Y-37032020D01*
X92423100Y-37032020D01*
X92431833Y-37075922D01*
X92465096Y-37125704D01*
X92514878Y-37158967D01*
X92558780Y-37167700D01*
X92558781Y-37167700D01*
X94588419Y-37167700D01*
X94588420Y-37167700D01*
X94632322Y-37158967D01*
X94682104Y-37125704D01*
X94715367Y-37075922D01*
X94724100Y-37032020D01*
X98140850Y-37032020D01*
X98149583Y-37075922D01*
X98182846Y-37125704D01*
X98232628Y-37158967D01*
X98276530Y-37167700D01*
X98276531Y-37167700D01*
X100306169Y-37167700D01*
X100306170Y-37167700D01*
X100350072Y-37158967D01*
X100399854Y-37125704D01*
X100433117Y-37075922D01*
X100441850Y-37032020D01*
X100441850Y-35002380D01*
X100433117Y-34958478D01*
X100399854Y-34908696D01*
X100350072Y-34875433D01*
X100306170Y-34866700D01*
X98276530Y-34866700D01*
X98254579Y-34871066D01*
X98232627Y-34875433D01*
X98182846Y-34908695D01*
X98182845Y-34908696D01*
X98149583Y-34958477D01*
X98149582Y-34958478D01*
X98149583Y-34958478D01*
X98140850Y-35002380D01*
X98140850Y-37032020D01*
X94724100Y-37032020D01*
X94724100Y-35002380D01*
X94715367Y-34958478D01*
X94682104Y-34908696D01*
X94632322Y-34875433D01*
X94588420Y-34866700D01*
X92558780Y-34866700D01*
X92536828Y-34871066D01*
X92514877Y-34875433D01*
X92465096Y-34908695D01*
X92465095Y-34908696D01*
X92431833Y-34958477D01*
X92431832Y-34958478D01*
X92431833Y-34958478D01*
X92423100Y-35002380D01*
X92423100Y-37032020D01*
X84865556Y-37032020D01*
X84808904Y-37003154D01*
X84808902Y-37003153D01*
X84808901Y-37003153D01*
X84683600Y-36983308D01*
X84558298Y-37003153D01*
X84445256Y-37060751D01*
X84355551Y-37150456D01*
X84297953Y-37263498D01*
X84278108Y-37388800D01*
X79814392Y-37388800D01*
X79791142Y-37365550D01*
X79678104Y-37307954D01*
X79678102Y-37307953D01*
X79678101Y-37307953D01*
X79552800Y-37288108D01*
X79427498Y-37307953D01*
X79314456Y-37365551D01*
X79224751Y-37455256D01*
X79167153Y-37568298D01*
X79147308Y-37693600D01*
X61467092Y-37693600D01*
X61447246Y-37568296D01*
X61389650Y-37455258D01*
X61299942Y-37365550D01*
X61186904Y-37307954D01*
X61186902Y-37307953D01*
X61186901Y-37307953D01*
X61061600Y-37288108D01*
X60936298Y-37307953D01*
X60823256Y-37365551D01*
X60733551Y-37455256D01*
X60675953Y-37568298D01*
X60656108Y-37693600D01*
X58491347Y-37693600D01*
X58490421Y-37689242D01*
X58490421Y-37689241D01*
X58413475Y-37516417D01*
X58413471Y-37516410D01*
X58302275Y-37363363D01*
X58161679Y-37236769D01*
X57997835Y-37142174D01*
X57817914Y-37083714D01*
X57676918Y-37068895D01*
X57504759Y-37068895D01*
X57504759Y-37718895D01*
X57004759Y-37718895D01*
X57004759Y-37068895D01*
X56832600Y-37068895D01*
X56691603Y-37083714D01*
X56511682Y-37142174D01*
X56347838Y-37236769D01*
X56207242Y-37363363D01*
X56096046Y-37516409D01*
X56096040Y-37516420D01*
X56019097Y-37689237D01*
X56019096Y-37689242D01*
X56012793Y-37718895D01*
X56830135Y-37718895D01*
X56757214Y-37733400D01*
X56674519Y-37788655D01*
X56619264Y-37871350D01*
X56599861Y-37968895D01*
X56619264Y-38066440D01*
X56674519Y-38149135D01*
X56757214Y-38204390D01*
X56830135Y-38218895D01*
X56012793Y-38218895D01*
X54496725Y-38218895D01*
X53679383Y-38218895D01*
X53752304Y-38204390D01*
X53834999Y-38149135D01*
X53890254Y-38066440D01*
X53909657Y-37968895D01*
X53890254Y-37871350D01*
X53834999Y-37788655D01*
X53752304Y-37733400D01*
X53679383Y-37718895D01*
X54496725Y-37718895D01*
X54490421Y-37689242D01*
X54490421Y-37689241D01*
X54413475Y-37516417D01*
X54413471Y-37516410D01*
X54302275Y-37363363D01*
X54161679Y-37236769D01*
X53997835Y-37142174D01*
X53817914Y-37083714D01*
X53676918Y-37068895D01*
X53504759Y-37068895D01*
X53504759Y-37718895D01*
X53004759Y-37718895D01*
X53004759Y-37068895D01*
X52832600Y-37068895D01*
X52691603Y-37083714D01*
X52511682Y-37142174D01*
X52347838Y-37236769D01*
X52207242Y-37363363D01*
X52096046Y-37516409D01*
X52096040Y-37516420D01*
X52019097Y-37689237D01*
X52019096Y-37689242D01*
X52012793Y-37718895D01*
X52830135Y-37718895D01*
X52757214Y-37733400D01*
X52674519Y-37788655D01*
X52619264Y-37871350D01*
X52599861Y-37968895D01*
X52619264Y-38066440D01*
X52674519Y-38149135D01*
X52757214Y-38204390D01*
X52830135Y-38218895D01*
X52012793Y-38218895D01*
X52019095Y-38248545D01*
X52037239Y-38289297D01*
X52040769Y-38339793D01*
X52011016Y-38380744D01*
X51969636Y-38393395D01*
X51967039Y-38393395D01*
X51940861Y-38396841D01*
X51854524Y-38408207D01*
X51854523Y-38408207D01*
X51714525Y-38466197D01*
X51594308Y-38558444D01*
X51502061Y-38678661D01*
X51444071Y-38818659D01*
X51444071Y-38818660D01*
X51424293Y-38968895D01*
X16422487Y-38968895D01*
X16422487Y-37258784D01*
X18667665Y-37258784D01*
X18687116Y-37481111D01*
X18687117Y-37481118D01*
X18744879Y-37696688D01*
X18744880Y-37696691D01*
X18744881Y-37696693D01*
X18839202Y-37898966D01*
X18967215Y-38081787D01*
X19125030Y-38239602D01*
X19307851Y-38367615D01*
X19510124Y-38461936D01*
X19546027Y-38471556D01*
X19550026Y-38472937D01*
X19550072Y-38472797D01*
X19553237Y-38473825D01*
X19553244Y-38473828D01*
X19561752Y-38475769D01*
X19725703Y-38519700D01*
X19769432Y-38523525D01*
X19774422Y-38524310D01*
X19776544Y-38524795D01*
X19776550Y-38524795D01*
X19777535Y-38525020D01*
X19777536Y-38525021D01*
X19786777Y-38527130D01*
X19790309Y-38525769D01*
X19798139Y-38526037D01*
X19899026Y-38534864D01*
X19948033Y-38539152D01*
X19948037Y-38539152D01*
X19948039Y-38539152D01*
X19952583Y-38538754D01*
X19995877Y-38534966D01*
X20000744Y-38534864D01*
X20003039Y-38534967D01*
X20005355Y-38535071D01*
X20005355Y-38535070D01*
X20012641Y-38535398D01*
X20015139Y-38533885D01*
X20019584Y-38533143D01*
X20023985Y-38532547D01*
X20025642Y-38532362D01*
X20170371Y-38519700D01*
X20220794Y-38506189D01*
X20225410Y-38505262D01*
X20236660Y-38503738D01*
X20237901Y-38502646D01*
X20241962Y-38501193D01*
X20252960Y-38497620D01*
X20254715Y-38497100D01*
X20385950Y-38461936D01*
X20437152Y-38438059D01*
X20441317Y-38436420D01*
X20450157Y-38433548D01*
X20450158Y-38433546D01*
X20451144Y-38433227D01*
X20451176Y-38433215D01*
X20451500Y-38433109D01*
X20451710Y-38432846D01*
X20455321Y-38430769D01*
X20470893Y-38422388D01*
X20472671Y-38421497D01*
X20588223Y-38367615D01*
X20638069Y-38332712D01*
X20641718Y-38330463D01*
X20651850Y-38325012D01*
X20651850Y-38325011D01*
X20652015Y-38324923D01*
X20652980Y-38324110D01*
X20671017Y-38309726D01*
X20672810Y-38308385D01*
X20771044Y-38239602D01*
X20817202Y-38193443D01*
X20820272Y-38190699D01*
X20830923Y-38182206D01*
X20847295Y-38163466D01*
X20848949Y-38161696D01*
X20928859Y-38081787D01*
X20968920Y-38024573D01*
X20971330Y-38021496D01*
X20981619Y-38009721D01*
X20994312Y-37988476D01*
X20995738Y-37986274D01*
X21056872Y-37898966D01*
X21088364Y-37831430D01*
X21090114Y-37828128D01*
X21099094Y-37813100D01*
X21107601Y-37790430D01*
X21108686Y-37787848D01*
X21151193Y-37696693D01*
X21171722Y-37620074D01*
X21172809Y-37616685D01*
X21179574Y-37598663D01*
X21179574Y-37598658D01*
X21179576Y-37598655D01*
X21183739Y-37575711D01*
X21184397Y-37572772D01*
X21208957Y-37481114D01*
X21216306Y-37397111D01*
X21216752Y-37393792D01*
X21220471Y-37373301D01*
X21221161Y-37342471D01*
X21221288Y-37340161D01*
X21228409Y-37258780D01*
X21221289Y-37177401D01*
X21221161Y-37175085D01*
X21220471Y-37144259D01*
X21216752Y-37123766D01*
X21216305Y-37120434D01*
X21208957Y-37036446D01*
X21204918Y-37021374D01*
X21200036Y-37003153D01*
X21184401Y-36944805D01*
X21183738Y-36941845D01*
X21182951Y-36937507D01*
X21179574Y-36918897D01*
X21178310Y-36915531D01*
X21178310Y-36915527D01*
X21172814Y-36900884D01*
X21171719Y-36897472D01*
X21151193Y-36820867D01*
X21108699Y-36729737D01*
X21107591Y-36727100D01*
X21099093Y-36704458D01*
X21096936Y-36700848D01*
X21090117Y-36689436D01*
X21088357Y-36686115D01*
X21056872Y-36618594D01*
X20995743Y-36531293D01*
X20994302Y-36529067D01*
X20981622Y-36507843D01*
X20981618Y-36507837D01*
X20977383Y-36502990D01*
X20971337Y-36496071D01*
X20968900Y-36492958D01*
X20928861Y-36435775D01*
X20865886Y-36372800D01*
X64923308Y-36372800D01*
X64943153Y-36498101D01*
X64943153Y-36498102D01*
X64943154Y-36498104D01*
X65000750Y-36611142D01*
X65090458Y-36700850D01*
X65203496Y-36758446D01*
X65328800Y-36778292D01*
X65454104Y-36758446D01*
X65567142Y-36700850D01*
X65574667Y-36693325D01*
X73500170Y-36693325D01*
X73520015Y-36818627D01*
X73520015Y-36818628D01*
X73520016Y-36818630D01*
X73577612Y-36931668D01*
X73667320Y-37021376D01*
X73780358Y-37078972D01*
X73905662Y-37098818D01*
X74030966Y-37078972D01*
X74144004Y-37021376D01*
X74233712Y-36931668D01*
X74291308Y-36818630D01*
X74311154Y-36693326D01*
X74291308Y-36568022D01*
X74233712Y-36454984D01*
X74144004Y-36365276D01*
X74030966Y-36307680D01*
X74030964Y-36307679D01*
X74030963Y-36307679D01*
X73905662Y-36287834D01*
X73780360Y-36307679D01*
X73667318Y-36365277D01*
X73577613Y-36454982D01*
X73520015Y-36568024D01*
X73500170Y-36693325D01*
X65574667Y-36693325D01*
X65656850Y-36611142D01*
X65714446Y-36498104D01*
X65734292Y-36372800D01*
X65714446Y-36247496D01*
X65684762Y-36189239D01*
X72020642Y-36189239D01*
X72040487Y-36314540D01*
X72040487Y-36314541D01*
X72040488Y-36314543D01*
X72098084Y-36427581D01*
X72187792Y-36517289D01*
X72300830Y-36574885D01*
X72426134Y-36594731D01*
X72551438Y-36574885D01*
X72664476Y-36517289D01*
X72754184Y-36427581D01*
X72811780Y-36314543D01*
X72831626Y-36189239D01*
X72811780Y-36063935D01*
X72754184Y-35950897D01*
X72664476Y-35861189D01*
X72551438Y-35803593D01*
X72551436Y-35803592D01*
X72551435Y-35803592D01*
X72426134Y-35783747D01*
X72300832Y-35803592D01*
X72187790Y-35861190D01*
X72098085Y-35950895D01*
X72040487Y-36063937D01*
X72020642Y-36189239D01*
X65684762Y-36189239D01*
X65656850Y-36134458D01*
X65567142Y-36044750D01*
X65454104Y-35987154D01*
X65454102Y-35987153D01*
X65454101Y-35987153D01*
X65328800Y-35967308D01*
X65203498Y-35987153D01*
X65090456Y-36044751D01*
X65000751Y-36134456D01*
X64943153Y-36247498D01*
X64923308Y-36372800D01*
X20865886Y-36372800D01*
X20848969Y-36355883D01*
X20847277Y-36354072D01*
X20830923Y-36335354D01*
X20830918Y-36335350D01*
X20820287Y-36326871D01*
X20817191Y-36324104D01*
X20771047Y-36277961D01*
X20771044Y-36277958D01*
X20727540Y-36247496D01*
X20672837Y-36209192D01*
X20670989Y-36207811D01*
X20653019Y-36193479D01*
X20652742Y-36193026D01*
X20641729Y-36187100D01*
X20638041Y-36184828D01*
X20595487Y-36155031D01*
X20588227Y-36149947D01*
X20472729Y-36096088D01*
X20470833Y-36095138D01*
X20455326Y-36086793D01*
X20453943Y-36085242D01*
X20441333Y-36081145D01*
X20437127Y-36079488D01*
X20385948Y-36055623D01*
X20287569Y-36029263D01*
X20254780Y-36020477D01*
X20252928Y-36019928D01*
X20241980Y-36016371D01*
X20239144Y-36014155D01*
X20225402Y-36012294D01*
X20220789Y-36011368D01*
X20170372Y-35997860D01*
X20170363Y-35997858D01*
X20025708Y-35985202D01*
X20023970Y-35985009D01*
X20019602Y-35984417D01*
X20015095Y-35982050D01*
X20000745Y-35982694D01*
X19995857Y-35982591D01*
X19965337Y-35979921D01*
X19948037Y-35978408D01*
X19948034Y-35978408D01*
X19948032Y-35978408D01*
X19798144Y-35991521D01*
X19790714Y-35989530D01*
X19774425Y-35993248D01*
X19769412Y-35994035D01*
X19725705Y-35997859D01*
X19577778Y-36037495D01*
X19569528Y-36036773D01*
X19555545Y-36042749D01*
X19553997Y-36043370D01*
X19554724Y-36043097D01*
X19553483Y-36043625D01*
X19548552Y-36045327D01*
X19510128Y-36055622D01*
X19485533Y-36067091D01*
X19307851Y-36149945D01*
X19258037Y-36184825D01*
X19125032Y-36277956D01*
X18967213Y-36435775D01*
X18923572Y-36498101D01*
X18839202Y-36618594D01*
X18773988Y-36758446D01*
X18744879Y-36820871D01*
X18687117Y-37036441D01*
X18687116Y-37036448D01*
X18667665Y-37258775D01*
X18667665Y-37258784D01*
X16422487Y-37258784D01*
X16422487Y-35661599D01*
X32106508Y-35661599D01*
X32126353Y-35786901D01*
X32126353Y-35786902D01*
X32126354Y-35786904D01*
X32183950Y-35899942D01*
X32273658Y-35989650D01*
X32386696Y-36047246D01*
X32512000Y-36067092D01*
X32637304Y-36047246D01*
X32750342Y-35989650D01*
X32840050Y-35899942D01*
X32897646Y-35786904D01*
X32917492Y-35661600D01*
X32897646Y-35536296D01*
X32840050Y-35423258D01*
X32773592Y-35356800D01*
X53799553Y-35356800D01*
X53820034Y-35499254D01*
X53820034Y-35499255D01*
X53820035Y-35499257D01*
X53847253Y-35558855D01*
X53879823Y-35630173D01*
X53974068Y-35738939D01*
X53974069Y-35738940D01*
X53974072Y-35738943D01*
X54048701Y-35786904D01*
X54074669Y-35803593D01*
X54095147Y-35816753D01*
X54201603Y-35848011D01*
X54233235Y-35857299D01*
X54233237Y-35857300D01*
X54233239Y-35857300D01*
X54377163Y-35857300D01*
X54377164Y-35857299D01*
X54515253Y-35816753D01*
X54636328Y-35738943D01*
X54703346Y-35661600D01*
X70816108Y-35661600D01*
X70835953Y-35786901D01*
X70835953Y-35786902D01*
X70835954Y-35786904D01*
X70893550Y-35899942D01*
X70983258Y-35989650D01*
X71096296Y-36047246D01*
X71221600Y-36067092D01*
X71346904Y-36047246D01*
X71459942Y-35989650D01*
X71549650Y-35899942D01*
X71607246Y-35786904D01*
X71627092Y-35661600D01*
X71623734Y-35640398D01*
X71633393Y-35590710D01*
X71672731Y-35558855D01*
X71708398Y-35555734D01*
X71729600Y-35559092D01*
X71854904Y-35539246D01*
X71967942Y-35481650D01*
X72057650Y-35391942D01*
X72115246Y-35278904D01*
X72135092Y-35153600D01*
X72115246Y-35028296D01*
X72115246Y-35028295D01*
X72113447Y-35022760D01*
X72116376Y-35021807D01*
X72111586Y-34983072D01*
X72139118Y-34940595D01*
X72154629Y-34932512D01*
X72154515Y-34932289D01*
X72159701Y-34929646D01*
X72159704Y-34929646D01*
X72272742Y-34872050D01*
X72362450Y-34782342D01*
X72420046Y-34669304D01*
X72439892Y-34544000D01*
X72436534Y-34522798D01*
X72446193Y-34473110D01*
X72485531Y-34441255D01*
X72521198Y-34438134D01*
X72542400Y-34441492D01*
X72667704Y-34421646D01*
X72780742Y-34364050D01*
X72870450Y-34274342D01*
X72928046Y-34161304D01*
X72947892Y-34036000D01*
X72928046Y-33910696D01*
X72870450Y-33797658D01*
X72780742Y-33707950D01*
X72667704Y-33650354D01*
X72667702Y-33650353D01*
X72667701Y-33650353D01*
X72542400Y-33630508D01*
X72417098Y-33650353D01*
X72304056Y-33707951D01*
X72214351Y-33797656D01*
X72156753Y-33910698D01*
X72136908Y-34036000D01*
X72136908Y-34036002D01*
X72140265Y-34057202D01*
X72130605Y-34106891D01*
X72091266Y-34138745D01*
X72055602Y-34141865D01*
X72034403Y-34138508D01*
X72034400Y-34138508D01*
X71909098Y-34158353D01*
X71796056Y-34215951D01*
X71706351Y-34305656D01*
X71648753Y-34418698D01*
X71628908Y-34544000D01*
X71648753Y-34669304D01*
X71650553Y-34674840D01*
X71647644Y-34675785D01*
X71652385Y-34714646D01*
X71624783Y-34757078D01*
X71609374Y-34765093D01*
X71609485Y-34765311D01*
X71604298Y-34767953D01*
X71604296Y-34767954D01*
X71493606Y-34824353D01*
X71491256Y-34825551D01*
X71401551Y-34915256D01*
X71343953Y-35028298D01*
X71324108Y-35153600D01*
X71324108Y-35153602D01*
X71327465Y-35174802D01*
X71317805Y-35224491D01*
X71278466Y-35256345D01*
X71242802Y-35259465D01*
X71221603Y-35256108D01*
X71221600Y-35256108D01*
X71096298Y-35275953D01*
X70983256Y-35333551D01*
X70893551Y-35423256D01*
X70835953Y-35536298D01*
X70816108Y-35661600D01*
X54703346Y-35661600D01*
X54730577Y-35630173D01*
X54790365Y-35499257D01*
X54810847Y-35356800D01*
X54790365Y-35214343D01*
X54730577Y-35083427D01*
X54678009Y-35022760D01*
X54636331Y-34974660D01*
X54636329Y-34974659D01*
X54636328Y-34974657D01*
X54570402Y-34932289D01*
X54515254Y-34896847D01*
X54515250Y-34896846D01*
X54377164Y-34856300D01*
X54377161Y-34856300D01*
X54233239Y-34856300D01*
X54233236Y-34856300D01*
X54095149Y-34896846D01*
X54095145Y-34896847D01*
X53974075Y-34974655D01*
X53974068Y-34974660D01*
X53879823Y-35083426D01*
X53820034Y-35214345D01*
X53799553Y-35356800D01*
X32773592Y-35356800D01*
X32750342Y-35333550D01*
X32637304Y-35275954D01*
X32637302Y-35275953D01*
X32637301Y-35275953D01*
X32512000Y-35256108D01*
X32386698Y-35275953D01*
X32273656Y-35333551D01*
X32183951Y-35423256D01*
X32126353Y-35536298D01*
X32106508Y-35661599D01*
X16422487Y-35661599D01*
X16422487Y-34594800D01*
X61063953Y-34594800D01*
X61084434Y-34737254D01*
X61084434Y-34737255D01*
X61084435Y-34737257D01*
X61124758Y-34825550D01*
X61144223Y-34868173D01*
X61238468Y-34976939D01*
X61238469Y-34976940D01*
X61238472Y-34976943D01*
X61359547Y-35054753D01*
X61457203Y-35083427D01*
X61497635Y-35095299D01*
X61497637Y-35095300D01*
X61497639Y-35095300D01*
X61641563Y-35095300D01*
X61641564Y-35095299D01*
X61779653Y-35054753D01*
X61900728Y-34976943D01*
X61994977Y-34868173D01*
X62054765Y-34737257D01*
X62075247Y-34594800D01*
X62054765Y-34452343D01*
X61994977Y-34321427D01*
X61952926Y-34272897D01*
X61900731Y-34212660D01*
X61900729Y-34212659D01*
X61900728Y-34212657D01*
X61820821Y-34161304D01*
X61779654Y-34134847D01*
X61779650Y-34134846D01*
X61641564Y-34094300D01*
X61641561Y-34094300D01*
X61497639Y-34094300D01*
X61497636Y-34094300D01*
X61359549Y-34134846D01*
X61359545Y-34134847D01*
X61238475Y-34212655D01*
X61238468Y-34212660D01*
X61144223Y-34321426D01*
X61084434Y-34452345D01*
X61063953Y-34594800D01*
X16422487Y-34594800D01*
X16422487Y-34541802D01*
X16422636Y-34538485D01*
X16422647Y-34538362D01*
X16425464Y-34507057D01*
X16441467Y-34354850D01*
X16443722Y-34342928D01*
X16462420Y-34275176D01*
X16462871Y-34273675D01*
X16490578Y-34188400D01*
X58979708Y-34188400D01*
X58999553Y-34313701D01*
X58999553Y-34313702D01*
X58999554Y-34313704D01*
X59057150Y-34426742D01*
X59146858Y-34516450D01*
X59259896Y-34574046D01*
X59385200Y-34593892D01*
X59510504Y-34574046D01*
X59623542Y-34516450D01*
X59713250Y-34426742D01*
X59770846Y-34313704D01*
X59790692Y-34188400D01*
X59770846Y-34063096D01*
X59713250Y-33950058D01*
X59623542Y-33860350D01*
X59510504Y-33802754D01*
X59510502Y-33802753D01*
X59510501Y-33802753D01*
X59385200Y-33782908D01*
X59259898Y-33802753D01*
X59146856Y-33860351D01*
X59057151Y-33950056D01*
X58999553Y-34063098D01*
X58979708Y-34188400D01*
X16490578Y-34188400D01*
X16498309Y-34164607D01*
X16500150Y-34160014D01*
X16535104Y-34087431D01*
X16536347Y-34085080D01*
X16590411Y-33991437D01*
X16592487Y-33988242D01*
X16640768Y-33921787D01*
X16643167Y-33918825D01*
X16715510Y-33838479D01*
X16717392Y-33836540D01*
X16775598Y-33780889D01*
X16779393Y-33777721D01*
X16872183Y-33710305D01*
X16873469Y-33709414D01*
X16932127Y-33670694D01*
X16942754Y-33664873D01*
X17082955Y-33602450D01*
X17111546Y-33590230D01*
X17114632Y-33589072D01*
X21000229Y-32326565D01*
X21050817Y-32328331D01*
X21088434Y-32362202D01*
X21093474Y-32374076D01*
X21514002Y-33668329D01*
X21514040Y-33668650D01*
X21518487Y-33682266D01*
X21518488Y-33682267D01*
X21518488Y-33682268D01*
X21518757Y-33682584D01*
X21519063Y-33682607D01*
X21519063Y-33682606D01*
X21519118Y-33682611D01*
X21525122Y-33683115D01*
X21534567Y-33677568D01*
X23558353Y-33020000D01*
X69749308Y-33020000D01*
X69769153Y-33145301D01*
X69769153Y-33145302D01*
X69769154Y-33145304D01*
X69826750Y-33258342D01*
X69916458Y-33348050D01*
X70029496Y-33405646D01*
X70154800Y-33425492D01*
X70280104Y-33405646D01*
X70393142Y-33348050D01*
X70482850Y-33258342D01*
X70540446Y-33145304D01*
X70560292Y-33020000D01*
X70540446Y-32894696D01*
X70482850Y-32781658D01*
X70393142Y-32691950D01*
X70339072Y-32664400D01*
X74830753Y-32664400D01*
X74851234Y-32806854D01*
X74851234Y-32806855D01*
X74851235Y-32806857D01*
X74891350Y-32894696D01*
X74911023Y-32937773D01*
X75005268Y-33046539D01*
X75005269Y-33046540D01*
X75005272Y-33046543D01*
X75126347Y-33124353D01*
X75232803Y-33155611D01*
X75264435Y-33164899D01*
X75264437Y-33164900D01*
X75264439Y-33164900D01*
X75408363Y-33164900D01*
X75408364Y-33164899D01*
X75546453Y-33124353D01*
X75667528Y-33046543D01*
X75761777Y-32937773D01*
X75821565Y-32806857D01*
X75842047Y-32664400D01*
X75821565Y-32521943D01*
X75761777Y-32391027D01*
X75703407Y-32323664D01*
X75690528Y-32308800D01*
X84481308Y-32308800D01*
X84501153Y-32434101D01*
X84501153Y-32434102D01*
X84501154Y-32434104D01*
X84558750Y-32547142D01*
X84648458Y-32636850D01*
X84761496Y-32694446D01*
X84886800Y-32714292D01*
X85012104Y-32694446D01*
X85125142Y-32636850D01*
X85148392Y-32613600D01*
X119990508Y-32613600D01*
X119995267Y-32643646D01*
X120010353Y-32738901D01*
X120010353Y-32738902D01*
X120010354Y-32738904D01*
X120067950Y-32851942D01*
X120157658Y-32941650D01*
X120270696Y-32999246D01*
X120396000Y-33019092D01*
X120521304Y-32999246D01*
X120634342Y-32941650D01*
X120724050Y-32851942D01*
X120781646Y-32738904D01*
X120801492Y-32613600D01*
X120797128Y-32586048D01*
X120786975Y-32521943D01*
X120781646Y-32488296D01*
X120724050Y-32375258D01*
X120634342Y-32285550D01*
X120521304Y-32227954D01*
X120521302Y-32227953D01*
X120521301Y-32227953D01*
X120396000Y-32208108D01*
X120270698Y-32227953D01*
X120157656Y-32285551D01*
X120067951Y-32375256D01*
X120010353Y-32488298D01*
X119994871Y-32586050D01*
X119990508Y-32613600D01*
X85148392Y-32613600D01*
X85214850Y-32547142D01*
X85272446Y-32434104D01*
X85292292Y-32308800D01*
X85272446Y-32183496D01*
X85214850Y-32070458D01*
X85125142Y-31980750D01*
X85012104Y-31923154D01*
X85012102Y-31923153D01*
X85012101Y-31923153D01*
X84886800Y-31903308D01*
X84761498Y-31923153D01*
X84648456Y-31980751D01*
X84558751Y-32070456D01*
X84501153Y-32183498D01*
X84481308Y-32308800D01*
X75690528Y-32308800D01*
X75667531Y-32282260D01*
X75667529Y-32282259D01*
X75667528Y-32282257D01*
X75583031Y-32227954D01*
X75546454Y-32204447D01*
X75546450Y-32204446D01*
X75408364Y-32163900D01*
X75408361Y-32163900D01*
X75264439Y-32163900D01*
X75264436Y-32163900D01*
X75126349Y-32204446D01*
X75126345Y-32204447D01*
X75005275Y-32282255D01*
X75005268Y-32282260D01*
X74911023Y-32391026D01*
X74851234Y-32521945D01*
X74830753Y-32664400D01*
X70339072Y-32664400D01*
X70280104Y-32634354D01*
X70280102Y-32634353D01*
X70280101Y-32634353D01*
X70154800Y-32614508D01*
X70029498Y-32634353D01*
X69916456Y-32691951D01*
X69826751Y-32781656D01*
X69769153Y-32894698D01*
X69749308Y-33020000D01*
X23558353Y-33020000D01*
X25903548Y-32258000D01*
X62535708Y-32258000D01*
X62555553Y-32383301D01*
X62555553Y-32383302D01*
X62555554Y-32383304D01*
X62613150Y-32496342D01*
X62702858Y-32586050D01*
X62815896Y-32643646D01*
X62941200Y-32663492D01*
X63066504Y-32643646D01*
X63179542Y-32586050D01*
X63269250Y-32496342D01*
X63326846Y-32383304D01*
X63346692Y-32258000D01*
X63326846Y-32132696D01*
X63269250Y-32019658D01*
X63179542Y-31929950D01*
X63066504Y-31872354D01*
X63066502Y-31872353D01*
X63066501Y-31872353D01*
X62941200Y-31852508D01*
X62815898Y-31872353D01*
X62702856Y-31929951D01*
X62613151Y-32019656D01*
X62555553Y-32132698D01*
X62535708Y-32258000D01*
X25903548Y-32258000D01*
X33925826Y-29651404D01*
X45715702Y-29651404D01*
X45723682Y-29773158D01*
X45723761Y-29775578D01*
X45723761Y-29805267D01*
X45727634Y-29834697D01*
X45727871Y-29837105D01*
X45735852Y-29958851D01*
X45735855Y-29958875D01*
X45759654Y-30078519D01*
X45760048Y-30080907D01*
X45763926Y-30110353D01*
X45771611Y-30139034D01*
X45772161Y-30141393D01*
X45795962Y-30261053D01*
X45795967Y-30261070D01*
X45835182Y-30376595D01*
X45835885Y-30378911D01*
X45843573Y-30407600D01*
X45854932Y-30435022D01*
X45855784Y-30437288D01*
X45895008Y-30552834D01*
X45948970Y-30662260D01*
X45949969Y-30664465D01*
X45961327Y-30691885D01*
X45961334Y-30691899D01*
X45976178Y-30717611D01*
X45977319Y-30719746D01*
X46031280Y-30829168D01*
X46031284Y-30829174D01*
X46031285Y-30829176D01*
X46099075Y-30930631D01*
X46100340Y-30932666D01*
X46115195Y-30958395D01*
X46123691Y-30969467D01*
X46133277Y-30981961D01*
X46134686Y-30983928D01*
X46202458Y-31085355D01*
X46202467Y-31085368D01*
X46202469Y-31085370D01*
X46202473Y-31085375D01*
X46282914Y-31177100D01*
X46284449Y-31178971D01*
X46302525Y-31202528D01*
X46323526Y-31223529D01*
X46325182Y-31225297D01*
X46405624Y-31317023D01*
X46497350Y-31397465D01*
X46499111Y-31399114D01*
X46520120Y-31420123D01*
X46543677Y-31438199D01*
X46545548Y-31439734D01*
X46637273Y-31520175D01*
X46637281Y-31520182D01*
X46637293Y-31520190D01*
X46738728Y-31587967D01*
X46740696Y-31589377D01*
X46764254Y-31607454D01*
X46790013Y-31622326D01*
X46791995Y-31623558D01*
X46858157Y-31667767D01*
X46893460Y-31691356D01*
X46893467Y-31691360D01*
X46893473Y-31691364D01*
X46972428Y-31730300D01*
X47002901Y-31745328D01*
X47005037Y-31746470D01*
X47015776Y-31752669D01*
X47030752Y-31761316D01*
X47058190Y-31772681D01*
X47060382Y-31773674D01*
X47169813Y-31827640D01*
X47169816Y-31827641D01*
X47169818Y-31827642D01*
X47285383Y-31866871D01*
X47287596Y-31867704D01*
X47315052Y-31879077D01*
X47343739Y-31886763D01*
X47346042Y-31887462D01*
X47461586Y-31926684D01*
X47461592Y-31926685D01*
X47461598Y-31926687D01*
X47501827Y-31934688D01*
X47581278Y-31950492D01*
X47583572Y-31951026D01*
X47612291Y-31958722D01*
X47639604Y-31962317D01*
X47641732Y-31962598D01*
X47644122Y-31962993D01*
X47703580Y-31974819D01*
X47763785Y-31986795D01*
X47885538Y-31994775D01*
X47887923Y-31995009D01*
X47917383Y-31998888D01*
X47917386Y-31998888D01*
X47947070Y-31998888D01*
X47949490Y-31998967D01*
X47973611Y-32000547D01*
X48071245Y-32006947D01*
X48168878Y-32000547D01*
X48193000Y-31998967D01*
X48195420Y-31998888D01*
X48225103Y-31998888D01*
X48225107Y-31998888D01*
X48254575Y-31995008D01*
X48256945Y-31994775D01*
X48378705Y-31986795D01*
X48498365Y-31962993D01*
X48500749Y-31962599D01*
X48530199Y-31958722D01*
X48558909Y-31951029D01*
X48561198Y-31950494D01*
X48680904Y-31926684D01*
X48796450Y-31887461D01*
X48798746Y-31886764D01*
X48827438Y-31879077D01*
X48854887Y-31867707D01*
X48857112Y-31866869D01*
X48972672Y-31827642D01*
X49082120Y-31773668D01*
X49084283Y-31772688D01*
X49111738Y-31761316D01*
X49137496Y-31746444D01*
X49139527Y-31745358D01*
X49233127Y-31699200D01*
X78690108Y-31699200D01*
X78709953Y-31824501D01*
X78709953Y-31824502D01*
X78709954Y-31824504D01*
X78767550Y-31937542D01*
X78857258Y-32027250D01*
X78970296Y-32084846D01*
X79095600Y-32104692D01*
X79220904Y-32084846D01*
X79333942Y-32027250D01*
X79423650Y-31937542D01*
X79481246Y-31824504D01*
X79501092Y-31699200D01*
X79481246Y-31573896D01*
X79423650Y-31460858D01*
X79333942Y-31371150D01*
X79220904Y-31313554D01*
X79220902Y-31313553D01*
X79220901Y-31313553D01*
X79095600Y-31293708D01*
X78970298Y-31313553D01*
X78857256Y-31371151D01*
X78767551Y-31460856D01*
X78709953Y-31573898D01*
X78690108Y-31699200D01*
X49233127Y-31699200D01*
X49249017Y-31691364D01*
X49350499Y-31623555D01*
X49352493Y-31622316D01*
X49378236Y-31607454D01*
X49401825Y-31589353D01*
X49403729Y-31587988D01*
X49505209Y-31520182D01*
X49596962Y-31439716D01*
X49598798Y-31438210D01*
X49622370Y-31420123D01*
X49643408Y-31399084D01*
X49645097Y-31397502D01*
X49736865Y-31317024D01*
X49817343Y-31225256D01*
X49818925Y-31223567D01*
X49839964Y-31202529D01*
X49858051Y-31178957D01*
X49859557Y-31177121D01*
X49940023Y-31085368D01*
X50007829Y-30983888D01*
X50009194Y-30981984D01*
X50027295Y-30958395D01*
X50042157Y-30932652D01*
X50043396Y-30930658D01*
X50072969Y-30886400D01*
X70765308Y-30886400D01*
X70785153Y-31011701D01*
X70785153Y-31011702D01*
X70785154Y-31011704D01*
X70842750Y-31124742D01*
X70932458Y-31214450D01*
X71045496Y-31272046D01*
X71170800Y-31291892D01*
X71296104Y-31272046D01*
X71409142Y-31214450D01*
X71498850Y-31124742D01*
X71555983Y-31012612D01*
X87684695Y-31012612D01*
X87704540Y-31137914D01*
X87704540Y-31137915D01*
X87704541Y-31137917D01*
X87762137Y-31250955D01*
X87851845Y-31340663D01*
X87964883Y-31398259D01*
X88090187Y-31418105D01*
X88215491Y-31398259D01*
X88328529Y-31340663D01*
X88418237Y-31250955D01*
X88475833Y-31137917D01*
X88495679Y-31012613D01*
X88475833Y-30887309D01*
X88418237Y-30774271D01*
X88328529Y-30684563D01*
X88215491Y-30626967D01*
X88215489Y-30626966D01*
X88215488Y-30626966D01*
X88090187Y-30607121D01*
X87964885Y-30626966D01*
X87851843Y-30684564D01*
X87762138Y-30774269D01*
X87704540Y-30887311D01*
X87684695Y-31012612D01*
X71555983Y-31012612D01*
X71556446Y-31011704D01*
X71576292Y-30886400D01*
X71556446Y-30761096D01*
X71498850Y-30648058D01*
X71409142Y-30558350D01*
X71296104Y-30500754D01*
X71296102Y-30500753D01*
X71296101Y-30500753D01*
X71170800Y-30480908D01*
X71045498Y-30500753D01*
X71045496Y-30500753D01*
X71045496Y-30500754D01*
X70988976Y-30529552D01*
X70932456Y-30558351D01*
X70842751Y-30648056D01*
X70785153Y-30761098D01*
X70765308Y-30886400D01*
X50072969Y-30886400D01*
X50111205Y-30829176D01*
X50165199Y-30719686D01*
X50166285Y-30717655D01*
X50181157Y-30691897D01*
X50192529Y-30664442D01*
X50193509Y-30662279D01*
X50247483Y-30552831D01*
X50286710Y-30437271D01*
X50287548Y-30435046D01*
X50298918Y-30407597D01*
X50306605Y-30378905D01*
X50307306Y-30376597D01*
X50307307Y-30376595D01*
X50346525Y-30261063D01*
X50370335Y-30141357D01*
X50370870Y-30139068D01*
X50374800Y-30124400D01*
X54256753Y-30124400D01*
X54277234Y-30266854D01*
X54277234Y-30266855D01*
X54277235Y-30266857D01*
X54311976Y-30342929D01*
X54337023Y-30397773D01*
X54431268Y-30506539D01*
X54431269Y-30506540D01*
X54431272Y-30506543D01*
X54552347Y-30584353D01*
X54629889Y-30607121D01*
X54690435Y-30624899D01*
X54690437Y-30624900D01*
X54690439Y-30624900D01*
X54834363Y-30624900D01*
X54834364Y-30624899D01*
X54972453Y-30584353D01*
X55093528Y-30506543D01*
X55187777Y-30397773D01*
X55247565Y-30266857D01*
X55268047Y-30124400D01*
X55247565Y-29981943D01*
X55187777Y-29851027D01*
X55143522Y-29799954D01*
X55093531Y-29742260D01*
X55093529Y-29742259D01*
X55093528Y-29742257D01*
X55026368Y-29699096D01*
X54972454Y-29664447D01*
X54972450Y-29664446D01*
X54834364Y-29623900D01*
X54834361Y-29623900D01*
X54690439Y-29623900D01*
X54690436Y-29623900D01*
X54552349Y-29664446D01*
X54552345Y-29664447D01*
X54431275Y-29742255D01*
X54431268Y-29742260D01*
X54337023Y-29851026D01*
X54277234Y-29981945D01*
X54256753Y-30124400D01*
X50374800Y-30124400D01*
X50378563Y-30110358D01*
X50382440Y-30080907D01*
X50382834Y-30078525D01*
X50385974Y-30062739D01*
X50406636Y-29958864D01*
X50414616Y-29837104D01*
X50414849Y-29834731D01*
X50418729Y-29805266D01*
X50419387Y-29764991D01*
X50419461Y-29763191D01*
X50419698Y-29759576D01*
X50426788Y-29651404D01*
X50419461Y-29539615D01*
X50419387Y-29537800D01*
X50418729Y-29497542D01*
X50414850Y-29468082D01*
X50414616Y-29465696D01*
X50414417Y-29462654D01*
X50406636Y-29343944D01*
X50394660Y-29283739D01*
X50382834Y-29224281D01*
X50382439Y-29221891D01*
X50378563Y-29192453D01*
X50378563Y-29192450D01*
X50370867Y-29163731D01*
X50370333Y-29161437D01*
X50352120Y-29069874D01*
X50346528Y-29041757D01*
X50346526Y-29041751D01*
X50346525Y-29041745D01*
X50307303Y-28926202D01*
X50306601Y-28923886D01*
X50301594Y-28905200D01*
X56236508Y-28905200D01*
X56240872Y-28932751D01*
X56256353Y-29030501D01*
X56256353Y-29030502D01*
X56256354Y-29030504D01*
X56313950Y-29143542D01*
X56403658Y-29233250D01*
X56516696Y-29290846D01*
X56642000Y-29310692D01*
X56767304Y-29290846D01*
X56880342Y-29233250D01*
X56894473Y-29219118D01*
X56940345Y-29197725D01*
X56989240Y-29210823D01*
X56999125Y-29219117D01*
X57064058Y-29284050D01*
X57177096Y-29341646D01*
X57302400Y-29361492D01*
X57427704Y-29341646D01*
X57468728Y-29320742D01*
X57518967Y-29314573D01*
X57561420Y-29342142D01*
X57575411Y-29375100D01*
X57577153Y-29386100D01*
X57577153Y-29386101D01*
X57577153Y-29386102D01*
X57577154Y-29386104D01*
X57634750Y-29499142D01*
X57724458Y-29588850D01*
X57837496Y-29646446D01*
X57962800Y-29666292D01*
X58088104Y-29646446D01*
X58201142Y-29588850D01*
X58240675Y-29549316D01*
X58286548Y-29527925D01*
X58335442Y-29541025D01*
X58345325Y-29549317D01*
X58345950Y-29549942D01*
X58435658Y-29639650D01*
X58548696Y-29697246D01*
X58674000Y-29717092D01*
X58799304Y-29697246D01*
X58912342Y-29639650D01*
X58977274Y-29574718D01*
X59023150Y-29553326D01*
X59072045Y-29566427D01*
X59081926Y-29574718D01*
X59146858Y-29639650D01*
X59259896Y-29697246D01*
X59324916Y-29707544D01*
X59344602Y-29710662D01*
X59388874Y-29735203D01*
X59407015Y-29782459D01*
X59390535Y-29830321D01*
X59385353Y-29836076D01*
X59347759Y-29873670D01*
X59290161Y-29986712D01*
X59270316Y-30112014D01*
X59290161Y-30237315D01*
X59290161Y-30237316D01*
X59290162Y-30237318D01*
X59347758Y-30350356D01*
X59437466Y-30440064D01*
X59550504Y-30497660D01*
X59675808Y-30517506D01*
X59801112Y-30497660D01*
X59914150Y-30440064D01*
X60003858Y-30350356D01*
X60019186Y-30320271D01*
X60056205Y-30285749D01*
X60106755Y-30283099D01*
X60118710Y-30287929D01*
X60187705Y-30323084D01*
X60187704Y-30323084D01*
X60204836Y-30325797D01*
X60313009Y-30342930D01*
X60438313Y-30323084D01*
X60551351Y-30265488D01*
X60631239Y-30185600D01*
X78603708Y-30185600D01*
X78623553Y-30310901D01*
X78623553Y-30310902D01*
X78623554Y-30310904D01*
X78681150Y-30423942D01*
X78770858Y-30513650D01*
X78883896Y-30571246D01*
X79009200Y-30591092D01*
X79134504Y-30571246D01*
X79247542Y-30513650D01*
X79337250Y-30423942D01*
X79394846Y-30310904D01*
X79414692Y-30185600D01*
X79394846Y-30060296D01*
X79337250Y-29947258D01*
X79247542Y-29857550D01*
X79134504Y-29799954D01*
X79134502Y-29799953D01*
X79134501Y-29799953D01*
X79009200Y-29780108D01*
X78883898Y-29799953D01*
X78770856Y-29857551D01*
X78681151Y-29947256D01*
X78623553Y-30060298D01*
X78603708Y-30185600D01*
X60631239Y-30185600D01*
X60641059Y-30175780D01*
X60698655Y-30062742D01*
X60718501Y-29937438D01*
X60698655Y-29812134D01*
X60641059Y-29699096D01*
X60551351Y-29609388D01*
X60438313Y-29551792D01*
X60438311Y-29551791D01*
X60438310Y-29551791D01*
X60313009Y-29531946D01*
X60187707Y-29551791D01*
X60074665Y-29609389D01*
X59984959Y-29699095D01*
X59969629Y-29729182D01*
X59932608Y-29763703D01*
X59882058Y-29766351D01*
X59870106Y-29761522D01*
X59801112Y-29726368D01*
X59801110Y-29726367D01*
X59801109Y-29726367D01*
X59716404Y-29712951D01*
X59672132Y-29688410D01*
X59653992Y-29641153D01*
X59670473Y-29593292D01*
X59675646Y-29587545D01*
X59713250Y-29549942D01*
X59770846Y-29436904D01*
X59790692Y-29311600D01*
X59776867Y-29224312D01*
X68979916Y-29224312D01*
X68999761Y-29349613D01*
X68999761Y-29349614D01*
X68999762Y-29349616D01*
X69057358Y-29462654D01*
X69147066Y-29552362D01*
X69260104Y-29609958D01*
X69385408Y-29629804D01*
X69510712Y-29609958D01*
X69623750Y-29552362D01*
X69713458Y-29462654D01*
X69771054Y-29349616D01*
X69790900Y-29224312D01*
X69771054Y-29099008D01*
X69713458Y-28985970D01*
X69623750Y-28896262D01*
X69510712Y-28838666D01*
X69510710Y-28838665D01*
X69510709Y-28838665D01*
X69385408Y-28818820D01*
X69260106Y-28838665D01*
X69147064Y-28896263D01*
X69057359Y-28985968D01*
X68999761Y-29099010D01*
X68979916Y-29224312D01*
X59776867Y-29224312D01*
X59770846Y-29186296D01*
X59713250Y-29073258D01*
X59623542Y-28983550D01*
X59510504Y-28925954D01*
X59510502Y-28925953D01*
X59510501Y-28925953D01*
X59385200Y-28906108D01*
X59259898Y-28925953D01*
X59146856Y-28983551D01*
X59081926Y-29048482D01*
X59036050Y-29069874D01*
X58987155Y-29056773D01*
X58977274Y-29048482D01*
X58912343Y-28983551D01*
X58912343Y-28983550D01*
X58912342Y-28983550D01*
X58799304Y-28925954D01*
X58799302Y-28925953D01*
X58799301Y-28925953D01*
X58674000Y-28906108D01*
X58548698Y-28925953D01*
X58435656Y-28983551D01*
X58396126Y-29023082D01*
X58350250Y-29044474D01*
X58301355Y-29031373D01*
X58291474Y-29023082D01*
X58201143Y-28932751D01*
X58201142Y-28932750D01*
X58088104Y-28875154D01*
X58088102Y-28875153D01*
X58088101Y-28875153D01*
X57962800Y-28855308D01*
X57837498Y-28875153D01*
X57796472Y-28896057D01*
X57746230Y-28902225D01*
X57703777Y-28874656D01*
X57689788Y-28841696D01*
X57688513Y-28833644D01*
X57688046Y-28830696D01*
X57630450Y-28717658D01*
X57540742Y-28627950D01*
X57427704Y-28570354D01*
X57427702Y-28570353D01*
X57427701Y-28570353D01*
X57362332Y-28560000D01*
X77282908Y-28560000D01*
X77302753Y-28685301D01*
X77302753Y-28685302D01*
X77302754Y-28685304D01*
X77360350Y-28798342D01*
X77450058Y-28888050D01*
X77563096Y-28945646D01*
X77688400Y-28965492D01*
X77813704Y-28945646D01*
X77926742Y-28888050D01*
X78016450Y-28798342D01*
X78074046Y-28685304D01*
X78093892Y-28560000D01*
X78074046Y-28434696D01*
X78016450Y-28321658D01*
X77926742Y-28231950D01*
X77813704Y-28174354D01*
X77813702Y-28174353D01*
X77813701Y-28174353D01*
X77688400Y-28154508D01*
X77563098Y-28174353D01*
X77450056Y-28231951D01*
X77360351Y-28321656D01*
X77302753Y-28434698D01*
X77282908Y-28560000D01*
X57362332Y-28560000D01*
X57302400Y-28550508D01*
X57177095Y-28570353D01*
X57177095Y-28570354D01*
X57064058Y-28627949D01*
X57064056Y-28627951D01*
X57049922Y-28642084D01*
X57004044Y-28663474D01*
X56955151Y-28650370D01*
X56945273Y-28642081D01*
X56880343Y-28577151D01*
X56880342Y-28577150D01*
X56767304Y-28519554D01*
X56767302Y-28519553D01*
X56767301Y-28519553D01*
X56642000Y-28499708D01*
X56516698Y-28519553D01*
X56403656Y-28577151D01*
X56313951Y-28666856D01*
X56313949Y-28666858D01*
X56313950Y-28666858D01*
X56257958Y-28776749D01*
X56256353Y-28779898D01*
X56237923Y-28896263D01*
X56236508Y-28905200D01*
X50301594Y-28905200D01*
X50298918Y-28895211D01*
X50287545Y-28867755D01*
X50286712Y-28865542D01*
X50247483Y-28749977D01*
X50233679Y-28721986D01*
X50215588Y-28685301D01*
X50193513Y-28640537D01*
X50192532Y-28638372D01*
X50181157Y-28610911D01*
X50166295Y-28585170D01*
X50165169Y-28583062D01*
X50165167Y-28583058D01*
X50111205Y-28473633D01*
X50111202Y-28473628D01*
X50111199Y-28473623D01*
X50043425Y-28372192D01*
X50042146Y-28370136D01*
X50027295Y-28344413D01*
X50027292Y-28344410D01*
X50027291Y-28344407D01*
X50027290Y-28344405D01*
X50009212Y-28320846D01*
X50007801Y-28318877D01*
X49968197Y-28259606D01*
X49940023Y-28217440D01*
X49876120Y-28144573D01*
X49859575Y-28125707D01*
X49858038Y-28123834D01*
X49840601Y-28101110D01*
X49839964Y-28100279D01*
X49818960Y-28079275D01*
X49817306Y-28077509D01*
X49807638Y-28066485D01*
X49736865Y-27985784D01*
X49645137Y-27905340D01*
X49643370Y-27903685D01*
X49622369Y-27882684D01*
X49598812Y-27864608D01*
X49596941Y-27863073D01*
X49505216Y-27782632D01*
X49505214Y-27782631D01*
X49505209Y-27782626D01*
X49505196Y-27782617D01*
X49403769Y-27714845D01*
X49401802Y-27713436D01*
X49389308Y-27703850D01*
X49378236Y-27695354D01*
X49352505Y-27680498D01*
X49350472Y-27679234D01*
X49249017Y-27611444D01*
X49249015Y-27611443D01*
X49249009Y-27611439D01*
X49194179Y-27584400D01*
X63754908Y-27584400D01*
X63774753Y-27709701D01*
X63774753Y-27709702D01*
X63774754Y-27709704D01*
X63832350Y-27822742D01*
X63922058Y-27912450D01*
X64035096Y-27970046D01*
X64160400Y-27989892D01*
X64285704Y-27970046D01*
X64398742Y-27912450D01*
X64488450Y-27822742D01*
X64546046Y-27709704D01*
X64565892Y-27584400D01*
X64546046Y-27459096D01*
X64488450Y-27346058D01*
X64398742Y-27256350D01*
X64285704Y-27198754D01*
X64285702Y-27198753D01*
X64285701Y-27198753D01*
X64160400Y-27178908D01*
X64035098Y-27198753D01*
X63922056Y-27256351D01*
X63832351Y-27346056D01*
X63774753Y-27459098D01*
X63754908Y-27584400D01*
X49194179Y-27584400D01*
X49139587Y-27557478D01*
X49137452Y-27556337D01*
X49111740Y-27541493D01*
X49111726Y-27541486D01*
X49084306Y-27530128D01*
X49082101Y-27529129D01*
X48972675Y-27475167D01*
X48857129Y-27435943D01*
X48854863Y-27435091D01*
X48827441Y-27423732D01*
X48827439Y-27423731D01*
X48827438Y-27423731D01*
X48820413Y-27421848D01*
X48798752Y-27416044D01*
X48796436Y-27415341D01*
X48680911Y-27376126D01*
X48680894Y-27376121D01*
X48561234Y-27352320D01*
X48558883Y-27351771D01*
X48530199Y-27344086D01*
X48530196Y-27344085D01*
X48530194Y-27344085D01*
X48500748Y-27340207D01*
X48498360Y-27339813D01*
X48378716Y-27316014D01*
X48378692Y-27316011D01*
X48256946Y-27308030D01*
X48254538Y-27307793D01*
X48225108Y-27303920D01*
X48225107Y-27303920D01*
X48195420Y-27303920D01*
X48193000Y-27303841D01*
X48071245Y-27295861D01*
X47949490Y-27303841D01*
X47947070Y-27303920D01*
X47917382Y-27303920D01*
X47887952Y-27307793D01*
X47885544Y-27308030D01*
X47763797Y-27316011D01*
X47763772Y-27316014D01*
X47644128Y-27339813D01*
X47641741Y-27340207D01*
X47612291Y-27344086D01*
X47612286Y-27344087D01*
X47583601Y-27351773D01*
X47581244Y-27352322D01*
X47461595Y-27376121D01*
X47461577Y-27376126D01*
X47346052Y-27415341D01*
X47343737Y-27416043D01*
X47315054Y-27423730D01*
X47315046Y-27423733D01*
X47287624Y-27435091D01*
X47285359Y-27435944D01*
X47169816Y-27475166D01*
X47060395Y-27529126D01*
X47058191Y-27530125D01*
X47030753Y-27541491D01*
X47030749Y-27541493D01*
X47005034Y-27556339D01*
X47002899Y-27557480D01*
X46893482Y-27611439D01*
X46893457Y-27611454D01*
X46792034Y-27679221D01*
X46789980Y-27680498D01*
X46764258Y-27695351D01*
X46764253Y-27695354D01*
X46740692Y-27713432D01*
X46738725Y-27714842D01*
X46637286Y-27782622D01*
X46637272Y-27782632D01*
X46545560Y-27863062D01*
X46543690Y-27864598D01*
X46520127Y-27882679D01*
X46520115Y-27882689D01*
X46499116Y-27903687D01*
X46497351Y-27905340D01*
X46405633Y-27985775D01*
X46405616Y-27985792D01*
X46325181Y-28077510D01*
X46323528Y-28079275D01*
X46302530Y-28100274D01*
X46302520Y-28100286D01*
X46284439Y-28123849D01*
X46282903Y-28125719D01*
X46202473Y-28217431D01*
X46202463Y-28217445D01*
X46134683Y-28318884D01*
X46133273Y-28320851D01*
X46115195Y-28344412D01*
X46115192Y-28344417D01*
X46100339Y-28370139D01*
X46099062Y-28372193D01*
X46031295Y-28473616D01*
X46031280Y-28473641D01*
X45977321Y-28583058D01*
X45976180Y-28585193D01*
X45961334Y-28610908D01*
X45961332Y-28610912D01*
X45949966Y-28638350D01*
X45948967Y-28640554D01*
X45895007Y-28749975D01*
X45855785Y-28865518D01*
X45854932Y-28867783D01*
X45843574Y-28895205D01*
X45843571Y-28895213D01*
X45835884Y-28923896D01*
X45835182Y-28926211D01*
X45795967Y-29041736D01*
X45795962Y-29041754D01*
X45772163Y-29161403D01*
X45771614Y-29163760D01*
X45763928Y-29192445D01*
X45763927Y-29192450D01*
X45760048Y-29221900D01*
X45759654Y-29224287D01*
X45735855Y-29343931D01*
X45735852Y-29343956D01*
X45727871Y-29465703D01*
X45727634Y-29468111D01*
X45723761Y-29497540D01*
X45723761Y-29527228D01*
X45723682Y-29529648D01*
X45715702Y-29651404D01*
X33925826Y-29651404D01*
X42903693Y-26734318D01*
X42903902Y-26734303D01*
X42903888Y-26734258D01*
X42917940Y-26729734D01*
X42917940Y-26729733D01*
X42917941Y-26729734D01*
X42918257Y-26729465D01*
X42918280Y-26729159D01*
X42918279Y-26729158D01*
X42918288Y-26729052D01*
X42918286Y-26729050D01*
X42918287Y-26729050D01*
X42913891Y-26715371D01*
X42913671Y-26714977D01*
X42836413Y-26477200D01*
X78095708Y-26477200D01*
X78115553Y-26602501D01*
X78115553Y-26602502D01*
X78115554Y-26602504D01*
X78173150Y-26715542D01*
X78262858Y-26805250D01*
X78375896Y-26862846D01*
X78501200Y-26882692D01*
X78626504Y-26862846D01*
X78739542Y-26805250D01*
X78829250Y-26715542D01*
X78886846Y-26602504D01*
X78906692Y-26477200D01*
X78886846Y-26351896D01*
X78829250Y-26238858D01*
X78739542Y-26149150D01*
X78626504Y-26091554D01*
X78626502Y-26091553D01*
X78626501Y-26091553D01*
X78501200Y-26071708D01*
X78375898Y-26091553D01*
X78262856Y-26149151D01*
X78173151Y-26238856D01*
X78173149Y-26238858D01*
X78173150Y-26238858D01*
X78135261Y-26313220D01*
X78115553Y-26351898D01*
X78095708Y-26477200D01*
X42836413Y-26477200D01*
X42824380Y-26440167D01*
X42783133Y-26313220D01*
X71239500Y-26313220D01*
X71248233Y-26357122D01*
X71281496Y-26406904D01*
X71331278Y-26440167D01*
X71375180Y-26448900D01*
X71375181Y-26448900D01*
X73404819Y-26448900D01*
X73404820Y-26448900D01*
X73448722Y-26440167D01*
X73498504Y-26406904D01*
X73531767Y-26357122D01*
X73540500Y-26313220D01*
X73540500Y-24283580D01*
X73531767Y-24239678D01*
X73498504Y-24189896D01*
X73497221Y-24189039D01*
X73448722Y-24156633D01*
X73424313Y-24151777D01*
X73381039Y-24125518D01*
X73364769Y-24077585D01*
X73383115Y-24030408D01*
X73424313Y-24006622D01*
X73448722Y-24001767D01*
X73498504Y-23968504D01*
X73531767Y-23918722D01*
X73540500Y-23874820D01*
X73540500Y-21845180D01*
X73531767Y-21801278D01*
X73498504Y-21751496D01*
X73448722Y-21718233D01*
X73404820Y-21709500D01*
X71375180Y-21709500D01*
X71353228Y-21713866D01*
X71331277Y-21718233D01*
X71281496Y-21751495D01*
X71281495Y-21751496D01*
X71248233Y-21801277D01*
X71248232Y-21801278D01*
X71248233Y-21801278D01*
X71239500Y-21845180D01*
X71239500Y-23874820D01*
X71240720Y-23880952D01*
X71248233Y-23918722D01*
X71259413Y-23935455D01*
X71281496Y-23968504D01*
X71331278Y-24001767D01*
X71355685Y-24006622D01*
X71398960Y-24032882D01*
X71415230Y-24080815D01*
X71396884Y-24127992D01*
X71355685Y-24151778D01*
X71331278Y-24156633D01*
X71281496Y-24189895D01*
X71281495Y-24189896D01*
X71248233Y-24239677D01*
X71248232Y-24239678D01*
X71248233Y-24239678D01*
X71239500Y-24283580D01*
X71239500Y-26313220D01*
X42783133Y-26313220D01*
X42581427Y-25692430D01*
X42493197Y-25420884D01*
X42494963Y-25370296D01*
X42528834Y-25332679D01*
X42540699Y-25327642D01*
X47170223Y-23823420D01*
X47355663Y-23763167D01*
X47357522Y-23762617D01*
X47375053Y-23757920D01*
X47377932Y-23757228D01*
X47484332Y-23731679D01*
X47487119Y-23731125D01*
X47531532Y-23724093D01*
X47534373Y-23723757D01*
X47645939Y-23714982D01*
X47658820Y-23714308D01*
X47664740Y-23713999D01*
X47666673Y-23713948D01*
X52396712Y-23713994D01*
X52396716Y-23713996D01*
X52425783Y-23713996D01*
X52429935Y-23714230D01*
X52438889Y-23715240D01*
X52453702Y-23716912D01*
X52539278Y-23728227D01*
X52554048Y-23731753D01*
X52592852Y-23745361D01*
X52594738Y-23746083D01*
X52654656Y-23770958D01*
X52665706Y-23776680D01*
X52689768Y-23791839D01*
X52704490Y-23801114D01*
X52707322Y-23803089D01*
X52758229Y-23842264D01*
X52761868Y-23845467D01*
X52797059Y-23880775D01*
X52800242Y-23884418D01*
X52826457Y-23918722D01*
X52839244Y-23935455D01*
X52841219Y-23938307D01*
X52865511Y-23977158D01*
X52871205Y-23988246D01*
X52895863Y-24048209D01*
X52896600Y-24050154D01*
X52910054Y-24088937D01*
X52913538Y-24103762D01*
X52924783Y-24191300D01*
X52927129Y-24212753D01*
X52927349Y-24216907D01*
X52927001Y-24317837D01*
X52923640Y-25290910D01*
X52920056Y-25300650D01*
X52923163Y-25324888D01*
X52923463Y-25329712D01*
X52923281Y-25387931D01*
X52934606Y-25438212D01*
X52933794Y-25444536D01*
X52936357Y-25450767D01*
X52940110Y-25462653D01*
X52948117Y-25498206D01*
X52977011Y-25558576D01*
X52977690Y-25565532D01*
X52980133Y-25568729D01*
X52988086Y-25581715D01*
X52996916Y-25600165D01*
X53046510Y-25662601D01*
X53049002Y-25670067D01*
X53050668Y-25671349D01*
X53063479Y-25683964D01*
X53067222Y-25688676D01*
X53071918Y-25692432D01*
X53084489Y-25705285D01*
X53085752Y-25706938D01*
X53093228Y-25709477D01*
X53155489Y-25759277D01*
X53155491Y-25759278D01*
X53155495Y-25759281D01*
X53173918Y-25768174D01*
X53186873Y-25776169D01*
X53189633Y-25778293D01*
X53195982Y-25778836D01*
X53196986Y-25779311D01*
X53257289Y-25808423D01*
X53292821Y-25816551D01*
X53304692Y-25820344D01*
X53309703Y-25822424D01*
X53314769Y-25821616D01*
X53317208Y-25822130D01*
X53367479Y-25833630D01*
X53409185Y-25833639D01*
X53409206Y-25833644D01*
X53425357Y-25833644D01*
X53430202Y-25833962D01*
X53451646Y-25836791D01*
X53458810Y-25833747D01*
X53462715Y-25833644D01*
X59886786Y-25833644D01*
X59895228Y-25836717D01*
X59916063Y-25833963D01*
X59920917Y-25833644D01*
X59929265Y-25833644D01*
X59930035Y-25833567D01*
X59978655Y-25833571D01*
X60028655Y-25822162D01*
X60034966Y-25822953D01*
X60041202Y-25820371D01*
X60053045Y-25816597D01*
X60088606Y-25808483D01*
X60099991Y-25803000D01*
X60148636Y-25779580D01*
X60155588Y-25778884D01*
X60158813Y-25776411D01*
X60171754Y-25768448D01*
X60190218Y-25759559D01*
X60190571Y-25759278D01*
X60235287Y-25723623D01*
X60252296Y-25710060D01*
X60259767Y-25707550D01*
X60261082Y-25705838D01*
X60273655Y-25693030D01*
X60278396Y-25689250D01*
X60282182Y-25684502D01*
X60294989Y-25671935D01*
X60296683Y-25670634D01*
X60299211Y-25663153D01*
X60299651Y-25662601D01*
X60348718Y-25601084D01*
X60357613Y-25582615D01*
X60365577Y-25569678D01*
X60367716Y-25566890D01*
X60368251Y-25560552D01*
X60368745Y-25559505D01*
X60369193Y-25558576D01*
X60397658Y-25499479D01*
X60405775Y-25463925D01*
X60409551Y-25452087D01*
X60411631Y-25447066D01*
X60410822Y-25442016D01*
X60411335Y-25439576D01*
X60422762Y-25389532D01*
X60422767Y-25333144D01*
X60422767Y-25332644D01*
X60422767Y-25331750D01*
X60423084Y-25326929D01*
X60425905Y-25305514D01*
X60422870Y-25298373D01*
X60422767Y-25294465D01*
X60422767Y-22098000D01*
X63654753Y-22098000D01*
X63675234Y-22240454D01*
X63735023Y-22371373D01*
X63829268Y-22480139D01*
X63829269Y-22480140D01*
X63829272Y-22480143D01*
X63950347Y-22557953D01*
X64056803Y-22589211D01*
X64088435Y-22598499D01*
X64088437Y-22598500D01*
X64088439Y-22598500D01*
X64232363Y-22598500D01*
X64232364Y-22598499D01*
X64370453Y-22557953D01*
X64453783Y-22504400D01*
X68733308Y-22504400D01*
X68753153Y-22629701D01*
X68753153Y-22629702D01*
X68753154Y-22629704D01*
X68810750Y-22742742D01*
X68900458Y-22832450D01*
X69013496Y-22890046D01*
X69138800Y-22909892D01*
X69264104Y-22890046D01*
X69377142Y-22832450D01*
X69466850Y-22742742D01*
X69524446Y-22629704D01*
X69544292Y-22504400D01*
X69524446Y-22379096D01*
X69466850Y-22266058D01*
X69377142Y-22176350D01*
X69264104Y-22118754D01*
X69264102Y-22118753D01*
X69264101Y-22118753D01*
X69138800Y-22098908D01*
X69013498Y-22118753D01*
X68900456Y-22176351D01*
X68810751Y-22266056D01*
X68753153Y-22379098D01*
X68733308Y-22504400D01*
X64453783Y-22504400D01*
X64491528Y-22480143D01*
X64585777Y-22371373D01*
X64645565Y-22240457D01*
X64666047Y-22098000D01*
X64645565Y-21955543D01*
X64585777Y-21824627D01*
X64491528Y-21715857D01*
X64434582Y-21679260D01*
X64370454Y-21638047D01*
X64370450Y-21638046D01*
X64232364Y-21597500D01*
X64232361Y-21597500D01*
X64088439Y-21597500D01*
X64088436Y-21597500D01*
X63950349Y-21638046D01*
X63950345Y-21638047D01*
X63829275Y-21715855D01*
X63829268Y-21715860D01*
X63735023Y-21824626D01*
X63675234Y-21955545D01*
X63654753Y-22098000D01*
X60422767Y-22098000D01*
X60422767Y-21335224D01*
X60422999Y-21331082D01*
X60425648Y-21307547D01*
X60436979Y-21221821D01*
X60440486Y-21207107D01*
X60453828Y-21168968D01*
X60454522Y-21167150D01*
X60479583Y-21106633D01*
X60485271Y-21095620D01*
X60509362Y-21057273D01*
X60511297Y-21054491D01*
X60550664Y-21003179D01*
X60553832Y-20999566D01*
X60588704Y-20964689D01*
X60592321Y-20961515D01*
X60643634Y-20922135D01*
X60646418Y-20920199D01*
X60684752Y-20896108D01*
X60695768Y-20890416D01*
X60756247Y-20865360D01*
X60758119Y-20864645D01*
X60796184Y-20851322D01*
X60810948Y-20847807D01*
X60899964Y-20836081D01*
X60919517Y-20833876D01*
X60923660Y-20833644D01*
X73920191Y-20833644D01*
X73924335Y-20833877D01*
G37*
%TD.AperFunction*%
%TD*%
M02*
