%TF.GenerationSoftware,KiCad,Pcbnew,7.0.6*%
%TF.CreationDate,2023-09-26T11:41:46-07:00*%
%TF.ProjectId,UniSNES,556e6953-4e45-4532-9e6b-696361645f70,rev?*%
%TF.SameCoordinates,Original*%
%TF.FileFunction,Paste,Top*%
%TF.FilePolarity,Positive*%
%FSLAX46Y46*%
G04 Gerber Fmt 4.6, Leading zero omitted, Abs format (unit mm)*
G04 Created by KiCad (PCBNEW 7.0.6) date 2023-09-26 11:41:46*
%MOMM*%
%LPD*%
G01*
G04 APERTURE LIST*
G04 Aperture macros list*
%AMRoundRect*
0 Rectangle with rounded corners*
0 $1 Rounding radius*
0 $2 $3 $4 $5 $6 $7 $8 $9 X,Y pos of 4 corners*
0 Add a 4 corners polygon primitive as box body*
4,1,4,$2,$3,$4,$5,$6,$7,$8,$9,$2,$3,0*
0 Add four circle primitives for the rounded corners*
1,1,$1+$1,$2,$3*
1,1,$1+$1,$4,$5*
1,1,$1+$1,$6,$7*
1,1,$1+$1,$8,$9*
0 Add four rect primitives between the rounded corners*
20,1,$1+$1,$2,$3,$4,$5,0*
20,1,$1+$1,$4,$5,$6,$7,0*
20,1,$1+$1,$6,$7,$8,$9,0*
20,1,$1+$1,$8,$9,$2,$3,0*%
%AMFreePoly0*
4,1,13,0.900000,0.500000,2.600000,0.500000,2.600000,-0.500000,0.900000,-0.500000,0.400000,-1.000000,-0.400000,-1.000000,-0.900000,-0.500000,-2.600000,-0.500000,-2.600000,0.500000,-0.900000,0.500000,-0.400000,1.000000,0.400000,1.000000,0.900000,0.500000,0.900000,0.500000,$1*%
G04 Aperture macros list end*
%ADD10RoundRect,0.079500X0.079500X0.100500X-0.079500X0.100500X-0.079500X-0.100500X0.079500X-0.100500X0*%
%ADD11RoundRect,0.079500X0.100500X-0.079500X0.100500X0.079500X-0.100500X0.079500X-0.100500X-0.079500X0*%
%ADD12R,0.400000X0.300000*%
%ADD13R,0.200000X1.600000*%
%ADD14RoundRect,0.079500X-0.100500X0.079500X-0.100500X-0.079500X0.100500X-0.079500X0.100500X0.079500X0*%
%ADD15R,0.650000X0.400000*%
%ADD16R,0.550000X0.550000*%
%ADD17RoundRect,0.150000X-0.150000X0.587500X-0.150000X-0.587500X0.150000X-0.587500X0.150000X0.587500X0*%
%ADD18RoundRect,0.250000X0.250000X-0.250000X0.250000X0.250000X-0.250000X0.250000X-0.250000X-0.250000X0*%
%ADD19RoundRect,0.225000X0.225000X0.250000X-0.225000X0.250000X-0.225000X-0.250000X0.225000X-0.250000X0*%
%ADD20RoundRect,0.249999X0.395001X0.395001X-0.395001X0.395001X-0.395001X-0.395001X0.395001X-0.395001X0*%
%ADD21RoundRect,0.050000X0.387500X0.050000X-0.387500X0.050000X-0.387500X-0.050000X0.387500X-0.050000X0*%
%ADD22RoundRect,0.050000X0.050000X0.387500X-0.050000X0.387500X-0.050000X-0.387500X0.050000X-0.387500X0*%
%ADD23RoundRect,0.079500X-0.079500X-0.100500X0.079500X-0.100500X0.079500X0.100500X-0.079500X0.100500X0*%
%ADD24R,0.400000X1.900000*%
%ADD25RoundRect,0.225000X-0.225000X-0.375000X0.225000X-0.375000X0.225000X0.375000X-0.225000X0.375000X0*%
%ADD26RoundRect,0.250001X0.462499X0.624999X-0.462499X0.624999X-0.462499X-0.624999X0.462499X-0.624999X0*%
%ADD27RoundRect,0.250001X-0.624999X0.462499X-0.624999X-0.462499X0.624999X-0.462499X0.624999X0.462499X0*%
%ADD28RoundRect,0.250000X0.425000X-0.450000X0.425000X0.450000X-0.425000X0.450000X-0.425000X-0.450000X0*%
%ADD29RoundRect,0.250001X0.624999X-0.462499X0.624999X0.462499X-0.624999X0.462499X-0.624999X-0.462499X0*%
%ADD30RoundRect,0.250000X0.250000X0.250000X-0.250000X0.250000X-0.250000X-0.250000X0.250000X-0.250000X0*%
%ADD31R,0.700000X1.500000*%
%ADD32FreePoly0,270.000000*%
%ADD33R,0.550000X0.500000*%
%ADD34RoundRect,0.250000X-0.250000X-0.250000X0.250000X-0.250000X0.250000X0.250000X-0.250000X0.250000X0*%
G04 APERTURE END LIST*
D10*
%TO.C,R7*%
X75071800Y-36525200D03*
X74381800Y-36525200D03*
%TD*%
D11*
%TO.C,R19*%
X88781646Y-31683061D03*
X88781646Y-30993061D03*
%TD*%
D12*
%TO.C,U1*%
X68978206Y-36943705D03*
X68978206Y-36443705D03*
X68978206Y-35943705D03*
X68978206Y-35443705D03*
X66578206Y-35443705D03*
X66578206Y-35943705D03*
X66578206Y-36443705D03*
X66578206Y-36943705D03*
D13*
X67778206Y-36193705D03*
%TD*%
D10*
%TO.C,R2*%
X70527163Y-36943609D03*
X69837163Y-36943609D03*
%TD*%
D14*
%TO.C,R9*%
X74428567Y-28669008D03*
X74428567Y-29359008D03*
%TD*%
%TO.C,R8*%
X74429626Y-27120273D03*
X74429626Y-27810273D03*
%TD*%
D15*
%TO.C,Q2*%
X75519200Y-29332400D03*
X75519200Y-29982400D03*
X75519200Y-30632400D03*
X77419200Y-30632400D03*
X77419200Y-29982400D03*
X77419200Y-29332400D03*
%TD*%
D14*
%TO.C,C2*%
X64008000Y-24614800D03*
X64008000Y-25304800D03*
%TD*%
D16*
%TO.C,L1*%
X37574200Y-43684600D03*
X38524200Y-43684600D03*
X38524200Y-42734600D03*
X37574200Y-42734600D03*
%TD*%
D17*
%TO.C,Q5*%
X90002400Y-33126200D03*
X88102400Y-33126200D03*
X89052400Y-35001200D03*
%TD*%
D16*
%TO.C,L8*%
X119925326Y-42977701D03*
X120875326Y-42977701D03*
X120875326Y-42027701D03*
X119925326Y-42027701D03*
%TD*%
D14*
%TO.C,R20*%
X89560400Y-30990700D03*
X89560400Y-31680700D03*
%TD*%
%TO.C,R4*%
X63246000Y-24614800D03*
X63246000Y-25304800D03*
%TD*%
D16*
%TO.C,L10*%
X133463772Y-53527701D03*
X134413772Y-53527701D03*
X134413772Y-52577701D03*
X133463772Y-52577701D03*
%TD*%
D18*
%TO.C,D7*%
X67580952Y-42918176D03*
X67580952Y-40418176D03*
%TD*%
D19*
%TO.C,C10*%
X72745600Y-43484800D03*
X71195600Y-43484800D03*
%TD*%
D14*
%TO.C,R12*%
X78502877Y-28656404D03*
X78502877Y-29346404D03*
%TD*%
D16*
%TO.C,L7*%
X106386881Y-53527701D03*
X107336881Y-53527701D03*
X107336881Y-52577701D03*
X106386881Y-52577701D03*
%TD*%
%TO.C,L3*%
X37574200Y-53043342D03*
X38524200Y-53043342D03*
X38524200Y-52093342D03*
X37574200Y-52093342D03*
%TD*%
D11*
%TO.C,C6*%
X64719200Y-35515600D03*
X64719200Y-34825600D03*
%TD*%
D10*
%TO.C,C5*%
X64353000Y-23842200D03*
X63663000Y-23842200D03*
%TD*%
D14*
%TO.C,R13*%
X78501200Y-30145400D03*
X78501200Y-30835400D03*
%TD*%
%TO.C,R10*%
X74423349Y-30167148D03*
X74423349Y-30857148D03*
%TD*%
D20*
%TO.C,U2*%
X65560400Y-30704300D03*
X65560400Y-29104300D03*
X63960400Y-30704300D03*
X63960400Y-29104300D03*
D21*
X68197900Y-32504300D03*
X68197900Y-32104300D03*
X68197900Y-31704300D03*
X68197900Y-31304300D03*
X68197900Y-30904300D03*
X68197900Y-30504300D03*
X68197900Y-30104300D03*
X68197900Y-29704300D03*
X68197900Y-29304300D03*
X68197900Y-28904300D03*
X68197900Y-28504300D03*
X68197900Y-28104300D03*
X68197900Y-27704300D03*
X68197900Y-27304300D03*
D22*
X67360400Y-26466800D03*
X66960400Y-26466800D03*
X66560400Y-26466800D03*
X66160400Y-26466800D03*
X65760400Y-26466800D03*
X65360400Y-26466800D03*
X64960400Y-26466800D03*
X64560400Y-26466800D03*
X64160400Y-26466800D03*
X63760400Y-26466800D03*
X63360400Y-26466800D03*
X62960400Y-26466800D03*
X62560400Y-26466800D03*
X62160400Y-26466800D03*
D21*
X61322900Y-27304300D03*
X61322900Y-27704300D03*
X61322900Y-28104300D03*
X61322900Y-28504300D03*
X61322900Y-28904300D03*
X61322900Y-29304300D03*
X61322900Y-29704300D03*
X61322900Y-30104300D03*
X61322900Y-30504300D03*
X61322900Y-30904300D03*
X61322900Y-31304300D03*
X61322900Y-31704300D03*
X61322900Y-32104300D03*
X61322900Y-32504300D03*
D22*
X62160400Y-33341800D03*
X62560400Y-33341800D03*
X62960400Y-33341800D03*
X63360400Y-33341800D03*
X63760400Y-33341800D03*
X64160400Y-33341800D03*
X64560400Y-33341800D03*
X64960400Y-33341800D03*
X65360400Y-33341800D03*
X65760400Y-33341800D03*
X66160400Y-33341800D03*
X66560400Y-33341800D03*
X66960400Y-33341800D03*
X67360400Y-33341800D03*
%TD*%
D23*
%TO.C,C4*%
X69352600Y-28769800D03*
X70042600Y-28769800D03*
%TD*%
D11*
%TO.C,R6*%
X63258400Y-35515600D03*
X63258400Y-34825600D03*
%TD*%
D14*
%TO.C,C1*%
X65727006Y-37029105D03*
X65727006Y-37719105D03*
%TD*%
D24*
%TO.C,Y1*%
X67851200Y-23026200D03*
X66651200Y-23026200D03*
X65451200Y-23026200D03*
%TD*%
D16*
%TO.C,L2*%
X32894829Y-48363971D03*
X33844829Y-48363971D03*
X33844829Y-47413971D03*
X32894829Y-47413971D03*
%TD*%
D25*
%TO.C,D1*%
X86386400Y-42164000D03*
X89686400Y-42164000D03*
%TD*%
D26*
%TO.C,F1*%
X57254732Y-33629853D03*
X54279732Y-33629853D03*
%TD*%
D14*
%TO.C,R11*%
X78501200Y-27097400D03*
X78501200Y-27787400D03*
%TD*%
D11*
%TO.C,R5*%
X63969600Y-35515600D03*
X63969600Y-34825600D03*
%TD*%
D27*
%TO.C,F2*%
X65430400Y-40625700D03*
X65430400Y-43600700D03*
%TD*%
D28*
%TO.C,C8*%
X77673200Y-43463200D03*
X77673200Y-40763200D03*
%TD*%
D15*
%TO.C,Q1*%
X75519200Y-26487600D03*
X75519200Y-27137600D03*
X75519200Y-27787600D03*
X77419200Y-27787600D03*
X77419200Y-27137600D03*
X77419200Y-26487600D03*
%TD*%
D16*
%TO.C,L5*%
X63238433Y-55337420D03*
X64188433Y-55337420D03*
X64188433Y-54387420D03*
X63238433Y-54387420D03*
%TD*%
D29*
%TO.C,F3*%
X89662000Y-39993900D03*
X89662000Y-37018900D03*
%TD*%
D23*
%TO.C,R15*%
X55331800Y-48361600D03*
X56021800Y-48361600D03*
%TD*%
D30*
%TO.C,D5*%
X79024800Y-32715200D03*
X76524800Y-32715200D03*
%TD*%
D23*
%TO.C,R14*%
X52893400Y-36779200D03*
X53583400Y-36779200D03*
%TD*%
%TO.C,R17*%
X85552914Y-32697356D03*
X86242914Y-32697356D03*
%TD*%
D17*
%TO.C,Q3*%
X86187514Y-34124356D03*
X84287514Y-34124356D03*
X85237514Y-35999356D03*
%TD*%
%TO.C,Q4*%
X87716400Y-38076900D03*
X85816400Y-38076900D03*
X86766400Y-39951900D03*
%TD*%
D31*
%TO.C,U3*%
X75058400Y-37977200D03*
D32*
X73558400Y-39827200D03*
D31*
X72058400Y-37977200D03*
X72058400Y-41677200D03*
X75058400Y-41677200D03*
%TD*%
D16*
%TO.C,L9*%
X119925326Y-64077701D03*
X120875326Y-64077701D03*
X120875326Y-63127701D03*
X119925326Y-63127701D03*
%TD*%
%TO.C,L6*%
X78763433Y-55337420D03*
X79713433Y-55337420D03*
X79713433Y-54387420D03*
X78763433Y-54387420D03*
%TD*%
D14*
%TO.C,R3*%
X64973200Y-24665600D03*
X64973200Y-25355600D03*
%TD*%
D10*
%TO.C,R16*%
X86242914Y-31935356D03*
X85552914Y-31935356D03*
%TD*%
D16*
%TO.C,L4*%
X42253571Y-48363971D03*
X43203571Y-48363971D03*
X43203571Y-47413971D03*
X42253571Y-47413971D03*
%TD*%
D23*
%TO.C,C7*%
X63663000Y-23080200D03*
X64353000Y-23080200D03*
%TD*%
D14*
%TO.C,R1*%
X69138800Y-23294000D03*
X69138800Y-23984000D03*
%TD*%
D33*
%TO.C,SW1*%
X66434006Y-38040905D03*
X66434006Y-38840905D03*
X69084006Y-38040905D03*
X69084006Y-38840905D03*
%TD*%
D34*
%TO.C,D6*%
X54751600Y-31496000D03*
X57251600Y-31496000D03*
%TD*%
D10*
%TO.C,R18*%
X88076600Y-36576000D03*
X87386600Y-36576000D03*
%TD*%
D19*
%TO.C,C9*%
X75793600Y-43484800D03*
X74243600Y-43484800D03*
%TD*%
D14*
%TO.C,C3*%
X60198000Y-32742800D03*
X60198000Y-33432800D03*
%TD*%
M02*
