%TF.GenerationSoftware,KiCad,Pcbnew,7.0.6*%
%TF.CreationDate,2023-09-25T23:03:40-07:00*%
%TF.ProjectId,UniSNES,556e6953-4e45-4532-9e6b-696361645f70,rev?*%
%TF.SameCoordinates,Original*%
%TF.FileFunction,Legend,Bot*%
%TF.FilePolarity,Positive*%
%FSLAX46Y46*%
G04 Gerber Fmt 4.6, Leading zero omitted, Abs format (unit mm)*
G04 Created by KiCad (PCBNEW 7.0.6) date 2023-09-25 23:03:40*
%MOMM*%
%LPD*%
G01*
G04 APERTURE LIST*
%ADD10C,0.250000*%
%ADD11C,0.100000*%
%ADD12C,0.150000*%
%ADD13C,0.120000*%
G04 APERTURE END LIST*
D10*
X98890580Y-48962403D02*
X99366771Y-49295736D01*
X98890580Y-49533831D02*
X99890580Y-49533831D01*
X99890580Y-49533831D02*
X99890580Y-49152879D01*
X99890580Y-49152879D02*
X99842961Y-49057641D01*
X99842961Y-49057641D02*
X99795342Y-49010022D01*
X99795342Y-49010022D02*
X99700104Y-48962403D01*
X99700104Y-48962403D02*
X99557247Y-48962403D01*
X99557247Y-48962403D02*
X99462009Y-49010022D01*
X99462009Y-49010022D02*
X99414390Y-49057641D01*
X99414390Y-49057641D02*
X99366771Y-49152879D01*
X99366771Y-49152879D02*
X99366771Y-49533831D01*
X99557247Y-48105260D02*
X98890580Y-48105260D01*
X99557247Y-48533831D02*
X99033438Y-48533831D01*
X99033438Y-48533831D02*
X98938200Y-48486212D01*
X98938200Y-48486212D02*
X98890580Y-48390974D01*
X98890580Y-48390974D02*
X98890580Y-48248117D01*
X98890580Y-48248117D02*
X98938200Y-48152879D01*
X98938200Y-48152879D02*
X98985819Y-48105260D01*
X98890580Y-47629069D02*
X99557247Y-47629069D01*
X99462009Y-47629069D02*
X99509628Y-47581450D01*
X99509628Y-47581450D02*
X99557247Y-47486212D01*
X99557247Y-47486212D02*
X99557247Y-47343355D01*
X99557247Y-47343355D02*
X99509628Y-47248117D01*
X99509628Y-47248117D02*
X99414390Y-47200498D01*
X99414390Y-47200498D02*
X98890580Y-47200498D01*
X99414390Y-47200498D02*
X99509628Y-47152879D01*
X99509628Y-47152879D02*
X99557247Y-47057641D01*
X99557247Y-47057641D02*
X99557247Y-46914784D01*
X99557247Y-46914784D02*
X99509628Y-46819545D01*
X99509628Y-46819545D02*
X99414390Y-46771926D01*
X99414390Y-46771926D02*
X98890580Y-46771926D01*
X98890580Y-46295736D02*
X99890580Y-46295736D01*
X99509628Y-46295736D02*
X99557247Y-46200498D01*
X99557247Y-46200498D02*
X99557247Y-46010022D01*
X99557247Y-46010022D02*
X99509628Y-45914784D01*
X99509628Y-45914784D02*
X99462009Y-45867165D01*
X99462009Y-45867165D02*
X99366771Y-45819546D01*
X99366771Y-45819546D02*
X99081057Y-45819546D01*
X99081057Y-45819546D02*
X98985819Y-45867165D01*
X98985819Y-45867165D02*
X98938200Y-45914784D01*
X98938200Y-45914784D02*
X98890580Y-46010022D01*
X98890580Y-46010022D02*
X98890580Y-46200498D01*
X98890580Y-46200498D02*
X98938200Y-46295736D01*
X98890580Y-45248117D02*
X98938200Y-45343355D01*
X98938200Y-45343355D02*
X99033438Y-45390974D01*
X99033438Y-45390974D02*
X99890580Y-45390974D01*
X98938200Y-44486212D02*
X98890580Y-44581450D01*
X98890580Y-44581450D02*
X98890580Y-44771926D01*
X98890580Y-44771926D02*
X98938200Y-44867164D01*
X98938200Y-44867164D02*
X99033438Y-44914783D01*
X99033438Y-44914783D02*
X99414390Y-44914783D01*
X99414390Y-44914783D02*
X99509628Y-44867164D01*
X99509628Y-44867164D02*
X99557247Y-44771926D01*
X99557247Y-44771926D02*
X99557247Y-44581450D01*
X99557247Y-44581450D02*
X99509628Y-44486212D01*
X99509628Y-44486212D02*
X99414390Y-44438593D01*
X99414390Y-44438593D02*
X99319152Y-44438593D01*
X99319152Y-44438593D02*
X99223914Y-44914783D01*
X99176295Y-43295735D02*
X99176295Y-42819545D01*
X98890580Y-43390973D02*
X99890580Y-43057640D01*
X99890580Y-43057640D02*
X98890580Y-42724307D01*
X93200980Y-48860803D02*
X93677171Y-49194136D01*
X93200980Y-49432231D02*
X94200980Y-49432231D01*
X94200980Y-49432231D02*
X94200980Y-49051279D01*
X94200980Y-49051279D02*
X94153361Y-48956041D01*
X94153361Y-48956041D02*
X94105742Y-48908422D01*
X94105742Y-48908422D02*
X94010504Y-48860803D01*
X94010504Y-48860803D02*
X93867647Y-48860803D01*
X93867647Y-48860803D02*
X93772409Y-48908422D01*
X93772409Y-48908422D02*
X93724790Y-48956041D01*
X93724790Y-48956041D02*
X93677171Y-49051279D01*
X93677171Y-49051279D02*
X93677171Y-49432231D01*
X93867647Y-48003660D02*
X93200980Y-48003660D01*
X93867647Y-48432231D02*
X93343838Y-48432231D01*
X93343838Y-48432231D02*
X93248600Y-48384612D01*
X93248600Y-48384612D02*
X93200980Y-48289374D01*
X93200980Y-48289374D02*
X93200980Y-48146517D01*
X93200980Y-48146517D02*
X93248600Y-48051279D01*
X93248600Y-48051279D02*
X93296219Y-48003660D01*
X93200980Y-47527469D02*
X93867647Y-47527469D01*
X93772409Y-47527469D02*
X93820028Y-47479850D01*
X93820028Y-47479850D02*
X93867647Y-47384612D01*
X93867647Y-47384612D02*
X93867647Y-47241755D01*
X93867647Y-47241755D02*
X93820028Y-47146517D01*
X93820028Y-47146517D02*
X93724790Y-47098898D01*
X93724790Y-47098898D02*
X93200980Y-47098898D01*
X93724790Y-47098898D02*
X93820028Y-47051279D01*
X93820028Y-47051279D02*
X93867647Y-46956041D01*
X93867647Y-46956041D02*
X93867647Y-46813184D01*
X93867647Y-46813184D02*
X93820028Y-46717945D01*
X93820028Y-46717945D02*
X93724790Y-46670326D01*
X93724790Y-46670326D02*
X93200980Y-46670326D01*
X93200980Y-46194136D02*
X94200980Y-46194136D01*
X93820028Y-46194136D02*
X93867647Y-46098898D01*
X93867647Y-46098898D02*
X93867647Y-45908422D01*
X93867647Y-45908422D02*
X93820028Y-45813184D01*
X93820028Y-45813184D02*
X93772409Y-45765565D01*
X93772409Y-45765565D02*
X93677171Y-45717946D01*
X93677171Y-45717946D02*
X93391457Y-45717946D01*
X93391457Y-45717946D02*
X93296219Y-45765565D01*
X93296219Y-45765565D02*
X93248600Y-45813184D01*
X93248600Y-45813184D02*
X93200980Y-45908422D01*
X93200980Y-45908422D02*
X93200980Y-46098898D01*
X93200980Y-46098898D02*
X93248600Y-46194136D01*
X93200980Y-45146517D02*
X93248600Y-45241755D01*
X93248600Y-45241755D02*
X93343838Y-45289374D01*
X93343838Y-45289374D02*
X94200980Y-45289374D01*
X93248600Y-44384612D02*
X93200980Y-44479850D01*
X93200980Y-44479850D02*
X93200980Y-44670326D01*
X93200980Y-44670326D02*
X93248600Y-44765564D01*
X93248600Y-44765564D02*
X93343838Y-44813183D01*
X93343838Y-44813183D02*
X93724790Y-44813183D01*
X93724790Y-44813183D02*
X93820028Y-44765564D01*
X93820028Y-44765564D02*
X93867647Y-44670326D01*
X93867647Y-44670326D02*
X93867647Y-44479850D01*
X93867647Y-44479850D02*
X93820028Y-44384612D01*
X93820028Y-44384612D02*
X93724790Y-44336993D01*
X93724790Y-44336993D02*
X93629552Y-44336993D01*
X93629552Y-44336993D02*
X93534314Y-44813183D01*
X93724790Y-42813183D02*
X93677171Y-42670326D01*
X93677171Y-42670326D02*
X93629552Y-42622707D01*
X93629552Y-42622707D02*
X93534314Y-42575088D01*
X93534314Y-42575088D02*
X93391457Y-42575088D01*
X93391457Y-42575088D02*
X93296219Y-42622707D01*
X93296219Y-42622707D02*
X93248600Y-42670326D01*
X93248600Y-42670326D02*
X93200980Y-42765564D01*
X93200980Y-42765564D02*
X93200980Y-43146516D01*
X93200980Y-43146516D02*
X94200980Y-43146516D01*
X94200980Y-43146516D02*
X94200980Y-42813183D01*
X94200980Y-42813183D02*
X94153361Y-42717945D01*
X94153361Y-42717945D02*
X94105742Y-42670326D01*
X94105742Y-42670326D02*
X94010504Y-42622707D01*
X94010504Y-42622707D02*
X93915266Y-42622707D01*
X93915266Y-42622707D02*
X93820028Y-42670326D01*
X93820028Y-42670326D02*
X93772409Y-42717945D01*
X93772409Y-42717945D02*
X93724790Y-42813183D01*
X93724790Y-42813183D02*
X93724790Y-43146516D01*
D11*
X20063385Y-42578157D02*
X20591316Y-42796833D01*
X20710034Y-41763616D02*
X20327351Y-42687495D01*
X21809891Y-42219191D02*
X21319701Y-42531573D01*
X21281960Y-42000515D02*
X20899277Y-42924395D01*
X20899277Y-42924395D02*
X21251231Y-43070179D01*
X21251231Y-43070179D02*
X21357442Y-43062631D01*
X21357442Y-43062631D02*
X21419659Y-43036859D01*
X21419659Y-43036859D02*
X21500100Y-42967094D01*
X21500100Y-42967094D02*
X21554769Y-42835111D01*
X21554769Y-42835111D02*
X21547221Y-42728899D01*
X21547221Y-42728899D02*
X21521449Y-42666682D01*
X21521449Y-42666682D02*
X21451684Y-42586242D01*
X21451684Y-42586242D02*
X21099730Y-42440458D01*
X22645782Y-42565429D02*
X22205840Y-42383199D01*
X22205840Y-42383199D02*
X21823156Y-43307078D01*
X23437679Y-42893443D02*
X22909748Y-42674767D01*
X23173713Y-42784105D02*
X22791030Y-43707985D01*
X22791030Y-43707985D02*
X22757711Y-43539556D01*
X22757711Y-43539556D02*
X22706168Y-43415121D01*
X22706168Y-43415121D02*
X22636403Y-43334681D01*
D12*
X48630885Y-42145562D02*
X49538028Y-42145562D01*
X49538028Y-42145562D02*
X49719456Y-42085085D01*
X49719456Y-42085085D02*
X49840409Y-41964133D01*
X49840409Y-41964133D02*
X49900885Y-41782704D01*
X49900885Y-41782704D02*
X49900885Y-41661752D01*
X49900885Y-43415562D02*
X49900885Y-42689847D01*
X49900885Y-43052704D02*
X48630885Y-43052704D01*
X48630885Y-43052704D02*
X48812313Y-42931752D01*
X48812313Y-42931752D02*
X48933266Y-42810800D01*
X48933266Y-42810800D02*
X48993742Y-42689847D01*
D11*
X134969026Y-43890215D02*
X135496958Y-43671539D01*
X134850309Y-42856997D02*
X135232992Y-43780877D01*
X135950165Y-42401421D02*
X135824436Y-42968925D01*
X135422234Y-42620098D02*
X135804918Y-43543977D01*
X135804918Y-43543977D02*
X136156872Y-43398193D01*
X136156872Y-43398193D02*
X136226637Y-43317753D01*
X136226637Y-43317753D02*
X136252408Y-43255536D01*
X136252408Y-43255536D02*
X136259957Y-43149324D01*
X136259957Y-43149324D02*
X136205288Y-43017341D01*
X136205288Y-43017341D02*
X136124847Y-42947576D01*
X136124847Y-42947576D02*
X136062630Y-42921804D01*
X136062630Y-42921804D02*
X135956418Y-42914256D01*
X135956418Y-42914256D02*
X135604464Y-43060040D01*
X136874045Y-42018738D02*
X136748315Y-42586242D01*
X136346114Y-42237414D02*
X136728797Y-43161294D01*
X136728797Y-43161294D02*
X137080751Y-43015510D01*
X137080751Y-43015510D02*
X137150517Y-42935069D01*
X137150517Y-42935069D02*
X137176288Y-42872852D01*
X137176288Y-42872852D02*
X137183836Y-42766641D01*
X137183836Y-42766641D02*
X137129167Y-42634658D01*
X137129167Y-42634658D02*
X137048727Y-42564892D01*
X137048727Y-42564892D02*
X136986510Y-42539121D01*
X136986510Y-42539121D02*
X136880298Y-42531573D01*
X136880298Y-42531573D02*
X136528344Y-42677357D01*
X137753930Y-41654278D02*
X137225999Y-41872954D01*
X137489965Y-41763616D02*
X137872648Y-42687495D01*
X137872648Y-42687495D02*
X137729990Y-42591959D01*
X137729990Y-42591959D02*
X137605556Y-42540416D01*
X137605556Y-42540416D02*
X137499344Y-42532868D01*
%TO.C,TRL1*%
X17151461Y-47657904D02*
X21610104Y-49504735D01*
X21610104Y-49504735D02*
X23651337Y-44576761D01*
X23651337Y-44576761D02*
X19192695Y-42729931D01*
X19192695Y-42729931D02*
X17151461Y-47657904D01*
X18775316Y-48690314D02*
G75*
G03*
X18775316Y-48690314I-126999J0D01*
G01*
D13*
%TO.C,T6*%
X70390000Y-27298400D02*
X74390000Y-27298400D01*
X74390000Y-27298400D02*
X74390000Y-23298400D01*
X69469000Y-25933400D02*
X69469000Y-25552400D01*
X68453000Y-25552400D02*
X69469000Y-25552400D01*
X68453000Y-25552400D02*
X68453000Y-25044400D01*
X69977000Y-25298400D02*
X69469000Y-25933400D01*
X68453000Y-25044400D02*
X69469000Y-25044400D01*
X69469000Y-25044400D02*
X69469000Y-24663400D01*
X69469000Y-24663400D02*
X69977000Y-25298400D01*
X70390000Y-23298400D02*
X70390000Y-27298400D01*
X74390000Y-23298400D02*
X70390000Y-23298400D01*
%TO.C,T5*%
X70390000Y-24860000D02*
X74390000Y-24860000D01*
X74390000Y-24860000D02*
X74390000Y-20860000D01*
X69469000Y-23495000D02*
X69469000Y-23114000D01*
X68453000Y-23114000D02*
X69469000Y-23114000D01*
X68453000Y-23114000D02*
X68453000Y-22606000D01*
X69977000Y-22860000D02*
X69469000Y-23495000D01*
X68453000Y-22606000D02*
X69469000Y-22606000D01*
X69469000Y-22606000D02*
X69469000Y-22225000D01*
X69469000Y-22225000D02*
X69977000Y-22860000D01*
X70390000Y-20860000D02*
X70390000Y-24860000D01*
X74390000Y-20860000D02*
X70390000Y-20860000D01*
%TO.C,T1*%
X101291350Y-34017200D02*
X97291350Y-34017200D01*
X97291350Y-34017200D02*
X97291350Y-38017200D01*
X102212350Y-35382200D02*
X102212350Y-35763200D01*
X103228350Y-35763200D02*
X102212350Y-35763200D01*
X103228350Y-35763200D02*
X103228350Y-36271200D01*
X101704350Y-36017200D02*
X102212350Y-35382200D01*
X103228350Y-36271200D02*
X102212350Y-36271200D01*
X102212350Y-36271200D02*
X102212350Y-36652200D01*
X102212350Y-36652200D02*
X101704350Y-36017200D01*
X101291350Y-38017200D02*
X101291350Y-34017200D01*
X97291350Y-38017200D02*
X101291350Y-38017200D01*
%TO.C,T4*%
X91573600Y-42182800D02*
X95573600Y-42182800D01*
X95573600Y-42182800D02*
X95573600Y-38182800D01*
X90652600Y-40817800D02*
X90652600Y-40436800D01*
X89636600Y-40436800D02*
X90652600Y-40436800D01*
X89636600Y-40436800D02*
X89636600Y-39928800D01*
X91160600Y-40182800D02*
X90652600Y-40817800D01*
X89636600Y-39928800D02*
X90652600Y-39928800D01*
X90652600Y-39928800D02*
X90652600Y-39547800D01*
X90652600Y-39547800D02*
X91160600Y-40182800D01*
X91573600Y-38182800D02*
X91573600Y-42182800D01*
X95573600Y-38182800D02*
X91573600Y-38182800D01*
%TO.C,T2*%
X101291350Y-38182800D02*
X97291350Y-38182800D01*
X97291350Y-38182800D02*
X97291350Y-42182800D01*
X102212350Y-39547800D02*
X102212350Y-39928800D01*
X103228350Y-39928800D02*
X102212350Y-39928800D01*
X103228350Y-39928800D02*
X103228350Y-40436800D01*
X101704350Y-40182800D02*
X102212350Y-39547800D01*
X103228350Y-40436800D02*
X102212350Y-40436800D01*
X102212350Y-40436800D02*
X102212350Y-40817800D01*
X102212350Y-40817800D02*
X101704350Y-40182800D01*
X101291350Y-42182800D02*
X101291350Y-38182800D01*
X97291350Y-42182800D02*
X101291350Y-42182800D01*
D11*
%TO.C,TRR1*%
X136589896Y-49504735D02*
X141048539Y-47657904D01*
X141048539Y-47657904D02*
X139007305Y-42729931D01*
X139007305Y-42729931D02*
X134548663Y-44576761D01*
X134548663Y-44576761D02*
X136589896Y-49504735D01*
X138505356Y-49176321D02*
G75*
G03*
X138505356Y-49176321I-127000J0D01*
G01*
D13*
%TO.C,T3*%
X91573600Y-38017200D02*
X95573600Y-38017200D01*
X95573600Y-38017200D02*
X95573600Y-34017200D01*
X90652600Y-36652200D02*
X90652600Y-36271200D01*
X89636600Y-36271200D02*
X90652600Y-36271200D01*
X89636600Y-36271200D02*
X89636600Y-35763200D01*
X91160600Y-36017200D02*
X90652600Y-36652200D01*
X89636600Y-35763200D02*
X90652600Y-35763200D01*
X90652600Y-35763200D02*
X90652600Y-35382200D01*
X90652600Y-35382200D02*
X91160600Y-36017200D01*
X91573600Y-34017200D02*
X91573600Y-38017200D01*
X95573600Y-34017200D02*
X91573600Y-34017200D01*
%TD*%
M02*
